<?xml version="1.0" encoding="UTF-8"?>
<svg width="32px" height="32px" viewBox="0 0 32 32" version="1.1" xmlns="http://www.w3.org/2000/svg" xmlns:xlink="http://www.w3.org/1999/xlink">
    <!-- Generator: Sketch 55.1 (78136) - https://sketchapp.com -->
    <title>icon-monitoring-32-color</title>
    <desc>Created with Sketch.</desc>
    <g id="icon-monitoring-32-color" stroke="none" stroke-width="1" fill="none" fill-rule="evenodd">
        <g id="Group-9" transform="translate(0.000000, 1.000000)">
            <path d="M1.959,14.1934 C-0.81,10.5404 -0.292,5.2924 3.136,2.2454 C6.782,-0.9946 12.386,-0.6656 15.627,2.9804 L16,3.3994 L16.373,2.9804 C17.943,1.2144 20.107,0.1644 22.467,0.0254 C24.829,-0.1016 27.099,0.6744 28.864,2.2464 C32.105,5.1254 32.787,9.8794 30.486,13.5484 L28.809,12.4984 C30.595,9.6494 30.065,5.9604 27.55,3.7254 C26.178,2.5054 24.414,1.8884 22.583,2.0024 C20.751,2.1094 19.071,2.9234 17.852,4.2954 L16,6.3784 L14.148,4.2954 C11.631,1.4654 7.282,1.2094 4.45,3.7254 C1.79,6.0894 1.389,10.1634 3.537,12.9984 L1.959,14.1934 Z" id="Fill-1" fill="#535966"></path>
            <polygon id="Fill-3" fill="#535966" points="16 30.0176 8.341 21.6016 9.804 20.2696 16 27.0766 22.196 20.2696 23.659 21.6016"></polygon>
            <polygon id="Fill-5" fill="#00BFB3" points="16.043 23.3223 12 15.2363 10.618 18.0003 0 18.0003 0 16.0003 9.382 16.0003 12 10.7633 15.957 18.6773 21.027 7.5243 24.659 16.0003 32 16.0003 32 18.0003 23.341 18.0003 20.973 12.4753"></polygon>
        </g>
    </g>
</svg>