<?xml version="1.0" encoding="UTF-8"?>
<svg width="202px" height="109px" viewBox="0 0 202 109" version="1.1" xmlns="http://www.w3.org/2000/svg" xmlns:xlink="http://www.w3.org/1999/xlink">
    <!-- Generator: Sketch 64 (93537) - https://sketch.com -->
    <title>post copy 2</title>
    <desc>Created with Sketch.</desc>
    <g id="post-copy-2" stroke="none" stroke-width="1" fill="none" fill-rule="evenodd">
        <g id="logoparade-kroger" transform="translate(47.000000, 23.000000)" fill="#134B97" fill-rule="nonzero">
            <path d="M30.8048832,26.4548592 L30.8048832,23.4810576 L25.4034144,23.4810576 L25.4034144,41.7157776 L30.9373344,41.7157776 L30.9373344,31.6104768 C31.8856608,29.49912 33.4856592,28.4431392 35.7373296,28.4425344 C36.3942661,28.4393758 37.0497553,28.5044383 37.6932528,28.6366752 L37.6932528,23.4003168 C37.2184848,23.2279488 36.641808,23.1417648 35.9632224,23.1417648 C34.086528,23.1417648 32.3670816,24.2461296 30.8048832,26.4548592 Z" id="Path"></path>
            <path d="M55.393632,39.308976 C57.1771872,37.494576 58.0689648,35.250768 58.0689648,32.577552 C58.0689648,29.9267136 57.1771872,27.690768 55.393632,25.8697152 C53.6100768,24.0486624 51.3956016,23.138136 48.7502064,23.138136 C46.1048112,23.138136 43.89336,24.052896 42.1158528,25.882416 C40.3383456,27.711936 39.4492896,29.943648 39.4486848,32.577552 C39.4486848,35.211456 40.3377408,37.4455872 42.1158528,39.2799456 C43.8939648,41.114304 46.105416,42.0317856 48.7502064,42.0324 C51.3956016,42.0348096 53.6100768,41.1270048 55.393632,39.308976 Z M45.8253936,35.7273504 C45.0657648,34.8721632 44.6859504,33.82344 44.6859504,32.5811808 C44.6859504,31.3600896 45.0657648,30.3195312 45.8253936,29.4595056 C46.5850224,28.59948 47.5602624,28.1691648 48.7511136,28.16856 C49.94136,28.16856 50.9193216,28.5988752 51.6849984,29.4595056 C52.4506752,30.320136 52.8332112,31.3606944 52.8326079,32.5811808 C52.8326079,33.8131584 52.4500704,34.85916 51.6849984,35.7191856 C50.9199264,36.5792112 49.9419648,37.009224 48.7511136,37.009224 C47.5602624,37.009224 46.5850224,36.5819328 45.8253936,35.7273504 Z" id="Shape"></path>
            <path d="M90.3271824,23.1417648 C87.7628304,23.1417648 85.5915984,24.036264 83.8134864,25.8252624 C82.0353744,27.6142608 81.1463184,29.8662336 81.1463184,32.5811808 C81.1463184,35.3632608 81.9975744,37.6339824 83.7000864,39.3933456 C85.4025984,41.1527088 87.6331008,42.0336 90.3915936,42.0360192 C92.2447008,42.0360192 93.828672,41.6900736 95.1435072,40.9981824 C96.5111989,40.2646527 97.73724,39.2932816 98.7641424,38.129616 L94.7561328,35.8879248 C93.7219248,36.8314128 92.3750352,37.3031568 90.715464,37.3031568 C88.3343664,37.3031568 86.9336496,36.247176 86.5133136,34.1352144 L99.0562608,34.1352144 C99.0591066,33.9865571 99.070009,33.8381634 99.08892,33.6906864 C99.110088,33.5025936 99.1261152,33.3302256 99.1370016,33.1735824 C99.147888,33.017544 99.1533312,32.886 99.1533312,32.7780432 C99.1533312,30.1060368 98.3289888,27.8325936 96.680304,25.9577136 C95.0316192,24.0828336 92.913912,23.144184 90.3271824,23.1417648 Z M86.5777248,30.8529648 C86.8468608,29.8411344 87.3046944,29.0603376 87.9512256,28.5105744 C88.5788193,27.9676259 89.3840064,27.6741555 90.2137824,27.6859296 C91.0326816,27.6859296 91.7735616,28.0049616 92.4364224,28.6430256 C93.0992832,29.2810896 93.4954272,30.0180384 93.6248544,30.853872 L86.5777248,30.8529648 Z" id="Shape"></path>
            <path d="M112.041014,23.1417648 C110.166134,23.1417648 108.447595,24.246432 106.885397,26.4557664 L106.885397,23.4810576 L101.48665,23.4810576 L101.48665,41.7157776 L107.014219,41.7157776 L107.014219,31.6104768 C107.962546,29.49912 109.562544,28.4431392 111.814214,28.4425344 C112.471152,28.4393627 113.126642,28.5044253 113.770138,28.6366752 L113.770138,23.4003168 C113.29295,23.2279488 112.716576,23.1417648 112.041014,23.1417648 Z" id="Path"></path>
            <path d="M20.0781504,20.0409552 C20.1601202,19.4137524 20.2091762,18.7826861 20.2251168,18.1503504 L20.2323744,18.1503504 C20.2323744,11.0170368 26.0384544,5.2136784 33.1690464,5.2136784 C40.2996384,5.2136784 46.1057184,11.0197584 46.1057184,18.1503504 L51.3193968,18.1503504 C51.3193968,8.14212 43.1772768,4.47641924e-15 33.1690464,4.47641924e-15 C23.265144,4.47641924e-15 15.1937856,7.974288 15.0250464,17.8391808 L15.0159744,17.8391808 C15.0120944,18.3528959 14.9760381,18.8658636 14.9080176,19.3750704 C14.669424,21.2275728 13.9781376,23.8983696 12.0403584,26.100144 C10.5244272,27.823824 8.450568,28.9904832 5.8523472,29.5983072 L5.8523472,17.4844656 L0.0018144,17.4844656 L0.0018144,41.713056 L5.8532544,41.713056 L5.8532544,34.9244784 C7.57181169,34.6358096 9.24367935,34.1170699 10.8238032,33.3822384 L16.1000784,41.7121488 L23.0991264,41.7121488 L15.3779472,30.159864 C15.5739024,29.9593728 15.767136,29.7552528 15.9540192,29.5438752 C18.7618032,26.3523456 19.7461152,22.616496 20.0781504,20.0409552 Z" id="Path"></path>
            <path d="M78.8111856,47.0446704 L78.8111856,23.4810576 L73.542168,23.4810576 L73.542168,25.0332768 C72.3029328,23.7722688 70.7352912,23.1417648 68.8392432,23.1417648 C66.5004816,23.1417648 64.4744016,24.021144 62.7610032,25.7799024 C61.0476048,27.5386608 60.1909056,29.719872 60.1909056,32.323536 C60.1909056,34.9138944 61.0678656,37.0730304 62.8217856,38.800944 C64.5757056,40.5288576 66.5800128,41.392512 68.8347072,41.3919072 C70.6660416,41.3810208 72.255456,40.8766176 73.6029504,39.8786976 C73.6029504,39.9149856 73.6029504,45.373608 73.6029504,47.0455776 L73.6029504,47.0455776 C73.547835,53.1473001 68.5858249,58.0646918 62.4838536,58.0646918 C56.3818823,58.0646918 51.4198722,53.1473001 51.3647568,47.0455776 L46.1519856,47.0455776 C46.1519856,56.051352 53.4785328,63.3751776 62.4815856,63.3751776 C71.3249712,63.3751776 78.5444688,56.3089968 78.8021136,47.5263936 L78.808464,47.5263936 L78.808464,47.2778208 C78.808464,47.1988944 78.8148144,47.1217824 78.8148144,47.042856 L78.8111856,47.0446704 Z M72.4517136,35.4143664 C71.7029712,36.2405232 70.7195664,36.6536016 69.5014992,36.6536016 C68.3052048,36.6536016 67.3272432,36.2405232 66.5676144,35.4143664 C65.8079856,34.5882096 65.4281712,33.5600496 65.4281712,32.3298864 C65.4281712,31.1009328 65.8079856,30.0727728 66.5676144,29.2454064 C67.3272432,28.41804 68.3052048,28.0046592 69.5014992,28.0052627 C70.7080752,28.0052627 71.6887584,28.4186448 72.4435488,29.2454064 C73.1983392,30.072168 73.575432,31.100328 73.5748287,32.3298864 C73.575432,33.5594448 73.2007584,34.5876048 72.4508064,35.4143664 L72.4517136,35.4143664 Z" id="Shape"></path>
            <path d="M82.8826992,55.5378768 C82.8595108,56.6272989 81.969724,57.4983481 80.8800552,57.4983481 C79.7903864,57.4983481 78.9005996,56.6272989 78.8774112,55.5378768 C78.8774112,54.4564944 79.7691888,53.588304 80.885952,53.588304 C82.0027152,53.588304 82.8826992,54.459216 82.8826992,55.5378768 Z M79.3763712,55.5378768 C79.3763712,56.40516 80.0186688,57.094632 80.8977456,57.094632 C81.7532352,57.094632 82.3837392,56.40516 82.3837392,55.552392 C82.3837392,54.699624 81.7541424,53.9838432 80.885952,53.9838432 C80.0177616,53.9838432 79.3772784,54.6823872 79.3772784,55.5378768 L79.3763712,55.5378768 Z M80.5765968,56.5602912 L80.1229968,56.5602912 L80.1229968,54.6107184 C80.370047,54.5674094 80.6206524,54.5476648 80.8714368,54.5517504 C81.23976,54.5517504 81.4066848,54.6107184 81.5491152,54.6941808 C81.6739613,54.800867 81.7439682,54.9582157 81.7396272,55.1223792 C81.7396272,55.3364784 81.5736096,55.502496 81.3359232,55.5759792 L81.3359232,55.5995664 C81.525528,55.6712352 81.6325776,55.8136656 81.6924528,56.0749392 C81.752328,56.3715936 81.7831728,56.4904368 81.8348832,56.5621056 L81.3477168,56.5621056 C81.2878416,56.4904368 81.2569968,56.3126256 81.1934928,56.0867328 C81.158112,55.8726336 81.0392688,55.7773776 80.7888816,55.7773776 L80.5747824,55.7773776 L80.5765968,56.5602912 Z M80.5883904,55.4553216 L80.8024896,55.4553216 C81.0519696,55.4553216 81.2560896,55.3718592 81.2560896,55.1704608 C81.2560896,54.9890208 81.1254528,54.8728992 80.840592,54.8728992 C80.7567962,54.8709926 80.6730656,54.8789089 80.591112,54.8964864 L80.5883904,55.4553216 Z" id="Shape"></path>
        </g>
    </g>
</svg>