<svg width="172" height="90" viewBox="0 0 172 90" fill="none" xmlns="http://www.w3.org/2000/svg">
<g id="Generic / Midnight Background / Color / pattern-footer-cta-module-bottom-left-172x80-color-midnight-bg">
<g clip-path="url(#clip0)">
<g id="Group 2">
<g id="Group">
<path id="Shape" fill-rule="evenodd" clip-rule="evenodd" d="M146.781 0C160.865 0 172.281 11.3421 172.281 25.3333C172.281 39.3245 160.865 50.6667 146.781 50.6667C132.698 50.6667 121.281 39.3245 121.281 25.3333C121.281 11.3421 132.698 0 146.781 0ZM146.781 39.7386C154.789 39.7386 161.281 33.2891 161.281 25.3333C161.281 17.3775 154.789 10.9281 146.781 10.9281C138.773 10.9281 132.281 17.3775 132.281 25.3333C132.281 33.2891 138.773 39.7386 146.781 39.7386Z" fill="#182C6B"/>
<path id="Path" d="M136.528 15.1474C130.94 20.6989 130.866 29.6544 136.307 35.2956L136.528 35.5194L128.75 43.2468C118.891 33.4524 118.793 17.6335 128.454 7.71866L128.75 7.42003L136.528 15.1474Z" fill="#294492"/>
</g>
</g>
</g>
</g>
<defs>
<clipPath id="clip0">
<rect width="172" height="90" fill="white"/>
</clipPath>
</defs>
</svg>
