<?xml version="1.0" encoding="UTF-8"?>
<svg width="32px" height="32px" viewBox="0 0 32 32" version="1.1" xmlns="http://www.w3.org/2000/svg" xmlns:xlink="http://www.w3.org/1999/xlink">
    <!-- Generator: Sketch 55.1 (78136) - https://sketchapp.com -->
    <title>icon-sql-32-color</title>
    <desc>Created with Sketch.</desc>
    <g id="icon-sql-32-color" stroke="none" stroke-width="1" fill="none" fill-rule="evenodd">
        <g id="Group" transform="translate(1.000000, 1.000000)" fill-rule="nonzero">
            <polygon id="Stroke-1" fill="#00BFB2" points="17 9 17 7 25 7 25 9"></polygon>
            <polygon id="Stroke-2" fill="#00BFB2" points="5 9 5 7 13 7 13 9"></polygon>
            <polygon id="Stroke-3" fill="#00BFB2" points="5 14 5 12 13 12 13 14"></polygon>
            <polygon id="Stroke-4" fill="#00BFB2" points="17 14 17 12 25 12 25 14"></polygon>
            <polygon id="Stroke-5" fill="#00BFB2" points="5 19 5 17 13 17 13 19"></polygon>
            <polygon id="Stroke-6" fill="#00BFB2" points="17 19 17 17 25 17 25 19"></polygon>
            <polygon id="Stroke-7" fill="#00BFB2" points="17 24 17 22 25 22 25 24"></polygon>
            <polygon id="Stroke-8" fill="#00BFB2" points="5 24 5 22 13 22 13 24"></polygon>
            <path d="M3,2 C2.44771525,2 2,2.44771525 2,3 L2,27 C2,27.5522847 2.44771525,28 3,28 L27,28 C27.5522847,28 28,27.5522847 28,27 L28,3 C28,2.44771525 27.5522847,2 27,2 L3,2 Z M3,0 L27,0 C28.6568542,0 30,1.34314575 30,3 L30,27 C30,28.6568542 28.6568542,30 27,30 L3,30 C1.34314575,30 0,28.6568542 0,27 L0,3 C0,1.34314575 1.34314575,0 3,0 Z" id="Rectangle" fill="#535966"></path>
        </g>
    </g>
</svg>