<?xml version="1.0" encoding="UTF-8"?>
<svg width="16px" height="11px" viewBox="0 0 16 11" version="1.1" xmlns="http://www.w3.org/2000/svg" xmlns:xlink="http://www.w3.org/1999/xlink">
    <!-- Generator: Sketch 60.1 (88133) - https://sketch.com -->
    <title>Group 4</title>
    <desc>Created with Sketch.</desc>
    <g id="Page-1" stroke="none" stroke-width="1" fill="none" fill-rule="evenodd">
        <g id="footer-5-responsive" transform="translate(-1101.000000, -482.000000)">
            <g id="Group-4" transform="translate(1101.000000, 479.000000)">
                <path d="M6.34818968,10.5286342 L6.34745347,6.13428718 L10.6707236,8.33911637 L6.34818968,10.5286342 Z M15.8402113,5.37302397 C15.8402113,5.37302397 15.6838687,4.2952759 15.204158,3.82067111 C14.5957361,3.19774562 13.9137559,3.19466804 13.601008,3.15819649 C11.3620396,3 8.00346958,3 8.00346958,3 L7.99651476,3 C7.99651476,3 4.63802304,3 2.39897636,3.15819649 C2.08621282,3.19466804 1.40448324,3.19774562 0.795841985,3.82067111 C0.316115636,4.2952759 0.160007989,5.37302397 0.160007989,5.37302397 C0.160007989,5.37302397 0,6.63864186 0,7.90427506 L0,9.0907947 C0,10.3563973 0.160007989,11.6220152 0.160007989,11.6220152 C0.160007989,11.6220152 0.316115636,12.6997785 0.795841985,13.1743833 C1.40448324,13.7972935 2.20397494,13.7776032 2.5600495,13.8428906 C3.84008208,13.9628701 8.00000783,14 8.00000783,14 C8.00000783,14 11.3620396,13.9950391 13.601008,13.8368426 C13.9137559,13.8003864 14.5957361,13.7972935 15.204158,13.1743833 C15.6838687,12.6997785 15.8402113,11.6220152 15.8402113,11.6220152 C15.8402113,11.6220152 16,10.3563973 16,9.0907947 L16,7.90427506 C16,6.63864186 15.8402113,5.37302397 15.8402113,5.37302397 L15.8402113,5.37302397 Z" id="Fill-1-Copy-2" fill="#FFFFFF"></path>
                <rect id="Rectangle" x="0" y="0" width="16" height="16"></rect>
            </g>
        </g>
    </g>
</svg>