<svg xmlns="http://www.w3.org/2000/svg" width="32" height="32" viewBox="0 0 32 32">
  <g fill="none" fill-rule="evenodd">
    <polygon fill="#535966" fill-rule="nonzero" points="14 20 25 20 25 18 14 18"/>
    <polygon fill="#535966" fill-rule="nonzero" points="14 25 25 25 25 23 14 23"/>
    <polygon fill="#535966" fill-rule="nonzero" points="7 20 11 20 11 18 7 18" transform="matrix(-1 0 0 1 18 0)"/>
    <polygon fill="#535966" fill-rule="nonzero" points="7 25 11 25 11 23 7 23" transform="matrix(-1 0 0 1 18 0)"/>
    <path fill="#00BFB2" fill-rule="nonzero" d="M7.5,14 C11.0898509,14 14,11.0898509 14,7.5 C14,3.91014913 11.0898509,1 7.5,1 C3.91014913,1 1,3.91014913 1,7.5 C1,11.0898509 3.91014913,14 7.5,14 Z M7.5,12 C5.01471863,12 3,9.98528137 3,7.5 C3,5.01471863 5.01471863,3 7.5,3 C9.98528137,3 12,5.01471863 12,7.5 C12,9.98528137 9.98528137,12 7.5,12 Z"/>
    <polygon fill="#00BFB2" fill-rule="nonzero" points="12.772 10.516 12.772 16.212 14.772 16.212 14.772 10.516" transform="rotate(-45 13.772 13.364)"/>
    <path fill="#535966" fill-rule="nonzero" d="M16,3 L27,3 C28.1045695,3 29,3.8954305 29,5 L29,27.1247919 C29,28.2293614 28.1045695,29.1247919 27,29.1247919 L26.9900138,29.124767 L4.99001378,29.0149172 C3.88935587,29.0094214 3,28.1156138 3,27.0149421 L3,16 L1,16 L1,27.0149421 C1,29.2162854 2.77871173,31.0039007 4.98002756,31.0148923 L26.9800276,31.1247919 L27,31.1247919 C29.209139,31.1247919 31,29.3339309 31,27.1247919 L31,5 C31,2.790861 29.209139,1 27,1 L16,1 L16,3 Z"/>
  </g>
</svg>