<svg width="170" height="170" viewBox="0 0 170 170" fill="none" xmlns="http://www.w3.org/2000/svg">
<g id="Generic / Blue Background / patterns-hero-2-column-generic-top-right-170x170-mono-blue">
<g clip-path="url(#clip0)">
<g id="Group 2">
<path id="Oval" fill-rule="evenodd" clip-rule="evenodd" d="M42.4688 13.4687C52.4271 3.51035 68.5729 3.51035 78.5312 13.4687C88.4896 23.4271 88.4896 39.5728 78.5312 49.5312C68.5729 59.4895 52.4271 59.4895 42.4688 49.5312C32.5104 39.5728 32.5104 23.4271 42.4688 13.4687ZM70.753 41.753C76.4157 36.0904 76.4157 26.9095 70.753 21.2469C65.0904 15.5843 55.9096 15.5843 50.247 21.2469C44.5843 26.9095 44.5843 36.0904 50.247 41.753C55.9096 47.4156 65.0904 47.4156 70.753 41.753Z" fill="#006ABB"/>
<path id="Path" d="M50.2469 21.2469C44.6588 26.835 44.5853 35.8494 50.0263 41.5277L50.2469 41.753L42.4688 49.5312C32.61 39.6724 32.5114 23.7494 42.173 13.7693L42.4688 13.4688L50.2469 21.2469Z" fill="#0883D5"/>
</g>
</g>
</g>
<defs>
<clipPath id="clip0">
<rect width="170" height="170" fill="white"/>
</clipPath>
</defs>
</svg>
