<svg xmlns="http://www.w3.org/2000/svg" width="1000" height="1000" viewBox="0 0 1000 1000"><defs><style>.cls-1,.cls-13,.cls-15,.cls-16{fill:#fff}.cls-2{fill:#1cb0f6}.cls-3{fill:#d33131}.cls-4{fill:#7ac70c}.cls-5{fill:#ffc200}.cls-6{fill:#231f20}.cls-7{fill:#3871db}.cls-8{fill:#ffce00}.cls-10,.cls-9{fill:#7a221e}.cls-9{stroke:#7a221e}.cls-13,.cls-14,.cls-19,.cls-21,.cls-9{stroke-miterlimit:10}.cls-17,.cls-9{stroke-width:2px}.cls-11{fill:#ff9100}.cls-12{fill:#262626}.cls-13,.cls-17,.cls-19,.cls-20{stroke:#fff}.cls-13{stroke-width:3.33px}.cls-14,.cls-17,.cls-19,.cls-20,.cls-21{fill:none}.cls-14,.cls-21{stroke:#1cb0f6}.cls-14{stroke-width:1.92px}.cls-15{opacity:.53}.cls-16{opacity:.5}.cls-17,.cls-20{stroke-linecap:round;stroke-linejoin:round}.cls-18{fill:#c5dd9e}.cls-19{stroke-width:1.95px}.cls-20{stroke-width:2.05px}.cls-21{stroke-width:2.32px}.cls-22{fill:#1eb53b}.cls-23{fill:#00a3dc}.cls-24{fill:#fcd114}.cls-25{fill:#90d8f4}</style></defs><title>new-flag-sprite</title><g id="Layer_1" data-name="Layer 1"><path class="cls-1" d="M600 700v56.02l40.75-14.47 39.3 14.45v-56H600zM600 600.06h80.04v80.04H600z"/><path class="cls-2" d="M500 0h40.59v40.33H500z"/><path class="cls-1" d="M26.66 0h26.7v80.04h-26.7z"/><path class="cls-2" d="M0 0h26.66v80.04H0z"/><path class="cls-3" d="M53.36 0h26.66v80.04H53.36z"/><path class="cls-4" d="M300 0h80.04v80.04H300z"/><path class="cls-1" d="M426.66 0h26.7v80.04h-26.7z"/><path class="cls-4" d="M400 0h26.66v80.04H400z"/><path class="cls-3" d="M453.36 0h26.66v80.04h-26.66zM200 26.68h80.04v26.7H200z"/><path class="cls-5" d="M200 53.38h80.04v26.66H200z"/><path class="cls-6" d="M200 .02h80.04v26.66H200z"/><path class="cls-3" d="M227.22 100h27.29v46.56l-13.64-5.04-13.65 4.85V100z"/><path class="cls-6" d="M227.22 100H200v56.04l27.22-9.67V100z"/><path class="cls-5" d="M254.51 146.56l25.49 9.41V100h-25.49v46.56z"/><path class="cls-1" d="M427.22 100h27.29v46.56l-13.64-5.04-13.65 4.85V100z"/><path class="cls-4" d="M427.22 100H400v56.04l27.22-9.67V100z"/><path class="cls-3" d="M454.51 146.56l25.49 9.41V100h-25.49v46.56z"/><path class="cls-4" d="M300 100h80v55.97l-39.13-14.45L300 156.04V100z"/><path class="cls-1" d="M27.22 100.13h27.3l-.01 46.56-13.64-5.04-13.65 4.85v-46.37z"/><path class="cls-2" d="M27.22 100.13H0v56.04l27.22-9.67v-46.37z"/><path class="cls-3" d="M54.52 146.69l25.48 9.4v-55.96H54.52v46.56z"/><path class="cls-5" d="M119.35 100h41.52l.01 48.91-20.01-7.39-21.52 7.64V100z"/><path class="cls-3" d="M119.35 100H100v56.04l19.35-6.88V100zM160.87 148.91l19.13 7.06V100h-19.13v48.91z"/><path class="cls-7" d="M340.29 113.62a14.61 14.61 0 0 0-2.51 29l3.1-1.1 2.62 1a14.61 14.61 0 0 0-3.2-28.87z"/><path class="cls-1" d="M326.7 122.89a14.5 14.5 0 0 0-.91 3.57 44.16 44.16 0 0 1 7.71-.66c10.18 0 17.77 3.15 20.72 6.86a14.6 14.6 0 0 0 .67-4.11c-4.5-3.72-12.31-6.15-21.39-6.15a47.92 47.92 0 0 0-6.8.49z"/><circle class="cls-1" cx="334.41" cy="128.02" r=".87"/><circle class="cls-1" cx="346.02" cy="131.5" r=".87"/><circle class="cls-1" cx="337.89" cy="133.83" r=".87"/><circle class="cls-1" cx="346.02" cy="121.05" r=".73"/><path class="cls-8" d="M377 41.13l-36.5-28.8a.49.49 0 0 0-.61 0l-36.54 28.8a.49.49 0 0 0 0 .77l36.55 28.79a.49.49 0 0 0 .61 0L377 41.89a.49.49 0 0 0 0-.77z"/><path class="cls-1" d="M508.52 4.279999999999999a.82.82 0 0 0-.78.56l-.56 1.73h-1.82a.82.82 0 0 0-.47 1.43l1.47 1.07-.56 1.73a.82.82 0 0 0 1.25.91l1.47-1.07 1.48 1.11a.82.82 0 0 0 1.25-.91l-.56-1.73 1.44-1a.81.81 0 0 0-.45-1.49h-1.82l-.56-1.73a.82.82 0 0 0-.78-.56zM520.4 4.279999999999999a.82.82 0 0 0-.78.56l-.56 1.73h-1.82a.82.82 0 0 0-.47 1.43l1.47 1.07-.56 1.73a.82.82 0 0 0 1.25.91l1.47-1.07 1.47 1.07a.82.82 0 0 0 1.25-.91l-.56-1.73 1.44-1a.81.81 0 0 0-.45-1.49h-1.82l-.56-1.73a.82.82 0 0 0-.78-.56zM532.27 4.279999999999999a.82.82 0 0 0-.78.56l-.56 1.73h-1.82a.82.82 0 0 0-.47 1.43l1.47 1.07-.56 1.73a.82.82 0 0 0 1.25.91l1.47-1.07 1.47 1.07a.82.82 0 0 0 1.25-.91l-.56-1.73 1.44-1a.81.81 0 0 0-.45-1.49h-1.82l-.6-1.74a.82.82 0 0 0-.78-.56zM508.52 16.150000000000002a.82.82 0 0 0-.78.56l-.56 1.73h-1.82a.82.82 0 0 0-.48 1.48l1.48 1.08-.56 1.73a.82.82 0 0 0 1.25.91l1.47-1.07 1.48 1.06a.82.82 0 0 0 1.25-.91l-.56-1.72 1.44-1a.81.81 0 0 0-.45-1.49h-1.82l-.56-1.73a.82.82 0 0 0-.78-.56zM520.39 16.150000000000002a.82.82 0 0 0-.78.56l-.56 1.73h-1.82a.82.82 0 0 0-.48 1.48l1.49 1.08-.56 1.73a.82.82 0 0 0 1.25.91l1.47-1.07 1.47 1.07a.82.82 0 0 0 1.25-.91l-.56-1.73 1.44-1a.81.81 0 0 0-.45-1.49h-1.82l-.56-1.73a.82.82 0 0 0-.78-.56zM532.27 16.150000000000002a.82.82 0 0 0-.78.56l-.56 1.73h-1.82a.82.82 0 0 0-.48 1.48l1.48 1.08-.56 1.73a.82.82 0 0 0 1.25.91l1.47-1.07 1.47 1.07a.82.82 0 0 0 1.25-.91l-.55-1.73 1.44-1a.81.81 0 0 0-.45-1.49h-1.82l-.61-1.79a.82.82 0 0 0-.78-.56zM508.52 28a.82.82 0 0 0-.78.56l-.56 1.73h-1.82a.82.82 0 0 0-.48 1.48l1.47 1.07-.56 1.73a.82.82 0 0 0 1.25.91l1.47-1.07L510 35.5a.82.82 0 0 0 1.25-.91l-.56-1.73 1.44-1a.81.81 0 0 0-.45-1.49h-1.82l-.56-1.73a.82.82 0 0 0-.78-.56zM520.4 28a.82.82 0 0 0-.78.56l-.56 1.73h-1.82a.82.82 0 0 0-.48 1.48l1.47 1.07-.56 1.73a.82.82 0 0 0 1.25.91l1.47-1.07 1.47 1.07a.82.82 0 0 0 1.25-.91l-.56-1.73 1.44-1a.81.81 0 0 0-.45-1.49h-1.82l-.56-1.73a.82.82 0 0 0-.78-.56zM532.27 28a.82.82 0 0 0-.78.56l-.56 1.73h-1.82a.82.82 0 0 0-.48 1.48l1.47 1.07-.56 1.73a.82.82 0 0 0 1.25.91l1.47-1.07 1.47 1.07a.82.82 0 0 0 1.25-.91l-.56-1.73 1.44-1a.81.81 0 0 0-.45-1.49h-1.82l-.59-1.76a.82.82 0 0 0-.78-.56z"/><g><path class="cls-9" d="M139.92 131.75c-2.3 0-4.12-.9-4.29-2.11a.19.19 0 0 1 0-.09v-4h-.69V130h.21a.21.21 0 0 1 .21.21v1.18a.21.21 0 0 1-.21.21h-2.58a.21.21 0 0 1-.21-.21v-1.18a.21.21 0 0 1 .21-.21h.17v-4.48h-.78a.21.21 0 0 1-.21-.21v-.93a.21.21 0 0 1 .21-.21h.78v-2.22a.21.21 0 0 1 .12-.19 1.15 1.15 0 0 1-.16-.52c0-.54.67-.54 1.11-.54 1 0 1.15.45 1.15.64a.7.7 0 0 1-.14.42.21.21 0 0 1 .12.19v2.22h.69v-2.34a.21.21 0 0 1 .21-.21H144a.21.21 0 0 1 .21.21v2.34h.67v-2.22a.21.21 0 0 1 .12-.19 1.16 1.16 0 0 1-.16-.52c0-.54.67-.54 1.11-.54 1 0 1.15.45 1.15.64a.7.7 0 0 1-.14.42.21.21 0 0 1 .12.19v2.22h.6a.21.21 0 0 1 .21.21v.93a.21.21 0 0 1-.21.21h-.6V130h.19a.21.21 0 0 1 .21.21v1.2a.21.21 0 0 1-.21.21h-2.58a.21.21 0 0 1-.21-.21v-1.2a.21.21 0 0 1 .21-.21h.19v-4.46h-.67v4a.21.21 0 0 1 0 .1c-.21 1.21-1.99 2.11-4.29 2.11z"/><g><path class="cls-9" d="M139.88 121.78c-2 0-2.74-.11-2.84-.46l-1.66-1.82a.21.21 0 0 1-.06-.14c0-1.33 1.76-2.18 4.5-2.18 2.38 0 4.58.27 4.58 2.24 0 .69-.62 1-1.12 1.28-.27.14-.58.31-.58.45-.01.59-1.07.63-2.82.63z"/><path class="cls-9" d="M139.82 117.39c2.6 0 4.36.37 4.36 2 0 1-1.7 1.12-1.7 1.73 0 .43-1.46.43-2.6.43s-2.64 0-2.64-.34l-1.7-1.87c0-1.18 1.68-2 4.28-2m0-.43c-2.86 0-4.71.94-4.71 2.4a.43.43 0 0 0 .11.29l1.63 1.78c.19.51 1.17.57 3 .57 1.69 0 3 0 3-.85l.47-.26c.52-.28 1.24-.65 1.24-1.47 0-2.46-3.24-2.46-4.79-2.46z"/></g></g><path class="cls-5" d="M100.15 18.56h80.04v42.9h-80.04z"/><path class="cls-3" d="M100.15 0h80.04v18.56h-80.04zM100.15 61.47h80.04v18.56h-80.04z"/><g><g><path class="cls-10" d="M140.32 50.84c-2.72 0-5-.78-6.19-2v.78a1 1 0 0 1-1 1h-3.87a1 1 0 0 1-1-1v-1.76a1 1 0 0 1 .58-.91v-5.47h-.49a1 1 0 0 1-1-1v-1.4a1 1 0 0 1 1-1h.49v-2.66a1 1 0 0 1 .07-.37 2 2 0 0 1-.13-.69c0-1.49 1.7-1.49 2.34-1.49 2.17 0 2.39 1.19 2.4 1.61a1 1 0 0 1 .65-.24h12.31a1 1 0 0 1 .59.19v-.07c0-1.49 1.7-1.49 2.34-1.49 2.23 0 2.4 1.25 2.4 1.64a1.65 1.65 0 0 1-.1.56 1 1 0 0 1 .06.36v2.66h.23a1 1 0 0 1 1 1v1.4a1 1 0 0 1-1 1h-.22v5.41a1 1 0 0 1 .61.92v1.8a1 1 0 0 1-1 1h-3.87a1 1 0 0 1-1-1v-.78c-1.22 1.22-3.52 2-6.2 2z"/><path class="cls-10" d="M149.4 33.87c.61 0 1.4.12 1.4.64s-.43.67-.56.91h.53v3.66H152v1.4h-1.22v7.34h.61v1.8h-3.87v-1.8h.61v-7.34h-1.65v6.37c-.13 1.66-2.81 3-6.13 3s-6-1.33-6.13-3v-6.37h-1.68v7.37h.64v1.77h-3.87v-1.76h.58v-7.38h-1.49v-1.4h1.49v-3.65h.41a2.3 2.3 0 0 1-.47-1.07c0-.49.73-.49 1.34-.49s1.4.12 1.4.64-.43.67-.56.91h.53v3.66h1.68v-3.84h12.31v3.84h1.65v-3.65h.41a2.3 2.3 0 0 1-.47-1.07c0-.49.73-.49 1.34-.49m0-2c-1.89 0-2.73.66-3.09 1.37h-12.2a3.3 3.3 0 0 0-3.05-1.37c-2.91 0-3.34 1.56-3.34 2.49a2.85 2.85 0 0 0 .09.71 2 2 0 0 0 0 .36v1.72a2 2 0 0 0-1.49 1.94v1.4a2 2 0 0 0 1.49 1.94v4a2 2 0 0 0-.58 1.41v1.77a2 2 0 0 0 2 2h3.87a2 2 0 0 0 1.75-1 12.57 12.57 0 0 0 10.89 0 2 2 0 0 0 1.75 1h3.87a2 2 0 0 0 2-2v-1.8a2 2 0 0 0-.61-1.44v-4.05a2 2 0 0 0 1.19-1.84v-1.4a2 2 0 0 0-1.22-1.84v-1.81a2 2 0 0 0 0-.35 2.64 2.64 0 0 0 .06-.57c0-1.22-.89-2.64-3.4-2.64z"/></g><g><path class="cls-10" d="M140.26 35.88c-2.78 0-4.5-.05-4.88-1L133 32.23a1 1 0 0 1-.26-.67c0-2.44 2.85-4 7.43-4 2.45 0 7.55 0 7.55 4 0 1.44-1.28 2.12-2 2.52-.17.09-.4.21-.53.3-.25 1.5-2.43 1.5-4.93 1.5z"/><path class="cls-10" d="M140.17 28.6c3.9 0 6.55.55 6.55 3 0 1.49-2.56 1.68-2.56 2.59 0 .64-2.19.64-3.9.64s-4 0-4-.52l-2.56-2.8c0-1.77 2.53-3 6.43-3m0-2c-6.21 0-8.43 2.56-8.43 5a2 2 0 0 0 .52 1.35l2.23 2.44c.7 1.53 3.17 1.53 5.77 1.53 2.42 0 5.11 0 5.76-1.76l.12-.07c.84-.44 2.58-1.36 2.58-3.4 0-5-6.21-5-8.55-5z"/></g></g><path class="cls-1" d="M699.96 26.85h80v26.36h-80z"/><path class="cls-3" d="M699.96 0H780v26.85h-80.04z"/><path class="cls-4" d="M699.96 53.21H780v26.85h-80.04z"/><path class="cls-1" d="M626.62 0h26.7v80.04h-26.7z"/><path class="cls-4" d="M599.96 0h26.66v80.04h-26.66z"/><path class="cls-11" d="M653.32 0h26.66v80.04h-26.66z"/><path class="cls-5" d="M26.66 200.06h26.7v80.04h-26.7z"/><path class="cls-3" d="M899.96 40.04H980v40h-80.04z"/><path class="cls-1" d="M899.96 0H980v40.04h-80.04z"/><path class="cls-2" d="M100 253.56h80.04v26.54H100z"/><path class="cls-3" d="M100 200.06h80.04v26.61H100z"/><path class="cls-1" d="M100 226.67h80.04v26.89H100z"/><path class="cls-2" d="M0 200.06h26.66v80.04H0z"/><path class="cls-3" d="M53.36 200.06h26.66v80.04H53.36z"/><path class="cls-2" d="M799.96 26.68H880v26.7h-80.04z"/><path class="cls-3" d="M799.96 53.38H880v26.66h-80.04z"/><path class="cls-1" d="M799.96.02H880v26.66h-80.04z"/><path class="cls-2" d="M827.18 100h27.29v46.56l-13.64-5.04-13.65 4.85V100z"/><path class="cls-3" d="M827.18 100h-27.22v56.04l27.22-9.67V100z"/><path class="cls-1" d="M854.47 146.56l25.49 9.41V100h-25.49v46.56z"/><path class="cls-5" d="M27.22 300.06h27.3l-.01 46.56-13.64-5.04-13.65 4.85v-46.37z"/><path class="cls-3" d="M200 200.06h80.04v80.04H200zM200.15 300.06H280v55.87l-39.06-14.42L200.15 356v-55.94z"/><path class="cls-2" d="M27.22 300.06H0v56.04l27.22-9.67v-46.37z"/><path class="cls-3" d="M54.52 346.62L80 356.03v-55.97H54.52v46.56z"/><path class="cls-1" d="M127.22 300.06h27.29v46.56l-13.64-5.04-13.65 4.85v-46.37z"/><path class="cls-3" d="M127.22 300.06H100v56.04l27.22-9.67v-46.37z"/><path class="cls-2" d="M154.51 346.62l25.49 9.41v-55.97h-25.49v46.56z"/><path class="cls-3" d="M700 400.06h80.04v13.63H700z"/><path class="cls-1" d="M700 413.71h80.04v13.79H700zM700 452.53h80.04v13.79H700z"/><path class="cls-2" d="M700 427.43h80.04v25.2H700z"/><path class="cls-3" d="M700 466.3h80.04v13.71H700z"/><path class="cls-4" d="M0 453.56h80.04v26.54H0zM300 600.06h80.04V680H300z"/><path class="cls-11" d="M0 400.06h80.04v26.61H0zM200 600.06h80.04V680H200z"/><path class="cls-1" d="M0 426.67h80.04v26.89H0zM27.22 500.06h27.3l-.01 46.56-13.64-5.04-13.65 4.85v-46.37z"/><path class="cls-4" d="M27.22 500.06H0v56.04l27.22-9.67v-46.37z"/><path class="cls-11" d="M54.52 546.62L80 556.03v-55.97H54.52v46.56z"/><path class="cls-3" d="M899.96 100h40.79l.08 41.52-40.87 14.52V100z"/><path class="cls-1" d="M627.18 100.13h27.29v46.56l-13.64-5.04-13.65 4.85v-46.37z"/><path class="cls-4" d="M627.18 100.13h-27.22v56.04l27.22-9.67v-46.37z"/><path class="cls-11" d="M654.47 146.69l25.49 9.4v-55.96h-25.49v46.56z"/><path class="cls-1" d="M727.38 100h27.08v46.55l-13.63-5.03-13.45 4.78V100z"/><g><path class="cls-1" d="M244.61 257.14a18.3 18.3 0 1 1 11-32.89 22.72 22.72 0 1 0 0 29.17 18.2 18.2 0 0 1-11 3.72z"/><path class="cls-1" d="M260.44 229.74l4.1 5.96 6.94-2.06-4.4 5.75 4.1 5.97-6.83-2.42-4.4 5.75.18-7.24-6.82-2.41 6.94-2.06.19-7.24z"/></g><g><path class="cls-1" d="M253.89 341.32a15.67 15.67 0 0 1-5.89 2.78l2.06.76a19.58 19.58 0 0 0 3.83-3.54zM239 309.38a19.44 19.44 0 0 0-9.73 36.28l8.09-2.87a15.66 15.66 0 1 1 16.55-26.44 19.41 19.41 0 0 0-14.91-6.97z"/></g><path class="cls-1" d="M258 321.05l3.51 5.1 5.95-1.76-3.77 4.92 3.51 5.11-5.85-2.07-3.77 4.92.16-6.19-5.85-2.07 5.95-1.77.16-6.19z"/><path class="cls-3" d="M300 400.06h80.04v80.04H300z"/><path class="cls-1" d="M400 200.06h80.04v80.04H400z"/><path class="cls-3" d="M727.38 100h-27.42v56.04l27.42-9.74V100z"/><path class="cls-4" d="M779.88 155.94V100h-25.42v46.55l25.42 9.39z"/><path class="cls-1" d="M899.96 226.85h80v26.36h-80z"/><path class="cls-3" d="M899.96 200H980v26.85h-80.04z"/><path class="cls-12" d="M899.96 253.21H980v26.85h-80.04z"/><path class="cls-1" d="M927.38 300h27.08v46.55l-13.63-5.03-13.45 4.78V300z"/><path class="cls-3" d="M927.38 300h-27.42v56.04l27.42-9.74V300z"/><path class="cls-12" d="M979.88 355.94V300h-25.42v46.55l25.42 9.39z"/><path class="cls-1" d="M940.75 141.55l.08-.03 39.13 14.45V100h-39.21v41.55z"/><path class="cls-2" d="M799.96 400V480.04H880V400h-80.04z"/><path class="cls-3" d="M499.96 400V480.04H580V400h-80.04zM540.75 500h-40.79v56.04l40.79-14.49.08-.03 39.13 14.45V500h-39.21z"/><path class="cls-5" d="M499.96 240.04H580v40h-80.04z"/><path class="cls-2" d="M499.96 200H580v40.04h-80.04zM499.96 300h40.79l.08 41.52-40.87 14.52V300z"/><path class="cls-5" d="M540.75 341.55l.08-.03 39.13 14.45V300h-39.21v41.55z"/><path class="cls-2" d="M399.96 600V680.04H480V600h-80.04z"/><path class="cls-1" d="M299.96 240.04H380v40h-80.04z"/><path class="cls-3" d="M299.96 200H380v40.04h-80.04z"/><path class="cls-1" d="M299.96 300h40.79l.08 41.52-40.87 14.52V300z"/><path class="cls-3" d="M340.75 341.55l.08-.03 39.13 14.45V300h-39.21v41.55z"/><path class="cls-5" d="M357.84 434.83h-12.47L341.52 423a1.07 1.07 0 0 0-2 0l-3.85 11.85h-12.5a1.07 1.07 0 0 0-.63 1.94l10.08 7.32-3.85 11.85a1.07 1.07 0 0 0 1.65 1.2l10.08-7.32 10.08 7.32a1.07 1.07 0 0 0 1.65-1.2l-3.85-11.85 10.05-7.3a1.07 1.07 0 0 0-.6-2zM357.84 526.83h-12.47L341.52 515a1.07 1.07 0 0 0-2 0l-3.85 11.85h-12.5a1.07 1.07 0 0 0-.63 1.94l10.08 7.32-3.07 9.46 11.4-4 10.45 3.86-3-9.27 10.05-7.3a1.07 1.07 0 0 0-.6-2z"/><path class="cls-3" d="M300.14 500.06V556l29.4-10.44 3.07-9.46-10.08-7.32a1.07 1.07 0 0 1 .63-1.94h12.46l3.86-11.84a1.07 1.07 0 0 1 2 0l3.85 11.85h12.47a1.07 1.07 0 0 1 .6 2l-10.05 7.3 3 9.27L380 555.93v-55.87zM0 600.06h80.04v80.04H0z"/><g><path class="cls-5" d="M511 429.12a.24.24 0 0 1-.22-.31l1.74-5.36-4.52-3.3a.24.24 0 0 1 .14-.43h5.63l1.74-5.36a.24.24 0 0 1 .45 0l1.74 5.36h5.63a.24.24 0 0 1 .14.43l-4.56 3.31 1.74 5.36a.24.24 0 0 1-.36.26l-4.56-3.31-4.56 3.31a.23.23 0 0 1-.17.04z"/><path class="cls-5" d="M515.71 414.44l1.79 5.52h5.8l-4.7 3.41 1.79 5.52-4.7-3.41-4.7 3.41 1.79-5.52-4.7-3.41h5.8l1.79-5.52M515.67 413.96a.47.47 0 0 0-.45.33l-1.69 5.19h-5.46a.47.47 0 0 0-.28.85l4.42 3.21-1.69 5.19a.47.47 0 0 0 .72.53l4.42-3.21 4.42 3.21a.47.47 0 0 0 .72-.53l-1.69-5.19 4.4-3.2a.47.47 0 0 0-.25-.86h-5.47l-1.69-5.19a.47.47 0 0 0-.45-.33z"/></g><g><path class="cls-5" d="M528.65 415.08a.12.12 0 0 1-.11-.08l-.92-2.58-2.74.08a.11.11 0 0 1-.07-.21l2.17-1.67-.92-2.58a.11.11 0 0 1 0-.13h.13l2.26 1.55 2.17-1.67h.13a.11.11 0 0 1 0 .13l-.77 2.63 2.26 1.55a.11.11 0 0 1-.06.21l-2.74.08-.77 2.63a.11.11 0 0 1-.11.08z"/><path class="cls-5" d="M530.74 407.88l-.8 2.71 2.33 1.59-2.82.08-.8 2.71-.95-2.66-2.82.08 2.23-1.72-.95-2.66 2.33 1.59 2.24-1.72m0-.23a.23.23 0 0 0-.14 0l-2.1 1.62-2.19-1.5a.23.23 0 0 0-.27 0 .23.23 0 0 0-.08.26l.89 2.5-2.1 1.62a.23.23 0 0 0 .14.41l2.65-.07.89 2.5a.23.23 0 0 0 .22.15.23.23 0 0 0 .21-.16l.75-2.55 2.65-.07a.23.23 0 0 0 .12-.42l-2.19-1.5.75-2.55a.23.23 0 0 0-.09-.25.21.21 0 0 0-.13 0z"/></g><g><path class="cls-5" d="M535.13 422.28a.11.11 0 0 1-.08-.11l-.13-2.73-2.64-.72a.11.11 0 0 1 0-.22l2.56-1-.13-2.73a.11.11 0 0 1 .07-.11.12.12 0 0 1 .09 0l1.72 2.13 2.56-1a.12.12 0 0 1 .09 0 .12.12 0 0 1 0 .13l-1.5 2.29 1.72 2.13a.12.12 0 0 1 0 .13.12.12 0 0 1-.1.05l-2.64-.72-1.5 2.29a.12.12 0 0 1-.1.05z"/><path class="cls-5" d="M534.8 414.79l1.77 2.2 2.64-1-1.54 2.36 1.77 2.2-2.72-.74-1.54 2.36-.14-2.82-2.72-.74 2.64-1-.14-2.82M534.81 414.56h-.08a.23.23 0 0 0-.15.23l.13 2.65-2.48.94a.23.23 0 0 0 0 .43l2.56.7.13 2.65a.23.23 0 0 0 .17.21h.06a.23.23 0 0 0 .19-.1l1.45-2.22 2.56.7h.06a.23.23 0 0 0 .18-.37l-1.66-2.07 1.44-2.2a.22.22 0 0 0 .05-.14.23.23 0 0 0-.23-.23h-.07l-2.48.94-1.64-2.03a.23.23 0 0 0-.18-.08z"/></g><g><path class="cls-5" d="M538.33 432.13h-.07l-2.21-1.61-2.21 1.61h-.14a.12.12 0 0 1 0-.13l.85-2.6-2.21-1.61a.11.11 0 0 1 .07-.21h2.74l.85-2.6a.12.12 0 0 1 .11-.08.11.11 0 0 1 .11.08l.85 2.6h2.74a.11.11 0 0 1 .11.08.12.12 0 0 1 0 .13l-2.21 1.61.85 2.6a.12.12 0 0 1 0 .13z"/><path class="cls-5" d="M536.05 425l.87 2.68h2.82l-2.28 1.66.87 2.68-2.28-1.66-2.28 1.64.87-2.68-2.28-1.66h2.82l.87-2.68M536.04 424.75a.23.23 0 0 0-.22.16l-.82 2.52h-2.65a.23.23 0 0 0-.22.16.23.23 0 0 0 .08.26l2.15 1.56-.82 2.52a.23.23 0 0 0 .35.26l2.15-1.56 2.15 1.56a.23.23 0 0 0 .35-.26l-.82-2.52 2.14-1.55a.23.23 0 0 0-.12-.42h-2.66l-.82-2.52a.23.23 0 0 0-.22-.16z"/></g><path class="cls-5" d="M480.04 433.92H433V400h-14.67v33.92h-18.29v14.66h18.29v31.52H433v-31.52h47.04v-14.66z"/><path class="cls-2" d="M433 400.06v33.86h47.04v14.66H433v31.52h-14.67v-31.52h-18.29v-14.66h18.29v-33.86H400v80.04h80.04v-80.04H433z"/><path class="cls-5" d="M479.96 518.92H433V500h-14.67v18.92h-18.29v14.66h18.29v15.93L433 544.3v-10.72h46.96v-14.66z"/><g><path class="cls-2" d="M433 544.3l7.75-2.75.08-.03 39.13 14.45v-22.39H433v10.72zM418.33 549.51v-15.93h-18.29v-14.66h18.29V500h-18.37v56.04l30.9-10.98-12.53 4.45zM440.75 500H433v18.92h46.96V500h-39.21z"/></g><path class="cls-2" d="M680.05 635.92H631V600h-10.66v35.92h-20.29v10.66h20.29v33.52H631v-33.52h49.05v-10.66z"/><path class="cls-3" d="M600 629.11v-.19h13.29v-28.86H600v29zM680.05 629.6v-29.54H638v28.86h42.05v.68zM680.05 653.25v.33H638v26.52h-.57 42.62v-26.85zM613.54 680.1h-.2v-26.52H600v-.38 26.9h13.53z"/><path class="cls-1" d="M180.04 633.92H133V600h-14.67v33.92h-18.29v14.66h18.29v31.52H133v-31.52h47.04v-14.66z"/><g><path class="cls-5" d="M527.21 440.07a.12.12 0 0 1-.1-.06l-1.3-2.41-2.71.5a.12.12 0 0 1-.1-.06.11.11 0 0 1 0-.13l1.89-2-1.3-2.41a.12.12 0 0 1 .1-.17h.05l2.47 1.18 1.89-2a.11.11 0 0 1 .08 0h.05a.12.12 0 0 1 .06.12l-.36 2.71 2.47 1.18a.12.12 0 0 1 .06.12.11.11 0 0 1-.09.1l-2.69.49-.36 2.71a.11.11 0 0 1-.09.1z"/><path class="cls-5" d="M528.18 432.64l-.37 2.8 2.54 1.22-2.77.51-.37 2.8-1.34-2.48-2.77.51 1.94-2-1.34-2.48 2.54 1.22 1.94-2m0-.23a.23.23 0 0 0-.17.07l-1.83 1.92-2.39-1.15h-.1a.23.23 0 0 0-.2.34l1.26 2.33-1.83 1.92a.23.23 0 0 0 .17.39l2.61-.48 1.26 2.33a.23.23 0 0 0 .2.12.23.23 0 0 0 .19-.2l.35-2.63 2.61-.48a.23.23 0 0 0 .06-.43l-2.39-1.15.35-2.63a.23.23 0 0 0-.13-.24h-.1z"/></g><g><path class="cls-5" d="M511 527.12a.24.24 0 0 1-.22-.31l1.74-5.36-4.52-3.3a.24.24 0 0 1 .14-.43h5.63l1.74-5.36a.24.24 0 0 1 .45 0l1.74 5.36h5.63a.24.24 0 0 1 .14.43l-4.56 3.31 1.74 5.36a.24.24 0 0 1-.36.26l-4.56-3.31-4.56 3.31a.23.23 0 0 1-.17.04z"/><path class="cls-5" d="M515.71 512.44l1.79 5.52h5.8l-4.7 3.41 1.79 5.52-4.7-3.41-4.7 3.41 1.79-5.52-4.7-3.41h5.8l1.79-5.52M515.67 511.96a.47.47 0 0 0-.45.33l-1.69 5.19h-5.46a.47.47 0 0 0-.28.85l4.42 3.21-1.69 5.19a.47.47 0 0 0 .72.53l4.42-3.21 4.42 3.21a.47.47 0 0 0 .72-.53l-1.69-5.19 4.4-3.2a.47.47 0 0 0-.25-.86h-5.47l-1.69-5.19a.47.47 0 0 0-.45-.33z"/></g><path class="cls-1" d="M179.96 718.92H133V700h-14.67v18.92h-18.29v14.66h18.29v15.93L133 744.3v-10.72h46.96v-14.66z"/><path class="cls-3" d="M100.04 718.92h18.29V700H99.96v18.92h.08zM118.33 749.51v-15.93H99.96v22.46l18.37-6.53zM133 744.3l7.75-2.75.08-.03 39.13 14.45v-22.39H133v10.72zM133 718.92h46.96V700H133v18.92z"/><g><path class="cls-3" d="M133 633.92h47.04v-33.86H133v33.86zM100.04 633.92h18.29v-33.86H100v33.86h.04zM180.04 648.58H133v31.52h47.04v-31.52zM118.33 680.1v-31.52H100v31.52h18.33z"/></g><g><path class="cls-5" d="M528.65 513.08a.12.12 0 0 1-.11-.08l-.92-2.58-2.74.08a.11.11 0 0 1-.07-.21l2.17-1.67-.92-2.58a.11.11 0 0 1 0-.13h.13l2.26 1.55 2.17-1.67h.13a.11.11 0 0 1 0 .13l-.77 2.63 2.26 1.55a.11.11 0 0 1-.06.21l-2.74.08-.77 2.63a.11.11 0 0 1-.11.08z"/><path class="cls-5" d="M530.74 505.88l-.8 2.71 2.33 1.59-2.82.08-.8 2.71-.95-2.66-2.82.08 2.23-1.72-.95-2.66 2.33 1.59 2.24-1.72m0-.23a.23.23 0 0 0-.14 0l-2.1 1.62-2.19-1.5a.23.23 0 0 0-.27 0 .23.23 0 0 0-.08.26l.89 2.5-2.1 1.62a.23.23 0 0 0 .14.41l2.65-.07.89 2.5a.23.23 0 0 0 .22.15.23.23 0 0 0 .21-.16l.75-2.55 2.65-.07a.23.23 0 0 0 .12-.42l-2.19-1.5.75-2.55a.23.23 0 0 0-.09-.25.21.21 0 0 0-.13 0z"/></g><g><path class="cls-5" d="M535.13 520.28a.11.11 0 0 1-.08-.11l-.13-2.73-2.64-.72a.11.11 0 0 1 0-.22l2.56-1-.13-2.73a.11.11 0 0 1 .07-.11.12.12 0 0 1 .09 0l1.72 2.13 2.56-1a.12.12 0 0 1 .09 0 .12.12 0 0 1 0 .13l-1.5 2.29 1.72 2.13a.12.12 0 0 1 0 .13.12.12 0 0 1-.1.05l-2.64-.72-1.5 2.29a.12.12 0 0 1-.1.05z"/><path class="cls-5" d="M534.8 512.79l1.77 2.2 2.64-1-1.54 2.36 1.77 2.2-2.72-.74-1.54 2.36-.14-2.82-2.72-.74 2.64-1-.14-2.82M534.81 512.56h-.08a.23.23 0 0 0-.15.23l.13 2.65-2.48.94a.23.23 0 0 0 0 .43l2.56.7.13 2.65a.23.23 0 0 0 .17.21h.06a.23.23 0 0 0 .19-.1l1.45-2.22 2.56.7h.06a.23.23 0 0 0 .18-.37l-1.66-2.07 1.44-2.2a.22.22 0 0 0 .05-.14.23.23 0 0 0-.23-.23h-.07l-2.48.94-1.64-2.03a.23.23 0 0 0-.18-.08z"/></g><g><path class="cls-5" d="M538.33 530.13h-.07l-2.21-1.61-2.21 1.61h-.14a.12.12 0 0 1 0-.13l.85-2.6-2.21-1.61a.11.11 0 0 1 .07-.21h2.74l.85-2.6a.12.12 0 0 1 .11-.08.11.11 0 0 1 .11.08l.85 2.6h2.74a.11.11 0 0 1 .11.08.12.12 0 0 1 0 .13l-2.21 1.61.85 2.6a.12.12 0 0 1 0 .13z"/><path class="cls-5" d="M536.05 523l.87 2.68h2.82l-2.28 1.66.87 2.68-2.28-1.66-2.28 1.64.87-2.68-2.28-1.66h2.82l.87-2.68M536.04 522.75a.23.23 0 0 0-.22.16l-.82 2.52h-2.65a.23.23 0 0 0-.22.16.23.23 0 0 0 .08.26l2.15 1.56-.82 2.52a.23.23 0 0 0 .35.26l2.15-1.56 2.15 1.56a.23.23 0 0 0 .35-.26l-.82-2.52 2.14-1.55a.23.23 0 0 0-.12-.42h-2.66l-.82-2.52a.23.23 0 0 0-.22-.16z"/></g><g><path class="cls-5" d="M527.21 538.07a.12.12 0 0 1-.1-.06l-1.3-2.41-2.71.5a.12.12 0 0 1-.1-.06.11.11 0 0 1 0-.13l1.89-2-1.3-2.41a.12.12 0 0 1 .1-.17h.05l2.47 1.18 1.89-2a.11.11 0 0 1 .08 0h.05a.12.12 0 0 1 .06.12l-.36 2.71 2.47 1.18a.12.12 0 0 1 .06.12.11.11 0 0 1-.09.1l-2.69.49-.36 2.71a.11.11 0 0 1-.09.1z"/><path class="cls-5" d="M528.18 530.64l-.37 2.8 2.54 1.22-2.77.51-.37 2.8-1.34-2.48-2.77.51 1.94-2-1.34-2.48 2.54 1.22 1.94-2m0-.23a.23.23 0 0 0-.17.07l-1.83 1.92-2.39-1.15h-.1a.23.23 0 0 0-.2.34l1.26 2.33-1.83 1.92a.23.23 0 0 0 .17.39l2.61-.48 1.26 2.33a.23.23 0 0 0 .2.12.23.23 0 0 0 .19-.2l.35-2.63 2.61-.48a.23.23 0 0 0 .06-.43l-2.39-1.15.35-2.63a.23.23 0 0 0-.13-.24h-.1z"/></g><circle class="cls-2" cx="339.75" cy="40.75" r="16.2"/><path class="cls-1" d="M324 36.87a16.18 16.18 0 0 0-.49 3.88c0 .55 0 1.09.08 1.62A53.87 53.87 0 0 1 337 40.75a50 50 0 0 1 18.62 3.37 15.62 15.62 0 0 0 .23-5.32A49.93 49.93 0 0 0 337 35.35a54.15 54.15 0 0 0-13 1.52z"/><circle class="cls-1" cx="345.15" cy="32.48" r="1.01"/><circle class="cls-1" cx="330.3" cy="44.63" r="1.01"/><circle class="cls-1" cx="335.36" cy="43.87" r=".76"/><circle class="cls-1" cx="332.66" cy="47.92" r=".76"/><circle class="cls-1" cx="348.86" cy="49.27" r=".76"/><circle class="cls-1" cx="350.8" cy="46.32" r=".76"/><path class="cls-8" d="M340.5 102.33a.49.49 0 0 0-.61 0l-36.55 28.79a.49.49 0 0 0 0 .77l20.08 15.82 17.44-6.19 16.32 6L377 131.89a.49.49 0 0 0 0-.77z"/><path class="cls-2" d="M339.75 114.55a16.19 16.19 0 0 0-8.06 30.23l9.18-3.26 7.66 2.83a16.19 16.19 0 0 0-8.78-29.79z"/><path class="cls-1" d="M324 126.87a16.18 16.18 0 0 0-.49 3.88c0 .55 0 1.09.08 1.62a53.87 53.87 0 0 1 13.41-1.62 50 50 0 0 1 18.62 3.37 15.62 15.62 0 0 0 .23-5.32 49.93 49.93 0 0 0-18.85-3.45 54.15 54.15 0 0 0-13 1.52z"/><circle class="cls-1" cx="345.15" cy="122.48" r="1.01"/><circle class="cls-1" cx="330.3" cy="134.63" r="1.01"/><circle class="cls-1" cx="335.36" cy="133.87" r=".76"/><circle class="cls-1" cx="332.66" cy="137.92" r=".76"/><circle class="cls-1" cx="348.86" cy="139.27" r=".76"/><circle class="cls-1" cx="350.8" cy="136.32" r=".76"/><path class="cls-13" d="M835.42 447.92v-1c0-8.15 10.59-10.27 10.59-16.82 0-3-2.7-5.33-6.23-5.33A10.69 10.69 0 0 0 835 426c-1.48.77-3 .77-3.85-.64l-1.09-1.61c-1-1.41-1-2.63.45-3.6a18.08 18.08 0 0 1 9.95-3c7.25 0 14.06 4.49 14.06 12.07 0 10.08-10.4 11.81-11.17 18.29l-.13 1.09c-.32 1.35-1 1.86-2.57 1.86h-2.57a2.39 2.39 0 0 1-2.66-2.54zm0 10.85a2.44 2.44 0 0 1 2.7-2.7h2.57a2.39 2.39 0 0 1 2.63 2.7V461a2.36 2.36 0 0 1-2.63 2.7h-2.57a2.41 2.41 0 0 1-2.7-2.7z"/><circle class="cls-14" cx="40.68" cy="441.34" r="8.04"/><path class="cls-2" d="M40.59 434.12l.43 4.45 1.78-4.1-.97 4.36 2.96-3.34-2.27 3.84 3.85-2.26-3.35 2.95 4.36-.96-4.09 1.77 4.44.43-4.44.43 4.09 1.78-4.36-.97 3.35 2.96-3.85-2.27 2.27 3.85-2.96-3.35.97 4.36-1.78-4.1-.43 4.45-.42-4.45-1.78 4.1.97-4.36-2.96 3.35 2.27-3.85-3.85 2.27 3.35-2.96-4.36.97 4.09-1.78-4.44-.43 4.44-.43-4.09-1.77 4.36.96-3.35-2.95 3.85 2.26-2.27-3.84 2.96 3.34-.97-4.36 1.78 4.1.42-4.45z"/><circle class="cls-14" cx="40.68" cy="524.53" r="8.04"/><path class="cls-2" d="M40.59 517.31l.43 4.45 1.78-4.1-.97 4.36 2.96-3.35-2.27 3.85 3.85-2.27-3.35 2.96 4.36-.97-4.09 1.78 4.44.43-4.44.43 4.09 1.77-4.36-.96 3.35 2.95-3.85-2.26 2.27 3.84-2.96-3.34.97 4.36-1.78-4.1-.43 4.45-.42-4.45-1.78 4.1.97-4.36-2.96 3.34 2.27-3.84-3.85 2.26 3.35-2.95-4.36.96 4.09-1.77-4.44-.43 4.44-.43-4.09-1.78 4.36.97-3.35-2.96 3.85 2.27-2.27-3.85 2.96 3.35-.97-4.36 1.78 4.1.42-4.45z"/><path class="cls-5" d="M945.7 233.76c-2.28 0-2.9 1.77-3.92 1.77 0 0 .21-3.82-1-3.82h-2.28s-1.5.34-1.71 1.16c.61-.27 1.84-.07 1.84 1.64a1.1 1.1 0 0 1-.49.86c-1-.12-1.55-1.65-3.26-1.65a2.09 2.09 0 0 0-2.18 2.18v7.84l5.3-.74-1.64 2.93 8.25.07-1.91-3.1 5 1v-8.69s.3-1.45-2-1.45zM946.37 319.59c-2.28 0-2.9 1.77-3.92 1.77 0 0 .21-3.82-1-3.82h-2.32s-1.5.34-1.71 1.16c.61-.27 1.84-.07 1.84 1.64a1.1 1.1 0 0 1-.49.86c-1-.12-1.55-1.65-3.26-1.65a2.09 2.09 0 0 0-2.18 2.18v7.84l5.25-.75-1.58 2.95 8.25.07-1.91-3.1 5 1v-8.69s.31-1.46-1.97-1.46z"/><g><path class="cls-3" d="M540.5 40.31H500V50h80.04v-9.67H540.5v-.02zM500 60.33h80.04V70H500zM540.54 0h39.5v10h-39.5zM540.54 20.33h39.5V30h-39.5z"/></g><path class="cls-1" d="M540.5 30h39.54v10.33H540.5zM540.5 10h39.54v10.33H540.5z"/><path class="cls-2" d="M540.59 100H500v56.03l40.59-14.41V100z"/><path class="cls-1" d="M500 50h80.04v10.33H500zM500 70h80.04v10.04H500zM508.52 104.28a.82.82 0 0 0-.78.56l-.56 1.73h-1.82a.82.82 0 0 0-.48 1.48l1.47 1.07-.56 1.73a.82.82 0 0 0 1.25.91l1.47-1.07 1.47 1.07a.82.82 0 0 0 1.25-.91l-.56-1.73 1.44-1a.81.81 0 0 0-.45-1.49h-1.82l-.56-1.73a.82.82 0 0 0-.78-.56zM520.39 104.28a.82.82 0 0 0-.78.56l-.56 1.73h-1.82a.82.82 0 0 0-.48 1.48l1.47 1.07-.56 1.73a.82.82 0 0 0 1.25.91l1.47-1.07 1.47 1.07a.82.82 0 0 0 1.25-.91l-.56-1.73 1.44-1a.81.81 0 0 0-.45-1.49h-1.82l-.56-1.73a.82.82 0 0 0-.78-.56zM532.27 104.28a.82.82 0 0 0-.78.56l-.56 1.73h-1.82a.82.82 0 0 0-.48 1.48l1.47 1.07-.56 1.73a.82.82 0 0 0 1.25.91l1.47-1.07 1.47 1.07a.82.82 0 0 0 1.25-.91l-.56-1.73 1.44-1a.81.81 0 0 0-.45-1.49h-1.82l-.56-1.73a.82.82 0 0 0-.78-.56zM508.52 116.15a.82.82 0 0 0-.78.56l-.56 1.73h-1.82a.82.82 0 0 0-.48 1.48l1.47 1.07-.56 1.73a.82.82 0 0 0 1.25.91l1.47-1.07 1.47 1.07a.82.82 0 0 0 1.25-.91l-.56-1.73 1.44-1a.81.81 0 0 0-.45-1.49h-1.82l-.56-1.73a.82.82 0 0 0-.78-.56zM520.39 116.15a.82.82 0 0 0-.78.56l-.56 1.73h-1.82a.82.82 0 0 0-.48 1.48l1.47 1.07-.56 1.73a.82.82 0 0 0 1.25.91l1.47-1.07 1.47 1.07a.82.82 0 0 0 1.25-.91l-.56-1.73 1.44-1a.81.81 0 0 0-.45-1.49h-1.82l-.56-1.73a.82.82 0 0 0-.78-.56zM532.27 116.15a.82.82 0 0 0-.78.56l-.56 1.73h-1.82a.82.82 0 0 0-.48 1.48l1.47 1.07-.56 1.73a.82.82 0 0 0 1.25.91l1.47-1.07 1.47 1.07a.82.82 0 0 0 1.25-.91l-.56-1.73 1.44-1a.81.81 0 0 0-.45-1.49h-1.82l-.56-1.73a.82.82 0 0 0-.78-.56zM508.52 127.99999999999999a.82.82 0 0 0-.78.56l-.56 1.73h-1.82a.82.82 0 0 0-.48 1.48l1.47 1.07-.56 1.73a.82.82 0 0 0 1.25.91l1.47-1.07 1.49 1.09a.82.82 0 0 0 1.25-.91l-.56-1.73 1.44-1a.81.81 0 0 0-.45-1.49h-1.82l-.56-1.73a.82.82 0 0 0-.78-.56zM520.4 127.99999999999999a.82.82 0 0 0-.78.56l-.56 1.73h-1.82a.82.82 0 0 0-.48 1.48l1.47 1.07-.56 1.73a.82.82 0 0 0 1.25.91l1.47-1.07 1.47 1.07a.82.82 0 0 0 1.25-.91l-.56-1.73 1.44-1a.81.81 0 0 0-.45-1.49h-1.82l-.56-1.73a.82.82 0 0 0-.78-.56zM532.27 127.99999999999999a.82.82 0 0 0-.78.56l-.56 1.73h-1.82a.82.82 0 0 0-.48 1.48l1.47 1.07-.56 1.73a.82.82 0 0 0 1.25.91l1.47-1.07 1.47 1.07a.82.82 0 0 0 1.25-.91l-.56-1.73 1.44-1a.81.81 0 0 0-.45-1.49h-1.82l-.56-1.73a.82.82 0 0 0-.78-.56zM508.52 140a.82.82 0 0 0-.78.56l-.56 1.73h-1.82a.82.82 0 0 0-.48 1.48l1.47 1.07-.56 1.73a.82.82 0 0 0 1.25.91l1.47-1.07 1.49 1.09a.82.82 0 0 0 1.25-.91l-.56-1.73 1.44-1a.81.81 0 0 0-.45-1.49h-1.82l-.56-1.73a.82.82 0 0 0-.78-.56zM520.4 140a.82.82 0 0 0-.78.56l-.56 1.73h-1.82a.82.82 0 0 0-.48 1.48l1.47 1.07-.56 1.73a.82.82 0 0 0 1.25.91l1.47-1.07 1.47 1.07a.82.82 0 0 0 1.25-.91l-.56-1.73 1.44-1a.81.81 0 0 0-.45-1.49h-1.82l-.56-1.73a.82.82 0 0 0-.78-.56z"/><path class="cls-3" d="M540.54 100h39.5v10h-39.5zM540.54 120.33h39.5V130h-39.5z"/><path class="cls-1" d="M540.5 130h39.54v10.33H540.5zM540.5 110h39.54v10.33H540.5zM580 156.03L563.73 150h16.31M530.11 144.86l-.18.54 6.3-2.24a.81.81 0 0 0-.81-.82h-1.82l-.56-1.73a.82.82 0 0 0-1.55 0l-.56 1.73h-1.82a.82.82 0 0 0-.48 1.48z"/><path class="cls-3" d="M560.51 140.33v-.02H540.5v1.34l.37-.13 22.86 8.48h16.31v-9.67h-19.53z"/><circle class="cls-3" cx="440.33" cy="239" r="23.67"/><path class="cls-1" d="M400.14 300.06V356l22.28-7.92a23.66 23.66 0 1 1 36.9.21l20.68 7.64v-55.87z"/><path class="cls-3" d="M441 309.71a23.66 23.66 0 0 0-18.53 38.38l18.51-6.58 18.39 6.79A23.66 23.66 0 0 0 441 309.71z"/><path class="cls-4" d="M800 200.06h80.04v80.04H800z"/><circle class="cls-3" cx="840.33" cy="239" r="23.67"/><path class="cls-4" d="M800.14 300.06V356l22.28-7.92a23.66 23.66 0 1 1 36.9.21l20.68 7.64v-55.87z"/><path class="cls-3" d="M841 309.71a23.66 23.66 0 0 0-18.53 38.38l18.51-6.58 18.39 6.79A23.66 23.66 0 0 0 841 309.71zM800 600h80.04v80.04H800z"/><path class="cls-1" d="M563.73 150h16.31v6.15"/><path class="cls-2" d="M600 200h40.59v40.33H600zM640.59 300H600v56.03l40.59-14.41V300z"/><path class="cls-3" d="M640.54 200v10h-.04v10.33h.04V230h-.04v10.31H600v39.73h80.04V200h-39.5zM640.54 300v10h-.04v10.33h.04V330h-.04v11.65l.37-.13 22.86 8.48 16.31 6.15V300h-39.5z"/><g><g><path class="cls-1" d="M634.82 218.3l-4.22-1.19a10.37 10.37 0 0 1 .38 2.74v.48zM619.94 209.49l-2.59-3.89-.8 4.67a10.31 10.31 0 0 1 3.39-.78zM615.85 210.61l-4-2.54 1.19 4.68a10.4 10.4 0 0 1 2.81-2.14zM624.16 210.1l-.77-4.5-2.58 3.86a10.31 10.31 0 0 1 3.35.64zM627.81 212.39l1.1-4.32-3.84 2.42a10.35 10.35 0 0 1 2.74 1.9zM630.23 216l2.72-3.45-4.39.64a10.36 10.36 0 0 1 1.67 2.81zM612.56 213.25l-4.78-.7 3 3.83a10.38 10.38 0 0 1 1.78-3.13zM623 229.94l3.24 3.16-.18-4.45a10.36 10.36 0 0 1-3.06 1.29zM627 228l4.16 1.54-1.94-3.93A10.42 10.42 0 0 1 627 228zM629.82 224.59l4.36-.28-3.36-2.79a10.35 10.35 0 0 1-1 3.07zM610.19 219.85a10.37 10.37 0 0 1 .41-2.87l-4.69 1.32 4.31 2.27c-.01-.24-.03-.48-.03-.72zM620.58 230.24a10.46 10.46 0 0 1-1.93-.19l1.71 4.29 1.68-4.22a10.28 10.28 0 0 1-1.46.12zM610.29 221.2l-3.74 3.11 4.81.31a10.3 10.3 0 0 1-1.07-3.42zM611.7 225.22l-2.13 4.32 4.43-1.64a10.45 10.45 0 0 1-2.3-2.68zM614.64 228.37l-.19 4.72 3.33-3.24a10.34 10.34 0 0 1-3.14-1.48z"/></g><circle class="cls-1" cx="620.58" cy="219.85" r="8.75"/></g><path class="cls-2" d="M699.94 199.79h40.53v40.29h-40.53z"/><g><g><path class="cls-1" d="M633.82 319.3l-4.22-1.19a10.37 10.37 0 0 1 .38 2.74v.48zM618.94 310.49l-2.59-3.89-.8 4.67a10.31 10.31 0 0 1 3.39-.78zM614.85 311.61l-4-2.54 1.19 4.68a10.4 10.4 0 0 1 2.81-2.14zM623.16 311.1l-.77-4.5-2.58 3.86a10.31 10.31 0 0 1 3.35.64zM626.81 313.39l1.1-4.32-3.84 2.42a10.35 10.35 0 0 1 2.74 1.9zM629.23 317l2.72-3.45-4.39.64a10.36 10.36 0 0 1 1.67 2.81zM611.56 314.25l-4.78-.7 3 3.83a10.38 10.38 0 0 1 1.78-3.13zM622 330.94l3.24 3.16-.18-4.45a10.36 10.36 0 0 1-3.06 1.29zM626 329l4.16 1.54-1.94-3.93A10.42 10.42 0 0 1 626 329zM628.82 325.59l4.36-.28-3.36-2.79a10.35 10.35 0 0 1-1 3.07zM609.19 320.85a10.37 10.37 0 0 1 .41-2.87l-4.69 1.32 4.31 2.27c-.01-.24-.03-.48-.03-.72zM619.58 331.24a10.46 10.46 0 0 1-1.93-.19l1.71 4.29 1.68-4.22a10.28 10.28 0 0 1-1.46.12zM609.29 322.2l-3.74 3.11 4.81.31a10.3 10.3 0 0 1-1.07-3.42zM610.7 326.22l-2.13 4.32 4.43-1.64a10.45 10.45 0 0 1-2.3-2.68zM613.64 329.37l-.19 4.72 3.33-3.24a10.34 10.34 0 0 1-3.14-1.48z"/></g><circle class="cls-1" cx="619.58" cy="320.85" r="8.75"/></g><path class="cls-1" d="M900 400h40.59v40.33H900zM940.59 500H900v56.03l40.59-14.41V500z"/><path class="cls-4" d="M940.54 400v10h-.04v10.33h.04V430h-.04v10.31H900v39.73h80.04V400h-39.5zM940.54 500v10h-.04v10.33h.04V530h-.04v11.65l.37-.13 22.86 8.48 16.31 6.15V500h-39.5z"/><path class="cls-2" d="M740.44 199.83h39.69v8.04h-39.69z"/><path class="cls-1" d="M740.44 207.88h39.69v8.04h-39.69z"/><path class="cls-1" d="M700.03 215.88h40.44v8.04h-40.44z"/><path class="cls-1" d="M716.6 200.06h8.04v40.07h-8.04z"/><path class="cls-2" d="M699.94 300.04h40.53v40.29h-40.53z"/><path class="cls-1" d="M700.03 316.13h40.44v8.04h-40.44z"/><path class="cls-1" d="M716.6 300.06h8.04v40.32h-8.04z"/><path class="cls-2" d="M740.44 215.94h39.69v8.04h-39.69z"/><path class="cls-1" d="M740.44 223.99h39.69v8.04h-39.69zM280 556v-56h-80v56l24-8.68a18.89 18.89 0 0 1-1.87-8.82 15 15 0 0 1 .33-2.55c.47-4.08 5.85-15 18-15 12.94 0 19.59 11.73 18.18 20.86.1-.58-.1.65-.1.65a15.75 15.75 0 0 1-1.59 4.92"/><path class="cls-2" d="M740.44 232.04h39.69v8.04h-39.69z"/><path class="cls-1" d="M700.02 240.07h80.03v7.99h-80.03z"/><path class="cls-2" d="M700.02 248.07h80.03v7.89h-80.03zM740.44 300.04h39.69v8.04h-39.69z"/><path class="cls-1" d="M740.44 308.09h39.69v8.04h-39.69z"/><path class="cls-2" d="M740.44 316.14h39.69v8.04h-39.69z"/><path class="cls-1" d="M740.44 324.2h39.69v8.04h-39.69z"/><path class="cls-2" d="M740.44 332.25h39.69v8.04h-39.69z"/><path class="cls-1" d="M700.02 255.97h80.03v7.89h-80.03z"/><path class="cls-2" d="M700.02 263.87h80.03v7.89h-80.03z"/><path class="cls-1" d="M700.02 271.78h80.03v7.89h-80.03zM700.02 340.28v7.98h21.89l18.87-6.7 18.08 6.7h21.19v-7.98h-80.03z"/><g><path class="cls-2" d="M722.06 348.21h-22.04v7.83l22.04-7.83zM758.72 348.21l21.2 7.86v.1h.13v-7.96h-21.33z"/></g><g><g><path class="cls-3" d="M258.58 542.43q.13-.75.21-1.52c0 .51-.12 1-.21 1.52z"/><path class="cls-2" d="M248.45 535.81c-8.19 0-7.85 7-16.15 7a11.24 11.24 0 0 1-10-6.15 17.79 17.79 0 0 0 1.7 10.66l16.71-5.94h.07l16.21 6a18.24 18.24 0 0 0 1.59-4.92 10.76 10.76 0 0 0-10.13-6.65z"/></g><path class="cls-3" d="M240.5 520.92a18.35 18.35 0 0 0-18.16 15.74 11.24 11.24 0 0 0 10 6.15c8.3 0 8-7 16.15-7a10.76 10.76 0 0 1 10.13 6.62 18.27 18.27 0 0 0-18.08-21.51z"/></g><g><path class="cls-12" transform="rotate(-45 212.834 516.651)" d="M205.38 515.4h14.9v2.49h-14.9z"/><path class="cls-12" transform="rotate(-45 215.003 518.823)" d="M207.55 517.57h14.9v2.49h-14.9z"/><path class="cls-12" transform="rotate(-45 217.16 520.99)" d="M209.72 519.74h14.9v2.49h-14.9z"/></g><g><path class="cls-12" transform="rotate(-45 266.708 518.956)" d="M265.46 511.51h2.49v14.9h-2.49z"/><g><path class="cls-12" transform="rotate(-45 271.687 519.604)" d="M270.45 516.14h2.49v6.93h-2.49z"/><path class="cls-12" transform="rotate(-45 266.092 513.991)" d="M264.84 510.49h2.49v7.01h-2.49z"/></g><g><path class="cls-12" transform="rotate(-45 267.361 523.935)" d="M266.11 520.48h2.49v6.93h-2.49z"/><path class="cls-12" transform="rotate(-45 261.75 518.33)" d="M260.51 514.83H263v7.01h-2.49z"/></g></g><path class="cls-2" d="M599.96 440.04v40h.55l41.2-39.78-41.7-40.26h-.05v40.04zM640.75 500h-40.64l39.92 41.8 39.54-41.8h-38.82z"/><path class="cls-3" d="M600.11 500h-.15v56.04l40.07-14.24-39.92-41.8z"/><path class="cls-1" d="M679.57 500l-39.54 41.8 39.93 14.17V500h-.39z"/><path class="cls-3" d="M641.49 440.04l.22.22-41.2 39.78H680v-40h-38.51z"/><path class="cls-1" d="M600.01 400l41.48 40.04H680V400h-79.99z"/><path class="cls-3" d="M766.37 550.95l13.59 5.02V500h-13.59v50.95z"/><path class="cls-1" d="M752.56 545.85l13.79 5.09V500h-13.79v45.85zM713.73 551.15l13.8-4.9V500h-13.8v51.15z"/><path class="cls-2" d="M752.62 500h-25.2v46.28l13.33-4.73.08-.03 11.79 4.36V500z"/><path class="cls-3" d="M713.76 500h-13.8v56.04l13.8-4.9V500z"/><path class="cls-4" d="M931.42 415.92h-7.85l-2.42-7.46a.68.68 0 0 0-1.29 0l-2.42 7.46h-7.85a.68.68 0 0 0-.4 1.22l6.35 4.61-2.42 7.46a.68.68 0 0 0 1 .76l6.35-4.61 6.35 4.61a.68.68 0 0 0 1-.76l-2.42-7.46 6.33-4.6a.68.68 0 0 0-.38-1.24zM931.42 517.92h-7.85l-2.42-7.46a.68.68 0 0 0-1.29 0l-2.42 7.46h-7.85a.68.68 0 0 0-.4 1.22l6.35 4.61-2.42 7.46a.68.68 0 0 0 1 .76l6.35-4.61 6.35 4.61a.68.68 0 0 0 1-.76l-2.42-7.46 6.33-4.6a.68.68 0 0 0-.38-1.24z"/><circle class="cls-1" cx="41.11" cy="642.13" r="22.79"/><path class="cls-6" d="M41.39 607.67s3.47 29.74 7.92 36.13c-1.81 3.06-8.2 12-8.2 12l-8.06-12.23s4.86-8.81 8.34-35.9z"/><path class="cls-3" d="M.14 700.06H80v55.87l-40-14.3L.14 756v-55.94z"/><path class="cls-6" d="M50.84 646.44l-7.64 10.83a23.34 23.34 0 0 0 12.92 4.45c7.22 0 8.88-3.72 8.88-3.72s-9.16-.59-14.16-11.56zM31.52 647.13l7.92 10.28s-12.09.28-19.18 7.92c-.69-6.94 2.37-13.61 11.26-18.2z"/><path class="cls-1" d="M40.11 713.34A22.78 22.78 0 0 0 21 748.49l19-6.86 19.24 6.88a22.78 22.78 0 0 0-19.13-35.17z"/><path class="cls-6" d="M32.05 737.52l3.71 5.64 4.24-1.53 4.66 1.67c1.48-2.14 2.93-4.28 3.65-5.5-4.45-6.39-7.92-36.13-7.92-36.13-3.48 27.09-8.34 35.85-8.34 35.85zM54.93 747a22.08 22.08 0 0 1-4.59-6.7l-2.85 4zM33.28 744l-2.76-3.58a22 22 0 0 0-9 7.82z"/><path class="cls-1" d="M263.49 646.47l-1.4-5.85a5.37 5.37 0 0 0-3-8.26l-1.27-3.07-.7-5.83-4.38 4.33c-4 0-9.21.36-13.36 6.35-4 5.76-13 18.72-15.3 22l-.49.71h22.82l2.15-5.43 2.08-5.08 3.78 3.4a7.8 7.8 0 0 0 .47 3.16c.58 2.6 3 4.94 4.75 4.52l-.09-1.59a5.37 5.37 0 0 0 4-9.35zm-6.12-8.77a2 2 0 0 1 1.24-2.49l1.41 3.35a2 2 0 0 1-2.65-.86z"/><path class="cls-15" d="M252.5 629.33v-7.67s-10.5-.67-16.67 6.67S213.17 657 213.17 657h30.5s5.83-15.83 5.67-16.33 3.16-11.34 3.16-11.34zM259.09 728.63a5.37 5.37 0 0 0-3-8.26l-1.27-3.07-.7-5.83-4.38 4.33c-4 0-9.21.36-13.36 6.35-4 5.76-13 18.72-15.3 22l-.49.71h10.89l1.57-.56 7.75-2.75h.08l3.37 1.24 1.32-3.35 2.08-5.08 3.78 3.4a7.8 7.8 0 0 0 .47 3.16c.58 2.6 3 4.94 4.75 4.52l-.09-1.59a5.37 5.37 0 0 0 4-9.35zm-4.72-2.92a2 2 0 0 1 1.24-2.49l1.41 3.35a2 2 0 0 1-2.65-.87z"/><g><path class="cls-11" d="M240.75 700H200v56l18.38-6.53 13.1-4.65h-10.93l.49-.71c2.27-3.25 11.31-16.21 15.3-22 4.15-6 9.36-6.34 13.36-6.35l4.38-4.33.7 5.83 1.27 3.07a5.37 5.37 0 0 1 3 8.26l1.4 5.85a5.37 5.37 0 0 1-4 9.35l.09 1.59c-1.78.42-4.17-1.92-4.75-4.52a7.8 7.8 0 0 1-.47-3.16l-3.78-3.4-2.08 5.08-1.32 3.35L280 756v-56z"/><path class="cls-11" d="M257 726.56l-1.41-3.35a1.84 1.84 0 1 0 1.41 3.35z"/></g><path class="cls-16" d="M242.36 720.88a7.45 7.45 0 0 1 7.1-3.41v-7.81s-10.5-.67-16.67 6.67S210.17 745 210.17 745h15.16c3.11-10.09 11.29-15.76 17.03-24.12z"/><path class="cls-17" d="M341.25 614S327 618 327 626.5c0 11.67 35.25 2.88 35.25 16.42"/><path class="cls-18" d="M362.32 642.82c-.45-.57-7.41-.61-12.35 1.83a25.49 25.49 0 0 0 1.92-9c0-9.83-9.4-21.62-10.46-21.62-1.36 0-10.46 11.79-10.46 21.62a25.72 25.72 0 0 0 1.73 8.66c-4.86-2.07-11.14-2-11.56-1.47s1.76 9.52 6.52 13.23c4.34 3.43 12.34 3.93 14.1 3.28 1.84.61 9.7.1 14.05-3.3 4.76-3.71 6.92-12.71 6.51-13.23z"/><path class="cls-19" d="M362.32 642.82c-.45-.57-7.41-.61-12.35 1.83a25.49 25.49 0 0 0 1.92-9c0-9.83-9.4-21.62-10.46-21.62-1.36 0-10.46 11.79-10.46 21.62a25.72 25.72 0 0 0 1.73 8.66c-4.86-2.07-11.14-2-11.56-1.47s1.76 9.52 6.52 13.23c4.34 3.43 12.34 3.93 14.1 3.28 1.84.61 9.7.1 14.05-3.3 4.76-3.71 6.92-12.71 6.51-13.23z"/><circle class="cls-4" cx="341.37" cy="658.34" r="5"/><path class="cls-20" d="M341.33 652.29v12.65s-.21 4.06 5.23 4.06"/><g><path class="cls-1" d="M340.6 651.71a.25.25 0 0 1-.25-.26l.75-26.24a.25.25 0 0 1 .5 0l.75 26.24a.25.25 0 0 1-.25.26z"/><path class="cls-1" d="M341.34 625.23l.74 26.24h-1.48l.74-26.24m0-.5a.5.5 0 0 0-.5.49l-.74 26.24a.5.5 0 0 0 .5.51h1.49a.5.5 0 0 0 .5-.51l-.74-26.24a.5.5 0 0 0-.5-.49z"/></g><circle class="cls-19" cx="341.33" cy="658.25" r="5.96"/><path class="cls-20" d="M362.31 643c0 6.14-1.13 21.77-20.31 21.77-20.91 0-20.88-16-20.88-21.61"/><g><path class="cls-18" d="M350 736.66a25.49 25.49 0 0 0 1.92-9c0-9.83-9.4-21.62-10.46-21.62-1.36 0-10.46 11.79-10.46 21.62a25.72 25.72 0 0 0 1.73 8.66c-4.86-2.07-11.14-2-11.56-1.47s1.33 7.68 5.09 11.87l6.74-2.42 7.75-2.75h.08l15.79 5.83c4.19-4 6.09-12 5.71-12.53s-7.42-.63-12.33 1.81zM326.22 746.71l4.64-1.65-4.64 1.65z"/></g><g><path class="cls-1" d="M341.84 717.21a.5.5 0 0 0-1 0l-.7 24.55.6-.21h.08l1.73.64zM325.25 747.06l1.96-.7-1.96.7zM324.5 747.32l-1.95.69 1.95-.69z"/><path class="cls-1" d="M363.23 734.53c-.23-5-4.77-7.19-10.44-8.37-.42-5-2.84-10-4.9-13.5 0-.07-4.12-6.84-6.15-7.53a1 1 0 0 0-.74-.13c-.61.17-15 4.31-15 13.46 0 2.83 1.7 4.61 4.32 5.79a19.08 19.08 0 0 0-.33 3.36 24.58 24.58 0 0 0 1.14 7.06 27.65 27.65 0 0 0-7.7-1.16c-2.52 0-2.86.44-3.06.7a1.23 1.23 0 0 0-.21.62 1 1 0 0 0-.06.31c0 2.85 0 8.07 2.45 12.85l1.95-.69a17.6 17.6 0 0 1-1.33-3.28 19 19 0 0 0 2.08 3l2-.7c-3-3.11-4.68-8.39-5.06-10.49v-.32a11.27 11.27 0 0 1 1.28-.06 24.39 24.39 0 0 1 8.88 1.71l2.07.88-.77-2.11a24.51 24.51 0 0 1-1.67-8.32c0-8.61 7.44-18.94 9.45-20.52 1.85 1.65 9.53 11.93 9.53 20.52a24.28 24.28 0 0 1-1.85 8.65l-.91 2.33 2.24-1.11a23.76 23.76 0 0 1 9.62-2.05 11.72 11.72 0 0 1 1.26.06v.54c-.49 2.39-2.38 8-5.68 10.9l2 .75a16.6 16.6 0 0 0 2-2.58 17.54 17.54 0 0 1-1.39 2.82l1.95.72c2.07-3.58 3.15-8.16 3.15-13.69a1 1 0 0 0-.09-.42zm-32.47-12.22c-1.71-.88-2.76-2.08-2.76-3.81 0-5 5.7-8.36 9.69-10.11a42.35 42.35 0 0 0-6.93 13.92zM360 733.53a27 27 0 0 0-8.41 1.39 24.64 24.64 0 0 0 1.22-6.72c4.22.91 7.49 2.41 8.24 5.36-.28-.02-.61-.03-1.05-.03z"/></g><g><path class="cls-4" d="M358.43 748l-.19-.07a17.54 17.54 0 0 0 1.39-2.82 16.6 16.6 0 0 1-2 2.58l-2-.75M328 718.5c0 1.73 1 2.93 2.76 3.81a42.35 42.35 0 0 1 6.94-13.92c-4 1.75-9.7 5.13-9.7 10.11z"/><path class="cls-4" d="M318.33 749.51l6.91-2.46a19 19 0 0 1-2.08-3 17.6 17.6 0 0 0 1.33 3.28l-1.95.69c-2.44-4.78-2.45-10-2.45-12.85a1 1 0 0 1 .06-.31 1.23 1.23 0 0 1 .21-.62c.2-.26.54-.7 3.06-.7a27.65 27.65 0 0 1 7.7 1.16 24.58 24.58 0 0 1-1.14-7.06 19.08 19.08 0 0 1 .33-3.36c-2.62-1.18-4.32-3-4.32-5.79 0-9.15 14.37-13.29 15-13.46a1 1 0 0 1 .76.09c2 .69 6.11 7.46 6.15 7.53 2.06 3.47 4.48 8.5 4.9 13.5 5.67 1.17 10.21 3.35 10.44 8.37a1 1 0 0 1 .09.42c0 5.53-1.08 10.11-3.15 13.69L380 756v-56h-80v56l22.59-8 1.95-.69"/><path class="cls-4" d="M361.08 733.57c-.75-2.95-4-4.45-8.24-5.36a24.64 24.64 0 0 1-1.22 6.72 27 27 0 0 1 8.41-1.39c.41-.01.74 0 1.05.03z"/></g><path class="cls-1" d="M448.6 623l-3.87 4.27 2.87 2.06-4.36 10.55 1.84-8.94-3.9-3 4-7.77a9.83 9.83 0 0 0-5.08-1.52c-9.72 0-17.6 16.83-17.6 26.55s7.88 16.91 17.6 16.91 17.6-7.19 17.6-16.91c-.02-6.66-3.7-16.59-9.1-22.2zM444.73 722.23l2.87 2.06-4.36 10.55 1.84-8.94-3.9-3 4-7.77a9.83 9.83 0 0 0-5.08-1.52c-9.72 0-17.6 16.83-17.6 26.55a16.69 16.69 0 0 0 1.65 7.28l16.61-5.9h.08l15.34 5.66a16.73 16.73 0 0 0 1.52-7c0-6.63-3.67-16.56-9.08-22.21z"/><path class="cls-2" d="M440.75 700H400v56l24.18-8.59a16.69 16.69 0 0 1-1.65-7.28c0-9.72 7.88-26.55 17.6-26.55a9.83 9.83 0 0 1 5.08 1.52l-4 7.77 3.9 3-1.84 8.94 4.36-10.55-2.87-2.06 3.84-4.2c5.41 5.65 9.08 15.59 9.08 22.21a16.73 16.73 0 0 1-1.52 7L480 756v-56zM500 600l40 40 40-40h-80z"/><path class="cls-5" d="M580 680v-80l-40 40 40 40z"/><path class="cls-1" d="M499.96 640.04v40L540 640l-40-40h-.04v40.04z"/><path class="cls-3" d="M580 680l-40-40-40.04 40.04H580V680z"/><path class="cls-2" d="M540 723l23-23h-46l23 23z"/><path class="cls-5" d="M568.88 751.88l11.08 4.09V700H563l-23 23 28.88 28.88z"/><path class="cls-1" d="M540 723l-23-23h-17.04v56.04l10.86-3.86L540 723z"/><path class="cls-3" d="M540 723l-29.18 29.18 29.93-10.63.08-.03 28.05 10.36L540 723zM613.34 751.29v-15.7H600v-.38V756zM640.75 741.55l39.21 14.42.09.03v-20.75.33H638v6.94l2.75-.97zM600 700v11.11-.19h13.29V700zM638 700v10.92h42.05v.68V700H638z"/><path class="cls-2" d="M631 700h-10.66v17.92h-20.29v10.66h20.29v20.22l10.66-3.79v-16.43h49.05v-10.66H631V700z"/><path class="cls-1" d="M100 400V480.04h80.04V400H100z"/><path class="cls-2" d="M100 408.67h80v13.14h-80zM100 457.61h80v13.14h-80z"/><path class="cls-21" d="M128.01 446.52l11.78-20.4 11.78 20.4h-23.56z"/><path class="cls-21" d="M151.57 433.3l-11.78 20.4-11.78-20.4h23.56z"/><path class="cls-3" d="M879.52 753.41a1.07 1.07 0 0 1-.73-1.18 49.48 49.48 0 0 0 .53-5.85 1 1 0 0 1-.44-.76 34.81 34.81 0 0 1-.18-5.54c-.08-3.33-.08-6.66 0-10v-.57a.82.82 0 0 1-.29-.51 45.35 45.35 0 0 1-.54-4.89.86.86 0 0 1 .54-.87v-3.2V718.62a.93.93 0 0 1 0-.11c0-3 .19-5.93.48-8.89a1.06 1.06 0 0 1 0-.16 42.42 42.42 0 0 1 .49-5.48.76.76 0 0 1 0-.08v-2.23a1 1 0 0 1-1.1-.21l-.19-.25a1.09 1.09 0 0 1-.93-.25l-.13-.11c-1.15.9-2.42.69-4-.11a.82.82 0 0 1-.49-.74h-64.1a1 1 0 0 1-.08.5c-.45 1-2.26 1-3.44.94a1 1 0 0 1-.68 0 24.52 24.52 0 0 1-3.13-.18v.51a.94.94 0 0 1 0 .18 1 1 0 0 1 .41.7 125.59 125.59 0 0 1 .19 15.78c.1 1.81.16 3.62.14 5.39 1.36 4.52.79 9.37.34 14-.14 1.51-.26 3-.36 4.54a33.22 33.22 0 0 1-.42 6.83c-.07 1.15-.14 2.3-.22 3.46v.19a1 1 0 0 1 .65 0l.28-.56a1 1 0 0 1 1.54-.23l.08-.15a1 1 0 0 1 1.4-.31.94.94 0 0 1 1 .23h.16a.75.75 0 0 1 .65-.12h.12a1 1 0 0 1 .36-.11 1.05 1.05 0 0 1 1.5.86V752.86l9.3-3.3a.9.9 0 0 1 .67-1.2 13.72 13.72 0 0 0 3.75-1.81.93.93 0 0 1 .75-.42 9.75 9.75 0 0 1 1.29-.58 1 1 0 0 1 .83-.22H825.73a.92.92 0 0 1 .21.07l.13.07h.07l.11.08a1 1 0 0 1 .23 1l9.67-3.43a1 1 0 0 1 .36-.47 2.77 2.77 0 0 0 .89-1.27 1 1 0 0 1 1.41-.3 1.1 1.1 0 0 1 .38-.25 1 1 0 0 1 .58-.71 1.11 1.11 0 0 1 1.28-.57 1 1 0 0 1 1.19 1.17 3.81 3.81 0 0 1 2 1.32 1 1 0 0 1 .24.75l9.47 3.5a.84.84 0 0 1 .69-.75c.34-.06.67-.12 1-.16h.09a3.56 3.56 0 0 1-.17-.61c-.24-1.18 1.41-1.7 1.84-.73a1.06 1.06 0 0 1 .58.26l.08.08a1 1 0 0 1 .85 0 1 1 0 0 1 1.22.39c.86 1.42 1.46 3 2.38 4.38a1 1 0 0 1 .15.38l9.36 3.45a.94.94 0 0 1 .88-1.33h.13a.9.9 0 0 1 .49.15h.18a1 1 0 0 1 1.57.2l.18.8a1 1 0 0 1 1.36 0 1 1 0 0 1 1.33.35c.12.23.25.44.39.66a1.17 1.17 0 0 1 .66.16 1 1 0 0 1 .23-.53z"/><path class="cls-5" d="M800 600h80v8.9h-80zM800 617.8h80v8.9h-80zM800 635.6h80v8.9h-80zM800 653.4h80v8.9h-80zM800 671.2h80v8.9h-80z"/><path class="cls-1" d="M899.96 600.06H980v80.27h-80.04z"/><path class="cls-5" d="M817.95 749.61l8.9-3.16V700h-8.9v49.61zM809.04 700h-8.9v55.94l8.9-3.16V700zM835.95 743.22l4.99-1.77 3.91 1.44V700h-8.9v43.22zM853.95 746.25l8.9 3.28V700h-8.9v46.25zM871.95 752.89l8.05 2.98V700h-8.05v52.89z"/><path class="cls-4" d="M939.98 700h-39.84v55.94l39.8-14.49.04.01L980 755.87V700h-40.02zM899.96 640.2H980v40.14h-80.04z"/><path class="cls-3" d="M971 631.62l-2.77-4.79a.63.63 0 0 0-1.1 0l-2.77 4.79a.63.63 0 0 0 .55 1h.87a1.93 1.93 0 0 0 0 .36 5.32 5.32 0 0 1-4.93 5.29h-12.2l12-12a13.54 13.54 0 0 0-19.1 0l-8.17 8.17v-10.91h1.39a3.65 3.65 0 0 0 3.64-3.64h-15.56a3.42 3.42 0 0 0-3.23 2.36h-5.17a2.79 2.79 0 0 0-2.78 2.78H916a3.59 3.59 0 0 0-.12.86 3.65 3.65 0 0 0 3.64 3.64h2.36v13.77l-6.49-2.87v-2.09a1.42 1.42 0 0 0-1.42-1.42 1.42 1.42 0 0 0-1.42 1.42V647a1.42 1.42 0 0 0 1.42 1.42 1.42 1.42 0 0 0 1.42-1.42v-.33l10.61 4.72.29.13 1 .45-1.94 4.38h-2.09a1.42 1.42 0 0 0-1.42 1.42 1.42 1.42 0 0 0 1.42 1.42H932a1.42 1.42 0 0 0 1.42-1.42 1.42 1.42 0 0 0-1.42-1.42h-.33l1.91-4.33h12.28l.52.52-3.81 3.81h-2.74a1.44 1.44 0 0 0 0 2.88h10.3a1.44 1.44 0 0 0 .48-2.79l1.79-1.79a2.86 2.86 0 0 0 .83-2.11 2.89 2.89 0 0 0 0-.52h1.71a6.88 6.88 0 0 0 5.12-2.29l1.88 2.4c.06.07.13.13.19.2v4h-2.9a1.42 1.42 0 0 0-1.42 1.42 1.42 1.42 0 0 0 1.42 1.42h8.71a1.42 1.42 0 0 0 1.42-1.42 1.42 1.42 0 0 0-1.42-1.42h-.06v-6.06a2.83 2.83 0 0 0-.17-.92 3.24 3.24 0 0 0-.61-1.3l-4.58-5.83v-.34a9.19 9.19 0 0 0 7.21-9 1.93 1.93 0 0 0 0-.36h.87a.63.63 0 0 0 .4-.9z"/><path class="cls-1" d="M900.14 700v24.56H980V700H900.14z"/><path class="cls-3" d="M962.74 717.46l-2.12-3.68a.49.49 0 0 0-.84 0l-2.12 3.68a.49.49 0 0 0 .42.73h.67a1.49 1.49 0 0 0 0 .28 4.08 4.08 0 0 1-3.79 4.07h-9.36l9.23-9.23a10.4 10.4 0 0 0-14.66 0l-6.27 6.27v-8.31h1.06a2.81 2.81 0 0 0 2.8-2.8h-12a2.62 2.62 0 0 0-2.48 1.81h-4a2.14 2.14 0 0 0-2.13 2.13h3.33a2.75 2.75 0 0 0-.09.66 2.81 2.81 0 0 0 2.8 2.8H925v10.57l-5-2.2v-1.61a1.09 1.09 0 0 0-1.09-1.09 1.09 1.09 0 0 0-1.09 1.09v6.68a1.09 1.09 0 0 0 1.09 1.09 1.09 1.09 0 0 0 1.09-1.09v-.25l8.12 3.59.22.1.79.35-1.49 3.37H926a1.09 1.09 0 0 0-1.09 1.09 1.09 1.09 0 0 0 1.09 1.09h6.68a1.09 1.09 0 0 0 1.09-1.09 1.09 1.09 0 0 0-1.09-1.09h-.25l1.47-3.32h9.43l.4.4-2.92 2.92h-2.11a1.11 1.11 0 0 0 0 2.21h7.91a1.1 1.1 0 0 0 .37-2.14l1.37-1.37a2.2 2.2 0 0 0 .64-1.62 2.22 2.22 0 0 0 0-.4h1.31a5.28 5.28 0 0 0 3.93-1.76l1.45 1.84c0 .06.1.1.15.15v3.09h-2.23a1.09 1.09 0 0 0-1.09 1.09 1.09 1.09 0 0 0 1.09 1.09h6.68a1.09 1.09 0 0 0 1.09-1.09 1.09 1.09 0 0 0-1.09-1.09v-4.67a2.17 2.17 0 0 0-.13-.71 2.49 2.49 0 0 0-.47-1l-3.52-4.48v-.26a7.06 7.06 0 0 0 5.54-6.88 1.49 1.49 0 0 0 0-.28h.67a.49.49 0 0 0 .37-.73z"/><g><path class="cls-1" d="M700 600.06h80.04v80.04H700zM700 699.98v55.94l39.86-14.38 40 14.31v-55.87H700z"/><rect class="cls-6" x="730.16" y="621.73" width="37.31" height="9.79" rx="4.89" ry="4.89"/><path class="cls-6" d="M760.14 621.73a9.55 9.55 0 0 1-9.52 9.52h-15.91a9.55 9.55 0 0 1-9.52-9.52"/><path class="cls-6" d="M732 635.92v22.52a6.86 6.86 0 0 0 6.84-6.84v-22.53a6.86 6.86 0 0 0-6.84 6.85zM754.93 635.92v22.52a6.86 6.86 0 0 0 6.84-6.84v-22.53a6.86 6.86 0 0 0-6.84 6.85zM718.82 625.61h-2a2.86 2.86 0 0 1-2.86-2.86v-.94a4.15 4.15 0 0 0-4.14 4.14V630a4.4 4.4 0 0 0 4.38 4.38h4.82-2.55a2.55 2.55 0 0 1 2.55 2.55V641a4.15 4.15 0 0 0 4.14-4.14V630a4.4 4.4 0 0 0-4.34-4.39zM762.43 713.65h-37.38A9.55 9.55 0 0 0 733 723a4.87 4.87 0 0 0 .68.23 6.8 6.8 0 0 0-1.79 4.59v16.6l6.84-2.47v-18.51h17.67a6.8 6.8 0 0 0-1.61 4.39v19l4.62 1.65a6.82 6.82 0 0 0 2.22-5v-20.04h.8a4.91 4.91 0 0 0 4.89-4.89 4.91 4.91 0 0 0-4.89-4.9zM718.68 717.52h-2a2.86 2.86 0 0 1-2.86-2.86v-.94a4.15 4.15 0 0 0-4.14 4.14v4.05a4.4 4.4 0 0 0 4.38 4.38h4.82-2.55a2.55 2.55 0 0 1 2.55 2.55V733a4.15 4.15 0 0 0 4.14-4.14v-6.91a4.4 4.4 0 0 0-4.34-4.43z"/></g><path class="cls-22" d="M100.23 880.04V800h80.04"/><path class="cls-23" d="M180.27 800v80.04h-80.04"/><path class="cls-24" d="M180.27 813.12l-66.92 66.92h6.76l60.16-60.16v-6.76z"/><path d="M167.22 800l-66.99 66.99v13.05h13.15l66.89-66.89V800h-13.05z"/><path class="cls-24" d="M160.44 800l-60.21 60.21v6.76L167.2 800h-6.76z"/><g><path class="cls-24" d="M166.95 899.75h-6.76 6.76z"/><path class="cls-22" d="M106.61 953.33l53.58-53.58h-60.12v55.94l6.54-2.36z"/><path class="cls-3" d="M117.22 949.5l49.75-49.75h-.02l-49.76 49.76.03-.01z"/><path class="cls-23" d="M179.93 955.62v-35.89l-26.44 26.43 26.44 9.46z"/><path class="cls-24" d="M153.49 946.16l26.44-26.43V913l-31.4 31.39 4.96 1.77z"/><path d="M166.97 899.75l-49.75 49.75 20.41-7.36 2.3-.83 8.58 3.07 31.42-31.41v-13.22h-12.96z"/><path class="cls-3" d="M148.53 944.39l31.4-31.39v-.03l-31.42 31.41.02.01z"/><path class="cls-24" d="M117.19 949.51l49.76-49.76h-6.76l-53.58 53.58 10.58-3.82z"/></g><path class="cls-1" d="M200 400.06h80.04v80.04H200z"/><circle class="cls-2" cx="240.6" cy="438.98" r="18.44"/><g><path class="cls-12" transform="rotate(-45 215.682 418.582)" d="M209.24 417.48h12.9v2.2h-12.9z"/><path class="cls-12" transform="rotate(-45 217.614 420.541)" d="M211.16 419.44h12.9v2.2h-12.9z"/><path class="cls-12" transform="rotate(-45 219.47 422.413)" d="M213.02 421.32h12.9v2.2h-12.9z"/></g><g><path class="cls-12" transform="rotate(-45 219.496 454.202)" d="M218.39 447.74h2.2v12.9h-2.2z"/><path class="cls-12" transform="rotate(-45 215.72 458.026)" d="M214.61 451.58h2.2v12.9h-2.2z"/><g><path class="cls-12" transform="rotate(-45 215.16 453.678)" d="M214.06 450.67h2.2v6h-2.2z"/><path class="cls-12" transform="rotate(-45 219.994 458.565)" d="M218.89 455.51h2.2v6.1h-2.2z"/></g></g><g><g><path class="cls-12" transform="rotate(-45 261.748 458.55)" d="M258.75 457.44h6v2.2h-6z"/><path class="cls-12" transform="rotate(-45 266.613 453.735)" d="M263.56 452.64h6.1v2.2h-6.1z"/></g><g><path class="cls-12" transform="rotate(-45 263.603 460.422)" d="M260.6 459.33h6v2.2h-6z"/><path class="cls-12" transform="rotate(-45 268.495 455.646)" d="M265.44 454.55h6.1v2.2h-6.1z"/></g><g><path class="cls-12" transform="rotate(-45 259.886 456.662)" d="M256.89 455.56h6v2.2h-6z"/><path class="cls-12" transform="rotate(-45 264.727 451.837)" d="M261.68 450.73h6.1v2.2h-6.1z"/></g></g><g><path class="cls-12" transform="rotate(-45 264.151 420.655)" d="M263.05 414.21h2.2v12.9h-2.2z"/><g><path class="cls-12" transform="rotate(-45 268.536 421.199)" d="M267.44 418.19h2.2v6h-2.2z"/><path class="cls-12" transform="rotate(-45 263.646 416.344)" d="M262.54 413.3h2.2v6.1h-2.2z"/></g><g><path class="cls-12" transform="rotate(-45 264.732 424.954)" d="M263.63 421.96h2.2v6h-2.2z"/><path class="cls-12" transform="rotate(-45 259.946 420.087)" d="M258.85 417.04h2.2v6.1h-2.2z"/></g></g><path class="cls-3" d="M259 439a18.43 18.43 0 0 0-36.7-2.5 11.27 11.27 0 0 0 10 6.06c8.35 0 8-7.05 16.25-7.05a10.83 10.83 0 0 1 10.2 6.66v-.22c.07-.43.13-.86.18-1.3s.07-1.09.07-1.65z"/><path class="cls-1" d="M241.27 900h-40.64l39.92 41.8 39.54-41.8h-38.82z"/><path class="cls-3" d="M200.63 900h-.15v56.04l40.07-14.24-39.92-41.8z"/><path class="cls-2" d="M280.09 900l-39.54 41.8 39.93 14.17V900h-.39z"/><path class="cls-3" d="M242.01 840.04l.23.22-41.21 39.78h79.49v-40h-38.51z"/><path class="cls-2" d="M200.53 800l41.48 40.04h38.51V800h-79.99z"/><path class="cls-1" d="M200.48 840.04v40h.55l41.21-40L200.53 800h-.05v40.04z"/><path class="cls-1" d="M200.34 840.04v40L240.38 840l-40-40h-.04v40.04z"/><path class="cls-3" d="M200.34 880.04h80.04v-40h-40.04l-40 40z"/><path class="cls-2" d="M280.38 800h-80l40 40-.04.04h40.04V800z"/><g><path class="cls-5" d="M231.72 843.3a.09.09 0 0 1 0-.05l-.35-2.22-2.22-.35h-.05a.09.09 0 0 1 0-.05.09.09 0 0 1 .05-.1l2-1-.35-2.22a.09.09 0 0 1 .16-.08l1.59 1.59 2-1a.09.09 0 0 1 .11 0 .09.09 0 0 1 0 .11l-1 2 1.59 1.59a.09.09 0 0 1 0 .11.09.09 0 0 1-.1.05l-2.22-.35-1 2a.09.09 0 0 1-.1.05z"/><path class="cls-5" d="M234.54 837.83l-1 2.06 1.64 1.64-2.28-.36-1 2.06-.36-2.28-2.28-.36 2.06-1-.36-2.28 1.64 1.64 2.06-1.05M234.78 837.77a.19.19 0 0 0-.22 0l-1.94 1-1.62-1.65a.19.19 0 0 0-.22 0 .19.19 0 0 0-.1.2l.34 2.15-1.94 1a.19.19 0 0 0 .06.35l2.15.34.34 2.15a.19.19 0 0 0 .35.06l1-1.94 2.14.34a.19.19 0 0 0 .18-.31l-1.54-1.54 1-1.94a.18.18 0 0 0 0-.22z"/></g><g><circle class="cls-5" cx="214.54" cy="840.03" r="4.5"/><path class="cls-5" d="M215.02 836.15h-.95l-.48-5.1.95-.75.96.75-.48 5.1zM214.07 843.93h.95l.48 5.1-.96.75-.95-.75.48-5.1zM210.65 839.57v.95l-5.1.48-.75-.96.75-.96 5.1.49zM218.44 840.52v-.95l5.09-.49.76.96-.76.96-5.09-.48zM212.13 836.95l-.34.34-.34.34-3.94-3.27.15-1.21 1.2-.14 3.27 3.94zM216.96 843.13l.34-.34.33-.33 3.95 3.26-.15 1.21-1.21.15-3.26-3.95zM211.45 842.46l.34.33.34.34-3.27 3.95-1.2-.15-.15-1.21 3.94-3.26zM217.63 837.63l-.33-.34-.34-.34 3.26-3.94 1.21.14.15 1.21-3.95 3.27z"/></g><g><path class="cls-5" d="M208.18 868h-.05l-1.82-1.32-1.82 1.32h-.1a.09.09 0 0 1 0-.11l.69-2.13-1.82-1.32a.09.09 0 0 1 .05-.17h2.24l.69-2.13a.09.09 0 0 1 .09-.06.09.09 0 0 1 .09.06l.69 2.13h2.24a.09.09 0 0 1 .09.06.09.09 0 0 1 0 .11l-1.82 1.32.69 2.13a.09.09 0 0 1 0 .11z"/><path class="cls-5" d="M206.31 862.11l.71 2.2h2.31l-1.87 1.36.71 2.2-1.87-1.36-1.87 1.36.71-2.2-1.87-1.36h2.31l.71-2.2M206.29 861.92a.19.19 0 0 0-.18.13l-.67 2.07h-2.18a.19.19 0 0 0-.18.13.19.19 0 0 0 .07.21l1.76 1.28-.67 2.07a.19.19 0 0 0 .29.21l1.76-1.28 1.76 1.28a.19.19 0 0 0 .29-.21l-.67-2.07 1.75-1.27a.19.19 0 0 0-.1-.35h-2.18l-.67-2.07a.18.18 0 0 0-.18-.13z"/></g><g><path class="cls-5" d="M209.37 814.78h-.05l-2.22.35-.35 2.22a.1.1 0 0 1 0 .05h-.05a.09.09 0 0 1-.1-.05l-1-2-2.22.35a.09.09 0 0 1-.08-.16l1.59-1.59-1-2a.09.09 0 0 1 0-.11.09.09 0 0 1 .11 0l2 1 1.59-1.59a.09.09 0 0 1 .11 0 .09.09 0 0 1 .05.1l-.35 2.22 2 1a.09.09 0 0 1 .05.1.11.11 0 0 1-.08.11z"/><path class="cls-5" d="M203.91 812l2.06 1 1.64-1.64-.36 2.28 2.06 1-2.28.36-.36 2.28-1-2.06-2.28.36L205 814l-1.09-2M203.78 811.88a.19.19 0 0 0 0 .22l1 1.94-1.54 1.54a.19.19 0 0 0 0 .22.19.19 0 0 0 .2.1l2.15-.34 1 1.94a.19.19 0 0 0 .35-.06l.34-2.15 2.15-.34a.19.19 0 0 0 .06-.35l-1.94-1 .34-2.14a.19.19 0 0 0-.31-.18l-1.54 1.54-1.94-1a.18.18 0 0 0-.22 0z"/></g><g><circle class="cls-5" cx="240.52" cy="915.51" r="4.5"/><path class="cls-5" d="M244.4 915.98v-.95l5.1-.48.75.96-.75.96-5.1-.49zM236.61 915.03v.95l-5.1.49-.75-.96.75-.96 5.1.48zM240.98 911.62h-.95l-.48-5.1.95-.75.96.75-.48 5.1zM240.03 919.4h.95l.48 5.1-.96.75-.95-.75.48-5.1zM243.59 913.09l-.33-.34-.34-.33 3.27-3.95 1.2.15.15 1.21-3.95 3.26zM237.41 917.92l.34.34.34.34-3.27 3.94-1.2-.14-.15-1.21 3.94-3.27zM238.09 912.42l-.34.33-.34.34-3.94-3.26.15-1.21 1.2-.15 3.27 3.95zM242.92 918.6l.34-.34.33-.34 3.95 3.27-.15 1.21-1.2.14-3.27-3.94z"/></g><g><path class="cls-5" d="M211.59 907.13a.09.09 0 0 1 0-.05l1.32-1.82-1.32-1.82a.1.1 0 0 1 0-.05.09.09 0 0 1 0-.05.09.09 0 0 1 .11 0l2.13.69 1.32-1.82a.09.09 0 0 1 .17.05v2.24l2.13.69a.09.09 0 0 1 .06.09.09.09 0 0 1-.06.09l-2.13.69v2.24a.09.09 0 0 1-.06.09.09.09 0 0 1-.11 0l-1.32-1.82-2.13.69a.09.09 0 0 1-.11 0 .11.11 0 0 1 0-.13z"/><path class="cls-5" d="M217.44 905.26l-2.2.71v2.31l-1.36-1.87-2.2.71 1.36-1.87-1.36-1.87 2.2.71 1.36-1.87v2.31l2.2.71M217.63 905.24a.19.19 0 0 0-.13-.18l-2.07-.67v-2.18a.19.19 0 0 0-.13-.18.19.19 0 0 0-.21.07l-1.28 1.76-2.07-.67a.19.19 0 0 0-.21.29l1.28 1.76-1.28 1.76a.19.19 0 0 0 .21.29l2.07-.67 1.27 1.75a.19.19 0 0 0 .35-.1v-2.18l2.07-.67a.18.18 0 0 0 .13-.18z"/></g><g><path class="cls-5" d="M266.76 908.31a.09.09 0 0 1 0-.05l-.35-2.22-2.22-.35h-.05a.09.09 0 0 1 0-.05.09.09 0 0 1 .05-.1l2-1-.35-2.22a.09.09 0 0 1 .16-.08l1.59 1.59 2-1a.09.09 0 0 1 .11 0 .09.09 0 0 1 0 .11l-1 2 1.59 1.59a.09.09 0 0 1 0 .11.09.09 0 0 1-.1.05l-2.22-.35-1 2a.09.09 0 0 1-.1.05z"/><path class="cls-5" d="M269.58 902.85l-1 2.06 1.64 1.64-2.28-.36-1 2.06-.36-2.28-2.28-.36 2.06-1-.36-2.28 1.64 1.64 2.06-1.05M269.82 902.79a.19.19 0 0 0-.22 0l-1.94 1-1.66-1.65a.19.19 0 0 0-.22 0 .19.19 0 0 0-.1.2l.34 2.15-1.94 1a.19.19 0 0 0 .06.35l2.15.34.34 2.15a.19.19 0 0 0 .35.06l1-1.94 2.14.34a.19.19 0 0 0 .18-.31l-1.54-1.54 1-1.94a.18.18 0 0 0 0-.22z"/></g><g><path class="cls-5" d="M242.37 936.07h-.05l-1.82-1.32-1.82 1.32h-.1a.09.09 0 0 1 0-.11l.69-2.13-1.82-1.32a.09.09 0 0 1 .05-.17h2.24l.69-2.13a.09.09 0 0 1 .09-.06.09.09 0 0 1 .09.06l.69 2.13h2.24a.09.09 0 0 1 .09.06.09.09 0 0 1 0 .11l-1.82 1.32.69 2.13a.09.09 0 0 1 0 .11z"/><path class="cls-5" d="M240.5 930.22l.71 2.2h2.31l-1.87 1.36.71 2.2-1.87-1.36-1.86 1.38.71-2.2-1.87-1.36h2.31l.71-2.2M240.49 930.05a.19.19 0 0 0-.18.13l-.67 2.07h-2.18a.19.19 0 0 0-.18.13.19.19 0 0 0 .07.21l1.76 1.28-.67 2.07a.19.19 0 0 0 .29.21l1.76-1.28 1.76 1.28a.19.19 0 0 0 .29-.21l-.67-2.07 1.75-1.27a.19.19 0 0 0-.1-.35h-2.18l-.67-2.07a.18.18 0 0 0-.18-.13z"/></g><path class="cls-2" d="M80 900.28v55.9l-40-14.3-39.9 14.3v-55.9H80z"/><path class="cls-1" d="M0 918.58h80v18.8H0z"/><path class="cls-3" d="M0 899.78h80v18.8H0z"/><circle class="cls-3" cx="39.7" cy="928.28" r="7.3"/><circle class="cls-1" cx="39.7" cy="928.28" r="4.9"/><circle class="cls-25" cx="39.7" cy="928.28" r="3.1"/><path class="cls-1" d="M119.65 500.02h41.5v48.9l-20-7.4-21.5 7.7v-49.2z"/><path class="cls-2" d="M148.15 524l3.9-6.7h-7.7l-3.7-6.4-3.7 6.4h-7.7l3.9 6.7-3.9 6.7h7.7l3.7 6.4 3.7-6.4H152zm.5-4.8L147 522l-1.6-2.8zm-2.7 4.8l-2.7 4.7h-5.1l-2.7-4.7 2.7-4.7h5.1zm-5.3-9.2l1.4 2.5h-2.8zm-8.1 4.4h3.2l-1.6 2.8zm0 9.5l1.6-2.8 1.6 2.8zm8.1 4.4l-1.4-2.5h2.8zm6.4-7.2l1.6 2.8h-3.2z"/><path class="cls-1" d="M172.05 553.02l8.2 3v-56h-8.2v53z"/><path class="cls-2" d="M172.05 500.02h-10.9v48.9l10.9 4.1v-53z"/><path class="cls-1" d="M108.45 500.02h-8.2v56l8.2-2.9v-53.1z"/><path class="cls-2" d="M119.65 549.22v-49.2h-11.2v53.1"/></g><g id="Layer_3" data-name="Layer 3"><path class="cls-1" d="M0 826.68h80.04v26.68H0z"/><path class="cls-3" d="M0 800h80v26.68H0z"/><path class="cls-2" d="M0 853.36h80v26.68H0z"/><circle class="cls-3" cx="39.67" cy="840.02" r="9.08"/><circle class="cls-1" cx="39.67" cy="840.02" r="6.09"/><circle class="cls-25" cx="39.67" cy="840.02" r="3.78"/></g></svg>