<svg version="1.1" xmlns="http://www.w3.org/2000/svg" x="0" y="0" width="702" height="702" viewBox="0 0 702 702" xml:space="preserve"><radialGradient id="a" cx="351" cy="351" r="351" gradientUnits="userSpaceOnUse"><stop offset="0" stop-color="#27aae1" stop-opacity=".8"/><stop offset=".095" stop-color="#05aae2" stop-opacity=".65"/><stop offset=".48" stop-color="#00abe8" stop-opacity=".373"/><stop offset=".802" stop-color="#00aced" stop-opacity=".142"/><stop offset="1" stop-color="#00aeef" stop-opacity="0"/></radialGradient><circle opacity=".7" fill="url(#a)" cx="351" cy="351" r="351"/><circle opacity=".06" fill="#4DC4D2" cx="351" cy="351" r="253"/><circle opacity=".06" fill="#4DC4D2" cx="351" cy="351" r="216"/><circle fill="#4DC4D2" cx="351" cy="351" r="184.7"/><path fill="#FFF" d="M351 166.1c-6.1 0-12.1.3-18 .9l34.5 12.5.8 15.7 37.7 24.4 1.6-22.8 20.4-13.9c-23.4-10.8-49.5-16.8-77-16.8z"/><path fill="#4DAC47" d="M528.6 299.9c-4.4-15.4-10.8-29.9-18.8-43.3l-25.2-7-8.6 7.1 3.1 8.6-13.4 6.3-1.6 20.4 33.8-13.4 30.7 21.3z"/><path fill="#4DAC47" d="M534.9 333.1l-17.2-26.9-11 5.5-11-20.4-39.3 28.3 7.9 53.5 35.4 18.1 9.4 55.7c17-27.9 26.8-60.7 26.8-95.8-.2-6.1-.5-12.1-1-18zM276.3 193l1.6 19.6 19.6-6.3 7.1-11.7L296 182zM315.6 205.6l2.4-11 11-2.4 4.7 10.2zM494.1 244.9l-11.8-3.2-7.1-16.5z"/><path fill="#4DAC47" d="M285.6 382.4l103.8 51.9-68.5 99-9.5-1.8-9.2-2.3 6.6-47-30.2-47.1 3.9-40.1-53.5-29.1-39.3-62.1 1.5-45.5s6.2-11.3 14.2-21.3c8.1-10.1 15.9-17.5 15.9-17.5l45.6-10.8-4.1 18.1-9.1 4 23.9 25.2 18.9-13.4 8.6-25.9 44.8 10.2 9.4 22-42.7 41.7-17.6 17.1-6.2 31.7-18.3-12.8-22 4.7-1.7 25.6 19-8.3 15.8 33.8z"/></svg>