<svg version="1.1" xmlns="http://www.w3.org/2000/svg" xmlns:xlink="http://www.w3.org/1999/xlink" x="0" y="0" width="1000" height="1000" viewBox="0 0 1000 1000" xml:space="preserve"><g><g><g><g><path fill="#575757" d="M44.1 216.5c-6.4 0-11.6-5.2-11.6-11.6V13.6C32.5 7.2 37.7 2 44.1 2h253.6c6.4 0 11.6 5.2 11.6 11.6v191.3c0 6.4-5.2 11.6-11.6 11.6H44.1z"/><path fill="#A5A5A5" d="M297.7 3c5.8 0 10.6 4.7 10.6 10.6v191.3c0 5.8-4.7 10.6-10.6 10.6H44.1c-5.8 0-10.6-4.7-10.6-10.6V13.6C33.5 7.8 38.2 3 44.1 3h253.6m0-2H44.1c-6.9 0-12.6 5.6-12.6 12.6v191.3c0 6.9 5.6 12.6 12.6 12.6h253.6c6.9 0 12.6-5.6 12.6-12.6V13.6C310.2 6.7 304.6 1 297.7 1z"/></g><path fill="#E1E1E1" d="M294.3 191.6c0 1.9-1.6 3.5-3.5 3.5H51c-1.9 0-3.5-1.6-3.5-3.5V20.8c0-1.9 1.6-3.5 3.5-3.5h239.9c1.9 0 3.5 1.6 3.5 3.5v170.8h-.1z"/><path fill="#4FB4E6" d="M290.8 17.3H51c-1.9 0-3.5 1.6-3.5 3.5v18.8h246.9V20.8c-.1-1.9-1.6-3.5-3.6-3.5z"/><path fill="#7CC242" d="M54.4 171c-2.4 0-4.7.1-6.9.3v20.3c0 1.9 1.6 3.5 3.5 3.5h52.1C101 181.6 80 171 54.4 171zM264.5 179.6c-5.6-1.2-11.8-1.9-18.3-1.9-21.2 0-39.2 7.3-46 17.4h90.5c1.9 0 3.5-1.6 3.5-3.5v-23.7c-12.4 1.7-23.1 5.9-29.7 11.7z"/><path fill="#FFF" d="M115.8 28.2c0 1.9-1.6 3.5-3.5 3.5H83.7c-1.9 0-3.5-1.6-3.5-3.5v-.3c0-1.9 1.6-3.5 3.5-3.5h28.6c1.9 0 3.5 1.6 3.5 3.5v.3zM258.6 144.1c0 2.2-1.8 4.1-4.1 4.1H84.9c-2.2 0-4.1-1.8-4.1-4.1V67.3c0-2.2 1.8-4.1 4.1-4.1h169.6c2.2 0 4.1 1.8 4.1 4.1v76.8z"/><path fill="#B7D87D" d="M80.9 127.2v16.9c0 2.2 1.8 4.1 4.1 4.1h169.6c2.2 0 4.1-1.8 4.1-4.1v-16.9H80.9z"/><circle fill="#FFF" cx="96.3" cy="137.8" r="6.1"/><path fill="#7CC242" d="M135.2 71.9c0 1.5-1.2 2.7-2.7 2.7H92.8c-1.5 0-2.7-1.2-2.7-2.7 0-1.5 1.2-2.7 2.7-2.7h39.7c1.5-.1 2.7 1.2 2.7 2.7z"/><path fill="none" stroke="#E1E1E1" stroke-width="2.316" stroke-miterlimit="10" d="M159 109.4c0 2.2-1.8 4.1-4.1 4.1H94.7c-2.2 0-4.1-1.8-4.1-4.1V94.8c0-2.2 1.8-4.1 4.1-4.1H155c2.2 0 4.1 1.8 4.1 4.1l-.1 14.6zM248.6 109.4c0 2.2-1.8 4.1-4.1 4.1h-60.3c-2.2 0-4.1-1.8-4.1-4.1V94.8c0-2.2 1.8-4.1 4.1-4.1h60.3c2.2 0 4.1 1.8 4.1 4.1v14.6z"/><circle fill="#D43231" cx="245.8" cy="71.9" r="4.1"/><circle fill="#D43231" cx="234.4" cy="71.9" r="4.1"/><circle fill="#E1E1E1" cx="223" cy="71.9" r="4.1"/><path opacity=".45" fill="#7CC242" d="M247.8 138.5c0 1.9-1.6 3.5-3.5 3.5h-31.8c-1.9 0-3.5-1.6-3.5-3.5s1.6-3.5 3.5-3.5h31.9c1.9.1 3.4 1.6 3.4 3.5z"/><path fill="none" stroke="#4FB4E6" stroke-width="3" stroke-linecap="round" stroke-linejoin="round" stroke-miterlimit="10" d="M169.4 98.9l2.6 2.9-2.8 3.2"/><circle fill="#4FB4E6" cx="97.1" cy="97.5" r="3.3"/><path fill="#E1E1E1" d="M135.3 97.6c0 1.4-1.2 2.6-2.6 2.6h-26.1c-1.4 0-2.6-1.2-2.6-2.6 0-1.4 1.2-2.6 2.6-2.6h26.1c1.4 0 2.6 1.2 2.6 2.6zM216.3 97.6c0 1.4-1.2 2.6-2.6 2.6h-26.1c-1.4 0-2.6-1.2-2.6-2.6 0-1.4 1.2-2.6 2.6-2.6h26.1c1.5 0 2.6 1.2 2.6 2.6z"/><linearGradient id="a" gradientUnits="userSpaceOnUse" x1="62.5" y1="-899.2" x2="307.5" y2="-899.2" gradientTransform="matrix(1 0 0 -1 0 -790)"><stop offset="0" stop-color="#fff"/><stop offset="1" stop-color="#fff" stop-opacity=".6"/></linearGradient><path opacity=".22" fill="url(#a)" d="M307.4 13.6c0-5.8-4.7-10.6-10.6-10.6H62.5l216 212.4h18.4c5.8 0 10.6-4.7 10.6-10.6V13.6h-.1z"/><path fill="#C9C9C9" d="M337.9 222.4c0 1.1-.9 1.9-1.9 1.9H4.9c-1.1 0-1.9-.9-1.9-1.9V210c0-1.1.9-1.9 1.9-1.9h331.2c1.1 0 1.9.9 1.9 1.9l-.1 12.4z"/><path fill="#9B9B9B" d="M142.2 210.6c0 1.3 1.1 2.4 2.4 2.4h52.3c1.3 0 2.4-1.1 2.4-2.4 0-1.3-1.1-2.4-2.4-2.4h-52.3c-1.3 0-2.4 1-2.4 2.4z"/><path fill="#3E3E3E" d="M174.6 10.4c0 1.7-1.4 3.2-3.2 3.2-1.7 0-3.2-1.4-3.2-3.2 0-1.7 1.4-3.2 3.2-3.2 1.7.1 3.2 1.5 3.2 3.2z"/></g><g><path fill="#D43231" d="M126.6 412.7l-2.1-42.2s-5.4 1.9-10.3 1.9c-8.8 0-14.2-4.7-15.7-8.8.4-1.5 1.5-3.7 1.5-5.6 0-1.8.1-6.5-5.8-6.5-6.7 0-20.2 22.2-42.2 33.6-6.4 3.3-13.1 7.1-18.2 9.1-.8.3-.6-.6-1.4-.3C14.1 401 5 401.7 5 410.6c0 .8 0 1.5.1 2.1h121.5z"/><path fill="#63773C" d="M334.7 410.3c0 3.7-3 6.7-6.7 6.7H200.2c-3.7 0-6.7-3-6.7-6.7V293.1c0-3.7 3-6.7 6.7-6.7H328c3.7 0 6.7 3 6.7 6.7v117.2z"/><path fill="#ECBF6E" d="M3.4 410.6c0 4.3 2.9 6.7 5.5 6.7h118l-.4-7.3H3.4v.6z"/><path fill="#B02C2B" d="M33.1 394.2c.5.8 2.6 1.6 8.1.2 30.1-7.7 47.6-32.3 53.5-33.2 2.1-.3 3.2 1 3.9 1.8.3-.8.7-1.8 1-2.8-1-.7-2.7-2.2-4.9-1.9-5.9.9-23.6 24.7-53.4 34.5-2.6.9-4.6.9-6 .8l-1.5.6c-.4.2-.5.1-.7 0z"/><circle fill="#972827" cx="87.2" cy="370.6" r="1.8"/><circle fill="#972827" cx="75" cy="382.9" r="1.8"/><circle fill="#972827" cx="59.9" cy="392.9" r="1.8"/><circle fill="#972827" cx="40.7" cy="398.1" r="1.8"/><path fill="#52612E" d="M334.7 322.9v-34.3c0-4.3-3-7.7-6.7-7.7H200.2c-3.7 0-6.7 3.5-6.7 7.7v34.3h141.2z"/><path fill="#B43737" d="M338.4 255.7c0-3.7-4.5-5.7-7.3-5.7-10.3 0-20 6.7-64.1 6.7s-55.1-6.3-70.1-6.3c-5.7 0-6.3 6.3-6.3 6.3v56.1h.4v.6c0 .9.7 1.6 1.6 1.6h144.3c.9 0 1.6-.7 1.6-1.6v-.6c-.1 0-.1-53.4-.1-57.1z"/><g><path fill="#63773C" d="M338.4 255.7c0-3.7-4.5-5.7-7.3-5.7-10.3 0-20 6.7-64.1 6.7s-55.1-6.3-70.1-6.3c-5.7 0-6.3 6.3-6.3 6.3v56.1h.4v.6c0 .9.7 1.6 1.6 1.6h144.3c.9 0 1.6-.7 1.6-1.6v-.6c-.1 0-.1-53.4-.1-57.1z"/></g><path fill="#5E3124" d="M311.9 294.9h-13.8c-.9 0-1.7.7-1.7 1.7v73.7c0 2.4 4.7 12.9 8.2 12.9 3.4 0 8-8.5 8.8-12.3.1-.2.1-.4.1-.6v-73.7c.1-1-.7-1.7-1.6-1.7z"/><path fill="#47241B" d="M296.4 362.7h17.1v-28.9h-17.1v28.9zm16.5-24.2v19.6h-15.8v-19.6h15.8z"/><path fill="#FBAD22" d="M314 330.9h-6.6v-.8c0-1-.8-1.9-1.9-1.9h-.8c-1 0-1.9.8-1.9 1.9v.8h-6.7c-2 0-3.6 1.6-3.6 3.6v21.7c0 2 1.6 3.6 3.6 3.6H314c2 0 3.6-1.6 3.6-3.6v-21.7c0-1.9-1.6-3.6-3.6-3.6zm-1.1 24.3h-15.8v-19.6h5.7v5.6c0 1 .8 1.9 1.9 1.9h.8c1 0 1.9-.8 1.9-1.9v-5.6h5.5v19.6z"/><path fill="#5E3124" d="M234.8 294.9H221c-.9 0-1.7.7-1.7 1.7v73.7c0 2.4 4.7 12.9 8.2 12.9 3.4 0 8-8.5 8.8-12.3.1-.2.1-.4.1-.6v-73.7c.1-1-.7-1.7-1.6-1.7z"/><g><path fill="#DEA32B" d="M236.9 359.9H219c-2 0-3.6-1.6-3.6-3.6v-21.7c0-2 1.6-3.6 3.6-3.6h17.9c2 0 3.6 1.6 3.6 3.6v21.7c0 2-1.6 3.6-3.6 3.6zm-16.9-4.7h15.8v-19.6H220v19.6z"/></g><path fill="#DEA32B" d="M230.3 341.3c0 1-.8 1.9-1.9 1.9h-.8c-1 0-1.9-.8-1.9-1.9v-11.1c0-1 .8-1.9 1.9-1.9h.8c1 0 1.9.8 1.9 1.9v11.1z"/><path fill="#4E5C30" d="M255.8 239c6.8-4.2 15-6.2 25.6.5 10.5 6.7 5.2 11.2 5.2 11.2l-2.3-1.3s-5.2-6.2-17.1-6.2-16.7 7-16.7 7l1.4-6 3.9-5.2z"/><path fill="#A96C3D" d="M193.5 395.6v14.7c0 3.7 3 6.7 6.7 6.7H328c3.7 0 6.7-3 6.7-6.7v-14.7H193.5z"/><path fill="#63773C" d="M255.8 239.2s-6.8 9.8 4.5 18l-14.7-.3s-1.8-10.7 10.2-17.7zM280.8 239.2s6.8 9.8-4.5 18l15-.3s1.5-10.7-10.5-17.7z"/><circle fill="#FFF" cx="105.9" cy="392.6" r="9.7"/><circle fill="#FBAD22" cx="227.9" cy="302.9" r="3.8"/><circle fill="#FBAD22" cx="305" cy="304.1" r="3.8"/><path fill="#FFF" d="M40.7 398.1l-1.7-7.3-4.1 2 5.5 4.7M60.3 393.2l-12.2-6.8 5.7-3.3zM75.4 383l-11.9-6.6 4.5-3.6zM87.4 370.6l-13.7-3.4 4.1-3.6z"/><g opacity=".5"><g fill="none" stroke="#4C5C29" stroke-width="7" stroke-linecap="round" stroke-linejoin="round"><path d="M192 290h8"/><path stroke-dasharray="16.1057,20.1321" d="M220.1 290h98.7"/><path d="M328.9 290h8"/></g></g><path fill="#975F39" d="M328 417c3.5 0 6.3-2.7 6.6-6.1h-108v6.1H328z"/><path fill="#353635" d="M269.4 411c0 3.5-2.8 6.3-6.3 6.3H111.7c-3.5 0-6.3-2.8-6.3-6.3V307.6c0-3.5 2.8-6.3 6.3-6.3h151.4c3.5 0 6.3 2.8 6.3 6.3V411z"/><path fill="#40ACE2" d="M120.4 309.9h134.8v99.2H120.4z"/><circle fill="#1C1C1C" cx="262.4" cy="359.8" r="3.9"/><circle fill="#1C1C1C" cx="113" cy="359.8" r="2.1"/><g><path fill="#D7D6D6" d="M205.7 346.5l-11.3 2.2-12.3-1.4-11.5 1.9v-26.8l11.7-2.3 12.2 2.5 11.3-.2z"/><path fill="#7CC242" d="M170.7 336.9l2.6.4.6 1.6 2 .7.3 1.1.5 1.1-2.3 1.2-.6 2.3-1.9-.2-1.5 1.5z"/><g opacity=".5"><g fill="none" stroke="#FFF" stroke-width="3.484" stroke-miterlimit="10"><path d="M180.5 320.7v4.8M179.1 329.3l-3.3 3.5 1.4 4.7M178.8 342.4l1.4 4.6"/></g></g><g><path fill="#FCB116" d="M195.6 348.9c-.5 0-1.1-.3-1.3-.8-1.8-3.5-4.1-6.6-6.8-9.1-2.2-2-4.8-3.7-7.5-5-3.8-1.8-7.4-2.5-8.7-2.6-.8-.1-1.4-.8-1.3-1.6.1-.8.8-1.4 1.6-1.3.2 0 4.4.4 9.6 2.8 3.1 1.4 5.9 3.3 8.3 5.5 3.1 2.8 5.6 6.1 7.5 10 .4.7.1 1.6-.7 2-.3 0-.5.1-.7.1z"/></g><path fill="#67A944" d="M184.6 323.3c.1.2-.3 1.7-.3 1.7l.9.6.1 2.7 1.7.7 2.5-1.8 4.1.6.9-.8.1-1.7-1.2-1.3-.1-1-8.7.3z"/><path fill="#3BC5F1" d="M199.2 321.2l-.9 5.8-3.7 2.5s.5 3.5.5 3.6c.1.1-.1 1.5-.1 1.6s3.8 3.6 3.8 3.6l2.2 5.7 2.9.2 1.7 2.9.9-1.1-.3-25.7-7 .9z"/><path fill="#FFF" d="M169.7 321.7V350v-.1l12.3-2.4 12.2 2.4 12.3-2.4v-28.2l-12.2 2.4-12.4-2.3-12.2 2.3zm1.8 26.4v-24.9l10.5-2.4 12.4 2.4 10.8-2.4v24.9l-10.7 2.4-12.4-2.4-10.6 2.4z"/><path opacity=".2" fill="#010101" d="M194.4 349.8l-12.6-2.3v-28.3l12.6 2.4z"/></g><path fill="#FFF" d="M215.9 399.5c0 .9-.7 1.6-1.6 1.6h-53.5c-.9 0-1.6-.7-1.6-1.6v-36.4c0-.9.7-1.6 1.6-1.6h53.5c.9 0 1.6.7 1.6 1.6v36.4z"/><path fill="#BCBCBC" d="M202.3 370c0 1.2-.9 2.1-2.1 2.1h-25c-1.2 0-2.1-.9-2.1-2.1 0-1.2.9-2.1 2.1-2.1h25c1.2 0 2.1.9 2.1 2.1z"/><path fill="#DEDEDD" d="M206.3 377.1c0 1.2-.9 2.1-2.1 2.1h-32.8c-1.2 0-2.1-.9-2.1-2.1 0-1.2.9-2.1 2.1-2.1h32.8c1.2 0 2.1.9 2.1 2.1z"/><path fill="#40ACE2" d="M201.9 391.2c0 1.9-1.5 3.4-3.4 3.4h-20.8c-1.9 0-3.4-1.5-3.4-3.4s1.5-3.4 3.4-3.4h20.8c1.9-.1 3.4 1.5 3.4 3.4z"/><path fill="#FFF" d="M255.2 364.5h-27c-.7 0-1.3.6-1.3 1.3v30.9c0 .7.6 1.3 1.3 1.3h27v-33.5z"/><path fill="#BCBCBC" d="M255.2 369.9h-14.8c-1 0-1.8.8-1.8 1.8s.8 1.8 1.8 1.8h14.8v-3.6z"/><path fill="#DEDEDD" d="M255.2 375.9h-17.9c-1 0-1.8.8-1.8 1.8s.8 1.8 1.8 1.8h17.9v-3.6z"/><path fill="#40ACE2" d="M255.2 386.8h-12.6c-1.6 0-2.9 1.3-2.9 2.9 0 1.6 1.3 2.9 2.9 2.9h12.6v-5.8z"/><path fill="#FFF" d="M147.7 364.5h-27.3v33.6h27.3c.7 0 1.3-.6 1.3-1.3v-30.9c.1-.8-.5-1.4-1.3-1.4z"/><path fill="#BCBCBC" d="M135.7 369.9h-15.3v3.6h15.3c1 0 1.8-.8 1.8-1.8s-.8-1.8-1.8-1.8z"/><path fill="#DEDEDD" d="M139.1 375.9h-18.7v3.6h18.7c1 0 1.8-.8 1.8-1.8s-.8-1.8-1.8-1.8z"/><path fill="#40ACE2" d="M134.3 386.8h-13.9v5.8h13.8c1.6 0 2.9-1.3 2.9-2.9.1-1.6-1.2-2.9-2.8-2.9z"/><linearGradient id="b" gradientUnits="userSpaceOnUse" x1="112.8" y1="-1149.3" x2="269.4" y2="-1149.3" gradientTransform="matrix(1 0 0 -1 0 -790)"><stop offset="0" stop-color="#fff"/><stop offset="1" stop-color="#fff" stop-opacity=".6"/></linearGradient><path opacity=".22" fill="url(#b)" d="M269.4 411V307.6c0-3.5-2.8-6.3-6.3-6.3H112.8l111.6 116h38.7c3.5 0 6.3-2.8 6.3-6.3z"/><path fill="#D43231" d="M94.7 374.8S80 395.7 61.1 402.9c-18.9 7.3 9.7-11.6 9.7-11.6l10.4-9.1 13.5-7.4z"/></g><g><g><path fill="#8CBD40" d="M377.5 66.4c-1.7-1.7-4.3-1.7-5.9-.1L357.9 80l-4.8-4.8c-1.6-1.6-4.2-1.6-5.8 0l-.1.1c-1.6 1.6-1.6 4.2 0 5.8l7.8 7.8c1.6 1.6 4.2 1.6 5.8 0l.1-.1c.1-.1.2-.2.3-.4l16.3-16.3c1.6-1.5 1.6-4.1 0-5.7z"/></g></g><path fill="#D43231" d="M358.6 96.3c-3.2-7.3-12.7-5.6-12.7 2.9 0 6.6 12.3 12.4 12.7 13.6.3-1.3 12.7-7.1 12.7-13.7 0-8.5-9.7-9.9-12.7-2.8z"/><g><path fill="#F36D21" d="M356.1 63.1c-7 0-12.7-5.7-12.7-12.7 0-3.7 1.6-7.2 4.5-9.7.3-.2.9-.9.9-1.5 0-.5 0-.8.2-1 .1-.1.3-.2.5-.2.4 0 .8.3.9.5.2.2.8.8.8 2.4 0 .3 0 .6-.1.9-.1.4-.2.9-.3 1.4-.1.2-.1.4-.2.6-.1.2-.2.4-.2.6-.1.2-.1.5 0 .8 0 .3.2.7.6 1 .3.3.7.4 1.1.4.2 0 .4 0 .6-.1.7-.2 1.5-1.1 1.1-3.5-.1-.7-.3-1.4-.6-2.1-.3-1-.7-2.1-.7-3.2 0-.7.1-1.5.2-2.2.2-1 .6-2 1.2-2.8.4-.6.8-1.1 1.3-1.5.1-.1.2-.3.4-.4.3-.3.7-.5 1.1-.5.3 0 .6.1.8.4.1.2.3.6.1 1.1-.7 2.3 1.4 4.2 2.9 5.4 3.2 2.3 5.1 4.6 6.1 6.2 1.4 2.1 2.2 4.5 2.2 7.1 0 6.9-5.7 12.6-12.7 12.6z"/></g><path fill="#010101" d="M371.3 21.4l-2 .9-2.3-1.6c1.1-1.8 1.7-4 1.7-6.3 0-6.9-5.6-12.5-12.5-12.5s-12.5 5.6-12.5 12.5 5.6 12.5 12.5 12.5c3.9 0 7.4-1.8 9.7-4.6l2.4 1.7v2.1l3.8 2.7v-3.6l3.2-1.4-4-2.4zm-15.2 2.1c-5.1 0-9.2-4.1-9.2-9.2s4.1-9.2 9.2-9.2 9.2 4.1 9.2 9.2c0 1.6-.4 3.1-1.1 4.4l-2.8-1.9c.4-.7.5-1.6.5-2.5 0-3.2-2.6-5.8-5.8-5.8s-5.8 2.6-5.8 5.8c0 3.2 2.6 5.8 5.8 5.8 1.6 0 3.1-.7 4.1-1.7l2.8 1.9c-1.6 2-4.1 3.2-6.9 3.2zm1.1-9.6c-.2-.4-.6-.7-1-.7-.6 0-1.1.5-1.1 1.1s.5 1.1 1 1.1l1.9 1.3c-.5.4-1.1.6-1.8.6-1.7 0-3.1-1.4-3.1-3.1s1.4-3.1 3.1-3.1 3.1 1.4 3.1 3.1c0 .3 0 .6-.1.9l-2-1.2z"/><path fill="#40ACE2" d="M352.1 218.4h.5c.6 0 1.3.1 2 .1l-.1 2.6h-1.8c-.8 0-1.1.3-1.2 1.2v2.1h3l-.1 2.8h-2.9v7.9h-2.9v-7.9h-2v-2.8h2V222c0-1.7.7-2.9 2.2-3.4.4-.1.9-.2 1.3-.2z"/><path fill="#FFF" d="M361.2 218.4h.5c.6 0 1.3.1 2 .1l-.1 2.6h-1.8c-.8 0-1.1.3-1.2 1.2v2.1h3l-.1 2.8h-2.9v7.9h-2.9v-7.9h-2v-2.8h2V222c0-1.7.7-2.9 2.2-3.4.4-.1.8-.2 1.3-.2z"/><path fill="#3B579D" d="M371.1 218.4h.5c.6 0 1.3.1 2 .1l-.1 2.6h-1.8c-.8 0-1.1.3-1.2 1.2v2.1h3l-.1 2.8h-2.9v7.9h-2.9v-7.9h-2v-2.8h2V222c0-1.7.7-2.9 2.2-3.4.3-.1.8-.2 1.3-.2z"/><path fill="#40ACE2" d="M356.1 247.8l-.9-.7c-.3-.2-.6-.5-.6-1s.4-.9.7-1.2c1-.8 2-1.6 2-3.4 0-1.8-1.2-2.8-1.7-3.3h1.5l1.6-1H354c-1.3 0-3.2.3-4.6 1.4-1 .9-1.5 2.1-1.5 3.2 0 1.9 1.4 3.8 4 3.8h.8c-.1.3-.2.5-.2.9 0 .7.4 1.2.7 1.6-1.1.1-3.1.2-4.6 1.1-1.4.8-1.9 2.1-1.9 2.9 0 1.8 1.7 3.5 5.2 3.5 4.1 0 6.3-2.3 6.3-4.6-.1-1.5-1-2.3-2.1-3.2zM353 245c-2.1 0-3-2.7-3-4.3 0-.6.1-1.3.5-1.8s1.1-.8 1.7-.8c2 0 3 2.7 3 4.4 0 .4 0 1.2-.6 1.8-.4.4-1 .7-1.6.7zm0 9.7c-2.6 0-4.2-1.2-4.2-2.9s1.5-2.3 2.1-2.5c1-.3 2.3-.4 2.5-.4h.6c1.8 1.3 2.6 2 2.6 3.2-.1 1.5-1.3 2.6-3.6 2.6zM362.2 245v-2.5H361v2.5h-2.4v1.2h2.4v2.4h1.2v-2.4h2.4V245z"/><path fill="#FFF" d="M376 247.8l-.9-.7c-.3-.2-.6-.5-.6-1s.4-.9.7-1.2c1-.8 2-1.6 2-3.4 0-1.8-1.2-2.8-1.7-3.3h1.5l1.6-1h-4.7c-1.3 0-3.2.3-4.6 1.4-1 .9-1.5 2.1-1.5 3.2 0 1.9 1.4 3.8 4 3.8h.8c-.1.3-.2.5-.2.9 0 .7.4 1.2.7 1.6-1.1.1-3.1.2-4.6 1.1-1.4.8-1.9 2.1-1.9 2.9 0 1.8 1.7 3.5 5.2 3.5 4.1 0 6.3-2.3 6.3-4.6-.1-1.5-1-2.3-2.1-3.2zm-3.1-2.8c-2.1 0-3-2.7-3-4.3 0-.6.1-1.3.5-1.8s1.1-.8 1.7-.8c2 0 3 2.7 3 4.4 0 .4 0 1.2-.6 1.8-.4.4-1 .7-1.6.7zm0 9.7c-2.6 0-4.2-1.2-4.2-2.9s1.5-2.3 2.1-2.5c1-.3 2.3-.4 2.5-.4h.6c1.8 1.3 2.6 2 2.6 3.2-.1 1.5-1.3 2.6-3.6 2.6zM382.1 245v-2.5h-1.2v2.5h-2.4v1.2h2.4v2.4h1.2v-2.4h2.4V245z"/><path fill="#DD4B38" d="M396 247.8l-.9-.7c-.3-.2-.6-.5-.6-1s.4-.9.7-1.2c1-.8 2-1.6 2-3.4 0-1.8-1.2-2.8-1.7-3.3h1.5l1.6-1h-4.7c-1.3 0-3.2.3-4.6 1.4-1 .9-1.5 2.1-1.5 3.2 0 1.9 1.4 3.8 4 3.8h.8c-.1.3-.2.5-.2.9 0 .7.4 1.2.7 1.6-1.1.1-3.1.2-4.6 1.1-1.4.8-1.9 2.1-1.9 2.9 0 1.8 1.7 3.5 5.2 3.5 4.1 0 6.3-2.3 6.3-4.6-.1-1.5-1-2.3-2.1-3.2zm-3.1-2.8c-2.1 0-3-2.7-3-4.3 0-.6.1-1.3.5-1.8s1.1-.8 1.7-.8c2 0 3 2.7 3 4.4 0 .4 0 1.2-.6 1.8-.4.4-1 .7-1.6.7zm0 9.7c-2.6 0-4.2-1.2-4.2-2.9s1.5-2.3 2.1-2.5c1-.3 2.3-.4 2.5-.4h.6c1.8 1.3 2.6 2 2.6 3.2-.1 1.5-1.3 2.6-3.6 2.6zM402.1 245v-2.5h-1.2v2.5h-2.4v1.2h2.4v2.4h1.2v-2.4h2.4V245z"/><g fill="#40ACE2"><path d="M403.2 286.3c0-2.9 2.4-4.3 2.5-4.4-1.4-2-3.5-2.3-4.2-2.3-1.8-.2-3.5 1.1-4.4 1.1s-2.3-1-3.8-1c-1.9 0-3.8 1.2-4.8 2.9-2.1 3.6-.5 8.8 1.4 11.7 1 1.4 2.1 3 3.6 2.9 1.5-.1 2-.9 3.8-.9s2.3.9 3.8.9c1.6 0 2.6-1.4 3.5-2.8 1.1-1.6 1.6-3.2 1.6-3.3.1-.1-3-1.3-3-4.8zM400.3 277.7c.8-1 1.3-2.3 1.2-3.7-1.1.1-2.6.8-3.4 1.8-.7.9-1.4 2.3-1.2 3.6 1.3 0 2.6-.7 3.4-1.7z"/></g><g fill="#FFF"><path d="M364.9 320.4l4.4-4.4-18.9-10.6c-.1-.1-.3-.1-.5-.1l15 15.1zM348.8 305.8c-.2.2-.3.5-.3.9v28.2c0 .4.2.9.6 1.1.1 0 .1.1.2.1l14.9-14.9-15.4-15.4zM375.6 319.6l-5.5-3-4.6 4.6 4 4 6-3.4c.4-.2.6-.6.6-1.1s-.1-.8-.5-1.1zM364.9 321.9l-13.5 13.4 17.3-9.6z"/></g><g><g fill="#FFF"><g><path d="M359.9 343.4c-1.3.5-2.3.9-2.3 3.5v1.2l.8-.2v-1.1c0-1.7.4-2.1 1.6-2.6 0-.3 0-.6-.1-.8zM362.3 342.8c.1.2.1.5.1.8 2.1-.3 2.1.6 2.1 2.4v.7l.8-.2v-.5c-.1-2.8-.5-3.5-3-3.2z"/><path d="M354 348.8v-3.7c0-2.3 1.2-3 3.3-3.5 3.3-.8 3.5 1.4 3.5 2.7v3.1l.8-.2v-2.9c0-2.6-.8-4.5-4.5-3.6-2 .4-4 1-4 4.3v3.9l.9-.1z"/></g><path d="M369.3 346.7l-22.2 4.4v16.1l22.2 4.4 4.4-1.6v-21.8l-4.4-1.5zm-12.5 17.2l-5-.7V359h5v4.9zm0-5.2h-5v-3.9l5-.7v4.6zm6.8 6.2l-6.4-.9v-4.9h6.4v5.8zm0-6.2h-6.4V354l6.4-.9v5.6z"/></g></g><g><g fill="#40ACE2"><path d="M388.5 315.7c-.8 0-1.4.6-1.4 1.4v5.9c0 .8.6 1.4 1.4 1.4.8 0 1.4-.6 1.4-1.4v-5.8c0-.8-.6-1.5-1.4-1.5zM406.6 317.1c0-.8-.6-1.4-1.4-1.4-.8 0-1.4.6-1.4 1.4v5.9c0 .8.6 1.4 1.4 1.4.8 0 1.4-.6 1.4-1.4v-5.9zM390.5 316l-.1 9.3c0 .8.6 1.4 1.4 1.4h1.2v3.2c0 .8.6 1.4 1.4 1.4s1.4-.6 1.4-1.4v-3.2h1.9v3.2c0 .8.6 1.4 1.4 1.4.8 0 1.4-.6 1.4-1.4v-3.2h1.2c.8 0 1.4-.6 1.4-1.4V316h-12.6zM403.2 315.5v-.7c0-.2 0-.4-.1-.6-.4-1.7-1.5-3.1-3.1-3.9l1-1.8c.1-.1 0-.3-.1-.3-.1-.1-.3 0-.3.1l-1 1.8c-.8-.4-1.8-.6-2.8-.6s-2 .2-2.8.6l-1-1.8c-.1-.1-.2-.2-.3-.1-.1.1-.2.2-.1.3l1 1.8c-1.5.8-2.6 2.1-3 3.7-.1.4-.2.8-.2 1.3v.2h12.8zm-3.4-3.5c.3 0 .6.3.6.6s-.3.6-.6.6-.6-.3-.6-.6.2-.6.6-.6zm-5.9 0c.3 0 .6.3.6.6s-.3.6-.6.6-.6-.3-.6-.6.3-.6.6-.6z"/></g></g><g fill="#40ACE2"><path d="M386 357.4h9v-8.9l-9 1.2zM395.9 348.4v9h11.8v-10.6zM386 365.8l9 1.2v-8.7h-9zM395.9 367.1l11.8 1.6v-10.4h-11.8z"/></g><g fill="#FFF"><path d="M436.2 286.3c0-2.9 2.4-4.3 2.5-4.4-1.4-2-3.5-2.3-4.2-2.3-1.8-.2-3.5 1.1-4.4 1.1s-2.3-1-3.8-1c-1.9 0-3.8 1.2-4.8 2.9-2.1 3.6-.5 8.8 1.4 11.7 1 1.4 2.1 3 3.6 2.9 1.5-.1 2-.9 3.8-.9s2.3.9 3.8.9c1.6 0 2.6-1.4 3.5-2.8 1.1-1.6 1.6-3.2 1.6-3.3.1-.1-3-1.3-3-4.8zM433.3 277.7c.8-1 1.3-2.3 1.2-3.7-1.1.1-2.6.8-3.4 1.8-.7.9-1.4 2.3-1.2 3.6 1.3 0 2.6-.7 3.4-1.7z"/></g><g><g fill="#FFF"><path d="M421.5 315.7c-.8 0-1.4.6-1.4 1.4v5.9c0 .8.6 1.4 1.4 1.4.8 0 1.4-.6 1.4-1.4v-5.8c0-.8-.6-1.5-1.4-1.5zM439.6 317.1c0-.8-.6-1.4-1.4-1.4-.8 0-1.4.6-1.4 1.4v5.9c0 .8.6 1.4 1.4 1.4.8 0 1.4-.6 1.4-1.4v-5.9zM423.5 316l-.1 9.3c0 .8.6 1.4 1.4 1.4h1.2v3.2c0 .8.6 1.4 1.4 1.4s1.4-.6 1.4-1.4v-3.2h1.9v3.2c0 .8.6 1.4 1.4 1.4.8 0 1.4-.6 1.4-1.4v-3.2h1.2c.8 0 1.4-.6 1.4-1.4V316h-12.6zM436.2 315.5v-.7c0-.2 0-.4-.1-.6-.4-1.7-1.5-3.1-3.1-3.9l1-1.8c.1-.1 0-.3-.1-.3-.1-.1-.3 0-.3.1l-1 1.8c-.8-.4-1.8-.6-2.8-.6s-2 .2-2.8.6l-1-1.8c-.1-.1-.2-.2-.3-.1-.1.1-.2.2-.1.3l1 1.8c-1.5.8-2.6 2.1-3 3.7-.1.4-.2.8-.2 1.3v.2h12.8zm-3.4-3.5c.3 0 .6.3.6.6s-.3.6-.6.6-.6-.3-.6-.6.2-.6.6-.6zm-5.9 0c.3 0 .6.3.6.6s-.3.6-.6.6-.6-.3-.6-.6.3-.6.6-.6z"/></g></g><g fill="#FFF"><path d="M419 357.4h9v-8.9l-9 1.2zM428.9 348.4v9h11.8v-10.6zM419 365.8l9 1.2v-8.7h-9zM428.9 367.1l11.8 1.6v-10.4h-11.8z"/></g><g><g fill="#FFF"><g><path d="M611.1 20.7l-1.3 1.2c-.3.2-.6.3-.9.5-.9.4-1.8.5-2.6.5s-2.2-.1-3.5-1c-1.9-1.3-2.7-3.6-2.7-5.6 0-4.1 3.3-6.1 6.1-6.1 1 0 1.9.2 2.7.7 1.3.9 1.7 2 1.9 2.6l-6.2 2.5-2 .2c.7 3.4 2.9 5.3 5.4 5.3 1.2 0 2.2-.4 3.1-.8-.1 0 .1-.1 0 0zm-3.8-6.7c.5-.2.8-.3.8-.7 0-1.1-1.2-2.3-2.6-2.3-1.1 0-3 .8-3 3.7 0 .4.1.9.1 1.4l4.7-2.1z"/><path d="M598.1 20.5c0 1 .2 1.2 1.1 1.3.5.1.9.1 1.4.1l-1 .6h-4.7c.6-.8.7-.9.7-1.4V4.8h-2.1l2-1h3.8c-.8.5-1.1.8-1.2 1.7v15z"/><path d="M590.9 11.5c.6.5 1.9 1.6 1.9 3.6s-1.1 2.9-2.2 3.8c-.3.3-.7.7-.7 1.3 0 .6.4.9.7 1.1l1 .7c1.2 1 2.2 1.9 2.2 3.7 0 2.5-2.4 5-7 5-3.8 0-5.7-1.8-5.7-3.8 0-1 .5-2.3 2-3.2 1.6-1 3.9-1.1 5.1-1.2-.4-.5-.8-1-.8-1.8 0-.4.1-.7.3-1-.3 0-.6.1-.8.1-2.8 0-4.4-2.1-4.4-4.2 0-1.2.6-2.6 1.7-3.5 1.5-1.2 3.3-1.5 4.7-1.5h5.5l-1.7 1-1.8-.1zM589 23.2h-.6c-.2 0-1.7.1-2.8.4-.6.2-2.3.8-2.3 2.7 0 1.9 1.8 3.2 4.7 3.2 2.5 0 3.9-1.2 3.9-2.9 0-1.2-.9-1.9-2.9-3.4zm.7-5c.6-.6.7-1.5.7-1.9 0-1.9-1.1-4.9-3.3-4.9-.7 0-1.4.3-1.9.9-.4.6-.6 1.3-.6 2 0 1.8 1 4.7 3.3 4.7.7-.1 1.4-.4 1.8-.8zM574.5 22.8c-4.2 0-6.5-3.3-6.5-6.2 0-3.5 2.8-6.4 6.9-6.4 3.9 0 6.3 3 6.3 6.2 0 3.1-2.4 6.4-6.7 6.4zm3.3-2.1c.6-.8.8-1.9.8-2.9 0-2.3-1.1-6.8-4.4-6.8-.9 0-1.8.3-2.4.9-1 .9-1.2 2.1-1.2 3.2 0 2.6 1.3 6.9 4.5 6.9 1 .1 2.1-.4 2.7-1.3zM560.4 22.8c-4.2 0-6.5-3.3-6.5-6.2 0-3.5 2.8-6.4 6.9-6.4 3.9 0 6.3 3 6.3 6.2 0 3.1-2.4 6.4-6.7 6.4zm3.3-2.1c.6-.8.8-1.9.8-2.9 0-2.3-1.1-6.8-4.4-6.8-.9 0-1.7.3-2.4.9-1 .9-1.2 2.1-1.2 3.2 0 2.6 1.3 6.9 4.5 6.9 1 .1 2.1-.4 2.7-1.3zM552.2 21.9l-3.5.8c-1.4.2-2.7.4-4.1.4-6.8 0-9.4-5-9.4-9 0-4.8 3.7-9.3 10-9.3 1.3 0 2.6.2 3.8.5 1.9.5 2.7 1.2 3.3 1.5l-2.1 2-.9.2.6-1c-.8-.8-2.4-2.3-5.3-2.3-3.9 0-6.9 3-6.9 7.3 0 4.7 3.4 9 8.8 9 1.6 0 2.4-.3 3.1-.6v-4l-3.7.2 2-1.1h5.3l-.6.6c-.2.1-.2.2-.2.4v1.2l-.2 3.2z"/></g><g><path d="M618.7 20.8v6.7h-1.3V10.4h1.3v2c.9-1.3 2.5-2.3 4.3-2.3 3.3 0 5.6 2.5 5.6 6.5s-2.2 6.5-5.6 6.5c-1.7.1-3.3-.8-4.3-2.3zm8.4-4.2c0-3-1.6-5.3-4.3-5.3-1.7 0-3.4 1.4-4.1 2.5v5.5c.7 1.2 2.4 2.6 4.1 2.6 2.8 0 4.3-2.3 4.3-5.3zM630.4 22.8V5.7h1.3v17.1h-1.3zM646.8 26.5c.3.1.8.2 1.1.2.8 0 1.4-.3 1.9-1.5l1-2.2-5.3-12.5h1.5l4.5 10.8 4.5-10.8h1.5l-6.4 15.1c-.7 1.6-1.7 2.3-3.2 2.3-.4 0-1-.1-1.3-.2l.2-1.2zM642.8 22.8c-.1-.4-.2-.8-.2-1.1 0-.3-.1-.6-.1-1-.5.7-1.1 1.2-1.9 1.7-.8.4-1.6.7-2.7.7-1.3 0-2.3-.3-3-1-.7-.6-1.1-1.5-1.1-2.6s.5-2 1.6-2.7c1-.7 2.4-1 4.1-1h3.1v-1.5c0-.9-.3-1.6-.9-2.1s-1.5-.8-2.6-.8c-1 0-1.8.2-2.5.7-.6.5-.9 1-.9 1.7h-1.4v-.1c0-.9.4-1.8 1.3-2.5s2.1-1.1 3.6-1.1 2.6.4 3.5 1.1 1.3 1.7 1.3 3v6.1c0 .4 0 .9.1 1.3s.1.8.3 1.2h-1.6zm-4.7-1c1.1 0 2-.3 2.8-.8.8-.5 1.4-1.1 1.7-1.9v-2.4h-3.1c-1.2 0-2.2.3-3 .8-.8.5-1.2 1.2-1.2 1.9s.3 1.3.8 1.7c.4.5 1.1.7 2 .7z"/></g></g><g><path fill="none" d="M517.7 15.9l4.3-4.3-4.3 4.3L504 2.2l13.7 13.7L504 29.7l13.7-13.8 4.3 4.3z"/><linearGradient id="c" gradientUnits="userSpaceOnUse" x1="1563.257" y1="-139.64" x2="1545.169" y2="-150.96" gradientTransform="rotate(45.001 852.56 -1327.97)"><stop offset="0" stop-color="#d7e69d"/><stop offset=".446" stop-color="#94c4aa"/><stop offset="1" stop-color="#01a4b6"/></linearGradient><path fill="url(#c)" d="M522 11.6l-16.7-9.2c-.5-.3-.9-.3-1.3-.2l13.7 13.7 4.3-4.3z"/><linearGradient id="d" gradientUnits="userSpaceOnUse" x1="1552.742" y1="-149.284" x2="1576.193" y2="-143.154" gradientTransform="rotate(45.001 852.56 -1327.97)"><stop offset="0" stop-color="#ed277b"/><stop offset=".019" stop-color="#ee2f7c"/><stop offset=".704" stop-color="#f7bd81"/><stop offset="1" stop-color="#feeb74"/></linearGradient><path fill="url(#d)" d="M522 20.2l5.7-3.1c1.2-.6 1.2-1.7 0-2.3l-5.7-3.1-4.3 4.3 4.3 4.2z"/><linearGradient id="e" gradientUnits="userSpaceOnUse" x1="1565.836" y1="-131.059" x2="1540.405" y2="-146.021" gradientTransform="rotate(45.001 852.56 -1327.97)"><stop offset="0" stop-color="#89cfbd"/><stop offset=".091" stop-color="#7dbebb"/><stop offset=".54" stop-color="#457cac"/><stop offset=".852" stop-color="#1c5aa2"/><stop offset="1" stop-color="#084d9f"/></linearGradient><path fill="url(#e)" d="M504 2.2c-.5.2-.8.7-.8 1.5v24.5c0 .8.3 1.3.8 1.4l13.7-13.7L504 2.2z"/><linearGradient id="f" gradientUnits="userSpaceOnUse" x1="1575.124" y1="-142.917" x2="1559.464" y2="-122.286" gradientTransform="rotate(45.001 852.56 -1327.97)"><stop offset="0" stop-color="#f04a2b"/><stop offset=".47" stop-color="#b54f6b"/><stop offset=".835" stop-color="#8b5191"/><stop offset="1" stop-color="#7851a1"/></linearGradient><path fill="url(#f)" d="M504 29.7c.4.1.8.1 1.3-.2l16.7-9.2-4.3-4.3L504 29.7z"/></g></g><g><g><g fill="#FFF"><path d="M402.9 15.8c0-3.2 2.6-4.8 2.8-4.9-1.5-2.2-3.9-2.5-4.7-2.5-2-.2-3.9 1.2-4.9 1.2s-2.6-1.2-4.2-1.1c-2.1 0-4.1 1.3-5.2 3.2-2.3 3.9-.6 9.7 1.6 12.9 1.1 1.6 2.4 3.3 4 3.2 1.6-.1 2.2-1 4.2-1 1.9 0 2.5 1 4.2 1s2.8-1.6 3.9-3.1c1.3-1.8 1.8-3.5 1.8-3.6-.1-.2-3.5-1.5-3.5-5.3zM399.7 6.3c.9-1.1 1.5-2.6 1.3-4.1-1.3.1-2.8.9-3.8 1.9-.8.9-1.5 2.5-1.3 3.9 1.4.2 2.9-.6 3.8-1.7z"/></g></g></g><g fill="#FFF"><path d="M425 22.4h-2.3l-1.2-3.9h-4.3l-1.2 3.9h-2.2l4.3-13.3h2.6l4.3 13.3zm-3.9-5.6l-1.1-3.5c-.1-.4-.3-1.2-.7-2.5-.1.6-.3 1.4-.6 2.5l-1.1 3.5h3.5zM436.1 17.5c0 1.6-.4 2.9-1.3 3.9-.8.8-1.8 1.3-2.9 1.3-1.3 0-2.2-.5-2.7-1.4v5.1h-2.1V16.1c0-1 0-2.1-.1-3.2h1.9l.1 1.5c.7-1.1 1.8-1.7 3.2-1.7 1.1 0 2.1.4 2.8 1.3.7.8 1.1 2 1.1 3.5zm-2.2.1c0-.9-.2-1.7-.6-2.3-.5-.6-1.1-.9-1.9-.9-.5 0-1 .2-1.4.5-.4.4-.7.8-.8 1.4-.1.3-.1.5-.1.6v1.6c0 .7.2 1.3.6 1.8.4.5 1 .7 1.7.7.8 0 1.4-.3 1.9-.9.4-.7.6-1.5.6-2.5zM447.1 17.5c0 1.6-.4 2.9-1.3 3.9-.8.8-1.8 1.3-2.9 1.3-1.3 0-2.2-.5-2.7-1.4v5.1h-2.1V16.1c0-1 0-2.1-.1-3.2h1.9l.1 1.5c.7-1.1 1.8-1.7 3.2-1.7 1.1 0 2.1.4 2.8 1.3.7.8 1.1 2 1.1 3.5zm-2.2.1c0-.9-.2-1.7-.6-2.3-.5-.6-1.1-.9-1.9-.9-.5 0-1 .2-1.4.5-.4.4-.7.8-.8 1.4-.1.3-.1.5-.1.6v1.6c0 .7.2 1.3.6 1.8.4.5 1 .7 1.7.7.8 0 1.4-.3 1.9-.9.4-.7.6-1.5.6-2.5zM459.4 18.7c0 1.1-.4 2.1-1.2 2.8-.9.8-2.1 1.2-3.6 1.2-1.4 0-2.6-.3-3.4-.8l.5-1.8c.9.6 2 .9 3.1.9.8 0 1.4-.2 1.9-.5.4-.4.7-.8.7-1.5 0-.5-.2-1-.6-1.4-.4-.4-1-.7-1.8-1-2.3-.9-3.5-2.1-3.5-3.8 0-1.1.4-2 1.2-2.7s1.9-1 3.3-1c1.2 0 2.2.2 3 .6l-.5 1.7c-.8-.4-1.6-.6-2.5-.6-.8 0-1.3.2-1.8.6-.4.3-.5.7-.5 1.2s.2 1 .6 1.3c.4.3 1 .7 1.9 1 1.1.5 2 1 2.5 1.6.5.5.7 1.2.7 2.2zM466.5 14.4h-2.3v4.7c0 1.2.4 1.8 1.2 1.8.4 0 .7 0 .9-.1l.1 1.6c-.4.2-1 .2-1.7.2-.8 0-1.5-.3-2-.8s-.7-1.4-.7-2.6v-4.8h-1.4v-1.6h1.4V11l2.1-.6v2.4h2.4v1.6zM477.1 17.5c0 1.5-.4 2.7-1.3 3.6-.9 1-2.1 1.5-3.5 1.5s-2.5-.5-3.4-1.4-1.3-2.1-1.3-3.5c0-1.5.4-2.7 1.3-3.7.9-.9 2-1.4 3.5-1.4 1.4 0 2.5.5 3.4 1.4.9.9 1.3 2.1 1.3 3.5zm-2.2.1c0-.9-.2-1.6-.6-2.3-.4-.8-1.1-1.1-1.9-1.1-.9 0-1.5.4-2 1.1-.4.6-.6 1.4-.6 2.3s.2 1.6.6 2.3c.5.8 1.1 1.1 1.9 1.1s1.5-.4 1.9-1.2c.5-.6.7-1.3.7-2.2zM484 14.7c-.2 0-.4-.1-.7-.1-.8 0-1.3.3-1.7.9-.4.5-.5 1.1-.5 1.9v5H479v-6.6c0-1.1 0-2.1-.1-3h1.9l.1 1.8h.1c.2-.6.6-1.1 1.1-1.5.5-.3 1-.5 1.5-.5h.5c-.1 0-.1 2.1-.1 2.1zM493.5 17.1c0 .4 0 .7-.1 1H487c0 .9.3 1.7.9 2.2.5.4 1.2.7 2.1.7.9 0 1.8-.2 2.6-.5l.3 1.5c-.9.4-2 .6-3.2.6-1.5 0-2.7-.4-3.5-1.3s-1.3-2.1-1.3-3.5.4-2.7 1.2-3.6c.8-1 1.9-1.5 3.4-1.5 1.4 0 2.4.5 3.1 1.5.7.7.9 1.7.9 2.9zm-2-.5c0-.6-.1-1.2-.4-1.6-.4-.6-.9-.9-1.7-.9-.7 0-1.3.3-1.7.9-.4.5-.6 1-.6 1.7l4.4-.1z"/></g><g fill="#FFF"><path d="M686.3 3.8c5.3 0 9.1 4 9.1 4.6s-.4 1.1-1.1 1.1h-15.6s-.9-.2-.9-1.3 3.8-4.4 8.5-4.4zM696.3 14.2c1.1-.7 1.7.6 1.3 1.3-6.3 10.6-7.6 15.8-12.7 15.8-4.9 0-6.9-2.9-6.9-4.7 0-2.9 14.2-9.9 18.3-12.4zM677.4 23.1c-2 .9-3.1-1.8-3.1-4.8s2-7.4 4.9-7.4h15.5s1.6-.2 1.6.9c-.2 1.6-16.9 10.4-18.9 11.3zM699.1 16.1c1.1 0 2.1 1.6 2.1 5.6 0 3.9-4.2 11-9.1 11-1 0-2.1-.4-1.7-1.1 4.7-8 8-15.5 8.7-15.5zM692 2.1c3.3 0 8.4 3.5 8.4 5.1 0 1.1-.2 1.6-1.2 1.6-1.3 0-3.8-2.8-8.1-5.8-.7-.5.4-.9.9-.9zM701.6 8.6c1.4 0 2.5 1.7 2.5 3.3 0 1.6-.8 1.5-1.2 1.5-.5 0-2.4-2.1-2.4-3.2s.6-1.6 1.1-1.6z"/></g><g fill="#FFF"><path d="M725.3 10.6h-11.8v3.2h11.8c.6 0 1.1.5 1.1 1.1v1.3h-12.2v3.2h12.2v1.3c0 .6-.5 1.1-1.1 1.1h-11.8V25h11.8c2.3 0 4.2-1.9 4.2-4.2v-5.7c0-2.6-1.8-4.5-4.2-4.5zM743.6 16.1h-9.8c.2-1.3 1.3-2.3 2.7-2.3h9.8v-3.2h-9.8c-3.2 0-5.9 2.6-5.9 5.9v2.4c0 3.2 2.6 5.9 5.9 5.9H743.6c2.4 0 4.3-1.9 4.3-4.3s-2-4.4-4.3-4.4zm0 5.5H736.5c-1.4 0-2.5-1-2.7-2.3h9.8c.6 0 1.2.5 1.2 1.2s-.6 1.1-1.2 1.1zM760.1 10.3h-4.4c-3.6 0-6.6 2.9-6.6 6.6v1.4c0 3.6 2.9 6.6 6.6 6.6h4.4c3.6 0 6.6-2.9 6.6-6.6v-1.4c-.1-3.7-3-6.6-6.6-6.6zm3.4 7.9c0 1.9-1.5 3.4-3.4 3.4h-4.4c-1.9 0-3.4-1.5-3.4-3.4v-1.4c0-1.9 1.5-3.4 3.4-3.4h4.4c1.9 0 3.4 1.5 3.4 3.4v1.4z"/></g><g><g><defs><path id="g" d="M389.3 38.5l2.5-2.5-10.7-6c-.1-.1-.2-.1-.3-.1l8.5 8.6z"/></defs><clipPath id="h"><use xlink:href="#g" overflow="visible"/></clipPath><path clip-path="url(#h)" fill="#757575" d="M375.8 25h21v18.5h-21z"/></g><g><defs><path id="i" d="M380.2 30.3c-.1.1-.2.3-.2.5v15.9c0 .2.1.5.3.6.1 0 .1.1.1.1l8.5-8.4-8.7-8.7z"/></defs><clipPath id="j"><use xlink:href="#i" overflow="visible"/></clipPath><path clip-path="url(#j)" fill="#757575" d="M375 25.3h18.9v27H375z"/></g><g><defs><path id="k" d="M395.4 38l-3.1-1.7-2.6 2.6 2.3 2.2 3.4-1.9c.2-.1.3-.3.3-.6s-.1-.4-.3-.6z"/></defs><clipPath id="l"><use xlink:href="#k" overflow="visible"/></clipPath><path clip-path="url(#l)" fill="#757575" d="M384.7 31.4h16v14.8h-16z"/></g><g><defs><path id="m" d="M389.3 39.3l-7.7 7.6 9.9-5.4z"/></defs><clipPath id="n"><use xlink:href="#m" overflow="visible"/></clipPath><path clip-path="url(#n)" fill="#757575" d="M376.6 34.3h19.8v17.5h-19.8z"/></g><g><defs><path id="o" d="M454.5 36.4l-1.5 3.8-1.5-3.8h-1.4l2.3 5.3-1.3 3h1.3l3.5-8.2h-1.4zm-7.2 4.6c-.4 0-1-.2-1-.8 0-.7.7-.9 1.3-.9.6 0 .8.1 1.2.3-.1.8-.8 1.4-1.5 1.4zm2.7 1v-3.3c0-1.5-1.2-2.4-2.6-2.4-.9 0-1.9.4-2.3 1.4l1.2.5c.2-.5.7-.7 1.2-.7.6 0 1.3.4 1.3 1.1v.1c-.2-.1-.7-.3-1.3-.3-1.2 0-2.5.7-2.5 2 0 1.2 1 1.9 2.1 1.9.9 0 1.3-.4 1.6-.8v.5h1.3zm-5.7 0v-8.7H443V42h1.3zm-4.9-4.5h-1.8v-3h1.8c1 0 1.5.8 1.5 1.5.1.6-.5 1.5-1.5 1.5zm0-4.2h-3.1V42h1.3v-3.3h1.8c1.4 0 2.8-1 2.8-2.7s-1.4-2.7-2.8-2.7z"/></defs><clipPath id="p"><use xlink:href="#o" overflow="visible"/></clipPath><path clip-path="url(#p)" fill="#757575" d="M431.4 28.3H461v21.4h-29.6z"/></g><g><defs><path id="q" d="M431.2 37.4c.5 0 .9.3 1.1.6l-2.6 1.1c-.1-1.2.8-1.7 1.5-1.7zm.1 3.6c-.6 0-1.1-.3-1.4-.9l3.9-1.6-.1-.3c-.2-.7-1-1.9-2.5-1.9s-2.8 1.2-2.8 3c0 1.7 1.2 3 2.9 3 1.3 0 2.1-.8 2.4-1.3l-1-.7c-.3.4-.8.7-1.4.7zm-4.8-7.7h1.3V42h-1.3v-8.7zm-3.6 7.7c-.9 0-1.6-.8-1.6-1.8s.7-1.8 1.6-1.8 1.6.8 1.6 1.8c-.1 1-.7 1.8-1.6 1.8zm1.5-4.6v.5c-.3-.3-.8-.7-1.5-.7-1.5 0-2.8 1.3-2.8 3s1.3 3 2.8 3c.7 0 1.2-.3 1.5-.7v.4c0 1.1-.6 1.7-1.6 1.7-.8 0-1.3-.6-1.5-1.1l-1.1.5c.3.8 1.2 1.7 2.6 1.7 1.5 0 2.8-.9 2.8-3.1v-5.3h-1.2zm-7.9 4.6c-.9 0-1.7-.8-1.7-1.8 0-1.1.8-1.8 1.7-1.8s1.7.8 1.7 1.8-.8 1.8-1.7 1.8zm0-4.8c-1.6 0-3 1.3-3 3s1.3 3 3 3 3-1.3 3-3-1.4-3-3-3zm-6.4 4.8c-.9 0-1.7-.8-1.7-1.8 0-1.1.8-1.8 1.7-1.8.9 0 1.7.8 1.7 1.8-.1 1-.8 1.8-1.7 1.8zm0-4.8c-1.6 0-3 1.3-3 3s1.3 3 3 3 3-1.3 3-3c-.1-1.7-1.4-3-3-3zm-12.2 1.3c0-2.5 2.1-4.6 4.6-4.6 1.4 0 2.4.6 3.1 1.3l-.9.9c-.6-.5-1.2-.9-2.2-.9-1.8 0-3.3 1.5-3.3 3.4s1.4 3.4 3.3 3.4c1.2 0 1.8-.5 2.3-.9.4-.4.6-.9.7-1.6h-3v-1.3h4.2v.8c0 .9-.3 2.1-1.1 3-.8.8-1.8 1.3-3.2 1.3-2.5-.1-4.5-2.2-4.5-4.8z"/></defs><clipPath id="r"><use xlink:href="#q" overflow="visible"/></clipPath><path clip-path="url(#r)" fill="#757575" d="M392.9 27.9h45.9v21.9h-45.9z"/></g></g><g><defs><path id="s" d="M466.5 39.6l-4 2 1.3-4.2-3.8-3h4.7l1.8-4.4 1.7 4.4h4.8l-3.7 3 1.2 4.2z"/></defs><clipPath id="t"><use xlink:href="#s" overflow="visible"/></clipPath><path clip-path="url(#t)" fill="#E66E16" d="M455 25h23v21.6h-23z"/></g><g><defs><path id="u" d="M6.5 804.6l-4 2 1.3-4.2-3.8-3h4.7l1.8-4.4 1.7 4.4H13l-3.7 3 1.2 4.2z"/></defs><clipPath id="v"><use xlink:href="#u" overflow="visible"/></clipPath><path clip-path="url(#v)" fill="#E1E1E1" d="M-5 790h23v21.6H-5z"/></g><g><defs><path id="w" d="M481.5 39.6l-4 2 1.3-4.2-3.8-3h4.7l1.8-4.4 1.7 4.4h4.8l-3.7 3 1.2 4.2z"/></defs><clipPath id="x"><use xlink:href="#w" overflow="visible"/></clipPath><path clip-path="url(#x)" fill="#E1E1E1" d="M470 25h23v21.6h-23z"/></g><g><defs><path id="y" d="M494.7 35.8l-4.7 4.7 1.1 1.1 4.7-4.7 4.7 4.7 1.1-1.1-4.7-4.7 4.7-4.7-1.1-1.1-4.7 4.7-4.7-4.7-1.1 1.1z"/></defs><clipPath id="z"><use xlink:href="#y" overflow="visible"/></clipPath><path clip-path="url(#z)" fill="#606060" d="M485 25h21.6v21.6H485z"/></g></g><g><g><g><path fill="#353535" d="M521.6 415.5c-6.4 0-11.6-5.2-11.6-11.6V212.6c0-6.4 5.2-11.6 11.6-11.6h253.6c6.4 0 11.6 5.2 11.6 11.6v191.3c0 6.4-5.2 11.6-11.6 11.6H521.6z"/><path fill="#A5A5A5" d="M775.2 202c5.8 0 10.6 4.7 10.6 10.6v191.3c0 5.8-4.7 10.6-10.6 10.6H521.6c-5.8 0-10.6-4.7-10.6-10.6V212.6c0-5.8 4.7-10.6 10.6-10.6h253.6zm0-2H521.6c-6.9 0-12.6 5.6-12.6 12.6v191.3c0 6.9 5.6 12.6 12.6 12.6h253.6c6.9 0 12.6-5.6 12.6-12.6V212.6c-.1-6.9-5.7-12.6-12.6-12.6z"/></g><path fill="#E1E1E1" d="M771.8 390.6c0 1.9-1.6 3.5-3.5 3.5H528.5c-1.9 0-3.5-1.6-3.5-3.5V219.8c0-1.9 1.6-3.5 3.5-3.5h239.9c1.9 0 3.5 1.6 3.5 3.5v170.8h-.1z"/><path fill="#1CB0F6" d="M768.3 216.3H528.5c-1.9 0-3.5 1.6-3.5 3.5v18.8h246.9v-18.8c-.1-1.9-1.6-3.5-3.6-3.5z"/><path fill="#7AC70C" d="M531.9 370c-2.4 0-4.7.1-6.9.3v20.3c0 1.9 1.6 3.5 3.5 3.5h52.1c-2.1-13.5-23.1-24.1-48.7-24.1zM742 378.6c-5.6-1.2-11.8-1.9-18.3-1.9-21.2 0-39.2 7.3-46 17.4h90.5c1.9 0 3.5-1.6 3.5-3.5v-23.7c-12.4 1.7-23.1 5.9-29.7 11.7z"/><path fill="#FFF" d="M593.3 227.2c0 1.9-1.6 3.5-3.5 3.5h-28.6c-1.9 0-3.5-1.6-3.5-3.5v-.3c0-1.9 1.6-3.5 3.5-3.5h28.6c1.9 0 3.5 1.6 3.5 3.5v.3zM736.1 343.1c0 2.2-1.8 4.1-4.1 4.1H562.4c-2.2 0-4.1-1.8-4.1-4.1v-76.8c0-2.2 1.8-4.1 4.1-4.1H732c2.2 0 4.1 1.8 4.1 4.1v76.8z"/><path fill="#7AC70C" d="M558.4 326.2v16.9c0 2.2 1.8 4.1 4.1 4.1h169.6c2.2 0 4.1-1.8 4.1-4.1v-16.9H558.4z"/><circle fill="#FFF" cx="573.8" cy="336.8" r="6.1"/><path fill="#7CC242" d="M612.7 270.9c0 1.5-1.2 2.7-2.7 2.7h-39.7c-1.5 0-2.7-1.2-2.7-2.7 0-1.5 1.2-2.7 2.7-2.7H610c1.5-.1 2.7 1.2 2.7 2.7z"/><path fill="none" stroke="#E1E1E1" stroke-width="2.316" d="M636.5 308.4c0 2.2-1.8 4.1-4.1 4.1h-60.2c-2.2 0-4.1-1.8-4.1-4.1v-14.6c0-2.2 1.8-4.1 4.1-4.1h60.3c2.2 0 4.1 1.8 4.1 4.1v14.6h-.1zM726.1 308.4c0 2.2-1.8 4.1-4.1 4.1h-60.3c-2.2 0-4.1-1.8-4.1-4.1v-14.6c0-2.2 1.8-4.1 4.1-4.1H722c2.2 0 4.1 1.8 4.1 4.1v14.6z"/><circle fill="#D43231" cx="723.3" cy="270.9" r="4.1"/><circle fill="#D43231" cx="711.9" cy="270.9" r="4.1"/><circle fill="#E1E1E1" cx="700.5" cy="270.9" r="4.1"/><path opacity=".45" fill="#BFF199" d="M725.3 337.5c0 1.9-1.6 3.5-3.5 3.5H690c-1.9 0-3.5-1.6-3.5-3.5s1.6-3.5 3.5-3.5h31.9c1.9.1 3.4 1.6 3.4 3.5z"/><path fill="#1CB0F6" d="M648.1 300.8l-2.2 2.5c-.4.4-.3 1 .1 1.4.4.4 1 .3 1.4-.1l2.8-3.2.6-.7-.6-.7-2.6-2.9c-.4-.4-1-.4-1.4-.1-.4.4-.4 1-.1 1.4l2 2.4z"/><circle fill="#1CB0F6" cx="574.6" cy="296.5" r="3.3"/><path fill="#E1E1E1" d="M612.8 296.6c0 1.4-1.2 2.6-2.6 2.6h-26.1c-1.4 0-2.6-1.2-2.6-2.6 0-1.4 1.2-2.6 2.6-2.6h26.1c1.4 0 2.6 1.2 2.6 2.6zM693.8 296.6c0 1.4-1.2 2.6-2.6 2.6h-26.1c-1.4 0-2.6-1.2-2.6-2.6 0-1.4 1.2-2.6 2.6-2.6h26.1c1.5 0 2.6 1.2 2.6 2.6z"/><path fill="#3E3E3E" d="M652.1 209.4c0 1.7-1.4 3.2-3.2 3.2-1.7 0-3.2-1.4-3.2-3.2 0-1.7 1.4-3.2 3.2-3.2 1.7.1 3.2 1.5 3.2 3.2z"/><circle fill="#FF7F00" cx="736.9" cy="227.7" r="4"/><circle fill="#E53838" cx="748.9" cy="227.7" r="4"/><path fill="#FFF" d="M670.9 265.7h61v13h-61z"/><path fill="#CFCFCF" stroke="#FFF" d="M726.8 271.7l1.6-1.6c.5-.5.5-1.4 0-1.9s-1.4-.5-1.9 0l-1.6 1.6-1.6-1.6c-.5-.5-1.4-.5-1.9 0s-.5 1.4 0 1.9l1.6 1.6-1.6 1.6c-.5.5-.5 1.4 0 1.9s1.4.5 1.9 0l1.6-1.6 1.6 1.6c.5.5 1.4.5 1.9 0s.5-1.4 0-1.9l-1.6-1.6z"/></g><linearGradient id="A" gradientUnits="userSpaceOnUse" x1="541" y1="-1098.238" x2="786" y2="-1098.238" gradientTransform="matrix(1 0 0 -1 0 -790)"><stop offset="0" stop-color="#fff"/><stop offset="1" stop-color="#fff" stop-opacity=".6"/></linearGradient><path opacity=".22" fill="url(#A)" d="M785.9 212.6c0-5.8-4.7-10.6-10.6-10.6H541l216 212.4h18.4c5.8 0 10.6-4.7 10.6-10.6l-.1-191.2z"/><path fill="#C9C9C9" d="M815.4 421.4c0 1.1-.9 1.9-1.9 1.9H482.4c-1.1 0-1.9-.9-1.9-1.9V409c0-1.1.9-1.9 1.9-1.9h331.2c1.1 0 1.9.9 1.9 1.9l-.1 12.4z"/><path fill="#9B9B9B" d="M619.7 409.6c0 1.3 1.1 2.4 2.4 2.4h52.3c1.3 0 2.4-1.1 2.4-2.4 0-1.3-1.1-2.4-2.4-2.4h-52.3c-1.3 0-2.4 1-2.4 2.4z"/></g><path fill="#7AC70C" d="M516 150c-8.6 0-15.5 6.9-15.5 15.5S507.4 181 516 181s15.5-6.9 15.5-15.5-7-15.5-15.5-15.5zm8 13l-8.2 8.2c-.1.1-.1.2-.2.2h-.1c-.8.8-2.1.8-2.9 0l-3.9-3.9c-.8-.8-.8-2.1 0-2.9l.1-.1c.8-.8 2.1-.8 2.9 0l2.4 2.4 6.9-6.9c.8-.8 2.1-.8 3 .1.8.8.8 2.1 0 2.9z"/><g><g><g><path fill="#D33131" d="M552.4 150l-11.9 6.9v19.7l11.9 6.8 11.9-6.8v-19.7z"/><path fill="#F93D3D" d="M552.4 150l-11.9 6.8 5 4.2 6.9-2.3V150z"/><path fill="#AF2828" d="M552.4 174.6v8.8l11.9-6.9-5-4.1z"/><path fill="#E83838" d="M552.4 157l6.9 4v11.4l-6.9 4-6.9-4V161z"/><path fill="#FFF" d="M546.3 163.4c-.1 0-.1 0 0 0-.6-1.3-1.5-2.3-2.8-2.8v-.1-.1c1.2-.5 2.2-1.5 2.7-2.7 0 0 0-.1.1-.1s.1 0 .1.1c.5 1.2 1.5 2.2 2.7 2.7v.2c-1.3.6-2.3 1.6-2.8 2.8"/><path fill="#FFF" d="M546.3 157.6c-.1 0-.1 0-.2.1-.5 1.2-1.4 2.2-2.6 2.7-.1 0-.1.1-.1.1 0 .1 0 .1.1.1 1.2.5 2.2 1.5 2.6 2.7 0 .1.1.1.2.1s.1 0 .2-.1c.5-1.2 1.4-2.2 2.6-2.7.1 0 .1-.1.1-.1 0-.1 0-.1-.1-.1-1.2-.5-2.2-1.5-2.6-2.7-.1 0-.2-.1-.2-.1m0 .2c.5 1.2 1.5 2.2 2.7 2.8-1.2.5-2.2 1.5-2.7 2.8-.5-1.2-1.5-2.2-2.7-2.8 1.2-.5 2.2-1.5 2.7-2.8"/><path fill="#F87F7F" d="M555 158.5l-9.5 9.5v4.4l1.1.7 12.4-12.3zM550 175l9.3-9.3v-3l-11.2 11.2z"/></g></g></g><path fill="#1CB0F6" d="M591 150c-8.6 0-15.5 6.9-15.5 15.5S582.4 181 591 181s15.5-6.9 15.5-15.5-7-15.5-15.5-15.5zm-3.4 8.7c0-1.8 1.5-3.3 3.3-3.3s3.3 1.5 3.3 3.3v7.1c0 1.8-1.5 3.3-3.3 3.3s-3.3-1.5-3.3-3.3v-7.1zm9.4 7.1c0 3.2-2.4 5.8-5.5 6v2.8h2.8v1.2h-6.6v-1.2h2.6v-2.8c-3-.3-5.4-2.9-5.4-6v-3.5h1.2v3.5c0 2.7 2.2 4.8 4.8 4.8 2.7 0 4.8-2.2 4.8-4.8v-3.5h1.2v3.5z"/></g></svg>