<?xml version="1.0" encoding="UTF-8"?>
<svg width="202px" height="109px" viewBox="0 0 202 109" version="1.1" xmlns="http://www.w3.org/2000/svg" xmlns:xlink="http://www.w3.org/1999/xlink">
    <!-- Generator: Sketch 64 (93537) - https://sketch.com -->
    <title>post</title>
    <desc>Created with Sketch.</desc>
    <g id="post" stroke="none" stroke-width="1" fill="none" fill-rule="evenodd">
        <g id="logoparade-adobe" transform="translate(31.000000, 38.000000)" fill-rule="nonzero">
            <polygon id="Path" fill="#FFFFFF" points="0.5564538 0.984312 36.7323012 0.984312 36.7323012 32.9990598 0.5564538 32.9990598"></polygon>
            <path d="M23.3599464,0.984312 L36.7323012,32.9990598 L36.7323012,0.984312 L23.3599464,0.984312 Z M0.5564538,0.984312 L0.5564538,32.9990598 L13.939128,0.984312 L0.5564538,0.984312 Z M12.8024064,26.5597542 L19.0377054,26.5597542 L21.5858034,32.9990598 L27.1693926,32.9990598 L18.650331,12.7825614 L12.8024064,26.5597542 Z" id="Shape" fill="#E20025"></path>
            <path d="M55.8295416,0.9001692 L48.5900856,32.9998536 L52.9718616,32.9998536 L54.8769816,24.1418394 L61.5449016,24.1418394 L63.4023936,32.9998536 L67.8317976,32.9998536 L61.0209936,0.9001692 L55.8295416,0.9001692 Z M55.4008896,20.5689456 L56.9249856,12.9016314 C57.3536376,10.8536274 57.8299176,7.9006914 58.1633136,5.5677132 L58.3538256,5.5677132 C58.6872216,7.8538572 59.1158736,10.7107434 59.5445256,12.9016314 L61.0209936,20.5689456 L55.4008896,20.5689456 Z M84.5563698,0.0428652 L80.0793378,0.0428652 L80.0793378,12.0919554 L79.9840818,12.0919554 C79.1744058,10.3297194 77.6979378,9.4724154 75.8404458,9.4724154 C72.1738836,9.4724154 68.6962458,13.3286958 68.6962458,21.5215056 C68.6962458,28.7133336 71.3157858,33.3800838 75.6023058,33.3800838 C77.9344902,33.3800838 79.69752,31.8083598 80.459568,30.188214 L80.6032458,30.188214 L80.88822,32.998266 L84.7452942,32.998266 C84.6500382,31.378914 84.5547822,28.8077958 84.5547822,27.0455598 L84.5563698,0.0428652 L84.5563698,0.0428652 Z M80.0793378,24.8562594 C80.0793378,25.3793736 80.030916,25.9517034 79.9364538,26.3311398 C79.1744058,29.09277 77.840028,29.6182656 76.8406338,29.6182656 C74.4592338,29.6182656 73.2209058,26.2850994 73.2209058,21.5222994 C73.2209058,17.2357794 74.172672,13.3302834 76.982724,13.3302834 C78.602076,13.3302834 79.792776,15.1401474 80.030916,17.2357794 C80.0793378,17.7128532 80.0793378,18.2367612 80.0793378,18.6654132 L80.0793378,24.8562594 Z M95.4576252,9.4724154 C91.219527,9.4724154 87.266403,13.0445154 87.266403,21.4738776 C87.266403,29.4285474 90.600363,33.3808776 95.2210728,33.3808776 L95.2694946,33.3808776 C98.7931728,33.3808776 103.318627,30.5708256 103.318627,21.3794154 C103.316245,13.5692172 100.029913,9.4724154 95.4576252,9.4724154 Z M95.363163,29.8556118 L95.3147412,29.8556118 C92.410227,29.8556118 91.7426412,25.2833238 91.7426412,21.4262496 C91.7426412,17.9494056 92.314971,12.9960936 95.2663194,12.9960936 C98.1239994,12.9960936 98.7431695,17.9494056 98.7431695,21.4262496 C98.744751,24.9515154 98.1247932,29.8556118 95.363163,29.8556118 Z M115.443922,9.4724154 C113.396711,9.4724154 111.777359,10.3773474 110.586659,12.4721856 L110.491403,12.4721856 L110.491403,0.0428652 L106.014371,0.0428652 L106.014371,27.0471474 C106.014371,28.8093834 105.919115,31.4297172 105.823859,32.9998536 L109.681727,32.9998536 L109.919867,30.0953394 L110.109586,30.0953394 C111.110567,32.1433434 112.39573,33.3824652 114.681874,33.3824652 C118.492114,33.3824652 121.874495,29.3324976 121.874495,21.0468132 C121.872908,13.9494474 119.396252,9.4724154 115.443922,9.4724154 Z M113.681686,29.6182656 C112.77596,29.6182656 111.395542,29.0459358 110.681122,26.2366776 C110.538238,25.8564474 110.491403,25.3309518 110.491403,24.8070438 L110.491403,18.3312234 C110.491403,17.8533558 110.539825,17.2349856 110.635081,16.7594994 C110.968477,15.0925194 112.159177,13.3302834 113.634058,13.3302834 C116.301226,13.3302834 117.350629,16.9023834 117.350629,21.3317874 C117.349042,26.0937936 116.34806,29.6182656 113.681686,29.6182656 Z M132.384407,9.4724154 C127.573186,9.4724154 124.097929,14.1399594 124.097929,21.7112238 C124.097929,28.8554238 127.146915,33.2371998 132.956737,33.2371998 C135.003947,33.2371998 137.100373,32.8569696 138.481585,32.1425496 L137.813999,28.9038456 C136.813018,29.3809194 135.432599,29.7603558 133.814041,29.7603558 C131.098451,29.7603558 128.527333,28.2846816 128.478911,22.3319754 L139.338095,22.3803972 C139.386517,21.7612332 139.432558,21.0460194 139.432558,19.9037412 C139.432558,14.0923314 137.194835,9.4724154 132.384407,9.4724154 Z M128.526539,19.1401056 C128.670217,16.2347976 129.717239,12.8532096 132.050218,12.8532096 C133.812454,12.8532096 135.242087,15.0440976 135.193666,19.1401056 L128.526539,19.1401056 L128.526539,19.1401056 Z M139.236489,10.4789538 L139.236489,10.470222 C139.359528,10.4337072 139.460341,10.3416264 139.460341,10.1900106 C139.460341,10.0796724 139.423826,10.0026738 139.354765,9.9518706 C139.286498,9.9018612 139.172985,9.8653464 138.998349,9.8653464 C138.861022,9.8653464 138.769735,9.8796348 138.673685,9.8923356 L138.673685,11.041758 L138.856259,11.041758 L138.856259,10.5472206 L138.984061,10.5472206 C139.130914,10.5472206 139.203149,10.6019928 139.231726,10.7488458 C139.253953,10.8996678 139.281736,11.0052432 139.311106,11.041758 L139.501618,11.041758 C139.484948,11.0052432 139.455578,10.9361826 139.428589,10.7583714 C139.405568,10.5884982 139.337302,10.4972112 139.236489,10.4789538 Z M138.989617,10.4051304 L138.857053,10.4051304 L138.857053,10.0161684 C138.888805,10.0121994 138.930082,10.0074366 138.989617,10.0074366 C139.196005,10.0074366 139.269035,10.1074554 139.269035,10.208268 C139.268241,10.351152 139.140439,10.4051304 138.989617,10.4051304 Z M139.053915,9.4120866 L139.049152,9.4120866 C138.486348,9.4120866 138.028325,9.8701092 138.028325,10.442439 C138.028325,11.0235006 138.486348,11.4767604 139.049152,11.4767604 C139.616719,11.4767604 140.065216,11.0242944 140.065216,10.442439 C140.065216,9.8701092 139.616719,9.4120866 139.053915,9.4120866 Z M139.053915,11.3164128 C138.595892,11.3164128 138.225188,10.9330074 138.225188,10.442439 C138.225188,9.96219 138.595892,9.5724342 139.049152,9.5724342 L139.053915,9.5724342 C139.511144,9.5724342 139.877086,9.9613962 139.877086,10.4472018 C139.877086,10.9314198 139.511144,11.3211756 139.053915,11.3164128 Z M38.4961248,0.984312 L38.491362,0.984312 C37.927764,0.984312 37.4705352,1.4423346 37.4705352,2.0138706 C37.4705352,2.5949322 37.927764,3.048192 38.491362,3.048192 C39.058929,3.048192 39.5066343,2.595726 39.5066343,2.0138706 C39.507426,1.4423346 39.058929,0.984312 38.4961248,0.984312 Z M38.4961248,2.8886382 C38.0381022,2.8886382 37.6681914,2.504439 37.6681914,2.0138706 C37.6681914,1.5344154 38.038896,1.1438658 38.4921558,1.1438658 L38.4969186,1.1438658 C38.9549412,1.1438658 39.320883,1.5328278 39.320883,2.0178396 C39.3192954,2.504439 38.9533536,2.893401 38.4961248,2.8886382 Z M38.6794926,2.0511792 L38.6794926,2.0416536 C38.8025316,2.0051388 38.9033442,1.913058 38.9033442,1.762236 C38.9033442,1.6518978 38.8668294,1.5741054 38.7985626,1.5233022 C38.7302958,1.4732928 38.6151948,1.4375718 38.4413526,1.4375718 C38.304819,1.4375718 38.2127382,1.4510664 38.1166884,1.4653548 L38.1166884,2.6131896 L38.3000562,2.6131896 L38.3000562,2.119446 L38.427858,2.119446 C38.574711,2.119446 38.6469468,2.1742182 38.6755236,2.3210712 C38.69775,2.4718932 38.725533,2.5766748 38.753316,2.6139834 L38.9462094,2.6139834 C38.927952,2.5774686 38.900169,2.508408 38.872386,2.3305968 C38.848572,2.1607236 38.7803052,2.0694366 38.6794926,2.0511792 Z M38.431827,1.9773558 L38.2992624,1.9773558 L38.2992624,1.5883938 C38.3310144,1.5844248 38.372292,1.5788682 38.431827,1.5788682 C38.6374212,1.5788682 38.7112446,1.6796808 38.7112446,1.7804934 C38.7112446,1.9225836 38.582649,1.9773558 38.431827,1.9773558 Z" id="Shape" fill="#000000"></path>
        </g>
    </g>
</svg>