<?xml version="1.0" encoding="UTF-8"?>
<svg width="32px" height="32px" viewBox="0 0 32 32" version="1.1" xmlns="http://www.w3.org/2000/svg" xmlns:xlink="http://www.w3.org/1999/xlink">
    <!-- Generator: Sketch 55.1 (78136) - https://sketchapp.com -->
    <title>icon-machine-learning-32-color</title>
    <desc>Created with Sketch.</desc>
    <g id="icon-machine-learning-32-color" stroke="none" stroke-width="1" fill="none" fill-rule="evenodd">
        <g id="Group-20" transform="translate(1.000000, 0.000000)">
            <path d="M9,17.9713 L9,18.5303 C9,18.9613 8.725,19.3423 8.316,19.4783 L2,21.5833 L2,9.9713 C2,9.6583 2.149,9.3593 2.4,9.1713 L5.6,6.7713 L4.4,5.1713 L1.199,7.5713 C0.448,8.1353 0,9.0323 0,9.9713 L0,21.9713 C0,22.9103 0.448,23.8073 1.2,24.3713 L4.4,26.7713 L5.6,25.1713 L3.127,23.3163 L8.949,21.3763 C10.176,20.9673 11,19.8233 11,18.5303 L11,17.9713 L9,17.9713 Z" id="Fill-1" fill="#00BFB3"></path>
            <path d="M28.8003,7.5714 L25.6003,5.1714 L24.4003,6.7714 L27.5993,9.1714 C27.8503,9.3594 28.0003,9.6584 28.0003,9.9714 L28.0003,21.5834 L21.6843,19.4784 C21.2753,19.3424 21.0003,18.9614 21.0003,18.5294 L21.0003,17.9714 L19.0003,17.9714 L19.0003,18.5294 C19.0003,19.8224 19.8243,20.9674 21.0513,21.3764 L26.8733,23.3164 L24.4003,25.1714 L25.6003,26.7714 L28.8003,24.3714 C29.5513,23.8074 30.0003,22.9104 30.0003,21.9714 L30.0003,9.9714 C30.0003,9.0324 29.5513,8.1354 28.8003,7.5714" id="Fill-3" fill="#00BFB3"></path>
            <path d="M10,1.9713 C9.733,1.9713 9.482,2.0753 9.293,2.2643 C9.104,2.4533 9,2.7043 9,2.9713 C9,3.2383 9.104,3.4893 9.293,3.6783 C9.671,4.0563 10.33,4.0563 10.707,3.6783 L10.707,3.6783 C10.896,3.4893 11,3.2383 11,2.9713 C11,2.7043 10.896,2.4533 10.707,2.2643 C10.518,2.0753 10.267,1.9713 10,1.9713 M10,5.9713 C9.199,5.9713 8.445,5.6593 7.878,5.0923 C7.312,4.5263 7,3.7723 7,2.9713 C7,2.1703 7.312,1.4163 7.879,0.8493 C9.012,-0.2827 10.988,-0.2837 12.122,0.8503 C12.688,1.4163 13,2.1703 13,2.9713 C13,3.7723 12.688,4.5263 12.122,5.0923 L12.121,5.0923 L12.121,5.0933 C11.555,5.6593 10.801,5.9713 10,5.9713" id="Fill-6" fill="#535966"></path>
            <path d="M10,27.9713 C9.733,27.9713 9.482,28.0753 9.293,28.2643 C9.104,28.4533 9,28.7043 9,28.9713 C9,29.2383 9.104,29.4893 9.293,29.6783 C9.671,30.0563 10.33,30.0563 10.707,29.6783 L10.707,29.6783 C10.896,29.4893 11,29.2383 11,28.9713 C11,28.7043 10.896,28.4533 10.707,28.2643 C10.518,28.0753 10.267,27.9713 10,27.9713 M10,31.9713 C9.199,31.9713 8.445,31.6593 7.878,31.0923 C7.312,30.5263 7,29.7723 7,28.9713 C7,28.1703 7.312,27.4163 7.879,26.8493 C9.012,25.7173 10.988,25.7163 12.122,26.8503 C12.688,27.4163 13,28.1703 13,28.9713 C13,29.7723 12.688,30.5263 12.122,31.0923 L12.121,31.0923 L12.121,31.0933 C11.555,31.6593 10.801,31.9713 10,31.9713" id="Fill-9" fill="#535966"></path>
            <path d="M10,11.9713 C9.733,11.9713 9.482,12.0753 9.293,12.2643 C9.104,12.4533 9,12.7043 9,12.9713 C9,13.2383 9.104,13.4893 9.293,13.6783 C9.671,14.0563 10.33,14.0563 10.707,13.6783 L10.707,13.6783 C10.896,13.4893 11,13.2383 11,12.9713 C11,12.7043 10.896,12.4533 10.707,12.2643 C10.518,12.0753 10.267,11.9713 10,11.9713 M10,15.9713 C9.199,15.9713 8.445,15.6593 7.878,15.0923 C7.312,14.5263 7,13.7723 7,12.9713 C7,12.1703 7.312,11.4163 7.879,10.8493 C9.012,9.7173 10.988,9.7163 12.122,10.8503 C12.688,11.4163 13,12.1703 13,12.9713 C13,13.7723 12.688,14.5263 12.122,15.0923 L12.121,15.0923 L12.121,15.0933 C11.555,15.6593 10.801,15.9713 10,15.9713" id="Fill-11" fill="#535966"></path>
            <path d="M20,1.9713 C19.733,1.9713 19.482,2.0753 19.293,2.2643 C19.104,2.4533 19,2.7043 19,2.9713 C19,3.2383 19.104,3.4893 19.293,3.6783 L19.293,3.6783 C19.67,4.0563 20.33,4.0563 20.707,3.6783 C20.896,3.4893 21,3.2383 21,2.9713 C21,2.7043 20.896,2.4533 20.707,2.2643 C20.518,2.0753 20.267,1.9713 20,1.9713 M20,5.9713 C19.199,5.9713 18.445,5.6593 17.879,5.0933 L17.879,5.0923 L17.878,5.0923 C17.312,4.5263 17,3.7723 17,2.9713 C17,2.1703 17.312,1.4163 17.879,0.8493 C19.012,-0.2827 20.988,-0.2837 22.122,0.8503 C22.688,1.4163 23,2.1703 23,2.9713 C23,3.7723 22.688,4.5263 22.121,5.0933 C21.555,5.6593 20.801,5.9713 20,5.9713" id="Fill-13" fill="#535966"></path>
            <path d="M20,27.9713 C19.733,27.9713 19.482,28.0753 19.293,28.2643 C19.104,28.4533 19,28.7043 19,28.9713 C19,29.2383 19.104,29.4893 19.293,29.6783 L19.293,29.6783 C19.67,30.0563 20.33,30.0563 20.707,29.6783 C20.896,29.4893 21,29.2383 21,28.9713 C21,28.7043 20.896,28.4533 20.707,28.2643 C20.518,28.0753 20.267,27.9713 20,27.9713 M20,31.9713 C19.199,31.9713 18.445,31.6593 17.879,31.0933 L17.879,31.0923 L17.878,31.0923 C17.312,30.5263 17,29.7723 17,28.9713 C17,28.1703 17.312,27.4163 17.879,26.8493 C19.012,25.7173 20.988,25.7163 22.122,26.8503 C22.688,27.4163 23,28.1703 23,28.9713 C23,29.7723 22.688,30.5263 22.121,31.0933 C21.555,31.6593 20.801,31.9713 20,31.9713" id="Fill-16" fill="#535966"></path>
            <path d="M20,11.9713 C19.733,11.9713 19.482,12.0753 19.293,12.2643 C19.104,12.4533 19,12.7043 19,12.9713 C19,13.2383 19.104,13.4893 19.293,13.6783 L19.293,13.6783 C19.67,14.0563 20.33,14.0563 20.707,13.6783 C20.896,13.4893 21,13.2383 21,12.9713 C21,12.7043 20.896,12.4533 20.707,12.2643 C20.518,12.0753 20.267,11.9713 20,11.9713 M20,15.9713 C19.199,15.9713 18.445,15.6593 17.879,15.0933 L17.879,15.0923 L17.878,15.0923 C17.312,14.5263 17,13.7723 17,12.9713 C17,12.1703 17.312,11.4163 17.879,10.8493 C19.012,9.7173 20.988,9.7163 22.122,10.8503 C22.688,11.4163 23,12.1703 23,12.9713 C23,13.7723 22.688,14.5263 22.121,15.0933 C21.555,15.6593 20.801,15.9713 20,15.9713" id="Fill-18" fill="#535966"></path>
        </g>
    </g>
</svg>