<?xml version="1.0" encoding="UTF-8" standalone="no"?>
<svg width="41px" height="41px" viewBox="0 0 41 41" version="1.1" xmlns="http://www.w3.org/2000/svg" xmlns:xlink="http://www.w3.org/1999/xlink">
    <!-- Generator: sketchtool 3.6.1 (26313) - http://www.bohemiancoding.com/sketch -->
    <title>227EA710-734D-483C-B2E9-9A41D72ED33F</title>
    <desc>Created with sketchtool.</desc>
    <defs></defs>
    <g id="Page-1" stroke="none" stroke-width="1" fill="none" fill-rule="evenodd">
        <g id="welcome---install---unsupported-browser" transform="translate(-407.000000, -529.000000)" fill="#FFFFFF">
            <g id="social-proof" transform="translate(128.000000, 486.000000)">
                <g id="abc" transform="translate(279.000000, 43.000000)">
                    <path d="M20.5302567,0.111659574 C9.24845989,0.111659574 0.102609626,9.24528191 0.102609626,20.5119947 C0.102609626,31.7787074 9.24845989,40.9123298 20.5302567,40.9123298 C31.8118342,40.9123298 40.9576845,31.7787074 40.9576845,20.5119947 C40.9576845,9.24528191 31.8118342,0.111659574 20.5302567,0.111659574 L20.5302567,0.111659574 Z M10.4973155,26.4223191 L10.4973155,24.7334681 C9.63763102,25.7061277 8.65845455,26.3542766 7.21578075,26.3466436 C3.80225668,26.3278883 1.03442781,23.582633 1.03442781,20.1735266 C1.03442781,16.7644202 3.80225668,14.0008457 7.21578075,14.0008457 C10.6293048,14.0008457 13.5988449,16.7428298 13.5988449,20.1521543 L13.6023529,26.4007287 L10.4973155,26.4223191 L10.4973155,26.4223191 Z M20.6841711,26.5191489 C17.2704278,26.5191489 14.3008877,23.777383 14.3008877,20.3678404 L14.2975989,9.98153723 L17.3980321,9.98153723 L17.4021979,15.7865266 C18.2623209,14.8140851 19.2414973,14.1659362 20.6841711,14.1735691 C24.0972567,14.1925426 26.8650856,16.9375798 26.8650856,20.3466862 C26.8650856,23.7557926 24.0972567,26.5191489 20.6841711,26.5191489 L20.6841711,26.5191489 Z M33.9749679,26.3743404 C30.5612246,26.3743404 27.793615,23.610766 27.793615,20.2016596 C27.793615,16.7925532 30.5612246,14.0289787 33.9749679,14.0289787 C36.9543743,14.0289787 39.4503316,16.2011064 40.0350749,19.0032819 L36.9269679,18.9930319 C36.4505348,17.8685851 35.3310374,17.1089947 34.0315348,17.1089947 C32.2990107,17.1089947 30.8944866,18.5112819 30.8944866,20.2415691 C30.8944866,21.9722926 32.2990107,23.375016 34.0315348,23.375016 C35.3310374,23.375016 36.4641283,22.6237128 36.9405615,21.4990479 L40.0484492,21.4846543 C39.4722567,24.297734 36.9618289,26.3743404 33.9749679,26.3743404 L33.9749679,26.3743404 Z" id="Fill-2"></path>
                    <path d="M20.6045829,17.0485851 C18.8720588,17.0485851 17.4670963,18.4513085 17.4670963,20.1815957 C17.4670963,21.9116649 18.8720588,23.3148245 20.6045829,23.3148245 C22.337107,23.3148245 23.7420695,21.9116649 23.7420695,20.1815957 C23.7420695,18.4513085 22.337107,17.0485851 20.6045829,17.0485851" id="Fill-3"></path>
                    <path d="M7.25414973,17.0485851 C5.52162567,17.0485851 4.1166631,18.4513085 4.1166631,20.1815957 C4.1166631,21.9116649 5.52162567,23.3148245 7.25414973,23.3148245 C8.9866738,23.3148245 10.3916364,21.9116649 10.3916364,20.1815957 C10.3916364,18.4513085 8.9866738,17.0485851 7.25414973,17.0485851" id="Fill-4"></path>
                </g>
            </g>
        </g>
    </g>
</svg>
