<?xml version="1.0" encoding="utf-8"?>
<!-- Generator: Adobe Illustrator 16.0.0, SVG Export Plug-In . SVG Version: 6.00 Build 0)  -->
<!DOCTYPE svg PUBLIC "-//W3C//DTD SVG 1.1//EN" "http://www.w3.org/Graphics/SVG/1.1/DTD/svg11.dtd">
<svg version="1.1" id="Layer_1" xmlns="http://www.w3.org/2000/svg" xmlns:xlink="http://www.w3.org/1999/xlink" x="0px" y="0px"
	 width="13px" height="20px" viewBox="0 0 13 20" enable-background="new 0 0 13 20" xml:space="preserve">
<path id="arrow" fill="#8CDA6D" d="M7.832,0.587c1.477,1.58,3.134,4.039,4.611,5.619c1.338,1.431-0.004,3.4-1.496,3.417
	C7.718,9.661,10.01,9.616,8.525,9.619c0,0-0.004,6.973-0.006,8.459c-0.002,2.546-4.042,2.546-4.042,0
	C4.481,15.984,4.45,10.6,4.476,9.643c0,0,0.163-0.049-2.374-0.013C0.576,9.652-0.811,7.658,0.567,6.228
	C2.096,4.64,3.804,2.174,5.333,0.587C6.063-0.171,7.105-0.19,7.832,0.587z"/>
</svg>
