<?xml version="1.0" encoding="UTF-8" standalone="no"?>
<svg width="88px" height="36px" viewBox="0 0 88 36" version="1.1" xmlns="http://www.w3.org/2000/svg" xmlns:xlink="http://www.w3.org/1999/xlink">
    <!-- Generator: sketchtool 3.6.1 (26313) - http://www.bohemiancoding.com/sketch -->
    <title>9203E89B-45F0-4906-B40A-2E49D18BF7EA</title>
    <desc>Created with sketchtool.</desc>
    <defs></defs>
    <g id="Page-1" stroke="none" stroke-width="1" fill="none" fill-rule="evenodd">
        <g id="welcome" transform="translate(-910.000000, -532.000000)" fill="#FFFFFF">
            <g id="social-proof" transform="translate(128.000000, 486.000000)">
                <g id="businessinsider" transform="translate(782.000000, 46.000000)">
                    <path d="M6.79059751,7.57737096 C6.38966957,7.29210582 5.95065694,7.15899129 5.20613583,7.12091915 C4.86240418,7.10202102 4.67156525,7.10202102 4.38516837,7.10202102 C4.30886049,7.10202102 4.27063731,7.13995522 4.27063731,7.23513556 L4.27063731,11.7415799 C4.27063731,12.9967189 4.32797208,13.3199182 4.93885054,13.5671112 C5.45430954,13.7762321 5.89332217,13.7952682 6.3323348,13.7952682 C7.19152545,13.7952682 8.64234447,13.3389543 8.64234447,11.3614103 C8.64234447,10.1824155 8.24155502,8.58517904 6.79059751,7.57737096 L6.79059751,7.57737096 Z M4.27063731,6.05614081 C4.27063731,6.20829141 4.32797208,6.24636355 4.40427996,6.26526167 C4.57614579,6.30333381 4.86240418,6.32236988 5.3015553,6.32236988 C5.93154535,6.32236988 6.35158488,6.24636355 6.67606645,5.96109841 C7.17241385,5.5617548 7.45881074,4.87714606 7.45881074,3.94548225 C7.45881074,2.6714451 6.71428963,0.998202282 5.07249319,0.998202282 C4.8052079,0.998202282 4.63334207,0.998202282 4.44250314,1.03613648 C4.30886049,1.07420861 4.27063731,1.15021494 4.27063731,1.35933581 L4.27063731,6.05614081 Z M1.97973923,5.73280353 C1.97973923,2.84263177 1.97973923,2.31017363 1.94165454,1.70170915 C1.90343135,1.05517254 1.75067712,0.750871337 1.12068707,0.617756801 C0.968071321,0.579822607 0.643451256,0.560786539 0.376165964,0.560786539 C0.166215444,0.560786539 0.0516843891,0.522714402 0.0516843891,0.389737809 C0.0516843891,0.256485331 0.185327035,0.218551137 0.471723918,0.218413195 C1.48339182,0.218413195 2.68617564,0.275521399 3.06799199,0.275521399 C4.00335202,0.275521399 4.74801161,0.218413195 5.39697476,0.218551137 C8.85243348,0.218551137 9.46331194,2.06298062 9.46331194,3.0707887 C9.46331194,4.62995305 8.5660366,5.5617548 7.51600702,6.39837621 C9.08149559,6.93083435 10.9905773,8.28087783 10.9905773,10.5056149 C10.9905773,12.5402671 9.40597717,14.6509256 5.89332217,14.6509256 C5.66426006,14.6509256 5.11057788,14.6128535 4.55703419,14.5939554 C3.98424043,14.5558832 3.41158515,14.5368472 3.12518827,14.5368472 C2.91523775,14.5368472 2.49519822,14.5368472 2.037074,14.5558832 C1.59792288,14.5558832 1.10157548,14.5939554 0.71989762,14.5939554 C0.471723918,14.5939554 0.337942782,14.5368472 0.337942782,14.4037326 C0.337942782,14.3086902 0.414389146,14.251582 0.643451256,14.251582 C0.929848139,14.251582 1.15891025,14.2136478 1.33077608,14.1755757 C1.71259242,14.0995694 1.8078734,13.6811897 1.88431976,13.1296955 C1.97973923,12.3311462 1.97973923,10.8289521 1.97973923,9.07956505 L1.97973923,5.73280353 Z" id="Fill-1"></path>
                    <path d="M13.5669998,7.04494041 C13.5669998,4.59204645 13.5861114,4.13559464 13.5478882,3.6223105 C13.509665,3.05178022 13.3570493,2.89962962 12.8224787,2.74747902 C12.6888361,2.70954482 12.4024392,2.69050875 12.1733771,2.69050875 C11.9825381,2.69050875 11.8871187,2.63340055 11.8871187,2.51932208 C11.8871187,2.40524362 12.0015112,2.36717148 12.2498234,2.36717148 C13.1469603,2.36717148 14.2734362,2.40524362 14.7697836,2.40524362 C15.1896847,2.40524362 16.3160221,2.36717148 16.9269006,2.36717148 C17.1750743,2.36717148 17.2896053,2.40524362 17.2896053,2.51932208 C17.2896053,2.63340055 17.1941859,2.69050875 17.0224585,2.69050875 C16.8314811,2.69050875 16.7360616,2.70954482 16.5261111,2.74747902 C16.08696,2.82362329 15.9533174,3.05178022 15.9152327,3.6223105 C15.8770095,4.13559464 15.8770095,4.59204645 15.8770095,7.04494041 L15.8770095,9.30774957 C15.8770095,11.6656011 16.3351337,12.5783668 17.1559627,13.2247655 C17.9006223,13.8143318 18.7023397,13.8713021 19.2751334,13.8713021 C20.0005429,13.8713021 20.8595951,13.6621812 21.5276698,13.0156446 C22.4631684,12.1409511 22.5013915,10.7339373 22.5013915,9.07959264 L22.5013915,7.04494041 C22.5013915,4.59204645 22.48228,4.13559464 22.4631684,3.6223105 C22.4249452,3.07081629 22.291441,2.89962962 21.7568704,2.74747902 C21.6232278,2.70954482 21.3368309,2.69050875 21.145992,2.69050875 C20.9550146,2.69050875 20.8595951,2.63340055 20.8595951,2.51932208 C20.8595951,2.40524362 20.9741262,2.36717148 21.2031883,2.36717148 C22.0622404,2.36717148 23.1887164,2.40524362 23.2076895,2.40524362 C23.3986669,2.40524362 24.5250043,2.36717148 25.174106,2.36717148 C25.4031681,2.36717148 25.5176991,2.40524362 25.5176991,2.51932208 C25.5176991,2.63340055 25.4222797,2.69050875 25.2313023,2.69050875 C25.0404633,2.69050875 24.9449054,2.70954482 24.7349549,2.74747902 C24.2768306,2.82362329 24.1622996,3.05178022 24.1240764,3.6223105 C24.1049648,4.13559464 24.0858532,4.59204645 24.0858532,7.04494041 L24.0858532,8.77529143 C24.0858532,10.5817867 23.8950143,12.4831865 22.48228,13.6431452 C21.2987462,14.6319172 20.0196545,14.8031038 18.9314018,14.8031038 C18.0533765,14.8031038 16.3160221,14.7650317 15.0942652,13.7001154 C14.235213,12.9586744 13.5669998,11.7606435 13.5669998,9.42182804 L13.5669998,7.04494041 Z" id="Fill-3"></path>
                    <path d="M27.0825368,14.3847793 C26.8152515,14.2707009 26.7580552,14.1945566 26.7580552,13.8332851 C26.7580552,12.9585916 26.8343631,11.9509214 26.8534747,11.6845544 C26.8534747,11.4373614 26.9297826,11.2663127 27.0634252,11.2663127 C27.2161795,11.2663127 27.2352911,11.4184633 27.2352911,11.5325418 C27.2352911,11.7416626 27.2924873,12.083898 27.3880453,12.3691632 C27.75075,13.5670561 29.0107301,13.9663997 30.0606212,13.9663997 C31.5115787,13.9663997 32.3897425,13.0537719 32.3897425,11.9128493 C32.3897425,11.2092045 32.2178767,10.5056976 30.7288345,9.63100408 L29.7552512,9.0604738 C27.7697231,7.90065306 27.12076,6.81670071 27.12076,5.3906509 C27.12076,3.41310687 29.0297032,2.13906972 31.3588245,2.13906972 C32.4469388,2.13906972 33.3059909,2.29122032 33.7451421,2.40529879 C33.8978963,2.44323299 33.9742042,2.50034119 33.9742042,2.61441966 C33.9742042,2.82354052 33.9170079,3.27999234 33.9170079,4.55389155 C33.9170079,4.89626489 33.8405615,5.06731362 33.7069189,5.06731362 C33.5923878,5.06731362 33.5351915,4.97227122 33.5351915,4.78218642 C33.5351915,4.63003582 33.4587452,4.13564981 33.0960404,3.71727014 C32.8478667,3.41310687 32.3134346,2.95665506 31.2251819,2.95665506 C30.022398,2.95665506 28.9342838,3.5841556 28.9342838,4.68700608 C28.9342838,5.40968696 29.2015691,5.9800793 30.7097229,6.81670071 L31.3970477,7.19700825 C33.6114994,8.41393719 34.2986857,9.65004015 34.2986857,11.1141621 C34.2986857,12.312055 33.8405615,13.2817909 32.6188046,14.1375863 C31.8169487,14.7079787 30.7097229,14.8030211 29.8124475,14.8030211 C28.8388643,14.8030211 27.8079463,14.7079787 27.0825368,14.3847793" id="Fill-5"></path>
                    <path d="M37.1239051,7.04494041 C37.1239051,4.59204645 37.1239051,4.13559464 37.1047935,3.6223105 C37.0665704,3.07081629 36.894843,2.88059355 36.5321383,2.76651509 C36.3411608,2.70954482 36.1312103,2.69050875 35.9211213,2.69050875 C35.749394,2.69050875 35.6539745,2.65243662 35.6539745,2.50028601 C35.6539745,2.40524362 35.7876172,2.36717148 36.0549025,2.36717148 C36.6848925,2.36717148 37.8303415,2.40524362 38.3074389,2.40524362 C38.7274784,2.40524362 39.8157312,2.36717148 40.4648328,2.36717148 C40.6747833,2.36717148 40.808426,2.40524362 40.808426,2.50028601 C40.808426,2.65243662 40.712868,2.69050875 40.5411407,2.69050875 C40.3692748,2.69050875 40.2356322,2.70954482 40.0447933,2.74747902 C39.5865306,2.82362329 39.4528879,3.05178022 39.4148032,3.6223105 C39.37658,4.13559464 39.37658,4.59204645 39.37658,7.04494041 L39.37658,9.89717798 C39.37658,11.4563423 39.37658,12.7494155 39.4528879,13.4340243 C39.5102227,13.8713021 39.6247537,14.1184951 40.1211011,14.1945014 C40.3501632,14.2325736 40.7319796,14.2516096 40.9801533,14.2516096 C41.1711307,14.2516096 41.2474386,14.34679 41.2474386,14.4227963 C41.2474386,14.5368748 41.1137959,14.593983 40.922957,14.593983 C39.8157312,14.593983 38.6701436,14.5368748 38.2120194,14.5368748 C37.8303415,14.5368748 36.6848925,14.593983 36.0166793,14.593983 C35.8065903,14.593983 35.6921977,14.5368748 35.6921977,14.4227963 C35.6921977,14.34679 35.749394,14.2516096 35.9593445,14.2516096 C36.2075182,14.2516096 36.3984956,14.2325736 36.5512499,14.1945014 C36.894843,14.1184951 36.9902625,13.8903382 37.0475973,13.4149882 C37.1239051,12.7494155 37.1239051,11.4563423 37.1239051,9.89717798 L37.1239051,7.04494041 Z" id="Fill-7"></path>
                    <path d="M45.1417022,12.3881717 C45.1797869,13.6431727 45.3898759,14.0234803 45.7143575,14.1375588 C46.0007544,14.2326011 46.3252359,14.2516372 46.5925212,14.2516372 C46.7834986,14.2516372 46.8789181,14.3277815 46.8789181,14.4228239 C46.8789181,14.5558005 46.7261639,14.5938726 46.4971018,14.5938726 C45.4089875,14.5938726 44.6261047,14.5369024 44.3207347,14.5369024 C44.168119,14.5369024 43.3662631,14.5938726 42.507211,14.5938726 C42.2780104,14.5938726 42.1253946,14.5749745 42.1253946,14.4228239 C42.1253946,14.3277815 42.2399257,14.2516372 42.3926799,14.2516372 C42.621742,14.2516372 42.927112,14.2326011 43.1563126,14.1756309 C43.5953252,14.0614145 43.65266,13.6241367 43.6716331,12.216985 L43.8243873,2.63342814 C43.8243873,2.31009086 43.9390569,2.08193393 44.1107842,2.08193393 C44.3207347,2.08193393 44.5499353,2.32912693 44.8361937,2.61439207 C45.0462827,2.82365088 47.5661044,5.39062331 50.0096183,7.76751094 C51.1552058,8.88939748 53.3887691,11.1712427 53.6369428,11.3993997 L53.7133892,11.3993997 L53.5413849,4.21162855 C53.5224118,3.22285654 53.3696575,2.9375914 52.9688681,2.78557874 C52.7206944,2.6903984 52.319628,2.6903984 52.0905658,2.6903984 C51.8806153,2.6903984 51.8232805,2.61439207 51.8232805,2.51934967 C51.8232805,2.38623514 51.9951464,2.36719907 52.2433201,2.36719907 C53.1214838,2.36719907 54.0187592,2.40513326 54.3814639,2.40513326 C54.5724413,2.40513326 55.2024314,2.36719907 56.0232604,2.36719907 C56.252461,2.36719907 56.4050767,2.38623514 56.4050767,2.51934967 C56.4050767,2.61439207 56.3096573,2.6903984 56.1186798,2.6903984 C55.9469525,2.6903984 55.8133099,2.6903984 55.6032208,2.74750661 C55.1450966,2.88062114 55.011454,3.16588628 54.9923424,4.07851402 L54.8015035,14.2706733 C54.8015035,14.6319448 54.6678608,14.7840954 54.5340797,14.7840954 C54.2478213,14.7840954 54.0187592,14.6129087 53.8468933,14.441722 C52.7968638,13.4719861 50.6969431,11.475406 48.9407541,9.7831271 C47.1079802,8.03374001 45.3325411,6.07509411 45.0079211,5.78996691 L44.9507248,5.78996691 L45.1417022,12.3881717 Z" id="Fill-9"></path>
                    <path d="M59.3443424,7.04494041 C59.3443424,4.59204645 59.3443424,4.13559464 59.3250924,3.6223105 C59.2870077,3.07081629 59.1342534,2.89962962 58.5996829,2.74747902 C58.4660402,2.70954482 58.1797818,2.69050875 57.9316081,2.69050875 C57.7598808,2.69050875 57.6453497,2.63340055 57.6453497,2.51932208 C57.6453497,2.40524362 57.7788539,2.36717148 58.0270276,2.36717148 C58.9051913,2.36717148 59.9743325,2.40524362 60.4515683,2.40524362 C60.9861389,2.40524362 64.7086059,2.42427968 65.033226,2.40524362 C65.3387345,2.38620755 65.6060198,2.32909934 65.7396624,2.31020122 C65.8350819,2.29116515 65.9305013,2.23419489 66.0068092,2.23419489 C66.1023672,2.23419489 66.1214787,2.31020122 66.1214787,2.38620755 C66.1214787,2.50028601 66.0259208,2.69050875 65.9878361,3.43208776 C65.9687245,3.60313649 65.9305013,4.30678131 65.8922781,4.49686611 C65.873305,4.57301038 65.8350819,4.76309518 65.7014392,4.76309518 C65.5869082,4.76309518 65.5677966,4.68708885 65.5677966,4.55397431 C65.5677966,4.43989584 65.548685,4.1546307 65.4532655,3.96440796 C65.3196229,3.67928077 65.1859802,3.45112383 64.3459012,3.3751175 C64.0596428,3.33704536 62.0551416,3.29897323 61.7115484,3.29897323 C61.635102,3.29897323 61.5970173,3.35594349 61.5970173,3.45112383 L61.5970173,7.44428401 C61.5970173,7.53932641 61.6159905,7.61533274 61.7115484,7.61533274 C62.0933648,7.61533274 64.2697318,7.61533274 64.6514096,7.57739855 C65.0523376,7.53932641 65.3005113,7.50125428 65.4532655,7.33020555 C65.5869082,7.21612708 65.6441044,7.12094674 65.7205508,7.12094674 C65.7968587,7.12094674 65.8541935,7.19709101 65.8541935,7.29213341 C65.8541935,7.38717581 65.8159703,7.65340488 65.7205508,8.47099022 C65.6823276,8.7943275 65.6441044,9.44086411 65.6441044,9.55494257 C65.6441044,9.68805711 65.6251313,9.91621404 65.4723771,9.91621404 C65.3578461,9.91621404 65.3196229,9.85910584 65.3196229,9.78309951 C65.3005113,9.61191284 65.3005113,9.40279197 65.2624266,9.1936711 C65.1668686,8.87033383 64.9567796,8.62314082 64.3269281,8.56617056 C64.0215581,8.52809843 62.1123379,8.49016423 61.6924368,8.49016423 C61.6159905,8.49016423 61.5970173,8.56617056 61.5970173,8.66121296 L61.5970173,9.95428618 C61.5970173,10.5056424 61.5779058,11.874722 61.5970173,12.3500719 C61.635102,13.4530604 62.150561,13.7001154 63.8688038,13.7001154 C64.3078165,13.7001154 65.0142529,13.6812173 65.4532655,13.4909946 C65.873305,13.3009098 66.064144,12.9586744 66.178675,12.2931017 C66.2168982,12.121915 66.2549829,12.0459087 66.3696524,12.0459087 C66.5031566,12.0459087 66.5222682,12.2550295 66.5222682,12.4262162 C66.5222682,12.7874877 66.3886255,13.8903382 66.2932061,14.2136754 C66.178675,14.6319172 66.0259208,14.6319172 65.3959307,14.6319172 C64.1360891,14.6319172 63.1241442,14.6128811 62.3033153,14.5749469 C61.4824863,14.5559108 60.8524962,14.5368748 60.3561488,14.5368748 C60.1651714,14.5368748 59.8024667,14.5559108 59.4015387,14.5559108 C59.0007493,14.5749469 58.5805713,14.593983 58.2369781,14.593983 C58.0270276,14.593983 57.9124965,14.5368748 57.9124965,14.4227963 C57.9124965,14.34679 57.9696928,14.2516096 58.1797818,14.2516096 C58.4279555,14.2516096 58.6189329,14.2325736 58.7715487,14.1945014 C59.1152803,14.1184951 59.2105613,13.8143318 59.2678961,13.3388439 C59.3443424,12.6543731 59.3443424,11.380336 59.3443424,9.89717798 L59.3443424,7.04494041 Z" id="Fill-11"></path>
                    <path d="M68.6216764,14.3847793 C68.3543912,14.2707009 68.2970564,14.1945566 68.2970564,13.8332851 C68.2970564,12.9585916 68.3735027,11.9509214 68.3926143,11.6845544 C68.3926143,11.4373614 68.4690607,11.2663127 68.6025649,11.2663127 C68.7553191,11.2663127 68.7742922,11.4184633 68.7742922,11.5325418 C68.7742922,11.7416626 68.8317655,12.083898 68.9271849,12.3691632 C69.2897512,13.5670561 70.5498698,13.9663997 71.5997609,13.9663997 C73.0507184,13.9663997 73.9287436,13.0537719 73.9287436,11.9128493 C73.9287436,11.2092045 73.7570163,10.5056976 72.2679741,9.63100408 L71.2943909,9.0604738 C69.3090013,7.90065306 68.6597611,6.81670071 68.6597611,5.3906509 C68.6597611,3.41310687 70.5689814,2.13906972 72.8979641,2.13906972 C73.9860784,2.13906972 74.8451306,2.29122032 75.2842817,2.40529879 C75.4370359,2.44323299 75.5133438,2.50034119 75.5133438,2.61441966 C75.5133438,2.82354052 75.4561475,3.27999234 75.4561475,4.55389155 C75.4561475,4.89626489 75.3797012,5.06731362 75.2460585,5.06731362 C75.1315275,5.06731362 75.0743312,4.97227122 75.0743312,4.78218642 C75.0743312,4.63003582 74.9978848,4.13564981 74.6351801,3.71727014 C74.3870064,3.41310687 73.8525743,2.95665506 72.7643215,2.95665506 C71.5616762,2.95665506 70.4734234,3.5841556 70.4734234,4.68700608 C70.4734234,5.40968696 70.7407087,5.9800793 72.2488625,6.81670071 L72.9360488,7.19700825 C75.150639,8.41393719 75.8379639,9.65004015 75.8379639,11.1141621 C75.8379639,12.312055 75.3797012,13.2817909 74.1579442,14.1375863 C73.3562269,14.7079787 72.2488625,14.8030211 71.3515872,14.8030211 C70.3780039,14.8030211 69.347086,14.7079787 68.6216764,14.3847793" id="Fill-13"></path>
                    <path d="M78.1283772,14.3847793 C77.8610919,14.2707009 77.8037572,14.1945566 77.8037572,13.8332851 C77.8037572,12.9585916 77.8802035,11.9509214 77.8993151,11.6845544 C77.8993151,11.4373614 77.9757615,11.2663127 78.1092656,11.2663127 C78.2620199,11.2663127 78.2811315,11.4184633 78.2811315,11.5325418 C78.2811315,11.7416626 78.3384662,12.083898 78.4337472,12.3691632 C78.796452,13.5670561 80.0565706,13.9663997 81.1064617,13.9663997 C82.5572807,13.9663997 83.4354444,13.0537719 83.4354444,11.9128493 C83.4354444,11.2092045 83.2637171,10.5056976 81.7746749,9.63100408 L80.8010917,9.0604738 C78.8157021,7.90065306 78.1664619,6.81670071 78.1664619,5.3906509 C78.1664619,3.41310687 80.0756822,2.13906972 82.4046649,2.13906972 C83.4927792,2.13906972 84.3518314,2.29122032 84.7909825,2.40529879 C84.9437367,2.44323299 85.0200446,2.50034119 85.0200446,2.61441966 C85.0200446,2.82354052 84.9628483,3.27999234 84.9628483,4.55389155 C84.9628483,4.89626489 84.8864019,5.06731362 84.7527593,5.06731362 C84.6382282,5.06731362 84.581032,4.97227122 84.581032,4.78218642 C84.581032,4.63003582 84.5045856,4.13564981 84.1418808,3.71727014 C83.8937071,3.41310687 83.359275,2.95665506 82.2710223,2.95665506 C81.068377,2.95665506 79.9801242,3.5841556 79.9801242,4.68700608 C79.9801242,5.40968696 80.2474095,5.9800793 81.7555633,6.81670071 L82.4427496,7.19700825 C84.6573398,8.41393719 85.3446647,9.65004015 85.3446647,11.1141621 C85.3446647,12.312055 84.8864019,13.2817909 83.664645,14.1375863 C82.8629276,14.7079787 81.7555633,14.8030211 80.858288,14.8030211 C79.8847047,14.8030211 78.8537868,14.7079787 78.1283772,14.3847793" id="Fill-15"></path>
                    <path d="M2.76208189,26.0447022 C2.76208189,23.1543925 2.76208189,22.6219344 2.7239972,22.0134699 C2.68577402,21.3669333 2.4947966,21.043734 2.07489556,20.9486916 C1.86480655,20.8915834 1.61677134,20.8725473 1.38757074,20.8725473 C1.19673181,20.8725473 1.08220076,20.8344752 1.08220076,20.6824625 C1.08220076,20.568384 1.2348165,20.530174 1.54032498,20.530174 C2.26573449,20.530174 3.4685183,20.5872822 4.02206199,20.5872822 C4.4992978,20.5872822 5.62563525,20.530174 6.35118326,20.530174 C6.59935696,20.530174 6.75211119,20.568384 6.75211119,20.6824625 C6.75211119,20.8344752 6.63744165,20.8725473 6.44660272,20.8725473 C6.2556253,20.8725473 6.10300956,20.8915834 5.87380895,20.9296555 C5.35848845,21.02456 5.20573421,21.3478972 5.16751103,22.0134699 C5.12928785,22.6219344 5.12928785,23.1543925 5.12928785,26.0447022 L5.12928785,29.3913258 C5.12928785,31.2357553 5.12928785,32.7379494 5.20573421,33.5555347 C5.2629305,34.0690947 5.39657314,34.4111922 5.96936691,34.4873365 C6.23651371,34.5252707 6.65655324,34.5634807 6.94295012,34.5634807 C7.15290064,34.5634807 7.2484586,34.620451 7.2484586,34.7154934 C7.2484586,34.8486079 7.09556587,34.9055782 6.88561535,34.9055782 C5.62563525,34.9055782 4.42298993,34.8486079 3.90753093,34.8486079 C3.4685183,34.8486079 2.26573449,34.9055782 1.5021018,34.9055782 C1.25392809,34.9055782 1.12028545,34.8486079 1.12028545,34.7154934 C1.12028545,34.620451 1.19673181,34.5634807 1.42579392,34.5634807 C1.7121908,34.5634807 1.94125292,34.5252707 2.11311874,34.4873365 C2.4947966,34.4111922 2.60946615,34.0881308 2.66666243,33.5364987 C2.76208189,32.7379494 2.76208189,31.2357553 2.76208189,29.3913258 L2.76208189,26.0447022 Z" id="Fill-17"></path>
                    <path d="M12.4789548,32.6998773 C12.517178,33.9550163 12.7271285,34.3351859 13.0517486,34.4494023 C13.3380069,34.5443067 13.662627,34.5634807 13.9299123,34.5634807 C14.1207512,34.5634807 14.2161707,34.6394871 14.2161707,34.7345295 C14.2161707,34.867644 14.0634165,34.9055782 13.8343543,34.9055782 C12.7462401,34.9055782 11.9634958,34.8486079 11.6581258,34.8486079 C11.5053716,34.8486079 10.7035157,34.9055782 9.84446354,34.9055782 C9.61540142,34.9055782 9.46264719,34.8865421 9.46264719,34.7345295 C9.46264719,34.6394871 9.57717824,34.5634807 9.72993248,34.5634807 C9.95899459,34.5634807 10.2645031,34.5443067 10.4935652,34.4873365 C10.9325778,34.373258 10.9899126,33.9359802 11.0090242,32.5288285 L11.1617784,22.9451337 C11.1617784,22.6219344 11.276171,22.3937775 11.4480368,22.3937775 C11.6581258,22.3937775 11.8871879,22.6409705 12.1734463,22.9260977 C12.3835353,23.1353565 14.9034955,25.7023289 17.3470093,28.0792165 C18.4924584,29.201241 20.7260217,31.4829483 20.9741954,31.7111052 L21.0506418,31.7111052 L20.8787759,24.5234721 C20.8596643,23.5347001 20.7070486,23.2494349 20.3061207,23.0972843 C20.057947,23.0022419 19.657019,23.0022419 19.4279569,23.0022419 C19.2178679,23.0022419 19.1606716,22.9260977 19.1606716,22.8310553 C19.1606716,22.6979407 19.332399,22.6790426 19.5807111,22.6790426 C20.4588749,22.6790426 21.3561502,22.7169768 21.718855,22.7169768 C21.9096939,22.7169768 22.539684,22.6790426 23.360513,22.6790426 C23.5897136,22.6790426 23.7424678,22.6979407 23.7424678,22.8310553 C23.7424678,22.9260977 23.6469098,23.0022419 23.4560709,23.0022419 C23.2842051,23.0022419 23.1505624,23.0022419 22.9406119,23.0592122 C22.4823492,23.1923267 22.348845,23.4777298 22.329595,24.3903576 L22.138756,34.5823789 C22.138756,34.9437883 22.0051134,35.0958009 21.8714707,35.0958009 C21.5850739,35.0958009 21.3561502,34.9247522 21.1842844,34.7535655 C20.1342548,33.7836917 18.0343342,31.7872495 16.2780067,30.0948327 C14.4452328,28.3455835 12.6697937,26.3867997 12.3453121,26.1016725 L12.2881159,26.1016725 L12.4789548,32.6998773 Z" id="Fill-19"></path>
                    <path d="M27.3688229,34.6965401 C27.1015376,34.5824616 27.0443413,34.5063174 27.0443413,34.1450459 C27.0443413,33.2703524 27.1206492,32.2625443 27.1397608,31.9964531 C27.1397608,31.7492601 27.2160687,31.5780735 27.3497113,31.5780735 C27.5024656,31.5780735 27.5215771,31.7300861 27.5215771,31.8441646 C27.5215771,32.0534234 27.5787734,32.3956588 27.6743314,32.6809239 C28.0370361,33.8788168 29.2970162,34.2781604 30.3469073,34.2781604 C31.7978648,34.2781604 32.6760286,33.3655327 32.6760286,32.2244721 C32.6760286,31.5211032 32.5041628,30.8174584 31.0151206,29.9427648 L30.0415373,29.3722346 C28.0560092,28.2122759 27.4070461,27.1285994 27.4070461,25.7024117 C27.4070461,23.7248676 29.3161278,22.4508305 31.6451106,22.4508305 C32.7332249,22.4508305 33.5924155,22.6028431 34.0314282,22.7169216 C34.1841824,22.7551317 34.2604903,22.812102 34.2604903,22.9261804 C34.2604903,23.1354392 34.203294,23.5916152 34.203294,24.8656523 C34.203294,25.2080257 34.1268476,25.3790744 33.993205,25.3790744 C33.8786739,25.3790744 33.8214776,25.284032 33.8214776,25.0939472 C33.8214776,24.9417966 33.7450313,24.4474106 33.3823265,24.0290309 C33.1341528,23.7248676 32.5997207,23.2684158 31.511468,23.2684158 C30.3088226,23.2684158 29.2205699,23.8959164 29.2205699,24.9987668 C29.2205699,25.7214477 29.4878552,26.2918401 30.996009,27.1285994 L31.6833338,27.508907 C33.8977855,28.7258359 34.5851103,29.9618009 34.5851103,31.4259229 C34.5851103,32.6239537 34.1268476,33.5936896 32.9050907,34.4493471 C32.1032348,35.0197394 30.996009,35.1147818 30.0987336,35.1147818 C29.1251504,35.1147818 28.0942324,35.0197394 27.3688229,34.6965401" id="Fill-21"></path>
                    <path d="M39.0137368,27.3566322 C39.0137368,24.9037382 39.0137368,24.4474244 38.9946252,23.9340023 C38.956402,23.3825081 38.7846747,23.1922853 38.4219699,23.0782069 C38.2309925,23.0212366 38.021042,23.0023385 37.810953,23.0023385 C37.6392256,23.0023385 37.5438062,22.9641284 37.5438062,22.8121158 C37.5438062,22.7169354 37.6774488,22.6790012 37.9447341,22.6790012 C38.5747242,22.6790012 39.7201732,22.7169354 40.1972705,22.7169354 C40.6173101,22.7169354 41.7055628,22.6790012 42.3546645,22.6790012 C42.564615,22.6790012 42.6982576,22.7169354 42.6982576,22.8121158 C42.6982576,22.9641284 42.6028382,23.0023385 42.4309723,23.0023385 C42.2591065,23.0023385 42.1254639,23.0212366 41.9346249,23.0593088 C41.4763622,23.1353151 41.3427196,23.36361 41.3046349,23.9340023 C41.2664117,24.4474244 41.2664117,24.9037382 41.2664117,27.3566322 L41.2664117,30.2090077 C41.2664117,31.7681721 41.2664117,33.0611073 41.3427196,33.7457161 C41.4000543,34.1831318 41.5145854,34.4303248 42.0109328,34.5063312 C42.2399949,34.5442654 42.6218113,34.5634394 42.869985,34.5634394 C43.0609624,34.5634394 43.1372702,34.6584818 43.1372702,34.7344881 C43.1372702,34.8485666 43.0036276,34.9056748 42.8127887,34.9056748 C41.7055628,34.9056748 40.5601138,34.8485666 40.1018511,34.8485666 C39.7201732,34.8485666 38.5747242,34.9056748 37.9065109,34.9056748 C37.6964219,34.9056748 37.5820294,34.8485666 37.5820294,34.7344881 C37.5820294,34.6584818 37.6392256,34.5634394 37.8491762,34.5634394 C38.0973499,34.5634394 38.2883273,34.5442654 38.4410815,34.5063312 C38.7846747,34.4303248 38.8800941,34.2021679 38.9374289,33.726818 C39.0137368,33.0611073 39.0137368,31.7681721 39.0137368,30.2090077 L39.0137368,27.3566322 Z" id="Fill-23"></path>
                    <path d="M49.8377801,29.1440776 C49.8377801,30.8553926 49.8568917,32.0913576 49.8758648,32.4146949 C49.8949764,32.8139005 49.9331996,33.3844308 50.0668423,33.5554796 C50.2769313,33.8599187 50.945006,34.2021541 52.2623209,34.2021541 C53.7894478,34.2021541 54.9159237,33.935925 55.9277301,33.0993036 C57.0158444,32.2054361 57.359576,30.7603502 57.359576,29.0871074 C57.359576,27.0334191 56.5386086,25.7024117 55.7940875,25.0558751 C54.2477105,23.6866576 52.4149366,23.5156088 51.0977602,23.5156088 C50.7540286,23.5156088 50.2004849,23.553681 50.0668423,23.6296873 C49.9142265,23.6866576 49.8568917,23.7628018 49.8568917,23.9528866 C49.8377801,24.5043808 49.8377801,25.8355262 49.8377801,27.1094254 L49.8377801,29.1440776 Z M47.5851052,27.3566184 C47.5851052,24.9037244 47.5851052,24.4474106 47.5659937,23.9339885 C47.5277705,23.3824943 47.3751547,23.2113076 46.8404456,23.059295 C46.7069415,23.0212228 46.4205446,23.0023247 46.1723709,23.0023247 C46.0006436,23.0023247 45.8861125,22.9452165 45.8861125,22.8310001 C45.8861125,22.7169216 46.0197552,22.6789874 46.2679289,22.6789874 C47.1460926,22.6789874 48.2150953,22.7169216 48.6923311,22.7169216 C49.2077901,22.7169216 50.4105739,22.6789874 51.4222418,22.6789874 C53.5221625,22.6789874 56.3476312,22.6789874 58.1802665,24.5234169 C59.0203456,25.3600383 59.7648667,26.7100818 59.7648667,28.6306556 C59.7648667,30.6653078 58.8867029,32.2054361 57.9320928,33.1372378 C57.1685986,33.8978529 55.393021,35.0387755 52.3004056,35.0387755 C51.6895271,35.0387755 50.9641176,34.9816673 50.2960429,34.9437331 C49.6276911,34.8866249 49.0168127,34.8485528 48.5969116,34.8485528 C48.4059342,34.8485528 48.0432295,34.8675888 47.6423015,34.8675888 C47.2415121,34.8866249 46.8214725,34.905661 46.4777409,34.905661 C46.2679289,34.905661 46.1533978,34.8485528 46.1533978,34.7344743 C46.1533978,34.658468 46.2105941,34.5634256 46.4205446,34.5634256 C46.6687183,34.5634256 46.8596957,34.5442516 47.01245,34.5063174 C47.3560431,34.430311 47.4514626,34.1260098 47.5087974,33.6506599 C47.5851052,32.9661891 47.5851052,31.6921519 47.5851052,30.2089939 L47.5851052,27.3566184 Z" id="Fill-25"></path>
                    <path d="M64.0595043,27.3566322 C64.0595043,24.9037382 64.0595043,24.4474244 64.0403927,23.9340023 C64.002308,23.3825081 63.8495538,23.2113214 63.3149832,23.0593088 C63.1813405,23.0212366 62.8950821,23.0023385 62.6469084,23.0023385 C62.4751811,23.0023385 62.3605116,22.9452303 62.3605116,22.8310139 C62.3605116,22.7169354 62.4941542,22.6790012 62.7423279,22.6790012 C63.6204917,22.6790012 64.6896328,22.7169354 65.1668686,22.7169354 C65.7013007,22.7169354 69.4239062,22.7359715 69.7485263,22.7169354 C70.0540348,22.6980373 70.3213201,22.6409291 70.4549627,22.622031 C70.5503822,22.6028569 70.6458017,22.5458867 70.7221095,22.5458867 C70.8176675,22.5458867 70.8366406,22.622031 70.8366406,22.6980373 C70.8366406,22.8121158 70.7412211,23.0023385 70.7031364,23.7439175 C70.6840248,23.9149662 70.6458017,24.6184731 70.6075785,24.8085579 C70.5886054,24.8847022 70.5503822,25.0749249 70.4167395,25.0749249 C70.3022085,25.0749249 70.2829584,24.9987806 70.2829584,24.8656661 C70.2829584,24.7515876 70.2639853,24.4664604 70.1684274,24.2762377 C70.0347847,23.9911105 69.9012805,23.7628156 69.0612015,23.6866714 C68.7749431,23.6487372 66.7704419,23.610803 66.4268487,23.610803 C66.3504024,23.610803 66.3123177,23.6677732 66.3123177,23.7628156 L66.3123177,27.7559758 C66.3123177,27.8511562 66.3312908,27.9271625 66.4268487,27.9271625 C66.8086651,27.9271625 68.9848936,27.9271625 69.36671,27.8890903 C69.7676379,27.8511562 70.0158116,27.813084 70.1684274,27.6418973 C70.3022085,27.5278189 70.3594048,27.4327765 70.4358511,27.4327765 C70.512159,27.4327765 70.5694938,27.5089207 70.5694938,27.6038252 C70.5694938,27.6988676 70.5311321,27.9650967 70.4358511,28.78282 C70.397628,29.1061572 70.3594048,29.7525559 70.3594048,29.8666344 C70.3594048,29.9997489 70.3404317,30.2279058 70.1876774,30.2279058 C70.0731464,30.2279058 70.0347847,30.1709356 70.0347847,30.0949292 C70.0158116,29.9237426 70.0158116,29.7146217 69.9775884,29.5053629 C69.882169,29.1820256 69.6720799,28.9348326 69.0422284,28.8778624 C68.7367199,28.8399282 66.8276382,28.801856 66.4077371,28.801856 C66.3312908,28.801856 66.3123177,28.8778624 66.3123177,28.9730427 L66.3123177,30.265978 C66.3123177,30.8174722 66.2932061,32.1865517 66.3123177,32.6619017 C66.3504024,33.7647522 66.8658614,34.0119452 68.5841042,34.0119452 C69.0231168,34.0119452 69.7294147,33.9929091 70.1684274,33.8026863 C70.5886054,33.6127395 70.7794443,33.2703661 70.8939754,32.6049314 C70.9321985,32.4337447 70.9702832,32.3577384 71.0849528,32.3577384 C71.2184569,32.3577384 71.2375685,32.5667213 71.2375685,32.7380459 C71.2375685,33.0993174 71.1039259,34.2021679 71.0085064,34.5253672 C70.8939754,34.9437469 70.7412211,34.9437469 70.1112311,34.9437469 C68.8513895,34.9437469 67.8394446,34.9247108 67.0186156,34.8866387 C66.1977866,34.8676026 65.5677966,34.8485666 65.0714492,34.8485666 C64.8804717,34.8485666 64.517767,34.8676026 64.1168391,34.8676026 C63.7160496,34.8866387 63.2958716,34.9056748 62.9522784,34.9056748 C62.7423279,34.9056748 62.6277968,34.8485666 62.6277968,34.7344881 C62.6277968,34.6584818 62.6849931,34.5634394 62.8950821,34.5634394 C63.1432558,34.5634394 63.3342333,34.5442654 63.486849,34.5063312 C63.8305807,34.4303248 63.9258616,34.1260236 63.9831964,33.6506737 C64.0595043,32.9662029 64.0595043,31.6921657 64.0595043,30.2090077 L64.0595043,27.3566322 Z" id="Fill-27"></path>
                    <path d="M77.6134999,28.6117161 C77.6134999,28.7827648 77.6515846,28.839873 77.7662541,28.8968432 C78.1289589,29.0110597 78.6253063,29.0489939 79.0453458,29.0489939 C79.7134206,29.0489939 79.9424827,28.9920236 80.2288796,28.7827648 C80.744477,28.4214933 81.3169938,27.7179864 81.3169938,26.3868411 C81.3169938,24.1051338 79.7516437,23.5157054 78.7589489,23.5157054 C78.3389094,23.5157054 77.93812,23.5346035 77.7662541,23.5726757 C77.6515846,23.6107478 77.6134999,23.6677181 77.6134999,23.8008326 L77.6134999,28.6117161 Z M75.4754945,27.356577 C75.4754945,24.9036831 75.4754945,24.4475071 75.4562445,23.9339471 C75.4181598,23.3825909 75.2654055,23.2114042 74.7308349,23.0592536 C74.5971923,23.0213194 74.3107954,23.0022833 74.0626217,23.0022833 C73.8908944,23.0022833 73.7763633,22.9451751 73.7763633,22.8310966 C73.7763633,22.7170182 73.910006,22.678946 74.1581797,22.678946 C75.0363434,22.678946 76.1053461,22.7170182 76.4489393,22.7170182 C77.021733,22.7170182 78.5489984,22.678946 79.0644574,22.678946 C80.1334601,22.678946 81.3553555,22.7741264 82.2524924,23.3635548 C82.7297282,23.6867541 83.4361646,24.5044774 83.4361646,25.5882918 C83.4361646,26.7863226 82.7488398,27.851101 81.1071818,29.1630723 C82.596224,30.9884657 83.7797577,32.4527256 84.7915641,33.4605337 C85.7269242,34.3921975 86.318691,34.4683418 86.5859763,34.5253121 C86.7578422,34.5633842 86.8534001,34.5633842 86.9870428,34.5633842 C87.1206854,34.5633842 87.1968548,34.6584266 87.1968548,34.7345709 C87.1968548,34.8676854 87.0823237,34.9056196 86.8725117,34.9056196 L85.2688,34.9056196 C84.3334399,34.9056196 83.8751772,34.8105772 83.4361646,34.5824203 C82.7107551,34.2211488 82.080765,33.4605337 81.1452665,32.2055326 C80.4770533,31.3308391 79.7707553,30.2470247 79.5608048,29.9998317 C79.4652469,29.9046513 79.3698274,29.8856153 79.2552963,29.8856153 L77.7471425,29.8476811 C77.6706962,29.8476811 77.6134999,29.8856153 77.6134999,29.9807956 L77.6134999,30.2089525 C77.6134999,31.7111466 77.6326115,32.9661477 77.7090579,33.6506185 C77.7662541,34.1259684 77.842562,34.4304076 78.358021,34.506276 C78.6061947,34.5443481 78.9688995,34.5633842 79.1789885,34.5633842 C79.3126311,34.5633842 79.388939,34.6584266 79.388939,34.7345709 C79.388939,34.8486493 79.2552963,34.9056196 79.0453458,34.9056196 C78.0717626,34.9056196 76.6780014,34.8486493 76.4298277,34.8486493 C76.1053461,34.8486493 75.0363434,34.9056196 74.3681302,34.9056196 C74.1581797,34.9056196 74.0436486,34.8486493 74.0436486,34.7345709 C74.0436486,34.6584266 74.1008449,34.5633842 74.3107954,34.5633842 C74.5589691,34.5633842 74.7499465,34.5443481 74.9027008,34.506276 C75.2462939,34.4304076 75.3417134,34.1259684 75.3990482,33.6506185 C75.4754945,32.9661477 75.4754945,31.6921106 75.4754945,30.2089525 L75.4754945,27.356577 Z" id="Fill-29"></path>
                </g>
            </g>
        </g>
    </g>
</svg>
