<?xml version="1.0" encoding="UTF-8" standalone="no"?>
<svg width="128px" height="23px" viewBox="0 0 128 23" version="1.1" xmlns="http://www.w3.org/2000/svg" xmlns:xlink="http://www.w3.org/1999/xlink">
    <!-- Generator: sketchtool 3.6.1 (26313) - http://www.bohemiancoding.com/sketch -->
    <title>42C7321D-CA36-4788-A6B7-D63AD32FBEAB</title>
    <desc>Created with sketchtool.</desc>
    <defs></defs>
    <g id="Page-1" stroke="none" stroke-width="1" fill="none" fill-rule="evenodd">
        <g id="welcome" transform="translate(-237.000000, -538.000000)" fill="#FFFFFF">
            <g id="social-proof" transform="translate(128.000000, 486.000000)">
                <g id="buzzfeed" transform="translate(109.000000, 52.000000)">
                    <path d="M4.73549047,8.98047147 C6.12116736,8.98047147 7.43629293,8.98260605 8.75172392,8.97833689 C9.0049146,8.97742207 9.26390821,8.97955665 9.51007431,8.93015643 C10.4388474,8.74383833 11.1382523,8.26843748 11.3816696,7.30177893 C11.7695492,5.76061414 10.7858011,4.42924781 9.18877563,4.35026845 C8.44600151,4.3136757 7.70047863,4.34020545 6.95617742,4.33929063 C6.23447707,4.33837581 5.5124713,4.33929063 4.7684755,4.33929063 C4.75351007,4.49877404 4.73671214,4.59635472 4.73671214,4.69363045 C4.73487963,6.0936082 4.73549047,7.49358594 4.73549047,8.98047147 L4.73549047,8.98047147 Z M4.76817009,18.107009 C4.8295589,18.1280498 4.89094772,18.1673871 4.95233653,18.167692 C6.43849562,18.1701315 7.92740346,18.2225811 9.41020295,18.152445 C10.9446179,18.0795644 11.8572039,17.1382159 11.8978244,15.7504357 C11.9387502,14.3562518 11.0957993,13.3508659 9.59314773,13.1706466 C8.64299547,13.0569042 7.67268568,13.1087439 6.71153841,13.0956315 C6.07474398,13.0867882 5.43733872,13.0938018 4.76817009,13.0938018 L4.76817009,18.107009 L4.76817009,18.107009 Z M0,0.220471337 C3.58651174,0.225045431 7.17455057,0.17137606 10.7595352,0.253404815 C13.5229482,0.316527314 15.6880492,2.19068615 16.1541156,4.75034922 C16.6815707,7.64819032 15.1758649,10.1221654 12.8525579,10.7863238 C12.7936124,10.8030955 12.7456619,10.8576797 12.6662535,10.9128738 C14.8805267,11.5459284 16.2023714,13.0093336 16.5743693,15.2015444 C17.1879521,18.8187381 15.1899141,21.7912894 11.4143493,22.2114961 C10.5772013,22.3048077 9.72692037,22.3023681 8.88244239,22.3066373 C5.92173007,22.3224942 2.96101774,22.3218843 0,22.3276781 L0,0.220471337 L0,0.220471337 Z" id="Fill-14"></path>
                    <path d="M89.8585658,12.7415966 C89.9416393,10.7561348 88.0471377,9.23967014 85.6480872,9.33420142 C83.652798,9.41287584 81.8789361,11.1001067 82.0918117,12.7415966 L89.8585658,12.7415966 L89.8585658,12.7415966 Z M85.5204229,22.7332478 C84.9596773,22.6289585 84.3931288,22.5493692 83.8394078,22.4167205 C79.5027919,21.379011 77.2934054,17.6523441 77.6721224,13.5347445 C77.9897561,10.0867924 79.7303275,7.56616157 83.0462398,6.39946262 C87.6751398,4.7701703 93.0434542,6.96969969 93.8357059,13.1194168 C93.9401585,13.9320808 93.9349664,14.7584672 93.9847494,15.6516353 L87.9662022,15.6516353 L82.0301175,15.6516353 C82.3074361,17.1668802 83.0725057,18.2295947 84.4068725,18.7946478 C86.5753332,19.712821 88.6063562,19.2551066 90.5216261,18.0243704 C90.6349358,17.9514898 90.739083,17.8651919 90.8493386,17.7871274 C90.8600282,17.7795039 90.8814074,17.7862125 90.958067,17.7862125 C91.5441622,18.6470571 92.1488879,19.5365659 92.8287461,20.535853 C92.2121092,20.919772 91.6434227,21.3360145 91.0218992,21.6476628 C89.8787234,22.2212542 88.6497254,22.525279 87.3727769,22.631398 C87.2273985,22.6435956 87.085685,22.6981798 86.942139,22.7332478 L85.5204229,22.7332478 L85.5204229,22.7332478 Z" id="Fill-16"></path>
                    <path d="M99.2525817,12.7388521 L107.026971,12.7388521 C107.126843,10.8143783 105.276932,9.28571602 102.952403,9.33084708 C100.889617,9.37079417 99.1038436,10.9997816 99.2525817,12.7388521 L99.2525817,12.7388521 Z M102.685469,22.7332478 C101.995532,22.5945003 101.2946,22.4966147 100.617796,22.3102966 C97.385873,21.4201779 95.156329,18.6915782 94.8631287,15.3564537 C94.5861155,12.2103918 95.4996177,9.54430481 98.0287758,7.55975783 C101.861454,4.55274835 109.393953,5.23489826 110.890191,12.3500541 C110.997392,12.8599132 111.060308,13.3831895 111.092682,13.9034165 C111.127194,14.4559671 111.100318,15.0124819 111.100318,15.6513303 L105.156598,15.6513303 L99.2241779,15.6513303 C99.3274089,16.5408392 99.6734463,17.2559226 100.247325,17.8475054 C101.560923,19.2011323 103.200096,19.4557569 104.971515,19.1456333 C106.100336,18.9477275 107.142113,18.5195923 108.079744,17.7176011 C108.710735,18.6409583 109.324012,19.5390054 109.991654,20.515727 C109.493824,20.8484161 109.043029,21.2000115 108.547642,21.4704929 C107.316507,22.1431897 105.983667,22.4981394 104.588522,22.6283486 C104.426346,22.6435956 104.267834,22.6972649 104.10749,22.7332478 L102.685469,22.7332478 L102.685469,22.7332478 Z" id="Fill-17"></path>
                    <path d="M24.0717457,22.7332478 C23.5635318,22.6292634 23.0522638,22.5396112 22.5480203,22.419465 C19.4251316,21.6763271 17.5801075,19.3423194 17.5773587,16.1337448 C17.5749154,13.0584289 17.5770533,9.9831129 17.5770533,6.90749201 L17.5770533,6.35646614 L21.7982216,6.35646614 L21.7982216,6.94377983 C21.7982216,9.85015923 21.8067733,12.7568436 21.7942512,15.663223 C21.7887537,16.9814769 22.1925149,18.0978608 23.4438083,18.6714522 C24.7998598,19.2932241 26.1885908,19.2706586 27.4429384,18.3784053 C28.3616328,17.7252246 28.6215426,16.7256326 28.6233751,15.6510254 C28.6288726,12.7614177 28.625513,9.87211489 28.625513,6.98250716 L28.625513,6.34701301 L32.8008687,6.34701301 C32.8008687,6.5293669 32.8011742,6.72300355 32.8011742,6.9166402 C32.8011742,9.95841279 32.8023958,13.0001854 32.8005633,16.041653 C32.7984254,19.7122111 30.5105467,22.2349765 26.8437103,22.6198103 C26.662598,22.6387165 26.4854562,22.6945205 26.3061764,22.7329429 C25.5612643,22.7332478 24.8163523,22.7332478 24.0717457,22.7332478" id="Fill-18"></path>
                    <path d="M63.9308011,22.2770582 L63.9308011,0.235413378 L79.2856404,0.235413378 L79.2856404,2.37334497 C79.2856404,2.84661125 79.253877,3.32262197 79.2948029,3.79222897 C79.335118,4.26000633 79.1469811,4.35057339 78.7160377,4.34813388 C75.6863011,4.33105726 72.6565646,4.33898569 69.6265226,4.33898569 L68.6684295,4.33898569 L68.6684295,8.98047147 L69.2401701,8.98047147 C71.5253,8.98047147 73.81043,8.99358387 76.0952545,8.96949364 C76.557045,8.96491955 76.6651626,9.11129056 76.6547784,9.54674432 C76.6263746,10.7082593 76.6450051,11.8706891 76.6450051,13.0901426 L68.6339174,13.0901426 L68.6339174,22.2767532 C67.0411678,22.2770582 65.5101124,22.2770582 63.9308011,22.2770582" id="Fill-19"></path>
                    <path d="M116.195895,18.8852149 C117.00525,18.8852149 117.762684,18.8855198 118.520118,18.8852149 C121.24627,18.884605 122.962714,17.3507588 123.268131,14.6425901 C123.48742,12.6979902 122.434037,10.7640632 120.756381,10.0773392 C119.278774,9.47294894 117.734891,9.79435529 116.1962,9.70897219 C116.195895,12.7967907 116.195895,15.7989211 116.195895,18.8852149 L116.195895,18.8852149 Z M112.170193,22.2682149 L112.170193,21.6885247 C112.170193,16.7558216 112.170193,11.8231185 112.170499,6.89041539 C112.170499,6.2430286 112.17111,6.23723475 112.840584,6.24333354 C115.157172,6.26467932 117.483533,6.16618382 119.788209,6.34426855 C123.072358,6.59797831 125.642748,8.07480083 126.859529,11.3117348 C128.096162,14.6008134 127.153646,18.35462 124.64098,20.4111327 C123.160624,21.6226578 121.418525,22.2191196 119.542349,22.2868162 C117.159791,22.3728092 114.772041,22.3139559 112.386734,22.3157855 C112.338173,22.3157855 112.289611,22.2953545 112.170193,22.2682149 L112.170193,22.2682149 Z" id="Fill-21"></path>
                    <path d="M41.3107024,9.9568881 L34.1584473,9.9568881 L34.1584473,6.3399994 L47.0885811,6.3399994 C47.0885811,7.02245424 47.0543744,7.70826342 47.0986598,8.38888863 C47.1395857,9.01675928 46.9480892,9.50161326 46.5513526,9.99409073 C44.4009115,12.6662765 42.2843718,15.3649921 40.156837,18.0551693 C40.042611,18.1994057 39.9338826,18.3479113 39.7561299,18.5824099 L47.1744032,18.5824099 L47.1744032,22.2688248 L34.1190485,22.2688248 C34.1190485,21.2619142 34.1043885,20.2553086 34.1330977,19.2499227 C34.1382897,19.0773268 34.3117666,18.8977174 34.4342388,18.7421982 C36.6170541,15.966333 38.8041451,13.194127 40.9890983,10.4203963 C41.0801126,10.3045193 41.1576885,10.1782743 41.3107024,9.9568881" id="Fill-23"></path>
                    <path d="M48.3301011,9.96085231 C48.3301011,8.81946336 48.3288795,7.77321556 48.3313228,6.72696776 C48.3316282,6.61170059 48.3508695,6.49612848 48.3643078,6.34640313 L61.2547374,6.34640313 C61.2547374,7.31885554 61.265427,8.27575603 61.243437,9.23174171 C61.2400774,9.37597814 61.0977531,9.52783807 60.9957438,9.65713246 C58.7759731,12.4692855 56.5528428,15.2786941 54.3318505,18.0896275 C54.2222057,18.2286799 54.1241669,18.3768806 53.9534388,18.6144285 L54.600312,18.6144285 C56.6985267,18.6144285 58.7970469,18.6229668 60.8952616,18.606805 C61.2849737,18.6037556 61.4303522,18.6992017 61.4190518,19.1142245 C61.390648,20.1574229 61.4095838,21.202146 61.4095838,22.277973 L48.3426232,22.277973 C48.3426232,21.2359943 48.3340716,20.2113973 48.3530074,19.1871051 C48.3554507,19.0590305 48.4901396,18.924857 48.5820702,18.8077602 C50.7135753,16.0983718 52.8478293,13.390813 54.9808616,10.6826444 C55.1439542,10.4755904 55.3033819,10.2657919 55.5391638,9.96085231 L48.3301011,9.96085231" id="Fill-24"></path>
                </g>
            </g>
        </g>
    </g>
</svg>
