<?xml version="1.0" encoding="utf-8"?>
<!-- Generator: Adobe Illustrator 16.0.0, SVG Export Plug-In . SVG Version: 6.00 Build 0)  -->
<!DOCTYPE svg PUBLIC "-//W3C//DTD SVG 1.1//EN" "http://www.w3.org/Graphics/SVG/1.1/DTD/svg11.dtd">
<svg version="1.1" id="Layer_1" xmlns="http://www.w3.org/2000/svg" xmlns:xlink="http://www.w3.org/1999/xlink" x="0px" y="0px"
	 width="341px" height="273px" viewBox="0 0 341 273" enable-background="new 0 0 341 273" xml:space="preserve">
<g>
	<defs>
		<rect id="SVGID_1_" x="-874.551" y="-1380.593" width="1440" height="2887"/>
	</defs>
	<clipPath id="SVGID_2_">
		<use xlink:href="#SVGID_1_"  overflow="visible"/>
	</clipPath>
	
		<ellipse clip-path="url(#SVGID_2_)" fill="none" stroke="#979797" stroke-miterlimit="10" cx="196.496" cy="136.264" rx="134.018" ry="133.842"/>
</g>
<g>
	<defs>
		<ellipse id="SVGID_3_" cx="196.496" cy="136.264" rx="134.018" ry="133.842"/>
	</defs>
	<clipPath id="SVGID_4_">
		<use xlink:href="#SVGID_3_"  overflow="visible"/>
	</clipPath>
	<g clip-path="url(#SVGID_4_)">
		<defs>
			<rect id="SVGID_5_" x="-874.551" y="-1380.593" width="1440" height="2887"/>
		</defs>
		<clipPath id="SVGID_6_">
			<use xlink:href="#SVGID_5_"  overflow="visible"/>
		</clipPath>
		<g clip-path="url(#SVGID_6_)" enable-background="new    ">
			<g>
				<defs>
					<rect id="SVGID_7_" x="62.449" y="2.407" width="269" height="267.999"/>
				</defs>
				<clipPath id="SVGID_8_">
					<use xlink:href="#SVGID_7_"  overflow="visible"/>
				</clipPath>
				<g clip-path="url(#SVGID_8_)">
					<defs>
						<rect id="SVGID_9_" x="62.449" y="2.407" width="269" height="267.999"/>
					</defs>
					<clipPath id="SVGID_10_">
						<use xlink:href="#SVGID_9_"  overflow="visible"/>
					</clipPath>
					<rect x="57.479" y="-2.578" clip-path="url(#SVGID_10_)" fill="#E3F3FC" width="278.035" height="277.684"/>
					
						<ellipse clip-path="url(#SVGID_10_)" fill="none" stroke="#979797" stroke-miterlimit="10" cx="196.496" cy="136.264" rx="134.018" ry="133.842"/>
				</g>
				<g clip-path="url(#SVGID_8_)">
					<defs>
						<path id="SVGID_11_" d="M269.816,204.314c0,3.93-16.299,3.457-43.226,3.457H204.34c-26.923,0-43.222,0.473-43.222-3.457
							l1.409-106.425c0-33.705,20.781-54.439,52.939-54.439c34.82,0,52.938,21.75,52.938,54.439L269.816,204.314z"/>
					</defs>
					<clipPath id="SVGID_12_">
						<use xlink:href="#SVGID_11_"  overflow="visible"/>
					</clipPath>
					<g clip-path="url(#SVGID_12_)">
						<defs>
							<rect id="SVGID_13_" x="62.449" y="2.407" width="269" height="267.999"/>
						</defs>
						<clipPath id="SVGID_14_">
							<use xlink:href="#SVGID_13_"  overflow="visible"/>
						</clipPath>
						<rect x="156.118" y="38.45" clip-path="url(#SVGID_14_)" fill="#A9714A" width="118.698" height="174.339"/>
					</g>
				</g>
				<g clip-path="url(#SVGID_8_)">
					<defs>
						<rect id="SVGID_15_" x="62.449" y="2.407" width="269" height="267.999"/>
					</defs>
					<clipPath id="SVGID_16_">
						<use xlink:href="#SVGID_15_"  overflow="visible"/>
					</clipPath>
					<path clip-path="url(#SVGID_16_)" fill="none" stroke="#5B656A" stroke-miterlimit="10" d="M269.816,204.314
						c0,3.93-16.299,3.457-43.226,3.457H204.34c-26.923,0-43.222,0.473-43.222-3.457l1.409-106.425
						c0-33.705,20.781-54.439,52.939-54.439c34.82,0,52.938,21.75,52.938,54.439L269.816,204.314z"/>
				</g>
				<g clip-path="url(#SVGID_8_)">
					<defs>
						<path id="SVGID_17_" d="M250.173,273.197c0.263-0.08-3.016-72.242-4.792-81.137c-0.884-4.393-1.619-7.346-2.932-9.775
							c-5.971,1.555-7.312,9.682-8.152,17.736c0.093,0.807,0.089,1.748-0.164,2.807c1.744,15.805,2.578,34.148,3.227,49.537
							c0.162,3.885,0.99,22.801-0.762,23.676c-1.687,0.842-2.254,3.344-2.391,4.84l-1.083,8.982
							c-0.267,2.412,2.962,3.334,4.001,1.297c0.307-0.602,1.176-6.965,2.048-6.783c0.668,0.145,0.376,0.176,0.635,1.012
							c1.748,5.654-4.506,11.891-3.908,13.715c1.715,5.277,6,1.797,10.831-4.252C250.487,290.166,251.097,281.293,250.173,273.197"
							/>
					</defs>
					<clipPath id="SVGID_18_">
						<use xlink:href="#SVGID_17_"  overflow="visible"/>
					</clipPath>
					<g clip-path="url(#SVGID_18_)">
						<defs>
							<rect id="SVGID_19_" x="62.449" y="2.407" width="269" height="267.999"/>
						</defs>
						<clipPath id="SVGID_20_">
							<use xlink:href="#SVGID_19_"  overflow="visible"/>
						</clipPath>
						<rect x="228.108" y="177.285" clip-path="url(#SVGID_20_)" fill="#DFAB7A" width="27.446" height="129.406"/>
					</g>
				</g>
				<g clip-path="url(#SVGID_8_)">
					<defs>
						<rect id="SVGID_21_" x="62.449" y="2.407" width="269" height="267.999"/>
					</defs>
					<clipPath id="SVGID_22_">
						<use xlink:href="#SVGID_21_"  overflow="visible"/>
					</clipPath>
					<path clip-path="url(#SVGID_22_)" fill="none" stroke="#5B656A" stroke-miterlimit="10" d="M250.173,273.197
						c0.263-0.08-3.016-72.242-4.792-81.137c-0.884-4.393-1.619-7.346-2.932-9.775c-5.971,1.555-7.312,9.682-8.152,17.736
						c0.093,0.807,0.089,1.748-0.164,2.807c1.744,15.805,2.578,34.148,3.227,49.537c0.162,3.885,0.99,22.801-0.762,23.676
						c-1.687,0.842-2.253,3.344-2.391,4.84l-1.083,8.982c-0.267,2.412,2.962,3.334,4.001,1.297c0.307-0.602,1.176-6.965,2.048-6.783
						c0.668,0.145,0.376,0.176,0.635,1.012c1.748,5.654-4.506,11.891-3.908,13.715c1.715,5.275,6,1.797,10.831-4.252
						C250.487,290.166,251.097,281.293,250.173,273.197z"/>
				</g>
				<g clip-path="url(#SVGID_8_)">
					<defs>
						<path id="SVGID_23_" d="M234.123,198.023c0,0,0.754,0.961,1.141,2.592c-0.14-8.098,0.216-16.326,5.952-18.59
							c-2.836-4.004-7.296-6.139-18.077-10.994c-2.519-0.912-6.305,0.066-8.007,0.596c-1.697-0.529-5.482-1.508-8.003-0.596
							c-3.264,1.469-5.944,2.688-8.179,3.783c3.798,12.461,3.582,25.848-0.251,37.475c1.986,5.244,3.336,13.311,2.401,22.318
							c-1.221,11.783-14.651,19.109-14.943,42.68c-0.271,21.793-4.995,105.178-7.966,121.607
							c-0.637,3.547-3.949,11.596-5.533,13.006c-0.99,0.879,4.753,2.463,4.753,2.463s14.485-2.328,15.079-6.924l16.535-131.574
							l6.106-0.4l4.749,0.4l-0.093,37.18l-0.244,93.947c0,4.635,1.242,2.492,1.242,2.492s16.367,7.322,22.303,9.975
							c3.416,1.527,2.375-1.469,2.375-1.469s-5.987,0.291-6.188-5.961c-0.007-0.18-0.179-2.854-1.048-3.852
							c-1.389-1.602-3.231-4.229-3.418-7.832c-0.565-11.309,3.414-53.852,5.946-86.859h0.072c1.16-15.561,2.011-29.086,1.922-36.199
							c-0.291-23.57-12.365-30.896-13.585-42.68c-1.22-11.785,1.467-21.977,4.367-26.312c1.062-1.58,1.581-3.023,1.808-4.311
							c-0.009-0.361-0.017-0.721-0.029-1.084C234.925,201.24,234.526,199.609,234.123,198.023"/>
					</defs>
					<clipPath id="SVGID_24_">
						<use xlink:href="#SVGID_23_"  overflow="visible"/>
					</clipPath>
					<g clip-path="url(#SVGID_24_)">
						<defs>
							<rect id="SVGID_25_" x="62.449" y="2.407" width="269" height="267.999"/>
						</defs>
						<clipPath id="SVGID_26_">
							<use xlink:href="#SVGID_25_"  overflow="visible"/>
						</clipPath>
						<rect x="167.543" y="165.658" clip-path="url(#SVGID_26_)" fill="#DFAB7A" width="83.07" height="259.234"/>
					</g>
				</g>
				<g clip-path="url(#SVGID_8_)">
					<defs>
						<rect id="SVGID_27_" x="62.449" y="2.407" width="269" height="267.999"/>
					</defs>
					<clipPath id="SVGID_28_">
						<use xlink:href="#SVGID_27_"  overflow="visible"/>
					</clipPath>
					<path clip-path="url(#SVGID_28_)" fill="none" stroke="#5B656A" stroke-miterlimit="10" d="M234.123,198.023
						c0,0,0.754,0.961,1.141,2.592c-0.14-8.098,0.216-16.326,5.952-18.59c-2.837-4.004-7.296-6.139-18.077-10.994
						c-2.519-0.912-6.305,0.066-8.007,0.596c-1.697-0.529-5.482-1.508-8.003-0.596c-3.264,1.469-5.944,2.688-8.179,3.783
						c3.798,12.461,3.582,25.848-0.251,37.475c1.986,5.244,3.336,13.311,2.401,22.318c-1.221,11.783-14.651,19.109-14.943,42.68
						c-0.271,21.793-4.995,105.178-7.966,121.607c-0.637,3.547-3.949,11.596-5.533,13.006c-0.99,0.879,4.753,2.463,4.753,2.463
						s14.485-2.328,15.078-6.924l16.535-131.574l6.107-0.4l4.749,0.4l-0.093,37.18l-0.244,93.947c0,4.635,1.242,2.492,1.242,2.492
						s16.367,7.322,22.303,9.975c3.416,1.529,2.375-1.469,2.375-1.469s-5.987,0.291-6.188-5.961
						c-0.007-0.18-0.179-2.854-1.048-3.852c-1.389-1.602-3.231-4.229-3.418-7.832c-0.565-11.309,3.414-53.852,5.946-86.859h0.072
						c1.16-15.561,2.011-29.086,1.922-36.199c-0.291-23.57-12.365-30.896-13.585-42.68c-1.221-11.785,1.467-21.977,4.367-26.312
						c1.062-1.58,1.581-3.023,1.808-4.311c-0.009-0.361-0.017-0.721-0.029-1.084C234.925,201.24,234.526,199.609,234.123,198.023z"
						/>
				</g>
				<g clip-path="url(#SVGID_8_)">
					<defs>
						<rect id="SVGID_29_" x="120.479" y="42.422" width="150.365" height="379.062"/>
					</defs>
					<clipPath id="SVGID_30_">
						<use xlink:href="#SVGID_29_"  overflow="visible"/>
					</clipPath>
					<g clip-path="url(#SVGID_30_)">
						<defs>
							<rect id="SVGID_31_" x="62.449" y="2.407" width="269" height="267.999"/>
						</defs>
						<clipPath id="SVGID_32_">
							<use xlink:href="#SVGID_31_"  overflow="visible"/>
						</clipPath>
						<g clip-path="url(#SVGID_32_)" enable-background="new    ">
							<g>
								<defs>
									<rect id="SVGID_33_" x="120.449" y="42.407" width="151" height="227.999"/>
								</defs>
								<clipPath id="SVGID_34_">
									<use xlink:href="#SVGID_33_"  overflow="visible"/>
								</clipPath>
								<g clip-path="url(#SVGID_34_)">
									<defs>
										<rect id="SVGID_35_" x="207.135" y="159.914" width="15.997" height="31.742"/>
									</defs>
									<clipPath id="SVGID_36_">
										<use xlink:href="#SVGID_35_"  overflow="visible"/>
									</clipPath>
									<g clip-path="url(#SVGID_36_)">
										<defs>
											<rect id="SVGID_37_" x="120.449" y="42.407" width="151" height="227.999"/>
										</defs>
										<clipPath id="SVGID_38_">
											<use xlink:href="#SVGID_37_"  overflow="visible"/>
										</clipPath>
										<rect x="202.135" y="154.914" clip-path="url(#SVGID_38_)" fill="#DFAB7A" width="25.997" height="41.742"/>
									</g>
								</g>
								<g clip-path="url(#SVGID_34_)">
									<defs>
										<rect id="SVGID_39_" x="120.449" y="42.407" width="151" height="227.999"/>
									</defs>
									<clipPath id="SVGID_40_">
										<use xlink:href="#SVGID_39_"  overflow="visible"/>
									</clipPath>
									
										<rect x="207.135" y="159.914" clip-path="url(#SVGID_40_)" fill="none" stroke="#5B656A" stroke-miterlimit="10" width="15.997" height="31.742"/>
								</g>
								<g clip-path="url(#SVGID_34_)">
									<defs>
										<path id="SVGID_41_" d="M251.507,71.45c-7.939-11.255-16.092-11.605-29.229-12.148h-14.29
											c-13.142,0.543-21.294,0.893-29.228,12.148c-7.94,11.268-4.936,14.188-4.309,27.777c0.475,10.27-5.664,3.064-1.416,31.621
											c4.244,28.557,29.047,37.719,42.094,37.719c13.056,0,35.993-7.658,42.103-37.719c6.112-30.056-1.892-21.351-1.417-31.621
											C256.44,85.637,259.452,82.717,251.507,71.45"/>
									</defs>
									<clipPath id="SVGID_42_">
										<use xlink:href="#SVGID_41_"  overflow="visible"/>
									</clipPath>
									<g clip-path="url(#SVGID_42_)">
										<defs>
											<rect id="SVGID_43_" x="120.449" y="42.407" width="151" height="227.999"/>
										</defs>
										<clipPath id="SVGID_44_">
											<use xlink:href="#SVGID_43_"  overflow="visible"/>
										</clipPath>
										<rect x="166.529" y="54.302" clip-path="url(#SVGID_44_)" fill="#DFAB7A" width="98.013" height="119.263"/>
									</g>
								</g>
								<g clip-path="url(#SVGID_34_)">
									<defs>
										<rect id="SVGID_45_" x="120.449" y="42.407" width="151" height="227.999"/>
									</defs>
									<clipPath id="SVGID_46_">
										<use xlink:href="#SVGID_45_"  overflow="visible"/>
									</clipPath>
									<path clip-path="url(#SVGID_46_)" fill="none" stroke="#5B656A" stroke-miterlimit="10" d="M251.507,71.45
										c-7.939-11.255-16.092-11.605-29.229-12.148h-14.29c-13.142,0.543-21.294,0.893-29.228,12.148
										c-7.94,11.268-4.936,14.188-4.309,27.777c0.475,10.27-5.664,3.064-1.416,31.621c4.244,28.557,29.047,37.719,42.094,37.719
										c13.056,0,35.993-7.658,42.103-37.719c6.112-30.056-1.892-21.351-1.417-31.621C256.44,85.637,259.452,82.717,251.507,71.45
										z"/>
								</g>
								<g clip-path="url(#SVGID_34_)">
									<defs>
										<path id="SVGID_47_" d="M194.828,203.42c0.427-1.838,0.868-3.643,1.318-5.395
											C196.146,198.025,194.454,200.102,194.828,203.42"/>
									</defs>
									<clipPath id="SVGID_48_">
										<use xlink:href="#SVGID_47_"  overflow="visible"/>
									</clipPath>
									<g clip-path="url(#SVGID_48_)">
										<defs>
											<rect id="SVGID_49_" x="120.449" y="42.407" width="151" height="227.999"/>
										</defs>
										<clipPath id="SVGID_50_">
											<use xlink:href="#SVGID_49_"  overflow="visible"/>
										</clipPath>
										<rect x="189.773" y="193.025" clip-path="url(#SVGID_50_)" fill="#FCCC9A" width="11.373" height="15.395"/>
									</g>
								</g>
								<g clip-path="url(#SVGID_34_)">
									<defs>
										<path id="SVGID_51_" d="M234.123,198.023c0.446,1.754,0.888,3.559,1.315,5.396
											C235.81,200.1,234.123,198.023,234.123,198.023"/>
									</defs>
									<clipPath id="SVGID_52_">
										<use xlink:href="#SVGID_51_"  overflow="visible"/>
									</clipPath>
									<g clip-path="url(#SVGID_52_)">
										<defs>
											<rect id="SVGID_53_" x="120.449" y="42.407" width="151" height="227.999"/>
										</defs>
										<clipPath id="SVGID_54_">
											<use xlink:href="#SVGID_53_"  overflow="visible"/>
										</clipPath>
										<rect x="229.123" y="193.023" clip-path="url(#SVGID_54_)" fill="#FCCC9A" width="11.368" height="15.396"/>
									</g>
								</g>
								<g clip-path="url(#SVGID_34_)">
									<defs>
										<path id="SVGID_55_" d="M212.299,135.922c-0.045,0-0.097,0-0.144-0.006c-0.897-0.08-1.557-0.869-1.477-1.764
											c0.218-2.469,0.566-12.156,0.566-15.117c0-0.898,0.728-1.627,1.625-1.627c0.899,0,1.627,0.729,1.627,1.627
											c0,2.814-0.329,12.64-0.579,15.408C213.842,135.287,213.133,135.922,212.299,135.922"/>
									</defs>
									<clipPath id="SVGID_56_">
										<use xlink:href="#SVGID_55_"  overflow="visible"/>
									</clipPath>
									<g clip-path="url(#SVGID_56_)">
										<defs>
											<rect id="SVGID_57_" x="120.449" y="42.407" width="151" height="227.999"/>
										</defs>
										<clipPath id="SVGID_58_">
											<use xlink:href="#SVGID_57_"  overflow="visible"/>
										</clipPath>
										<rect x="205.672" y="112.409" clip-path="url(#SVGID_58_)" fill="#B27D57" width="13.825" height="28.513"/>
									</g>
								</g>
								<g clip-path="url(#SVGID_34_)">
									<defs>
										<path id="SVGID_59_" d="M197.518,117.926c0,3.785-2.588,6.854-5.778,6.854c-3.186,0-5.773-3.068-5.773-6.854
											c0-3.783,2.588-6.854,5.773-6.854C194.93,111.073,197.518,114.143,197.518,117.926"/>
									</defs>
									<clipPath id="SVGID_60_">
										<use xlink:href="#SVGID_59_"  overflow="visible"/>
									</clipPath>
									<g clip-path="url(#SVGID_60_)">
										<defs>
											<rect id="SVGID_61_" x="120.449" y="42.407" width="151" height="227.999"/>
										</defs>
										<clipPath id="SVGID_62_">
											<use xlink:href="#SVGID_61_"  overflow="visible"/>
										</clipPath>
										<rect x="180.966" y="106.073" clip-path="url(#SVGID_62_)" fill="#5B656A" width="21.552" height="23.707"/>
									</g>
								</g>
								<g clip-path="url(#SVGID_34_)">
									<defs>
										<path id="SVGID_63_" d="M199.024,107.106c-0.48,0-0.97-0.201-1.319-0.596c-1.629-1.842-3.835-2.262-5.399-2.287
											c-2.467-0.043-5.03,0.895-6.396,2.336c-0.672,0.701-1.787,0.732-2.489,0.062c-0.707-0.67-0.736-1.783-0.068-2.49
											c2.068-2.174,5.536-3.479,9.016-3.432c3.206,0.059,6.039,1.293,7.979,3.479c0.644,0.729,0.577,1.84-0.149,2.484
											C199.858,106.961,199.443,107.106,199.024,107.106"/>
									</defs>
									<clipPath id="SVGID_64_">
										<use xlink:href="#SVGID_63_"  overflow="visible"/>
									</clipPath>
									<g clip-path="url(#SVGID_64_)">
										<defs>
											<rect id="SVGID_65_" x="120.449" y="42.407" width="151" height="227.999"/>
										</defs>
										<clipPath id="SVGID_66_">
											<use xlink:href="#SVGID_65_"  overflow="visible"/>
										</clipPath>
										<rect x="177.869" y="95.7" clip-path="url(#SVGID_66_)" fill="#A9714A" width="27.92" height="16.406"/>
									</g>
								</g>
								<g clip-path="url(#SVGID_34_)">
									<defs>
										<path id="SVGID_67_" d="M232.671,106.911c-0.382,0-0.762-0.123-1.086-0.377c-0.763-0.6-0.9-1.707-0.298-2.471
											c1.486-1.889,4.28-3.152,7.31-3.297c3.209-0.156,6.126,0.973,8.223,3.166c0.67,0.707,0.644,1.822-0.06,2.492
											c-0.711,0.672-1.824,0.646-2.493-0.061c-1.859-1.951-4.265-2.15-5.501-2.078c-2.266,0.109-4.032,1.088-4.708,1.951
											C233.715,106.68,233.193,106.911,232.671,106.911"/>
									</defs>
									<clipPath id="SVGID_68_">
										<use xlink:href="#SVGID_67_"  overflow="visible"/>
									</clipPath>
									<g clip-path="url(#SVGID_68_)">
										<defs>
											<rect id="SVGID_69_" x="120.449" y="42.407" width="151" height="227.999"/>
										</defs>
										<clipPath id="SVGID_70_">
											<use xlink:href="#SVGID_69_"  overflow="visible"/>
										</clipPath>
										<rect x="225.911" y="95.75" clip-path="url(#SVGID_70_)" fill="#A9714A" width="26.394" height="16.162"/>
									</g>
								</g>
								<g clip-path="url(#SVGID_34_)">
									<defs>
										<path id="SVGID_71_" d="M244.228,117.926c0,3.785-2.593,6.854-5.778,6.854c-3.189,0-5.773-3.068-5.773-6.854
											s2.584-6.855,5.773-6.855C241.635,111.071,244.228,114.141,244.228,117.926"/>
									</defs>
									<clipPath id="SVGID_72_">
										<use xlink:href="#SVGID_71_"  overflow="visible"/>
									</clipPath>
									<g clip-path="url(#SVGID_72_)">
										<defs>
											<rect id="SVGID_73_" x="120.449" y="42.407" width="151" height="227.999"/>
										</defs>
										<clipPath id="SVGID_74_">
											<use xlink:href="#SVGID_73_"  overflow="visible"/>
										</clipPath>
										<rect x="227.676" y="106.071" clip-path="url(#SVGID_74_)" fill="#5B656A" width="21.552" height="23.708"/>
									</g>
								</g>
								<g clip-path="url(#SVGID_34_)">
									<defs>
										<path id="SVGID_75_" d="M194.828,203.42c0.427-1.838,0.868-3.643,1.318-5.395
											C196.146,198.025,194.454,200.102,194.828,203.42"/>
									</defs>
									<clipPath id="SVGID_76_">
										<use xlink:href="#SVGID_75_"  overflow="visible"/>
									</clipPath>
									<g clip-path="url(#SVGID_76_)">
										<defs>
											<rect id="SVGID_77_" x="120.449" y="42.407" width="151" height="227.999"/>
										</defs>
										<clipPath id="SVGID_78_">
											<use xlink:href="#SVGID_77_"  overflow="visible"/>
										</clipPath>
										<rect x="189.773" y="193.025" clip-path="url(#SVGID_78_)" fill="#FCCC9A" width="11.373" height="15.395"/>
									</g>
								</g>
								<g clip-path="url(#SVGID_34_)">
									<defs>
										<path id="SVGID_79_" d="M234.123,198.023c0.446,1.754,0.888,3.559,1.315,5.396
											C235.81,200.1,234.123,198.023,234.123,198.023"/>
									</defs>
									<clipPath id="SVGID_80_">
										<use xlink:href="#SVGID_79_"  overflow="visible"/>
									</clipPath>
									<g clip-path="url(#SVGID_80_)">
										<defs>
											<rect id="SVGID_81_" x="120.449" y="42.407" width="151" height="227.999"/>
										</defs>
										<clipPath id="SVGID_82_">
											<use xlink:href="#SVGID_81_"  overflow="visible"/>
										</clipPath>
										<rect x="229.123" y="193.023" clip-path="url(#SVGID_82_)" fill="#FCCC9A" width="11.368" height="15.396"/>
									</g>
								</g>
								<g clip-path="url(#SVGID_34_)">
									<defs>
										<path id="SVGID_83_" d="M247.227,191.189c-2.999-9.09-5.983-12.422-13.526-16.377c-2.547,7.982,1.631,15.414,3.689,22.949
											c3.413-1.576,6.581-3.523,10.442-4.436C247.6,192.432,247.395,191.701,247.227,191.189"/>
									</defs>
									<clipPath id="SVGID_84_">
										<use xlink:href="#SVGID_83_"  overflow="visible"/>
									</clipPath>
									<g clip-path="url(#SVGID_84_)">
										<defs>
											<rect id="SVGID_85_" x="120.449" y="42.407" width="151" height="227.999"/>
										</defs>
										<clipPath id="SVGID_86_">
											<use xlink:href="#SVGID_85_"  overflow="visible"/>
										</clipPath>
										<rect x="227.901" y="169.812" clip-path="url(#SVGID_86_)" fill="#FFFFFF" width="24.931" height="32.949"/>
									</g>
								</g>
								<g clip-path="url(#SVGID_34_)">
									<defs>
										<rect id="SVGID_87_" x="120.449" y="42.407" width="151" height="227.999"/>
									</defs>
									<clipPath id="SVGID_88_">
										<use xlink:href="#SVGID_87_"  overflow="visible"/>
									</clipPath>
									
										<path clip-path="url(#SVGID_88_)" fill="none" stroke="#5B656A" stroke-linecap="round" stroke-linejoin="round" stroke-miterlimit="10" d="
										M247.227,191.189c-2.999-9.09-5.983-12.422-13.526-16.377c-2.547,7.982,1.631,15.414,3.689,22.949
										c3.413-1.576,6.581-3.523,10.442-4.436C247.6,192.432,247.395,191.701,247.227,191.189z"/>
								</g>
								<g clip-path="url(#SVGID_34_)">
									<defs>
										<path id="SVGID_89_" d="M196.107,132.891c0,3.109-3.65,5.637-8.161,5.637c-4.5,0-8.154-2.527-8.154-5.637
											c0-3.117,3.654-5.638,8.154-5.638C192.457,127.252,196.107,129.773,196.107,132.891"/>
									</defs>
									<clipPath id="SVGID_90_">
										<use xlink:href="#SVGID_89_"  overflow="visible"/>
									</clipPath>
									<g clip-path="url(#SVGID_90_)">
										<defs>
											<rect id="SVGID_91_" x="120.449" y="42.407" width="151" height="227.999"/>
										</defs>
										<clipPath id="SVGID_92_">
											<use xlink:href="#SVGID_91_"  overflow="visible"/>
										</clipPath>
										<rect x="174.792" y="122.252" clip-path="url(#SVGID_92_)" fill="#DC9379" width="26.315" height="21.273"/>
									</g>
								</g>
								<g clip-path="url(#SVGID_34_)">
									<defs>
										<path id="SVGID_93_" d="M250.397,132.891c0,3.109-3.654,5.637-8.161,5.637c-4.5,0-8.154-2.527-8.154-5.637
											c0-3.117,3.654-5.638,8.154-5.638C246.743,127.252,250.397,129.773,250.397,132.891"/>
									</defs>
									<clipPath id="SVGID_94_">
										<use xlink:href="#SVGID_93_"  overflow="visible"/>
									</clipPath>
									<g clip-path="url(#SVGID_94_)">
										<defs>
											<rect id="SVGID_95_" x="120.449" y="42.407" width="151" height="227.999"/>
										</defs>
										<clipPath id="SVGID_96_">
											<use xlink:href="#SVGID_95_"  overflow="visible"/>
										</clipPath>
										<rect x="229.082" y="122.252" clip-path="url(#SVGID_96_)" fill="#DC9379" width="26.315" height="21.273"/>
									</g>
								</g>
								<g clip-path="url(#SVGID_34_)">
									<defs>
										<path id="SVGID_97_" d="M215.229,257.258c-0.648,0-1.177-0.527-1.177-1.174c0-3.041-0.119-6.916-0.229-10.672
											c-0.113-3.762-0.236-7.656-0.236-10.736c0-4.602,0.075-9.264,0.146-13.771c0.072-4.479,0.144-9.113,0.144-13.689
											c0-0.648,0.526-1.174,1.171-1.174c0.651,0,1.177,0.525,1.177,1.174c0,4.598-0.069,9.238-0.138,13.725
											c-0.069,4.502-0.144,9.154-0.144,13.736c0,3.043,0.117,6.918,0.23,10.67c0.117,3.766,0.229,7.662,0.229,10.738
											C216.402,256.73,215.873,257.258,215.229,257.258"/>
									</defs>
									<clipPath id="SVGID_98_">
										<use xlink:href="#SVGID_97_"  overflow="visible"/>
									</clipPath>
									<g clip-path="url(#SVGID_98_)">
										<defs>
											<rect id="SVGID_99_" x="120.449" y="42.407" width="151" height="227.999"/>
										</defs>
										<clipPath id="SVGID_100_">
											<use xlink:href="#SVGID_99_"  overflow="visible"/>
										</clipPath>
										<rect x="208.587" y="201.041" clip-path="url(#SVGID_100_)" fill="#61606E" width="12.815" height="61.217"/>
									</g>
								</g>
								<g clip-path="url(#SVGID_34_)">
									<defs>
										<path id="SVGID_101_" d="M167.647,107.215c0,0,41.165-9.146,77.765-35.125c0,0,12.536,21.539,14.115,51.949
											c0,0,14.455-57.75-21.007-70.172C203.056,41.444,159.516,60.604,167.647,107.215"/>
									</defs>
									<clipPath id="SVGID_102_">
										<use xlink:href="#SVGID_101_"  overflow="visible"/>
									</clipPath>
									<g clip-path="url(#SVGID_102_)">
										<defs>
											<rect id="SVGID_103_" x="120.449" y="42.407" width="151" height="227.999"/>
										</defs>
										<clipPath id="SVGID_104_">
											<use xlink:href="#SVGID_103_"  overflow="visible"/>
										</clipPath>
										<rect x="161.656" y="45.171" clip-path="url(#SVGID_104_)" fill="#A9714A" width="105.787" height="83.868"/>
									</g>
								</g>
								<g clip-path="url(#SVGID_34_)">
									<defs>
										<rect id="SVGID_105_" x="120.449" y="42.407" width="151" height="227.999"/>
									</defs>
									<clipPath id="SVGID_106_">
										<use xlink:href="#SVGID_105_"  overflow="visible"/>
									</clipPath>
									<path clip-path="url(#SVGID_106_)" fill="none" stroke="#5B656A" stroke-miterlimit="10" d="M167.647,107.215
										c0,0,41.165-9.146,77.765-35.125c0,0,12.536,21.539,14.115,51.949c0,0,14.454-57.75-21.007-70.172
										C203.056,41.444,159.516,60.604,167.647,107.215z"/>
								</g>
								<g clip-path="url(#SVGID_34_)">
									<defs>
										<path id="SVGID_107_" d="M202.452,144.346c4.646,11.336,23.194,7.686,24.482-0.109L202.452,144.346z"/>
									</defs>
									<clipPath id="SVGID_108_">
										<use xlink:href="#SVGID_107_"  overflow="visible"/>
									</clipPath>
									<g clip-path="url(#SVGID_108_)">
										<defs>
											<rect id="SVGID_109_" x="120.449" y="42.407" width="151" height="227.999"/>
										</defs>
										<clipPath id="SVGID_110_">
											<use xlink:href="#SVGID_109_"  overflow="visible"/>
										</clipPath>
										<rect x="197.452" y="139.236" clip-path="url(#SVGID_110_)" fill="#FFFFFF" width="34.482" height="17.297"/>
									</g>
								</g>
								<g clip-path="url(#SVGID_34_)">
									<defs>
										<path id="SVGID_111_" d="M214.404,152.891h-0.002c-6.21,0-11.146-3.006-13.206-8.029
											c-0.168-0.418-0.121-0.893,0.132-1.268c0.248-0.377,0.665-0.6,1.117-0.602l24.484-0.109h0.004
											c0.398,0,0.774,0.174,1.033,0.477s0.374,0.707,0.307,1.1C227.4,149.734,220.535,152.891,214.404,152.891z
											 M204.703,145.691c2.728,4.008,7.557,4.486,9.699,4.486h0.002c4.615,0,8.96-1.975,10.578-4.576L204.703,145.691z"/>
									</defs>
									<clipPath id="SVGID_112_">
										<use xlink:href="#SVGID_111_"  overflow="visible"/>
									</clipPath>
									<g clip-path="url(#SVGID_112_)">
										<defs>
											<rect id="SVGID_113_" x="120.449" y="42.407" width="151" height="227.999"/>
										</defs>
										<clipPath id="SVGID_114_">
											<use xlink:href="#SVGID_113_"  overflow="visible"/>
										</clipPath>
										<rect x="196.098" y="137.883" clip-path="url(#SVGID_114_)" fill="#A36E46" width="37.194" height="20.008"/>
									</g>
								</g>
								<g clip-path="url(#SVGID_34_)">
									<defs>
										<path id="SVGID_115_" d="M240.544,255.742c-3.506,3.42-10.941,7.578-12.03,6.488c-16.98-12.025-7.084-14.643-26.46,0
											c-2.701,0.904-8.677-2.197-12.534-6.197c-1.914,5.082-2.679,9.447-3.344,16.559c-0.771,8.234-0.562,20.012-0.553,20.129
											c0.019,0.309,0.275,0.551,0.581,0.557c1.934,0.041,8.102,0.066,16.063,0.066c8.363,0,18.576-0.025,26.713-0.041
											c5.377-0.018,9.841-0.025,12.258-0.025h0.99c0.307,0,0.561-0.229,0.594-0.531c0.013-0.105,1.13-10.572,1.13-18.775
											C243.952,266.943,242.496,260.957,240.544,255.742"/>
									</defs>
									<clipPath id="SVGID_116_">
										<use xlink:href="#SVGID_115_"  overflow="visible"/>
									</clipPath>
									<g clip-path="url(#SVGID_116_)">
										<defs>
											<rect id="SVGID_117_" x="120.449" y="42.407" width="151" height="227.999"/>
										</defs>
										<clipPath id="SVGID_118_">
											<use xlink:href="#SVGID_117_"  overflow="visible"/>
										</clipPath>
										<rect x="180.59" y="247.205" clip-path="url(#SVGID_118_)" fill="#61606E" width="68.362" height="51.139"/>
									</g>
								</g>
								<g clip-path="url(#SVGID_34_)">
									<defs>
										<path id="SVGID_119_" d="M228.292,173.379c-1.312-0.604-5.161-2.273-5.161-2.273c-1.787,9.725-8.362,18.418-8.362,18.418
											s-6.772-10.059-7.635-18.418c0,0-4.157,1.812-5.279,2.328c0,0,0.767,29.625,13.142,41.184
											C226.815,203.766,228.292,173.379,228.292,173.379"/>
									</defs>
									<clipPath id="SVGID_120_">
										<use xlink:href="#SVGID_119_"  overflow="visible"/>
									</clipPath>
									<g clip-path="url(#SVGID_120_)">
										<defs>
											<rect id="SVGID_121_" x="120.449" y="42.407" width="151" height="227.999"/>
										</defs>
										<clipPath id="SVGID_122_">
											<use xlink:href="#SVGID_121_"  overflow="visible"/>
										</clipPath>
										<rect x="196.854" y="166.105" clip-path="url(#SVGID_122_)" fill="#FFFFFF" width="36.438" height="53.512"/>
									</g>
								</g>
								<g clip-path="url(#SVGID_34_)">
									<defs>
										<rect id="SVGID_123_" x="120.449" y="42.407" width="151" height="227.999"/>
									</defs>
									<clipPath id="SVGID_124_">
										<use xlink:href="#SVGID_123_"  overflow="visible"/>
									</clipPath>
									
										<path clip-path="url(#SVGID_124_)" fill="none" stroke="#5B656A" stroke-linecap="round" stroke-linejoin="round" stroke-miterlimit="10" d="
										M228.292,173.379c-1.312-0.604-5.161-2.273-5.161-2.273c-1.787,9.725-8.362,18.418-8.362,18.418
										s-6.772-10.059-7.635-18.418c0,0-4.157,1.812-5.279,2.328c0,0,0.767,29.625,13.142,41.184
										C226.815,203.766,228.292,173.379,228.292,173.379z"/>
								</g>
								<g clip-path="url(#SVGID_34_)">
									<defs>
										<path id="SVGID_125_" d="M192.682,199.496c4.991-5.721,4.71-17.246,3.625-24.018c-3.331,1.602-7.951,1.781-13.453,9.311
											c-0.271,0.371-0.611,0.883-1.014,1.504c3.096,2.324,8.906,9.697,10.47,13.549
											C192.435,199.727,192.552,199.607,192.682,199.496"/>
									</defs>
									<clipPath id="SVGID_126_">
										<use xlink:href="#SVGID_125_"  overflow="visible"/>
									</clipPath>
									<g clip-path="url(#SVGID_126_)">
										<defs>
											<rect id="SVGID_127_" x="120.449" y="42.407" width="151" height="227.999"/>
										</defs>
										<clipPath id="SVGID_128_">
											<use xlink:href="#SVGID_127_"  overflow="visible"/>
										</clipPath>
										<rect x="176.84" y="170.479" clip-path="url(#SVGID_128_)" fill="#FFFFFF" width="25.119" height="34.363"/>
									</g>
								</g>
								<g clip-path="url(#SVGID_34_)">
									<defs>
										<rect id="SVGID_129_" x="120.449" y="42.407" width="151" height="227.999"/>
									</defs>
									<clipPath id="SVGID_130_">
										<use xlink:href="#SVGID_129_"  overflow="visible"/>
									</clipPath>
									
										<path clip-path="url(#SVGID_130_)" fill="none" stroke="#5B656A" stroke-linecap="round" stroke-linejoin="round" stroke-miterlimit="10" d="
										M192.682,199.496c4.991-5.721,4.71-17.246,3.625-24.018c-3.331,1.602-7.951,1.781-13.454,9.311
										c-0.271,0.371-0.61,0.883-1.013,1.504c3.096,2.324,8.906,9.697,10.47,13.549
										C192.435,199.727,192.552,199.607,192.682,199.496z"/>
								</g>
								<g clip-path="url(#SVGID_34_)">
									<defs>
										<path id="SVGID_131_" d="M193.19,198.443l-9.902-12.148c0,0-7.485,32.719-15.184,34.078s-20.521-22.119-20.776-25.107
											c-0.021-0.24-0.099-0.383-0.199-0.486c1.692-5.859,2.368-16.715-1.489-18.318c-4.044-1.674-0.733,9.518-3.44,9.33
											c-2.486-1.744-8.757-13.662-12.594-11.914c-3.239,1.477,6.67,10.25,5.811,11.389c-0.814,1.131-9.043-10.197-11.738-7.346
											c-2.07,2.195,4.319,7.061,5.447,8.244c0.787,0.84,3.299,3.523,1.569,3.477c-0.551-0.012-3.106-1.705-4.213-2.436
											c-1.068-0.709-3.806-2.371-4.774-0.566c-1.096,2.062,2.582,4.084,3.084,4.4c2.398,1.51,4.566,3.143,6.672,4.957
											c1.916,1.646,3.629,3.953,5.984,4.949c1.014,0.426,1.997,0.523,2.941,0.416c2.742,6.021,24.391,49.891,39.403,25.25
											C193.657,203.857,193.19,198.443,193.19,198.443"/>
									</defs>
									<clipPath id="SVGID_132_">
										<use xlink:href="#SVGID_131_"  overflow="visible"/>
									</clipPath>
									<g clip-path="url(#SVGID_132_)">
										<defs>
											<rect id="SVGID_133_" x="120.449" y="42.407" width="151" height="227.999"/>
										</defs>
										<clipPath id="SVGID_134_">
											<use xlink:href="#SVGID_133_"  overflow="visible"/>
										</clipPath>
										<rect x="116.504" y="168.703" clip-path="url(#SVGID_134_)" fill="#DFAB7A" width="81.688" height="70.357"/>
									</g>
								</g>
								<g clip-path="url(#SVGID_34_)">
									<defs>
										<rect id="SVGID_135_" x="120.449" y="42.407" width="151" height="227.999"/>
									</defs>
									<clipPath id="SVGID_136_">
										<use xlink:href="#SVGID_135_"  overflow="visible"/>
									</clipPath>
									<path clip-path="url(#SVGID_136_)" fill="none" stroke="#5B656A" stroke-miterlimit="10" d="M193.19,198.443l-9.902-12.148
										c0,0-7.485,32.719-15.184,34.078s-20.521-22.119-20.776-25.107c-0.021-0.24-0.099-0.383-0.199-0.486
										c1.692-5.859,2.368-16.715-1.489-18.318c-4.044-1.674-0.733,9.518-3.44,9.33c-2.486-1.744-8.757-13.662-12.594-11.914
										c-3.239,1.479,6.67,10.25,5.811,11.389c-0.814,1.131-9.043-10.197-11.738-7.346c-2.07,2.195,4.319,7.061,5.447,8.244
										c0.787,0.84,3.299,3.523,1.569,3.477c-0.551-0.012-3.106-1.705-4.213-2.436c-1.068-0.709-3.806-2.371-4.774-0.566
										c-1.096,2.062,2.582,4.084,3.084,4.4c2.398,1.51,4.566,3.143,6.672,4.957c1.916,1.646,3.629,3.953,5.984,4.949
										c1.014,0.426,1.997,0.525,2.941,0.416c2.742,6.021,24.391,49.891,39.403,25.25
										C193.657,203.857,193.19,198.443,193.19,198.443z"/>
								</g>
								<g clip-path="url(#SVGID_34_)">
									<defs>
										<path id="SVGID_137_" d="M234.568,242.883c-1.84-3.566-3.43-6.652-3.91-8.812c-2.492-11.283,1.384-15.938,4.215-20.162
											c0.598-0.895,6.162-7.025,1.704-17.854c-2.994-6.979-3.938-13.723-2.877-21.242c-1.796-0.949-3.946-1.973-6.536-3.158
											c-0.188-0.088-0.405-0.07-0.582,0.041c-0.17,0.109-0.267,0.303-0.267,0.508c0.004,0.23,0.154,16.602-11.317,32.91
											c-11.473-16.309-11.32-32.68-11.32-32.91c0-0.205-0.099-0.398-0.271-0.508c-0.17-0.111-0.386-0.129-0.57-0.041
											c-2.601,1.186-4.747,2.209-6.542,3.158c0.803,6.482,0.119,14.264-2.872,21.242c-4.464,10.828,1.101,16.959,1.699,17.854
											c2.832,4.225,6.71,8.879,4.213,20.162c-0.475,2.16-2.066,5.246-3.911,8.812c-1.89,3.66-4.11,7.977-5.905,12.744
											c3.853,3.998,9.273,8.754,11.975,7.85c9.39-5.746,11.523-9.834,13.444-9.926h0.119c2.724-0.141,8.072,7.168,13.445,9.926
											c2.701,0.904,8.122-3.852,11.979-7.85C238.685,250.859,236.458,246.543,234.568,242.883"/>
									</defs>
									<clipPath id="SVGID_138_">
										<use xlink:href="#SVGID_137_"  overflow="visible"/>
									</clipPath>
									<g clip-path="url(#SVGID_138_)">
										<defs>
											<rect id="SVGID_139_" x="120.449" y="42.407" width="151" height="227.999"/>
										</defs>
										<clipPath id="SVGID_140_">
											<use xlink:href="#SVGID_139_"  overflow="visible"/>
										</clipPath>
										<rect x="184.518" y="166.598" clip-path="url(#SVGID_140_)" fill="#F4933C" width="60.963" height="101.99"/>
									</g>
								</g>
								<g clip-path="url(#SVGID_34_)">
									<defs>
										<rect id="SVGID_141_" x="120.449" y="42.407" width="151" height="227.999"/>
									</defs>
									<clipPath id="SVGID_142_">
										<use xlink:href="#SVGID_141_"  overflow="visible"/>
									</clipPath>
									<path clip-path="url(#SVGID_142_)" fill="none" stroke="#5B656A" stroke-miterlimit="10" d="M234.568,242.883
										c-1.84-3.566-3.43-6.652-3.91-8.812c-2.492-11.283,1.384-15.938,4.215-20.162c0.598-0.895,6.162-7.025,1.704-17.854
										c-2.994-6.979-3.938-13.723-2.877-21.242c-1.796-0.949-3.946-1.973-6.536-3.158c-0.188-0.088-0.405-0.07-0.582,0.041
										c-0.17,0.109-0.267,0.303-0.267,0.508c0.004,0.23,0.154,16.602-11.317,32.91c-11.473-16.309-11.32-32.68-11.32-32.91
										c0-0.205-0.099-0.398-0.271-0.508c-0.17-0.111-0.386-0.129-0.57-0.041c-2.601,1.186-4.747,2.209-6.543,3.158
										c0.804,6.482,0.119,14.264-2.871,21.242c-4.464,10.828,1.101,16.959,1.698,17.854c2.833,4.225,6.711,8.879,4.213,20.162
										c-0.474,2.16-2.066,5.246-3.91,8.812c-1.89,3.66-4.11,7.977-5.905,12.744c3.853,3.998,9.273,8.754,11.975,7.85
										c9.389-5.746,11.523-9.834,13.443-9.926h0.119c2.725-0.141,8.073,7.168,13.446,9.926c2.701,0.904,8.122-3.852,11.979-7.85
										C238.685,250.859,236.458,246.543,234.568,242.883z"/>
								</g>
							</g>
						</g>
					</g>
				</g>
			</g>
		</g>
	</g>
</g>
<g>
	<defs>
		<path id="SVGID_143_" d="M38.973,129.221v36.465c0,2.486,2.018,4.506,4.505,4.506h85.202c2.483,0,4.505-2.02,4.505-4.506v-36.465
			c0-2.484-2.019-4.505-4.505-4.505H43.478C40.994,124.715,38.973,126.735,38.973,129.221z M39.973,129.221
			c0-1.933,1.572-3.505,3.505-3.505h85.202c1.934,0,3.505,1.574,3.505,3.505v36.465c0,1.936-1.573,3.506-3.505,3.506H43.478
			c-1.935,0-3.505-1.572-3.505-3.506V129.221z M18.973,104.715h134.212v85.476H18.973V104.715z"/>
	</defs>
	<clipPath id="SVGID_144_">
		<use xlink:href="#SVGID_143_"  overflow="visible"/>
	</clipPath>
	<g clip-path="url(#SVGID_144_)">
		<defs>
			<path id="SVGID_145_" d="M39.473,129.221c0-2.21,1.799-4.005,4.005-4.005h85.202c2.211,0,4.005,1.799,4.005,4.005v36.465
				c0,2.213-1.8,4.006-4.005,4.006H43.478c-2.212,0-4.005-1.799-4.005-4.006V129.221z"/>
		</defs>
		<clipPath id="SVGID_146_">
			<use xlink:href="#SVGID_145_"  overflow="visible"/>
		</clipPath>
		<g clip-path="url(#SVGID_146_)">
			<defs>
				<rect id="SVGID_147_" x="-874.551" y="-1380.593" width="1440" height="2887"/>
			</defs>
			<clipPath id="SVGID_148_">
				<use xlink:href="#SVGID_147_"  overflow="visible"/>
			</clipPath>
			<path clip-path="url(#SVGID_148_)" fill-rule="evenodd" clip-rule="evenodd" fill="#F6F6F6" d="M39.473,129.221
				c0-2.21,1.799-4.005,4.005-4.005h85.202c2.211,0,4.005,1.799,4.005,4.005v36.465c0,2.213-1.8,4.006-4.005,4.006H43.478
				c-2.212,0-4.005-1.799-4.005-4.006V129.221z"/>
		</g>
	</g>
</g>
<g>
	<defs>
		<path id="SVGID_149_" d="M39.473,129.221c0-2.21,1.799-4.005,4.005-4.005h85.202c2.211,0,4.005,1.799,4.005,4.005v36.465
			c0,2.213-1.8,4.006-4.005,4.006H43.478c-2.212,0-4.005-1.799-4.005-4.006V129.221z"/>
	</defs>
	<clipPath id="SVGID_150_">
		<use xlink:href="#SVGID_149_"  overflow="visible"/>
	</clipPath>
	<g clip-path="url(#SVGID_150_)">
		<defs>
			<rect id="SVGID_151_" x="-874.551" y="-1380.593" width="1440" height="2887"/>
		</defs>
		<clipPath id="SVGID_152_">
			<use xlink:href="#SVGID_151_"  overflow="visible"/>
		</clipPath>
		<path clip-path="url(#SVGID_152_)" fill="none" stroke="#979797" stroke-width="2" stroke-miterlimit="10" d="M39.473,129.221
			c0-2.21,1.799-4.005,4.005-4.005h85.202c2.211,0,4.005,1.799,4.005,4.005v36.465c0,2.213-1.8,4.006-4.005,4.006H43.478
			c-2.212,0-4.005-1.799-4.005-4.006V129.221z"/>
	</g>
</g>
<g>
	<defs>
		<rect id="SVGID_153_" x="-874.551" y="-1380.593" width="1440" height="2887"/>
	</defs>
	<clipPath id="SVGID_154_">
		<use xlink:href="#SVGID_153_"  overflow="visible"/>
	</clipPath>
	<g clip-path="url(#SVGID_154_)">
		<path fill="#363737" d="M59.032,143.107c-0.248-0.322-0.598-0.592-1.051-0.811c-0.453-0.217-0.909-0.324-1.368-0.324
			c-0.273,0-0.546,0.033-0.819,0.102s-0.521,0.174-0.744,0.316s-0.406,0.328-0.549,0.559c-0.143,0.229-0.214,0.506-0.214,0.828
			c0,0.297,0.062,0.551,0.186,0.762s0.294,0.391,0.512,0.541c0.217,0.148,0.48,0.277,0.791,0.391
			c0.31,0.111,0.651,0.223,1.023,0.334c0.421,0.137,0.859,0.291,1.312,0.465s0.868,0.404,1.247,0.689s0.688,0.645,0.93,1.078
			c0.242,0.434,0.363,0.975,0.363,1.619c0,0.707-0.13,1.324-0.391,1.852c-0.26,0.527-0.608,0.965-1.042,1.311
			c-0.434,0.348-0.942,0.607-1.525,0.781s-1.197,0.262-1.842,0.262c-0.856,0-1.693-0.158-2.512-0.475
			c-0.819-0.316-1.489-0.785-2.009-1.404l1.674-1.564c0.322,0.447,0.753,0.801,1.293,1.061c0.54,0.262,1.07,0.391,1.591,0.391
			c0.272,0,0.552-0.033,0.837-0.102c0.285-0.068,0.542-0.184,0.772-0.344c0.229-0.162,0.416-0.363,0.558-0.605
			s0.214-0.541,0.214-0.902c0-0.346-0.081-0.635-0.242-0.865c-0.162-0.229-0.378-0.428-0.651-0.596
			c-0.273-0.166-0.595-0.312-0.967-0.436c-0.372-0.125-0.763-0.254-1.172-0.391c-0.397-0.125-0.794-0.273-1.19-0.447
			c-0.397-0.174-0.754-0.402-1.07-0.689c-0.316-0.285-0.574-0.635-0.772-1.051c-0.198-0.414-0.297-0.934-0.297-1.553
			c0-0.67,0.14-1.246,0.418-1.73c0.279-0.484,0.645-0.885,1.098-1.199c0.453-0.316,0.968-0.553,1.544-0.707
			c0.577-0.156,1.163-0.234,1.758-0.234c0.669,0,1.349,0.119,2.037,0.354c0.688,0.236,1.287,0.59,1.795,1.061L59.032,143.107z"/>
		<path fill="#363737" d="M67.125,140.354h2.028l5.675,13.172h-2.679l-1.228-3.014h-5.712l-1.19,3.014h-2.624L67.125,140.354z
			 M70.103,148.502l-2.028-5.357l-2.065,5.357H70.103z"/>
		<path fill="#363737" d="M73.954,140.354h2.624l3.628,10.141h0.074l3.665-10.141h2.531l-5.284,13.172h-2.028L73.954,140.354z"/>
		<path fill="#363737" d="M87.74,140.354h8.726v2.047h-6.382v3.348h6.047v1.973h-6.047v3.721H96.8v2.084H87.74V140.354z"/>
		<path fill="#363737" d="M98.921,151.479l5.079-4.986c0.41-0.396,0.735-0.795,0.977-1.199c0.242-0.402,0.363-0.865,0.363-1.387
			c0-0.619-0.202-1.113-0.605-1.479c-0.403-0.365-0.902-0.549-1.498-0.549c-0.632,0-1.141,0.215-1.525,0.643
			c-0.385,0.428-0.621,0.965-0.707,1.609l-2.177-0.336c0.062-0.545,0.217-1.047,0.465-1.506s0.564-0.857,0.949-1.191
			c0.385-0.334,0.834-0.598,1.349-0.791c0.515-0.191,1.076-0.289,1.684-0.289c0.57,0,1.119,0.082,1.646,0.242
			c0.527,0.162,0.996,0.406,1.405,0.736c0.41,0.328,0.735,0.73,0.977,1.209c0.242,0.477,0.363,1.031,0.363,1.664
			c0,0.422-0.056,0.816-0.167,1.182c-0.112,0.367-0.264,0.711-0.456,1.033s-0.416,0.629-0.669,0.92
			c-0.254,0.293-0.53,0.574-0.828,0.848l-3.795,3.627h5.935v2.047h-8.763V151.479z"/>
		<path fill="#363737" d="M118.382,142.363h-5.377l-0.13,2.846c0.21-0.062,0.462-0.105,0.753-0.129
			c0.291-0.025,0.555-0.039,0.791-0.039c0.645,0,1.244,0.094,1.795,0.279c0.552,0.188,1.033,0.457,1.442,0.811
			s0.729,0.787,0.958,1.303c0.229,0.514,0.344,1.105,0.344,1.775c0,0.732-0.127,1.387-0.381,1.963
			c-0.254,0.578-0.599,1.064-1.032,1.461c-0.435,0.396-0.943,0.701-1.526,0.912s-1.203,0.316-1.86,0.316
			c-1.104,0-2.035-0.258-2.791-0.773c-0.757-0.514-1.309-1.219-1.656-2.111l2.028-0.744c0.186,0.521,0.496,0.939,0.93,1.256
			s0.949,0.475,1.544,0.475c0.335,0,0.651-0.055,0.949-0.168c0.298-0.111,0.558-0.271,0.782-0.482c0.223-0.211,0.4-0.475,0.53-0.791
			c0.13-0.316,0.195-0.674,0.195-1.07c0-0.508-0.087-0.93-0.261-1.266c-0.174-0.334-0.4-0.604-0.679-0.809
			c-0.279-0.205-0.592-0.348-0.939-0.428s-0.701-0.121-1.061-0.121c-0.248,0-0.511,0.018-0.791,0.057
			c-0.279,0.037-0.552,0.09-0.819,0.156c-0.267,0.068-0.527,0.146-0.781,0.234c-0.254,0.086-0.481,0.18-0.679,0.277l0.224-7.199
			h7.498V142.363z"/>
	</g>
</g>
<g>
	<defs>
		<path id="SVGID_155_" d="M38.973,66.458v36.467c0,2.484,2.018,4.504,4.505,4.504h85.202c2.483,0,4.505-2.018,4.505-4.504V66.458
			c0-2.484-2.019-4.504-4.505-4.504H43.478C40.994,61.953,38.973,63.971,38.973,66.458z M39.973,66.458
			c0-1.934,1.572-3.504,3.505-3.504h85.202c1.934,0,3.505,1.573,3.505,3.504v36.467c0,1.934-1.573,3.504-3.505,3.504H43.478
			c-1.935,0-3.505-1.572-3.505-3.504V66.458z M18.973,41.953h134.212v85.475H18.973V41.953z"/>
	</defs>
	<clipPath id="SVGID_156_">
		<use xlink:href="#SVGID_155_"  overflow="visible"/>
	</clipPath>
	<g clip-path="url(#SVGID_156_)">
		<defs>
			<path id="SVGID_157_" d="M39.473,66.458c0-2.211,1.799-4.004,4.005-4.004h85.202c2.211,0,4.005,1.797,4.005,4.004v36.467
				c0,2.211-1.8,4.004-4.005,4.004H43.478c-2.212,0-4.005-1.797-4.005-4.004V66.458z"/>
		</defs>
		<clipPath id="SVGID_158_">
			<use xlink:href="#SVGID_157_"  overflow="visible"/>
		</clipPath>
		<g clip-path="url(#SVGID_158_)">
			<defs>
				<rect id="SVGID_159_" x="-874.551" y="-1380.593" width="1440" height="2887"/>
			</defs>
			<clipPath id="SVGID_160_">
				<use xlink:href="#SVGID_159_"  overflow="visible"/>
			</clipPath>
			<path clip-path="url(#SVGID_160_)" fill-rule="evenodd" clip-rule="evenodd" fill="#F6F6F6" d="M39.473,66.458
				c0-2.211,1.799-4.004,4.005-4.004h85.202c2.211,0,4.005,1.797,4.005,4.004v36.467c0,2.211-1.8,4.004-4.005,4.004H43.478
				c-2.212,0-4.005-1.797-4.005-4.004V66.458z"/>
		</g>
	</g>
</g>
<g>
	<defs>
		<path id="SVGID_161_" d="M39.473,66.458c0-2.211,1.799-4.004,4.005-4.004h85.202c2.211,0,4.005,1.797,4.005,4.004v36.467
			c0,2.211-1.8,4.004-4.005,4.004H43.478c-2.212,0-4.005-1.797-4.005-4.004V66.458z"/>
	</defs>
	<clipPath id="SVGID_162_">
		<use xlink:href="#SVGID_161_"  overflow="visible"/>
	</clipPath>
	<g clip-path="url(#SVGID_162_)">
		<defs>
			<rect id="SVGID_163_" x="-874.551" y="-1380.593" width="1440" height="2887"/>
		</defs>
		<clipPath id="SVGID_164_">
			<use xlink:href="#SVGID_163_"  overflow="visible"/>
		</clipPath>
		<path clip-path="url(#SVGID_164_)" fill="none" stroke="#979797" stroke-width="2" stroke-miterlimit="10" d="M39.473,66.458
			c0-2.211,1.799-4.004,4.005-4.004h85.202c2.211,0,4.005,1.797,4.005,4.004v36.467c0,2.211-1.8,4.006-4.005,4.006H43.478
			c-2.212,0-4.005-1.799-4.005-4.006V66.458z"/>
	</g>
</g>
<g>
	<defs>
		<rect id="SVGID_165_" x="-874.551" y="-1380.593" width="1440" height="2887"/>
	</defs>
	<clipPath id="SVGID_166_">
		<use xlink:href="#SVGID_165_"  overflow="visible"/>
	</clipPath>
	<g clip-path="url(#SVGID_166_)">
		<path fill="#363737" d="M59.032,80.343c-0.248-0.322-0.598-0.592-1.051-0.81c-0.453-0.217-0.909-0.325-1.368-0.325
			c-0.273,0-0.546,0.034-0.819,0.103s-0.521,0.174-0.744,0.316s-0.406,0.328-0.549,0.558s-0.214,0.506-0.214,0.828
			c0,0.298,0.062,0.552,0.186,0.763s0.294,0.391,0.512,0.54c0.217,0.148,0.48,0.278,0.791,0.391c0.31,0.111,0.651,0.223,1.023,0.335
			c0.421,0.136,0.859,0.291,1.312,0.465s0.868,0.403,1.247,0.688s0.688,0.645,0.93,1.079c0.242,0.434,0.363,0.974,0.363,1.618
			c0,0.707-0.13,1.324-0.391,1.852c-0.26,0.527-0.608,0.965-1.042,1.312c-0.434,0.348-0.942,0.607-1.525,0.781
			s-1.197,0.261-1.842,0.261c-0.856,0-1.693-0.158-2.512-0.475c-0.819-0.316-1.489-0.784-2.009-1.404l1.674-1.563
			c0.322,0.447,0.753,0.801,1.293,1.061c0.54,0.261,1.07,0.391,1.591,0.391c0.272,0,0.552-0.033,0.837-0.102
			c0.285-0.068,0.542-0.184,0.772-0.345s0.416-0.362,0.558-0.604s0.214-0.542,0.214-0.902c0-0.347-0.081-0.636-0.242-0.865
			c-0.162-0.229-0.378-0.428-0.651-0.596c-0.273-0.167-0.595-0.312-0.967-0.437s-0.763-0.254-1.172-0.391
			c-0.397-0.124-0.794-0.273-1.19-0.447c-0.397-0.173-0.754-0.402-1.07-0.688c-0.316-0.285-0.574-0.635-0.772-1.051
			c-0.198-0.415-0.297-0.934-0.297-1.554c0-0.67,0.14-1.246,0.418-1.73c0.279-0.483,0.645-0.884,1.098-1.199
			c0.453-0.316,0.968-0.552,1.544-0.707s1.163-0.233,1.758-0.233c0.669,0,1.349,0.118,2.037,0.354
			c0.688,0.236,1.287,0.59,1.795,1.061L59.032,80.343z"/>
		<path fill="#363737" d="M67.125,77.589h2.028l5.675,13.173h-2.679l-1.228-3.014h-5.712l-1.19,3.014h-2.624L67.125,77.589z
			 M70.103,85.739l-2.028-5.358l-2.065,5.358H70.103z"/>
		<path fill="#363737" d="M73.954,77.589h2.624l3.628,10.141h0.074l3.665-10.141h2.531l-5.284,13.173h-2.028L73.954,77.589z"/>
		<path fill="#363737" d="M87.74,77.589h8.726v2.047h-6.382v3.349h6.047v1.973h-6.047v3.721H96.8v2.084H87.74V77.589z"/>
		<path fill="#363737" d="M102.829,80.306l-2.605,2.14l-1.302-1.544l4.112-3.312h2.028v13.173h-2.232V80.306z"/>
		<path fill="#363737" d="M119.312,84.176c0,1.066-0.102,2.027-0.307,2.884c-0.205,0.855-0.502,1.581-0.893,2.177
			c-0.391,0.595-0.875,1.054-1.451,1.377c-0.577,0.322-1.237,0.483-1.981,0.483c-0.745,0-1.408-0.161-1.991-0.483
			c-0.583-0.323-1.073-0.782-1.47-1.377c-0.397-0.596-0.697-1.321-0.902-2.177c-0.205-0.856-0.307-1.817-0.307-2.884
			s0.102-2.028,0.307-2.884c0.205-0.856,0.505-1.582,0.902-2.177c0.397-0.596,0.887-1.055,1.47-1.377
			c0.583-0.322,1.246-0.484,1.991-0.484c0.744,0,1.404,0.162,1.981,0.484c0.577,0.322,1.061,0.781,1.451,1.377
			c0.391,0.595,0.688,1.32,0.893,2.177C119.21,82.148,119.312,83.11,119.312,84.176z M117.024,84.176
			c0-0.459-0.028-0.979-0.084-1.563c-0.056-0.582-0.167-1.135-0.335-1.655c-0.167-0.521-0.406-0.958-0.716-1.312
			s-0.713-0.53-1.209-0.53c-0.509,0-0.918,0.177-1.228,0.53c-0.31,0.354-0.549,0.79-0.716,1.312
			c-0.167,0.521-0.282,1.073-0.344,1.655c-0.062,0.584-0.093,1.104-0.093,1.563s0.031,0.979,0.093,1.562s0.177,1.129,0.344,1.638
			s0.406,0.939,0.716,1.293c0.31,0.354,0.719,0.53,1.228,0.53c0.496,0,0.899-0.177,1.209-0.53s0.549-0.784,0.716-1.293
			s0.279-1.055,0.335-1.638C116.996,85.156,117.024,84.635,117.024,84.176z"/>
	</g>
	
		<line clip-path="url(#SVGID_166_)" fill="none" stroke="#363737" stroke-width="2" stroke-miterlimit="10" x1="50.865" y1="85.762" x2="119.318" y2="85.762"/>
</g>
<g>
	<defs>
		<path id="SVGID_167_" d="M26.38,141.346c0,0.365-0.128,0.674-0.384,0.93l-9.906,9.895l-1.861,1.859
			c-0.256,0.254-0.565,0.383-0.93,0.383c-0.365,0-0.676-0.129-0.932-0.383l-1.86-1.859l-4.954-4.947
			c-0.255-0.256-0.383-0.564-0.383-0.928c0-0.367,0.128-0.676,0.383-0.93l1.861-1.859c0.256-0.256,0.566-0.383,0.931-0.383
			s0.675,0.127,0.93,0.383l4.024,4.031l8.976-8.979c0.255-0.254,0.565-0.383,0.932-0.383c0.364,0,0.676,0.129,0.931,0.383
			l1.859,1.859C26.252,140.672,26.38,140.982,26.38,141.346"/>
	</defs>
	<clipPath id="SVGID_168_">
		<use xlink:href="#SVGID_167_"  overflow="visible"/>
	</clipPath>
	<g clip-path="url(#SVGID_168_)">
		<defs>
			<rect id="SVGID_169_" x="-874.551" y="-1380.593" width="1440" height="2887"/>
		</defs>
		<clipPath id="SVGID_170_">
			<use xlink:href="#SVGID_169_"  overflow="visible"/>
		</clipPath>
		<rect x="0.17" y="133.176" clip-path="url(#SVGID_170_)" fill="#92CA6E" width="31.21" height="26.236"/>
	</g>
</g>
<g>
	<defs>
		<rect id="SVGID_171_" x="-874.551" y="-1380.593" width="1440" height="2887"/>
	</defs>
	<clipPath id="SVGID_172_">
		<use xlink:href="#SVGID_171_"  overflow="visible"/>
	</clipPath>
	<path clip-path="url(#SVGID_172_)" fill="none" stroke="#3C6E35" stroke-miterlimit="10" d="M26.38,141.346
		c0,0.365-0.128,0.674-0.384,0.93l-9.906,9.895l-1.861,1.859c-0.256,0.254-0.565,0.383-0.93,0.383c-0.365,0-0.676-0.129-0.932-0.383
		l-1.86-1.859l-4.954-4.947c-0.255-0.256-0.383-0.564-0.383-0.928c0-0.367,0.128-0.676,0.383-0.93l1.861-1.859
		c0.256-0.256,0.566-0.383,0.931-0.383s0.675,0.127,0.93,0.383l4.024,4.031l8.976-8.979c0.255-0.254,0.565-0.383,0.932-0.383
		c0.364,0,0.676,0.129,0.931,0.383l1.859,1.859C26.252,140.672,26.38,140.982,26.38,141.346z"/>
	<path clip-path="url(#SVGID_172_)" fill="#F69695" d="M24.128,87.083c0.278,0.277,0.418,0.617,0.418,1.014
		c0,0.398-0.14,0.736-0.418,1.016l-2.03,2.029c-0.279,0.279-0.617,0.418-1.016,0.418c-0.397,0-0.736-0.139-1.015-0.418l-4.388-4.389
		l-4.389,4.389c-0.279,0.279-0.617,0.418-1.016,0.418S9.539,91.42,9.26,91.141L7.23,89.112c-0.279-0.279-0.418-0.617-0.418-1.016
		c0-0.396,0.139-0.736,0.418-1.014l4.389-4.389L7.23,78.305c-0.279-0.279-0.418-0.617-0.418-1.016s0.139-0.736,0.418-1.016
		l2.029-2.029c0.279-0.279,0.617-0.418,1.016-0.418s0.736,0.139,1.016,0.418l4.389,4.389l4.388-4.389
		c0.278-0.279,0.617-0.418,1.015-0.418c0.398,0,0.736,0.139,1.016,0.418l2.03,2.029c0.278,0.279,0.418,0.617,0.418,1.016
		s-0.14,0.736-0.418,1.016l-4.389,4.389L24.128,87.083L24.128,87.083z"/>
	<path clip-path="url(#SVGID_172_)" fill="#F69695" stroke="#461616" stroke-miterlimit="10" d="M24.128,87.083
		c0.278,0.277,0.418,0.617,0.418,1.014c0,0.398-0.14,0.736-0.418,1.016l-2.03,2.029c-0.279,0.279-0.617,0.418-1.016,0.418
		c-0.397,0-0.736-0.139-1.015-0.418l-4.388-4.389l-4.389,4.389c-0.279,0.279-0.617,0.418-1.016,0.418S9.539,91.42,9.26,91.141
		L7.23,89.112c-0.279-0.279-0.418-0.617-0.418-1.016c0-0.396,0.139-0.736,0.418-1.014l4.389-4.389L7.23,78.305
		c-0.279-0.279-0.418-0.617-0.418-1.016s0.139-0.736,0.418-1.016l2.029-2.029c0.279-0.279,0.617-0.418,1.016-0.418
		s0.736,0.139,1.016,0.418l4.389,4.389l4.388-4.389c0.278-0.279,0.617-0.418,1.015-0.418c0.398,0,0.736,0.139,1.016,0.418
		l2.03,2.029c0.278,0.279,0.418,0.617,0.418,1.016s-0.14,0.736-0.418,1.016l-4.389,4.389L24.128,87.083L24.128,87.083z"/>
</g>
</svg>
