<?xml version="1.0" encoding="UTF-8" standalone="no"?>
<svg width="105px" height="22px" viewBox="0 0 105 22" version="1.1" xmlns="http://www.w3.org/2000/svg" xmlns:xlink="http://www.w3.org/1999/xlink">
    <!-- Generator: sketchtool 3.6.1 (26313) - http://www.bohemiancoding.com/sketch -->
    <title>BE68105A-0725-47E2-908D-D6FE1D0A8F75</title>
    <desc>Created with sketchtool.</desc>
    <defs></defs>
    <g id="Page-1" stroke="none" stroke-width="1" fill="none" fill-rule="evenodd">
        <g id="welcome---install---unsupported-browser" transform="translate(-631.000000, -539.000000)" fill="#FFFFFF">
            <g id="social-proof" transform="translate(128.000000, 486.000000)">
                <g id="glamour" transform="translate(503.000000, 53.000000)">
                    <path d="M14.1412432,11.1463146 L7.69227027,11.1463146 L7.69227027,14.6413751 L10.0516216,14.6413751 C10.0516216,15.9516512 9.37021622,18.0193192 7.77075676,18.0193192 C5.56897297,18.0193192 5.38524324,15.369042 5.38524324,11.1177787 C5.38524324,7.27315275 5.67362162,4.15738277 7.66551351,4.15738277 C9.42254054,4.15738277 9.57951351,5.67157208 9.71032432,8.11793603 L14.2720541,8.11793603 C14.2720541,3.5165127 12.2010811,0.313351351 7.56086486,0.313351351 C1.82005405,0.313351351 0.299675676,6.10852894 0.299675676,11.612402 C0.299675676,17.6114928 2.29216216,21.8633506 7.16783784,21.8633506 C8.58356757,21.8633506 10.2085946,21.1933501 11.2574595,19.8539435 L12.0078378,21.4257992 L14.1412432,21.4257992 L14.1412432,11.1463146" id="Fill-2"></path>
                    <path d="M69.1917838,0.27827027 C63.6347027,0.27827027 61.9305946,5.75389189 61.9305946,11.0547027 C61.9305946,16.3555135 63.6347027,21.8311351 69.1917838,21.8311351 C74.7494595,21.8311351 76.4535676,16.3555135 76.4535676,11.0547027 C76.4535676,5.75389189 74.7494595,0.27827027 69.1917838,0.27827027 L69.1917838,0.27827027 Z M69.1917838,17.9864865 C67.0161622,17.9864865 67.0161622,15.1324324 67.0161622,11.0547027 C67.0161622,6.97697297 67.0161622,4.12291892 69.1917838,4.12291892 C71.368,4.12291892 71.368,6.97697297 71.368,11.0547027 C71.368,15.1324324 71.368,17.9864865 69.1917838,17.9864865 L69.1917838,17.9864865 Z" id="Fill-3"></path>
                    <path d="M104.798486,6.55183784 C104.798486,2.47410811 102.07227,0.66772973 98.5332432,0.66772973 L91.5075135,0.66772973 L91.5075135,21.406 L96.2262162,21.406 L96.2262162,12.4353514 L97.7989189,12.4353514 L100.132108,21.406 L104.798486,21.406 L101.678649,11.3282162 C103.513568,10.5707027 104.798486,8.73578378 104.798486,6.55183784 L104.798486,6.55183784 Z M97.1436757,8.95518919 L96.2262162,8.95518919 L96.2262162,4.35302703 L97.0128649,4.35302703 C98.5855676,4.35302703 100.079784,4.52783784 100.079784,6.68324324 C100.079784,8.34335135 98.9262703,8.95518919 97.1436757,8.95518919 L97.1436757,8.95518919 Z" id="Fill-4"></path>
                    <path d="M19.6983243,0.681405405 L14.9796216,0.681405405 L14.9796216,21.4196757 L26.094973,21.4196757 L26.094973,16.7396216 L19.6983243,16.7396216 L19.6983243,0.681405405" id="Fill-5"></path>
                    <path d="M53.5236216,0.684378378 L51.8189189,10.4975676 L50.1154054,0.690324324 L42.3755676,0.690324324 L42.3755676,21.428 L47.126973,21.428 L47.126973,5.58324324 L47.1792973,5.58324324 L50.1415676,21.428 L52.1661622,21.428 L52.1661622,21.4220541 L53.4968649,21.4220541 L56.4591351,5.57789189 L56.5114595,5.57789189 L56.5114595,21.4220541 L61.2634595,21.4220541 L61.2634595,0.684378378 L53.5236216,0.684378378" id="Fill-6"></path>
                    <path d="M85.8564865,0.681405405 L85.8564865,15.0694054 C85.8564865,16.6361622 85.3879459,17.9704324 83.8307027,17.9811351 C82.2734595,17.9704324 81.8049189,16.6361622 81.8049189,15.0694054 L81.8049189,0.681405405 L77.0856216,0.681405405 L77.0856216,14.8363243 C77.0856216,19.2928108 78.9395676,21.8638378 83.2705946,21.8620541 C83.4668108,21.8620541 83.6588649,21.8614595 83.8461622,21.8513514 C84.0346486,21.8614595 84.1708108,21.8513514 84.367027,21.8513514 C88.6397838,21.8513514 90.5751892,19.2928108 90.5751892,14.8363243 L90.5751892,0.681405405 L85.8564865,0.681405405" id="Fill-7"></path>
                    <path d="M37.7835135,0.690324324 L30.6418378,0.690324324 L26.6574595,21.428 L31.4284865,21.428 L32.1622162,17.2337297 L36.2922703,17.2337297 L36.2631351,17.2337297 L36.9968649,21.428 L41.7678919,21.428 L37.7835135,0.690324324 L37.7835135,0.690324324 Z M32.8180541,13.5638919 L34.1713514,5.33113514 L35.6078919,13.5638919 L32.8180541,13.5638919 L32.8180541,13.5638919 Z" id="Fill-8"></path>
                    <path d="M104.087351,0.657027027 C104.429838,0.657027027 104.716432,0.926972973 104.716432,1.28075676 C104.716432,1.64108108 104.429838,1.91102703 104.087351,1.91102703 C103.743676,1.91102703 103.455297,1.64108108 103.455297,1.28075676 C103.455297,0.926972973 103.743676,0.657027027 104.087351,0.657027027 L104.087351,0.657027027 Z M104.087351,1.81886486 C104.377514,1.81886486 104.60227,1.58756757 104.60227,1.28075676 C104.60227,0.980486486 104.377514,0.749189189 104.087351,0.749189189 C103.794216,0.749189189 103.569459,0.980486486 103.569459,1.28075676 C103.569459,1.58756757 103.794216,1.81886486 104.087351,1.81886486 L104.087351,1.81886486 Z M103.842973,0.916864865 L104.126,0.916864865 C104.300216,0.916864865 104.38227,0.985837838 104.38227,1.12675676 C104.38227,1.25875676 104.298432,1.31405405 104.189622,1.32594595 L104.399514,1.64940541 L104.277027,1.64940541 L104.077243,1.33427027 L103.956541,1.33427027 L103.956541,1.64940541 L103.842973,1.64940541 L103.842973,0.916864865 L103.842973,0.916864865 Z M103.956541,1.24210811 L104.075459,1.24210811 C104.176541,1.24210811 104.268703,1.23675676 104.268703,1.12140541 C104.268703,1.02448649 104.184865,1.00902703 104.107568,1.00902703 L103.956541,1.00902703 L103.956541,1.24210811 L103.956541,1.24210811 Z" id="Fill-9"></path>
                </g>
            </g>
        </g>
    </g>
</svg>
