<?xml version="1.0" encoding="UTF-8" standalone="no"?>
<svg width="92px" height="40px" viewBox="0 0 92 40" version="1.1" xmlns="http://www.w3.org/2000/svg" xmlns:xlink="http://www.w3.org/1999/xlink">
    <!-- Generator: sketchtool 3.6.1 (26313) - http://www.bohemiancoding.com/sketch -->
    <title>43F6F3C3-A1B4-418A-ABC7-D9BBDA59A2AD</title>
    <desc>Created with sketchtool.</desc>
    <defs></defs>
    <g id="HoneyGold" stroke="none" stroke-width="1" fill="none" fill-rule="evenodd">
        <g id="fail-with-bonus-available" transform="translate(-294.000000, -31.000000)" fill="#292A2A">
            <g id="unlock" transform="translate(-153.000000, -60.000000)">
                <g id="modal-header" transform="translate(176.000000, 85.000000)">
                    <path d="M353.360128,39.8606303 C353.32155,40.9502337 353.087513,42.3981804 352.34768,43.2614618 C351.329231,44.4487951 349.258899,44.2670517 348.927988,42.5336307 C348.765962,41.6840658 348.993142,40.6527574 349.36263,39.9257836 C350.187333,38.3483877 351.685859,37.0444641 353.385847,36.6029647 C353.379846,37.5896945 353.392705,38.8747578 353.360128,39.8606303 M280.682466,12.1456116 C280.721043,11.0542936 280.955081,9.60806154 281.694914,8.74478016 C282.713363,7.55658949 284.783695,7.73919022 285.114606,9.47261123 C285.276632,10.3161752 285.049452,11.3534845 284.679107,12.0744573 C283.855261,13.6578543 282.355877,14.9549195 280.65589,15.3964189 C280.662748,14.4105465 280.649889,13.1323414 280.682466,12.1456116 M305.736486,26.720236 C305.652473,28.7639926 304.107653,31.3992726 301.869294,31.3795551 C298.605628,31.3538367 297.51431,26.7065195 298.092117,24.0335192 C299.831539,26.4210452 302.894602,27.1351598 305.736486,26.720236 M305.652473,23.8774942 C305.340423,22.2358021 304.724895,20.9507388 303.23237,20.0883147 C300.636525,18.5829303 299.273449,21.3596616 301.24005,22.8847634 C302.400808,23.7866224 304.003922,24.1046735 305.652473,23.8774942 M345.508297,41.3985914 C345.955797,47.8744877 357.175883,47.8290518 357.124446,39.2502467 C357.117588,38.5687087 357.117588,37.2656425 357.124446,36.5841046 C358.713844,36.8241431 359.992049,39.1602322 360.589574,40.5558847 C360.666729,40.7427719 360.86819,40.8405018 361.062793,40.7882077 C363.302009,40.2043998 363.626061,37.8545941 362.113818,36.2591953 C360.875048,34.9484135 358.88873,34.4494763 357.150165,34.3577473 C357.163024,29.2114929 357.163024,24.1046735 357.150165,18.9592764 C357.150165,17.6870722 353.509295,17.615918 353.392705,18.9009813 C353.33441,22.3463913 352.562,28.0567362 349.732975,30.4708379 C349.129449,30.9894925 348.584219,31.0289274 348.195014,30.743453 C347.68236,30.3602487 347.786091,29.2440696 347.773232,28.6019666 C347.773232,25.4223135 347.779233,22.1457877 347.773232,18.9652773 C347.766373,17.6939305 344.113501,17.6090597 343.996911,18.8949803 C343.996911,21.8208784 344.002912,24.6567621 344.009771,27.5509408 C341.504797,31.4772851 335.560415,33.5536183 333.730978,28.7314159 C337.339272,30.00362 340.739246,27.0511463 341.14131,23.4694287 C341.264759,19.6210969 338.662055,17.5447637 335.807311,17.5379054 C331.706082,17.518188 329.311698,21.3596616 329.136813,25.3897368 C329.071659,26.882262 329.311698,28.4082212 329.889505,29.7695825 C329.104236,30.5557086 328.182659,31.1206564 327.267941,31.0812215 C326.086609,31.0289274 326.210057,29.5749798 326.203199,28.7374169 C326.203199,26.888263 326.196341,25.020249 326.203199,23.1702378 C326.210057,22.5152756 326.210057,21.8465968 326.144904,21.1847763 C325.950301,19.2584672 324.477493,17.7127906 322.40116,17.5841986 C319.467547,17.5447637 317.397214,20.2829173 316.365906,23.2739687 C316.365906,21.6005574 316.371907,20.6266868 316.365906,18.9524181 C316.365906,17.7127906 313.075664,17.6030587 312.608446,18.8752629 C312.148086,20.1328933 310.544972,22.0283403 308.883563,22.7801752 C307.884831,19.7368297 305.483588,17.2910087 301.876152,17.2781495 C295.68573,17.2455728 292.804411,24.0660958 294.607272,29.2895055 C293.738847,30.3216711 292.628669,31.1266574 291.551067,31.0812215 C290.370592,31.0289274 290.487182,29.5749798 290.487182,28.7374169 C290.487182,26.888263 290.480324,25.0399664 290.487182,23.1899553 C290.493183,22.5281348 290.493183,21.8603133 290.422029,21.2044938 C290.234284,19.2773274 289.098388,17.7127906 286.944042,17.5841986 C283.226017,17.4273163 281.746351,21.0167494 280.649889,23.9752241 C280.643888,21.8663143 280.649889,19.7634054 280.649889,17.6544956 C283.906698,17.1487001 288.410849,15.3184064 288.547156,11.1854575 C288.767477,4.15747262 276.866711,3.89085841 276.919005,12.749137 C276.925006,13.4375332 276.925006,14.7345985 276.919005,15.4221374 C275.32875,15.1760979 274.050545,12.8391514 273.45302,11.4452135 C273.375008,11.26347 273.174404,11.1648828 272.979801,11.2103186 C270.740585,11.7949839 270.416533,14.1439323 271.927918,15.7470466 C273.168403,17.0569711 275.153007,17.5567656 276.892429,17.6544956 C276.87957,22.7741743 276.885571,27.8689918 276.885571,32.9886705 C276.950724,33.708786 277.943455,33.904246 278.514404,33.9231061 C279.170223,33.9368226 280.396991,33.7345044 280.448428,32.8977987 C280.675608,30.3928254 282.797377,20.8924437 285.705272,20.8864428 C286.379952,20.8864428 286.716863,21.3348004 286.716863,21.9897627 C286.716863,24.696197 286.710862,27.401774 286.716863,30.107351 C286.716863,32.6183253 288.138234,34.3063105 290.714361,34.3123114 C292.71954,34.3123114 294.503541,32.8780813 295.587143,31.0743633 C296.976795,33.0203898 299.175719,34.3388871 301.862436,34.3517463 C306.852665,34.2737338 309.721126,30.2753779 309.397074,25.5131852 C310.616984,24.8445065 311.732305,24.0198027 312.575869,22.9370575 C312.575869,26.2915958 312.569011,29.6401331 312.569011,32.9886705 C312.635022,33.708786 313.66633,33.904246 314.237279,33.9231061 C314.847662,33.9368226 316.158444,33.7413627 316.164445,32.910658 C316.489354,29.8218766 317.825855,20.8735836 321.42729,20.8675826 C322.095968,20.8675826 322.439738,21.315083 322.439738,21.9700452 C322.439738,24.6756222 322.43288,27.401774 322.43288,30.107351 C322.43288,32.6183253 323.854251,34.3063105 326.430378,34.3123114 C328.240954,34.3123114 329.862929,33.1515537 330.960248,31.5998762 C332.28989,33.3007205 334.366223,34.4494763 337.273261,34.4494763 C340.388618,34.4494763 342.646695,33.0795422 344.164938,30.8540422 C344.502707,32.7683494 345.515155,34.3003095 348.01327,34.3003095 C350.829436,34.2934513 352.562,30.7177346 353.392705,28.5436715 L353.392705,34.3517463 C349.732975,34.9801329 345.203105,37.0058865 345.508297,41.3985914 M333.341773,27.5638 C335.307517,27.0571472 337.040081,24.8256463 337.345273,22.7484558 C337.59817,20.9961747 336.845478,19.9451489 335.891325,19.893712 C334.768288,19.835417 333.380351,21.1264813 333.0623,23.8389165 C332.887414,25.3117243 333.029723,26.8171087 333.341773,27.5638" id="logo-black"></path>
                </g>
            </g>
        </g>
    </g>
</svg>
