<?xml version="1.0" encoding="UTF-8" standalone="no"?>
<svg width="96px" height="38px" viewBox="0 0 96 38" version="1.1" xmlns="http://www.w3.org/2000/svg" xmlns:xlink="http://www.w3.org/1999/xlink">
    <!-- Generator: Sketch 3.7.1 (28215) - http://www.bohemiancoding.com/sketch -->
    <title>huffpo</title>
    <desc>Created with Sketch.</desc>
    <defs></defs>
    <g id="Page-1" stroke="none" stroke-width="1" fill="none" fill-rule="evenodd">
        <g id="welcome---install---unsupported-browser" transform="translate(-774.000000, -529.000000)" stroke="#FFFFFF" fill="#FFFFFF">
            <g id="social-proof" transform="translate(128.000000, 486.000000)">
                <g id="huffpo" transform="translate(647.000000, 44.000000)">
                    <g id="layer1" transform="translate(0.089053, 0.074637)">
                        <g id="g3909" transform="translate(0.222643, 0.132819)">
                            <path d="M37.1319707,7.08332258 C37.1319707,8.43287222 37.1575473,8.62622493 37.9064825,8.69024036 L38.3196429,8.72943347 C38.3963727,8.78103774 38.3714519,9.01227713 38.2934105,9.05016381 C37.5582473,9.02468829 37.1188545,9.01227713 36.6020761,9.01227713 C36.0852977,9.01227713 35.6341003,9.0253415 34.8077795,9.05016381 C34.7303939,9.01227713 34.7041615,8.79279568 34.8077795,8.72943347 L35.2727489,8.69024036 C36.0092237,8.62622493 36.0734931,8.43287222 36.0734931,7.08332258 L36.0734931,1.33565202 C36.0734931,0.937188669 36.0734931,0.924124296 35.6859093,0.924124296 L34.9756669,0.924124296 C34.4208515,0.924124296 33.7106091,0.949599822 33.3879506,1.24550785 C33.0777524,1.52835151 32.9492136,1.81054195 32.8075586,2.13257873 C32.7045964,2.21031174 32.522937,2.1456431 32.4717838,2.04243456 C32.678364,1.46433609 32.871828,0.641280638 32.9629856,0.127197592 C33.0016784,0.101068847 33.16891,0.0893109122 33.2082586,0.127197592 C33.2849884,0.538725316 33.711265,0.525660944 34.305429,0.525660944 L39.5335475,0.525660944 C40.2300178,0.525660944 40.3467521,0.4995322 40.5402161,0.16573749 C40.6051413,0.139608745 40.7467962,0.152673117 40.7730287,0.204277388 C40.6307179,0.731424806 40.5402161,1.77265527 40.5789088,2.15870747 C40.5277557,2.26126279 40.3080593,2.26126279 40.2437899,2.184183 C40.2050971,1.86345266 40.1152511,1.38725629 39.9211313,1.24616107 C39.6240493,1.02733284 39.1341591,0.924777515 38.4245725,0.924777515 L37.5077499,0.924777515 C37.1201661,0.924777515 37.1332823,0.937841887 37.1332823,1.36178077 L37.1332823,7.08332258 L37.1319707,7.08332258 L37.1319707,7.08332258 Z" id="path3321"></path>
                            <path d="M45.3735369,4.85911321 C44.7537963,4.85911321 44.7275639,4.88524195 44.7275639,5.27064093 L44.7275639,7.08332258 C44.7275639,8.43352544 44.7924891,8.61381378 45.5151918,8.69089358 L45.8896594,8.72943347 C45.9663892,8.78103774 45.9414684,9.01227713 45.863427,9.05081703 C45.1669567,9.02468829 44.726908,9.01162391 44.2239017,9.01162391 C43.6690863,9.01162391 43.2303493,9.03775266 42.7273429,9.05081703 C42.6493015,9.01162391 42.6237249,8.80651327 42.7011105,8.72943347 L42.9208069,8.69089358 C43.6441655,8.56220951 43.6690863,8.43352544 43.6690863,7.08332258 L43.6690863,2.4546155 C43.6690863,1.10506585 43.5792403,0.886237617 42.9076907,0.834633347 L42.5725717,0.809157821 C42.4945303,0.758206769 42.5207627,0.526314163 42.5981483,0.487774265 C43.2310051,0.500838637 43.6697421,0.526314163 44.2245575,0.526314163 C44.7275639,0.526314163 45.1676125,0.51324979 45.7224279,0.487774265 C45.8004693,0.526314163 45.8260459,0.758206769 45.7486603,0.809157821 L45.5027315,0.834633347 C44.7544521,0.912366361 44.7282197,1.10506585 44.7282197,2.4546155 L44.7282197,3.93350244 C44.7282197,4.33196579 44.7544521,4.34503016 45.3741927,4.34503016 L49.0664038,4.34503016 C49.6854886,4.34503016 49.711721,4.33196579 49.711721,3.93350244 L49.711721,2.4546155 C49.711721,1.10506585 49.6854886,0.912366361 48.924093,0.834633347 L48.67882,0.809157821 C48.6020902,0.758206769 48.627011,0.526314163 48.7050524,0.487774265 C49.2985606,0.51324979 49.7379534,0.526314163 50.2665364,0.526314163 C50.7695428,0.526314163 51.2089356,0.51324979 51.7893276,0.487774265 C51.867369,0.526314163 51.8929456,0.758206769 51.81556,0.809157821 L51.5440546,0.834633347 C50.7951194,0.912366361 50.768887,1.10506585 50.768887,2.4546155 L50.768887,7.08332258 C50.768887,8.43352544 50.7951194,8.60009619 51.5440546,8.69089358 L51.8542528,8.72943347 C51.9322942,8.78103774 51.905406,9.01227713 51.8286762,9.05081703 C51.2089356,9.02468829 50.7695428,9.01162391 50.2665364,9.01162391 C49.7379534,9.01162391 49.272984,9.02468829 48.7050524,9.05081703 C48.627011,9.01162391 48.6020902,8.80651327 48.67882,8.72943347 L48.924093,8.69089358 C49.711721,8.56220951 49.711721,8.43352544 49.711721,7.08332258 L49.711721,5.27064093 C49.711721,4.88524195 49.6854886,4.85911321 49.0664038,4.85911321 L45.3735369,4.85911321 L45.3735369,4.85911321 L45.3735369,4.85911321 Z" id="path3325"></path>
                            <path d="M55.0880526,2.4546155 C55.0880526,1.11682379 55.0618202,0.924124296 54.3004246,0.834633347 L54.0931886,0.808504602 C54.0164588,0.757553551 54.0426912,0.525660944 54.119421,0.487774265 C54.6742364,0.51324979 55.1129734,0.526314163 55.642868,0.526314163 L58.0700214,0.526314163 C58.8956863,0.526314163 59.6577377,0.526314163 59.8125089,0.487774265 C59.8892387,0.705949281 59.9672801,1.63156005 60.0184333,2.19724737 C59.9672801,2.27498038 59.7613557,2.30045591 59.6957747,2.22337611 C59.5023107,1.61849568 59.3862323,1.16842806 58.7146827,1.00120409 C58.4431773,0.937841887 58.0300169,0.924777515 57.4627412,0.924777515 L56.5334582,0.924777515 C56.1458744,0.924777515 56.1458744,0.950253041 56.1458744,1.43886056 L56.1458744,4.00992901 C56.1458744,4.36985247 56.185223,4.36985247 56.572151,4.36985247 L57.3204304,4.36985247 C57.8627854,4.36985247 58.2628295,4.34437694 58.4182566,4.29342589 C58.5730277,4.24182162 58.6635295,4.1640886 58.7284548,3.84335827 L58.8320728,3.31555763 C58.8956863,3.23913105 59.1153827,3.23913105 59.1671917,3.328622 C59.1671917,3.63694119 59.1160386,4.13861308 59.1160386,4.62656738 C59.1160386,5.08969938 59.1671917,5.5783069 59.1671917,5.86115055 C59.1160386,5.95129472 58.8963422,5.95129472 58.8320728,5.87421493 L58.7153386,5.37319625 C58.6635295,5.14130365 58.5736836,4.94860416 58.3152944,4.88393551 C58.1342908,4.83233124 57.8247484,4.81926687 57.3210862,4.81926687 L56.5728068,4.81926687 C56.1858788,4.81926687 56.1465302,4.83233124 56.1465302,5.16677917 L56.1465302,6.97946082 C56.1465302,7.66142105 56.1858788,8.0984243 56.392459,8.31659931 C56.5465744,8.4707589 56.8180798,8.61250734 57.9545988,8.61250734 C58.9481512,8.61250734 59.3226188,8.56155629 59.6072404,8.41980785 C59.8393971,8.29047057 60.1876323,7.84105616 60.5240629,7.17216031 C60.6139089,7.1087981 60.7955683,7.14668478 60.8467215,7.26230447 C60.7562197,7.71302532 60.4329053,8.70265151 60.2650179,9.04951059 C59.1035782,9.02403507 57.9552546,9.01097069 56.8056194,9.01097069 L55.6441796,9.01097069 C55.0893642,9.01097069 54.6506272,9.02403507 53.8885758,9.04951059 C53.8111902,9.01097069 53.784302,8.80520683 53.8623434,8.72878025 L54.28862,8.68958714 C55.0237832,8.62622493 55.0887084,8.43221901 55.0887084,7.08266936 L55.0887084,2.4546155 L55.0880526,2.4546155 L55.0880526,2.4546155 Z" id="path3329"></path>
                            <path d="M2.84818348,18.3624483 C2.22844289,18.3624483 2.20286629,18.3879238 2.20286629,18.773976 L2.20286629,20.5866577 C2.20286629,21.9368606 2.26647988,22.1164957 2.98983847,22.1942287 L3.36430607,22.2321154 C3.44103586,22.2837196 3.41611507,22.514959 3.33807366,22.5541521 C2.64160328,22.5280234 2.20286629,22.514959 1.69854829,22.514959 C1.1437329,22.514959 0.704995911,22.5410878 0.201989526,22.5541521 C0.123948118,22.514959 0.0983715225,22.3098484 0.17575712,22.2321154 L0.395453521,22.1942287 C1.11881212,22.0648914 1.1437329,21.9368606 1.1437329,20.5866577 L1.1437329,15.9579506 C1.1437329,14.608401 1.05388691,14.3895727 0.382337318,14.3379685 L0.0472183308,14.3124929 C-0.0308230771,14.2608887 -0.00459067105,14.0289961 0.0727949267,13.9911094 C0.705651722,14.0041738 1.14438871,14.0289961 1.6992041,14.0289961 C2.2035221,14.0289961 2.64225909,14.0159317 3.19707448,13.9911094 C3.27511589,14.0289961 3.30069249,14.2615419 3.22330689,14.3124929 L2.97737808,14.3379685 C2.2290987,14.4157015 2.2035221,14.608401 2.2035221,15.9579506 L2.2035221,17.4368376 C2.2035221,17.8353009 2.2290987,17.8483653 2.84883929,17.8483653 L6.54105044,17.8483653 C7.16013522,17.8483653 7.18636763,17.8353009 7.18636763,17.4368376 L7.18636763,15.9579506 C7.18636763,14.608401 7.16013522,14.4157015 6.39939545,14.3379685 L6.15346664,14.3124929 C6.07673685,14.2608887 6.10165764,14.0289961 6.17969904,13.9911094 C6.77320723,14.0165849 7.21260003,14.0289961 7.74118301,14.0289961 C8.24484521,14.0289961 8.68423801,14.0159317 9.26462999,13.9911094 C9.3426714,14.0289961 9.36824799,14.2615419 9.2908624,14.3124929 L9.01935699,14.3379685 C8.27107761,14.4157015 8.24484521,14.608401 8.24484521,15.9579506 L8.24484521,20.5866577 C8.24484521,21.9368606 8.27107761,22.1040845 9.01935699,22.1942287 L9.32889939,22.2321154 C9.40694079,22.2837196 9.38070839,22.514959 9.30332279,22.5541521 C8.6835822,22.5280234 8.2441894,22.514959 7.7405272,22.514959 C7.21194422,22.514959 6.74697482,22.5280234 6.17904323,22.5541521 C6.10100183,22.514959 6.07542523,22.3098484 6.15281083,22.2321154 L6.39873963,22.1942287 C7.18571182,22.0648914 7.18571182,21.9368606 7.18571182,20.5866577 L7.18571182,18.773976 C7.18571182,18.3879238 7.15947941,18.3624483 6.54039463,18.3624483 L2.84818348,18.3624483 L2.84818348,18.3624483 Z" id="path3333"></path>
                            <path d="M18.6866544,17.2565492 C18.6866544,16.4596225 18.660422,14.9807356 18.4413814,14.5946834 C18.3508796,14.4405238 18.118067,14.3503796 17.7960642,14.3249041 L17.4734056,14.2987753 C17.3953642,14.2086312 17.4215966,14.0414072 17.4989822,13.9904562 C17.990184,14.0165849 18.466958,14.0296493 18.9706202,14.0296493 C19.513631,14.0296493 19.8618662,14.0165849 20.3261798,13.9904562 C20.4297978,14.0544716 20.4166816,14.2223488 20.3517564,14.2987753 L20.042214,14.3249041 C19.7202112,14.3503796 19.4749382,14.4659993 19.3968968,14.6338765 C19.216549,15.0578154 19.216549,16.5360491 19.216549,17.2565492 L19.216549,18.7099606 C19.216549,19.8289241 19.0355454,21.0112498 18.3121868,21.782701 C17.7573714,22.3869282 16.8025119,22.7213761 15.8469965,22.7213761 C14.9557505,22.7213761 14.0658161,22.5541521 13.4329593,22.0139404 C12.7482935,21.448253 12.4262907,20.5089247 12.4262907,18.9790867 L12.4262907,15.9448862 C12.4262907,14.6077477 12.4000583,14.3895727 11.6517789,14.3249041 L11.3291203,14.2987753 C11.2510789,14.2471711 11.2773113,14.0289961 11.3553527,13.9904562 C12.0006699,14.0165849 12.4394069,14.0296493 12.9555295,14.0296493 C13.4854241,14.0296493 13.9117007,14.0165849 14.5432459,13.9904562 C14.6212873,14.0296493 14.6462081,14.2478243 14.5694783,14.2987753 L14.2599359,14.3249041 C13.5110007,14.3895727 13.4854241,14.6077477 13.4854241,15.9448862 L13.4854241,18.7217186 C13.4854241,20.7924216 14.1307413,22.1550356 16.1060415,22.1550356 C17.9777236,22.1550356 18.6873102,20.689213 18.6873102,18.7347829 L18.6873102,17.2565492 L18.6866544,17.2565492 L18.6866544,17.2565492 Z" id="path3337"></path>
                            <path d="M24.318752,17.6550126 C24.318752,18.0018716 24.3574448,18.0018716 24.7450286,18.0018716 L25.6231584,18.0018716 C26.1517414,18.0018716 26.5649018,17.9763961 26.7196729,17.9254451 C26.8613279,17.8738408 26.9649459,17.8091722 27.0423315,17.4747242 L27.1590657,16.9606412 C27.2226793,16.8835614 27.4430315,16.8835614 27.4941847,16.9606412 C27.4941847,17.2689604 27.4423757,17.7836966 27.4423757,18.2592398 C27.4423757,18.7223718 27.4941847,19.2103261 27.4941847,19.5068873 C27.4423757,19.5833139 27.2489117,19.5833139 27.1590657,19.5068873 L27.0292153,19.0045622 C26.9642901,18.7733228 26.8613279,18.5930345 26.6160549,18.5166079 C26.4357072,18.4650036 26.1130486,18.4519393 25.6225026,18.4519393 L24.7443728,18.4519393 C24.356789,18.4519393 24.3180962,18.4650036 24.3180962,18.7994516 L24.3180962,20.5860045 C24.3180962,21.9368606 24.3443286,22.1289068 25.1057242,22.1935755 L25.5444612,22.2321154 C25.6225026,22.2830664 25.5962702,22.5143058 25.5188846,22.5534989 C24.7561774,22.5273702 24.3180962,22.5143058 23.8013178,22.5143058 C23.2333862,22.5143058 22.7946492,22.5273702 22.1880248,22.5534989 C22.1099834,22.5143058 22.0844068,22.3091952 22.1617924,22.2321154 L22.484451,22.1935755 C23.2327304,22.1027781 23.2589628,21.9362073 23.2589628,20.5860045 L23.2589628,15.9572974 C23.2589628,14.6077477 23.2327304,14.4268062 22.484451,14.3373152 L22.2778708,14.3118397 C22.201141,14.2602354 22.2260618,14.0283428 22.3034474,13.9904562 C22.8464582,14.0159317 23.2845394,14.0283428 23.8013178,14.0283428 L26.1766621,14.0283428 C27.0029829,14.0283428 27.7512623,14.0283428 27.9198055,13.9904562 C27.9198055,14.581619 27.9322659,15.1989106 27.9584983,15.6881713 C27.9198055,15.7645979 27.7388019,15.8031378 27.6489559,15.726058 C27.5453379,15.1473063 27.3905667,14.6717632 26.7452495,14.5045392 C26.4606279,14.4268062 26.0350072,14.4268062 25.4926522,14.4268062 L24.70568,14.4268062 C24.3180962,14.4268062 24.3180962,14.4529349 24.3180962,14.9415425 L24.3180962,17.6550126 L24.318752,17.6550126 Z" id="path3341"></path>
                            <path d="M32.0750186,17.6550126 C32.0750186,18.0018716 32.1137114,18.0018716 32.5012952,18.0018716 L33.379425,18.0018716 C33.908008,18.0018716 34.3211684,17.9763961 34.4765954,17.9254451 C34.6182504,17.8738408 34.7218684,17.8091722 34.7999098,17.4747242 L34.9159882,16.9606412 C34.9796018,16.8835614 35.199954,16.8835614 35.2511072,16.9606412 C35.2511072,17.2689604 35.1992982,17.7836966 35.1992982,18.2592398 C35.1992982,18.7223718 35.2511072,19.2103261 35.2511072,19.5068873 C35.1992982,19.5833139 35.0058342,19.5833139 34.9159882,19.5068873 L34.7861378,19.0045622 C34.7212126,18.7733228 34.6182504,18.5930345 34.3729774,18.5166079 C34.1926296,18.4650036 33.869971,18.4519393 33.379425,18.4519393 L32.5012952,18.4519393 C32.1137114,18.4519393 32.0750186,18.4650036 32.0750186,18.7994516 L32.0750186,20.5860045 C32.0750186,21.9368606 32.101251,22.1289068 32.8626466,22.1935755 L33.3013836,22.2321154 C33.379425,22.2830664 33.3531926,22.5143058 33.275807,22.5534989 C32.5130998,22.5273702 32.0750186,22.5143058 31.5582402,22.5143058 C30.9903086,22.5143058 30.5515717,22.5273702 29.9449473,22.5534989 C29.8669059,22.5143058 29.8413293,22.3091952 29.9187149,22.2321154 L30.2420293,22.1935755 C30.9903086,22.1027781 31.0165411,21.9362073 31.0165411,20.5860045 L31.0165411,15.9572974 C31.0165411,14.6077477 30.9903086,14.4268062 30.2420293,14.3373152 L30.0354491,14.3118397 C29.9580635,14.2602354 29.9836401,14.0283428 30.0610257,13.9904562 C30.6040365,14.0159317 31.0421176,14.0283428 31.558896,14.0283428 L33.9348962,14.0283428 C34.761217,14.0283428 35.5094964,14.0283428 35.6773838,13.9904562 C35.6773838,14.581619 35.6898442,15.1989106 35.7160766,15.6881713 C35.6773838,15.7645979 35.4963802,15.8031378 35.4058784,15.726058 C35.3022604,15.1473063 35.1474892,14.6717632 34.502172,14.5045392 C34.2175504,14.4268062 33.7912738,14.4268062 33.2495746,14.4268062 L32.4619466,14.4268062 C32.0750186,14.4268062 32.0750186,14.4529349 32.0750186,14.9415425 L32.0750186,17.6550126 L32.0750186,17.6550126 L32.0750186,17.6550126 Z" id="path3345"></path>
                            <path d="M38.8403561,15.9834261 C38.8403561,14.6208121 38.8141237,14.4019839 38.0527282,14.3373152 L37.7300696,14.3118397 C37.6520281,14.2608887 37.6789164,14.0289961 37.7556462,13.9904562 C38.4016192,14.0165849 38.8403561,14.0289961 39.3820553,14.0289961 C39.8981779,14.0289961 40.3375707,14.0165849 40.9828879,13.9904562 C41.0609293,14.0289961 41.0858501,14.2608887 41.0084645,14.3118397 L40.6864617,14.3373152 C39.9250661,14.4013307 39.8988337,14.6208121 39.8988337,15.9834261 L39.8988337,20.5611822 C39.8988337,21.9237962 39.9250661,22.1040845 40.6864617,22.1942287 L41.0084645,22.2321154 C41.0865059,22.2837196 41.0609293,22.5156122 40.9828879,22.5534989 C40.3375707,22.5273702 39.8981779,22.5156122 39.3820553,22.5156122 C38.8403561,22.5156122 38.4016192,22.5280234 37.7556462,22.5534989 C37.6789164,22.5156122 37.652684,22.3091952 37.7300696,22.2321154 L38.0527282,22.1942287 C38.8141237,22.1034313 38.8403561,21.9237962 38.8403561,20.5611822 L38.8403561,15.9834261 L38.8403561,15.9834261 Z" id="path3349"></path>
                            <path d="M51.2095914,20.3299428 C51.2095914,20.715995 51.2095914,22.2451797 51.2482842,22.5802809 C51.2227076,22.6567075 51.1446662,22.7213761 51.0030112,22.7213761 C50.84824,22.5025479 50.4731166,22.0524803 49.3503696,20.7800104 L46.3559405,17.3858865 C46.0077053,16.9874231 45.1295755,15.9324751 44.8580701,15.6496314 L44.8324935,15.6496314 C44.7806845,15.803791 44.7675683,16.0996991 44.7675683,16.4857513 L44.7675683,19.2887123 C44.7675683,19.8929395 44.7806845,21.564526 44.9997251,21.9499249 C45.0777665,22.0923266 45.3354999,22.1687532 45.6588143,22.1942287 L46.0588585,22.2334218 C46.1355883,22.3366303 46.1237837,22.4907899 46.0326261,22.5548054 C45.4522341,22.5293298 44.9997251,22.5162655 44.5222953,22.5162655 C43.9792845,22.5162655 43.6310493,22.5293298 43.1791961,22.5548054 C43.0893501,22.4914432 43.0755781,22.3105016 43.1536195,22.2334218 L43.5018547,22.1942287 C43.7989367,22.1556888 44.0048611,22.0792622 44.0697863,21.9368606 C44.2501341,21.475035 44.2370179,19.9060039 44.2370179,19.2887123 L44.2370179,15.5718984 C44.2370179,15.2126282 44.2239017,14.9421957 43.9537079,14.6462876 C43.7727043,14.4659993 43.4631619,14.3758551 43.1536195,14.3379685 L42.9339231,14.3118397 C42.8558817,14.2354131 42.8558817,14.0420604 42.9594997,13.9911094 C43.5025105,14.0296493 44.1858647,14.0296493 44.4186773,14.0296493 C44.6252575,14.0296493 44.8449539,14.0165849 45.0121855,13.9911094 C45.2705747,14.6462876 46.7933658,16.3440028 47.2196424,16.819546 L48.471584,18.2213531 C49.36283,19.2109793 49.9956868,19.9308262 50.6023112,20.5481178 L50.6278878,20.5481178 C50.679041,20.4841024 50.679041,20.2776853 50.679041,20.0072528 L50.679041,17.255896 C50.679041,16.6516688 50.6659248,14.9800824 50.4206518,14.5946834 C50.343922,14.4790637 50.1373418,14.4019839 49.6205634,14.3373152 L49.400867,14.3111865 C49.311021,14.2347599 49.3241372,14.0283428 49.4270994,13.9904562 C50.0206076,14.0159317 50.4600004,14.0289961 50.9505464,14.0289961 C51.5060176,14.0289961 51.8417924,14.0159317 52.2805294,13.9904562 C52.3834916,14.0538184 52.3834916,14.2347599 52.3067618,14.3111865 L52.1257582,14.3373152 C51.7125978,14.4019839 51.4542086,14.503886 51.4023996,14.6077477 C51.1827032,15.0695733 51.2089356,16.6647332 51.2089356,17.255896 L51.2089356,20.3299428 L51.2095914,20.3299428 Z" id="path3353"></path>
                            <path d="M61.6815679,21.2039493 C61.6815679,21.7180323 61.7596093,22.0270047 61.9911103,22.1171489 C62.0291472,22.1550356 62.0291472,22.2327686 61.977994,22.2713085 C61.8232229,22.2713085 61.5917219,22.3222595 61.3457931,22.386275 C60.6624389,22.5672165 59.7325001,22.7213761 59.0347181,22.7213761 C57.4994665,22.7213761 56.0914421,22.2974372 55.097234,21.2940934 C54.323378,20.5226423 53.9102176,19.5068873 53.9102176,18.3748595 C53.9102176,17.2820247 54.271569,16.1767789 55.0716574,15.3275947 C55.9366709,14.4274594 57.2148449,13.8232322 59.1639127,13.8232322 C59.9003875,13.8232322 60.5837417,13.9643274 60.8034381,14.0159317 C61.0480553,14.067536 61.4480994,14.1570269 61.6035265,14.1315514 C61.6035265,14.5561435 61.6815679,15.2250393 61.7976463,15.9958373 C61.7589535,16.0983926 61.5261409,16.111457 61.4487553,16.0350304 C61.0880597,14.6462876 60.1187723,14.2086312 58.8025613,14.2086312 C56.2980223,14.2086312 55.2001961,15.9840794 55.2001961,17.9123807 C55.2001961,20.3808938 56.4777143,22.3222595 59.0734109,22.3222595 C59.8734993,22.3222595 60.3515849,22.1550356 60.4932399,21.9362073 C60.5568535,21.8460632 60.6224345,21.6148238 60.6224345,21.2039493 L60.6224345,20.689213 C60.6224345,19.6087894 60.5830859,19.5323629 59.7829975,19.4415655 L59.2144101,19.3782033 C59.1114479,19.326599 59.1245641,19.0947064 59.2144101,19.0568197 C59.5895335,19.0829485 60.2991201,19.0947064 61.0605156,19.0947064 C61.5641778,19.0947064 62.0029148,19.0822952 62.4285356,19.0568197 C62.5196932,19.1077708 62.5321536,19.3011235 62.4416518,19.3782033 L62.2350716,19.4036788 C61.6920608,19.4683474 61.6802562,19.8282709 61.6802562,20.4841024 L61.6802562,21.2039493 L61.6815679,21.2039493 L61.6815679,21.2039493 Z" id="path3357"></path>
                            <path d="M68.5078957,20.5866577 C68.5078957,21.9362073 68.5341281,22.12956 69.2830633,22.1935755 L69.6962237,22.2327686 C69.7729535,22.2843729 69.7473769,22.5156122 69.6699913,22.5541521 C68.9348281,22.5286766 68.4960911,22.5156122 67.9786569,22.5156122 C67.4631901,22.5156122 67.011337,22.5286766 66.1843604,22.5541521 C66.1069748,22.5156122 66.0813982,22.296784 66.1843604,22.2327686 L66.6499856,22.1935755 C67.3851487,22.1302133 67.4500739,21.9362073 67.4500739,20.5866577 L67.4500739,14.8389871 C67.4500739,14.4405238 67.4500739,14.4274594 67.063146,14.4274594 L66.3529036,14.4274594 C65.7974324,14.4274594 65.0878458,14.4529349 64.7645314,14.748843 C64.454989,15.0316866 64.3264502,15.3151835 64.1841394,15.6359138 C64.0805214,15.7136469 63.9001736,15.6489782 63.8483646,15.5464229 C64.0562564,14.9683244 64.2490646,14.145269 64.3395664,13.6311859 C64.3782592,13.6050572 64.5461466,13.592646 64.5848394,13.6311859 C64.662225,14.0427137 65.0885016,14.0296493 65.6826656,14.0296493 L70.9101283,14.0296493 C71.6072545,14.0296493 71.7233329,14.0035205 71.9167969,13.6697258 C71.9810663,13.6435971 72.1233771,13.6566615 72.1496095,13.7082657 C72.0066429,14.2360664 71.9167969,15.2766436 71.9548339,15.6626958 C71.9043365,15.7659043 71.6846401,15.7659043 71.6197149,15.6881713 C71.5810221,15.3667878 71.4911761,14.8912446 71.2970563,14.7494962 C70.9999743,14.530668 70.5100841,14.4281126 69.7998417,14.4281126 L68.8836749,14.4281126 C68.4967469,14.4281126 68.5085515,14.441177 68.5085515,14.8651159 L68.5085515,20.5866577 L68.5078957,20.5866577 L68.5078957,20.5866577 Z" id="path3361"></path>
                            <path d="M73.4940203,18.3624483 C73.4940203,15.7913799 75.4299718,13.8232322 78.0899378,13.8232322 C81.0719066,13.8232322 82.5684653,15.9703618 82.5684653,18.2344175 C82.5684653,20.8309615 80.5813606,22.7213761 78.0899378,22.7213761 C75.2233917,22.7207229 73.4940203,20.6768019 73.4940203,18.3624483 M81.2784868,18.6322276 C81.2784868,16.5105736 80.3354318,14.2216956 77.8702414,14.2216956 C76.527798,14.2216956 74.7853105,15.1348952 74.7853105,17.9502674 C74.7853105,19.8537464 75.7145935,22.3222595 78.2578252,22.3222595 C79.8055372,22.3222595 81.2784868,21.1654094 81.2784868,18.6322276" id="path3365"></path>
                            <path d="M92.3544644,20.3299428 C92.3544644,20.715995 92.3544644,22.2451797 92.3925014,22.5802809 C92.3669248,22.6567075 92.2888834,22.7213761 92.1472284,22.7213761 C91.9924572,22.5025479 91.6179896,22.0524803 90.4952426,20.7800104 L87.5008135,17.3858865 C87.1519225,16.9874231 86.2744485,15.9324751 86.0029431,15.6496314 L85.9773665,15.6496314 C85.9255575,15.803791 85.9124413,16.0996991 85.9124413,16.4857513 L85.9124413,19.2887123 C85.9124413,19.8929395 85.9255575,21.564526 86.1445981,21.9499249 C86.2226395,22.0923266 86.4810287,22.1687532 86.8036873,22.1942287 L87.2037315,22.2334218 C87.2811171,22.3366303 87.2673451,22.4907899 87.1774991,22.5548054 C86.5971071,22.5293298 86.1445981,22.5162655 85.6678241,22.5162655 C85.1248133,22.5162655 84.7765781,22.5293298 84.3247249,22.5548054 C84.2348789,22.4914432 84.2211069,22.3105016 84.2991483,22.2334218 L84.6473835,22.1942287 C84.9444655,22.1556888 85.1503899,22.0792622 85.2159709,21.9368606 C85.3963187,21.475035 85.3832025,19.9060039 85.3832025,19.2887123 L85.3832025,15.5718984 C85.3832025,15.2126282 85.3707421,14.9421957 85.0992367,14.6462876 C84.9182331,14.4659993 84.6086907,14.3758551 84.2991483,14.3379685 L84.0794519,14.3118397 C84.0020663,14.2354131 84.0020663,14.0420604 84.1050285,13.9911094 C84.6480393,14.0296493 85.3313935,14.0296493 85.5642061,14.0296493 C85.7707863,14.0296493 85.9904827,14.0165849 86.1577143,13.9911094 C86.4161035,14.6462876 87.9388947,16.3440028 88.3651712,16.819546 L89.6177686,18.2213531 C90.507703,19.2109793 91.1412156,19.9308262 91.7471842,20.5481178 L91.7727608,20.5481178 C91.8245698,20.4841024 91.8245698,20.2776853 91.8245698,20.0072528 L91.8245698,17.255896 C91.8245698,16.6516688 91.8121094,14.9800824 91.5661806,14.5946834 C91.488795,14.4790637 91.2822148,14.4019839 90.7660922,14.3373152 L90.5463958,14.3111865 C90.4565498,14.2347599 90.469666,14.0283428 90.5726282,13.9904562 C91.1661364,14.0159317 91.6048734,14.0289961 92.0960752,14.0289961 C92.6508906,14.0289961 92.9860096,14.0159317 93.4254024,13.9904562 C93.5283646,14.0538184 93.5283646,14.2347599 93.4516348,14.3111865 L93.2699754,14.3373152 C92.856815,14.4019839 92.5984258,14.503886 92.5472726,14.6077477 C92.3275762,15.0695733 92.3538086,16.6647332 92.3538086,17.255896 L92.3538086,20.3299428 L92.3544644,20.3299428 Z" id="path3369"></path>
                            <path d="M31.9891075,34.0899928 C31.9891075,35.4395425 32.0153399,35.6074196 32.8410049,35.6969106 L33.1905517,35.7361037 C33.2672815,35.8001191 33.2423607,36.0182941 33.1643193,36.056834 C32.4278445,36.0313585 32.0028795,36.0182941 31.4861011,36.0182941 C30.9444019,36.0182941 30.4794325,36.0313585 29.9115009,36.056834 C29.8334595,36.0182941 29.8085388,35.8125303 29.8852685,35.7361037 L30.1567739,35.6969106 C30.9050533,35.5950085 30.9312857,35.4395425 30.9312857,34.0899928 L30.9312857,29.3450128 C30.9312857,28.2528313 30.9050533,28.0340031 30.3246613,27.9693344 L29.8596919,27.9183834 C29.7685343,27.8406504 29.7816505,27.6479509 29.8852685,27.5969998 C30.5699343,27.5062024 31.3700227,27.4944445 32.4416165,27.4944445 C33.5132103,27.4944445 34.3139545,27.6355397 34.9205789,28.0078743 C35.5140871,28.3808622 35.9534799,29.049758 35.9534799,29.9374821 C35.9534799,31.1198078 35.2176609,31.7116238 34.6621897,31.9820564 C34.0942581,32.2518356 33.4095923,32.3674553 32.8810093,32.3674553 C32.7898517,32.3282622 32.7898517,32.1355627 32.8678931,32.1100872 C34.2621455,31.8527191 34.7658077,31.0682035 34.7658077,29.9498933 C34.7658077,28.7028989 34.0293329,27.8929079 32.6868895,27.8929079 C32.0035353,27.8929079 31.9904191,27.9445121 31.9904191,28.3560398 L31.9904191,34.0899928 L31.9891075,34.0899928 Z" id="path3373"></path>
                            <path d="M37.8035203,31.8651302 C37.8035203,29.2940618 39.7401277,27.3259141 42.3994378,27.3259141 C45.3820624,27.3259141 46.8786212,29.4730437 46.8786212,31.7364462 C46.8786212,34.3329901 44.8908606,36.2234048 42.3994378,36.2234048 C39.5335475,36.224058 37.8035203,34.180137 37.8035203,31.8651302 M45.5879868,32.1355627 C45.5879868,30.0132555 44.6449318,27.7243774 42.1790856,27.7243774 C40.837298,27.7243774 39.0941547,28.6382303 39.0941547,31.4536025 C39.0941547,33.3570815 40.0234377,35.8249414 42.5666694,35.8249414 C44.115693,35.8255947 45.5879868,34.6687445 45.5879868,32.1355627" id="path3377"></path>
                            <path d="M51.1367965,36.224058 C50.0520865,36.224058 49.3680765,35.8896101 49.1221477,35.7478616 C48.9673765,35.465018 48.8001449,34.5524716 48.7739125,33.9482444 C48.8381819,33.8587534 49.0323017,33.8326247 49.0834549,33.9103577 C49.2769189,34.565536 49.8061577,35.8255947 51.304028,35.8255947 C52.3880822,35.8255947 52.917321,35.1188121 52.917321,34.3467077 C52.917321,33.7803672 52.8012426,33.1506644 51.8588434,32.545784 L50.6324785,31.7488573 C49.9865055,31.3242652 49.2375703,30.5913539 49.2375703,29.5377123 C49.2375703,28.3155403 50.1924298,27.3259141 51.8719596,27.3259141 C52.2720038,27.3259141 52.7369732,27.4023407 53.0720922,27.4931381 C53.2399796,27.5440891 53.4209832,27.5695646 53.5239454,27.5695646 C53.6406796,27.8778838 53.7574138,28.5983839 53.7574138,29.1379425 C53.7056048,29.2156755 53.4990246,29.2542154 53.4340994,29.1771356 C53.266212,28.5598441 52.9179768,27.7237242 51.6784956,27.7237242 C50.4134379,27.7237242 50.1419325,28.5598441 50.1419325,29.1510069 C50.1419325,29.8963293 50.7616731,30.4371943 51.2397587,30.7324492 L52.2726596,31.3752163 C53.0858642,31.8762349 53.8859526,32.6228638 53.8859526,33.8443826 C53.8859526,35.2599073 52.8143588,36.224058 51.1367965,36.224058" id="path3381"></path>
                            <path d="M60.3083014,34.0899928 C60.3083014,35.4395425 60.3345338,35.6328952 61.0828132,35.6969106 L61.4959736,35.7361037 C61.5727034,35.7870548 61.5477826,36.0182941 61.470397,36.056834 C60.734578,36.0313585 60.2951852,36.0182941 59.7784068,36.0182941 C59.26294,36.0182941 58.810431,36.0313585 57.9841102,36.056834 C57.9067246,36.0182941 57.881148,35.8001191 57.9841102,35.7361037 L58.4484238,35.6969106 C59.1848986,35.6335484 59.249168,35.4395425 59.249168,34.0899928 L59.249168,28.3423223 C59.249168,27.9438589 59.249168,27.9307945 58.8615842,27.9307945 L58.1519976,27.9307945 C57.5971822,27.9307945 56.8869399,27.9562701 56.5642813,28.2521781 C56.2547389,28.5343685 56.1255443,28.8178654 55.9832335,29.1385957 C55.8802713,29.2163288 55.6992677,29.1516601 55.6474587,29.0491048 C55.8546947,28.4710063 56.0475029,27.6479509 56.1386605,27.1338678 C56.1773533,27.1077391 56.3452407,27.0953279 56.3839335,27.1338678 C56.4606633,27.5453955 56.8869399,27.5323312 57.480448,27.5323312 L62.7092224,27.5323312 C63.4070044,27.5323312 63.522427,27.5062024 63.7165468,27.1724077 C63.7801603,27.146279 63.923127,27.1593434 63.9487035,27.2102944 C63.8070486,27.738095 63.7165468,28.7786723 63.7552396,29.1653777 C63.7034306,29.267933 63.4837342,29.267933 63.4194648,29.1908532 C63.3814278,28.8701229 63.290926,28.3939265 63.097462,28.2528313 C62.7997242,28.0340031 62.309834,27.9314477 61.5995916,27.9314477 L60.682769,27.9314477 C60.2951852,27.9314477 60.3083014,27.9445121 60.3083014,28.3691042 L60.3083014,34.0899928 L60.3083014,34.0899928 L60.3083014,34.0899928 Z" id="path3385"></path>
                        </g>
                    </g>
                </g>
            </g>
        </g>
    </g>
</svg>
