<?xml version="1.0" encoding="UTF-8" standalone="no"?>
<svg width="94px" height="22px" viewBox="0 0 94 22" version="1.1" xmlns="http://www.w3.org/2000/svg" xmlns:xlink="http://www.w3.org/1999/xlink">
    <!-- Generator: sketchtool 3.6.1 (26313) - http://www.bohemiancoding.com/sketch -->
    <title>6250BA32-7872-46E7-9F39-328B98131D9A</title>
    <desc>Created with sketchtool.</desc>
    <defs></defs>
    <g id="Page-1" stroke="none" stroke-width="1" fill="none" fill-rule="evenodd">
        <g id="welcome---install---unsupported-browser" transform="translate(-490.000000, -542.000000)" fill="#FFFFFF">
            <g id="social-proof" transform="translate(128.000000, 486.000000)">
                <g id="instyle" transform="translate(362.000000, 56.000000)">
                    <path d="M0.047,17.571 L3.438,17.571 L3.438,0.332 L0.047,0.332 L0.047,17.571 Z M12.724,4.0865 C13.5925,3.9825 14.4775,4.005 15.3485,4.0865 C16.2075,4.167 17.0715,4.5145 17.811,4.894 C18.566,5.2815 19.0765,5.72 19.507,6.307 C19.9655,6.9325 20.2645,7.591 20.4355,8.3255 C20.534,8.75 20.633,9.182 20.6375,9.6175 L20.718,17.571 L17.569,17.571 L17.569,10.8285 C17.448,10.1825 17.3055,9.54 17.2055,8.891 C17.144,8.49 17.0135,8.0245 16.6,7.72 C16.2365,7.4525 15.824,7.2345 15.389,7.1145 C14.7875,6.9485 14.156,6.8785 13.5315,6.8725 C12.8555,6.8655 12.176,6.94 11.513,7.074 C10.971,7.1835 10.4115,7.312 9.9385,7.599 L8.808,8.285 L8.2835,8.608 L8.2835,17.571 L5.1745,17.571 L5.1745,4.2885 L8.2835,4.2885 L8.2835,5.459 C8.7275,5.2305 9.138,4.9205 9.6155,4.773 C10.6295,4.4595 11.6705,4.2125 12.724,4.0865 L12.724,4.0865 Z" id="Fill-2"></path>
                    <path d="M79.662,9.7385 L89.957,9.7385 C89.863,9.4965 89.828,9.2215 89.6745,9.012 C89.416,8.659 89.096,8.346 88.746,8.0835 C88.336,7.776 87.8915,7.501 87.4135,7.3165 C86.8715,7.107 86.295,6.9775 85.718,6.9125 C85.0895,6.842 84.4495,6.8475 83.8205,6.9125 C83.2715,6.9695 82.723,7.0845 82.2055,7.276 C81.731,7.451 81.2715,7.691 80.873,8.0025 C80.5205,8.2785 80.167,8.6025 79.985,9.012 L79.662,9.7385 L79.662,9.7385 Z M70.78,4.2885 L60.9695,21.931 L57.457,21.931 L60.0005,17.4095 L52.9355,4.2885 L56.569,4.2885 L61.898,14.2605 L67.2675,4.2885 L70.78,4.2885 L70.78,4.2885 Z M71.668,17.6115 L74.898,17.6115 L74.898,0.332 L71.668,0.332 L71.668,17.6115 Z M81.398,4.692 C82.5045,4.4175 83.6495,4.2345 84.7895,4.248 C85.92,4.2615 87.0395,4.515 88.14,4.773 C89.172,5.0145 89.9695,5.5655 90.684,6.186 C91.504,6.898 92.0915,7.722 92.5005,8.689 C92.9795,9.8215 93.3885,10.95 93.5905,12.242 L79.662,12.242 C79.864,12.726 80.0925,13.213 80.3885,13.5335 C80.745,13.92 81.1595,14.256 81.6,14.543 C82.0535,14.8385 82.6075,14.9995 83.0935,15.068 C83.657,15.147 84.22,15.2695 84.7895,15.2695 C85.6665,15.2695 86.5445,15.1885 87.4135,15.068 C88.002,14.986 88.586,14.852 89.1495,14.664 C89.601,14.514 90.0275,14.2925 90.4415,14.0585 L91.37,13.5335 L92.985,15.6735 C92.5005,15.9965 91.956,16.3215 91.451,16.602 C90.8635,16.9285 90.2915,17.2055 89.6745,17.369 C88.9705,17.556 88.259,17.7355 87.5345,17.813 C86.6245,17.911 85.705,17.8825 84.7895,17.894 C83.4975,17.9095 82.3775,17.66 81.196,17.2885 C80.1965,16.9735 79.3315,16.5695 78.572,15.875 C77.9185,15.278 77.354,14.586 77.038,13.776 C76.708,12.9305 76.513,11.959 76.513,11.1115 C76.5535,10.102 76.763,9.1365 77.159,8.285 C77.5705,7.4005 78.0935,6.672 78.774,6.105 C79.549,5.459 80.4305,4.932 81.398,4.692 L81.398,4.692 Z M23.1405,5.2575 C23.225,6.1045 23.5025,6.876 24.069,7.518 C24.7155,8.251 25.4515,8.702 26.2895,9.012 C27.309,9.3885 28.306,9.72 29.3175,9.8195 C30.217,9.908 31.1205,9.957 32.0225,10.0215 C33.0045,10.0915 33.9945,10.085 34.9695,10.223 C35.7095,10.328 36.4305,10.5445 37.1495,10.748 C37.764,10.9215 38.1645,11.35 38.482,11.838 C38.6895,12.1575 38.735,12.5545 38.603,12.9685 C38.4515,13.444 38.2195,13.882 37.8765,14.1395 C37.4105,14.4885 36.9635,14.7995 36.342,14.9465 C35.6535,15.11 34.95,15.2365 34.243,15.2695 C33.2345,15.317 32.2195,15.2875 31.215,15.189 C30.156,15.085 29.1035,14.899 28.066,14.664 C27.2565,14.481 26.4,14.3575 25.684,13.9375 L23.8265,12.8475 L22.212,15.4715 C22.9925,15.8485 23.7535,16.269 24.5535,16.602 C25.3705,16.9425 26.196,17.2815 27.0565,17.49 C27.9815,17.7145 28.935,17.8115 29.8825,17.894 C30.956,17.987 32.0365,18.0655 33.1125,18.015 C34.3445,17.9575 35.5755,17.804 36.7865,17.571 C37.8155,17.3725 38.695,16.9045 39.572,16.4 C40.3105,15.9755 40.8465,15.317 41.308,14.5835 C41.7375,13.9 41.8865,13.1725 41.833,12.363 C41.766,11.355 41.376,10.517 40.7025,9.7385 C40.0835,9.023 39.4,8.405 38.4015,8.0835 C37.348,7.744 36.2645,7.489 35.1715,7.3165 C34.1315,7.152 33.071,7.165 32.0225,7.074 C31.5235,7.031 31.026,6.971 30.5285,6.9125 C29.882,6.8365 29.23,6.794 28.5905,6.6705 C27.9755,6.551 27.48,6.3335 27.0565,5.984 C26.7115,5.6995 26.1255,5.501 26.0875,5.0555 C26.052,4.6365 26.574,4.358 26.895,4.0865 C27.2825,3.7585 27.7135,3.4625 28.187,3.279 C28.8045,3.0395 29.4705,2.938 30.125,2.835 C30.752,2.736 31.3875,2.6735 32.0225,2.6735 C32.899,2.6735 33.7795,2.71 34.6465,2.835 C35.3735,2.9395 36.085,3.1425 36.7865,3.36 C37.433,3.5605 38.088,3.7645 38.684,4.0865 L40.1775,4.894 L41.7925,2.633 C41.187,2.31 40.6005,1.9475 39.976,1.664 C39.293,1.3545 38.598,1.06 37.8765,0.8565 C37.018,0.6145 36.1375,0.4415 35.252,0.332 C34.182,0.199 33.1005,0.098 32.0225,0.13 C30.831,0.165 29.6475,0.353 28.4695,0.5335 C27.4525,0.6895 26.4235,0.9675 25.5625,1.4625 C24.8055,1.8975 24.1215,2.4525 23.665,3.158 C23.2325,3.8265 23.0635,4.49 23.1405,5.2575 L23.1405,5.2575 Z M42.2365,4.2885 L44.457,4.2885 L44.457,0.8565 L47.687,0.8565 L47.687,4.2885 L51.8855,4.2885 L51.8855,6.9125 L47.687,6.9125 C47.687,9.4695 47.353,12.0485 47.687,14.5835 C47.741,14.9955 48.2905,14.9975 48.656,15.068 C49.0575,15.145 49.458,15.2545 49.867,15.2695 C50.179,15.2815 50.488,15.2025 50.7955,15.1485 C51.027,15.108 51.25,15.0255 51.482,14.987 L51.724,14.9465 L51.8855,14.785 L52.0065,14.785 L52.693,17.49 L52.2895,17.571 C51.9665,17.638 51.645,17.7125 51.3205,17.7725 C50.918,17.8475 50.5155,17.923 50.109,17.9745 C49.667,18.0305 49.222,18.124 48.777,18.096 C48.163,18.0565 47.557,17.92 46.96,17.7725 C46.4645,17.6505 45.995,17.402 45.6685,17.0055 C45.36,16.6315 44.9235,16.2755 44.861,15.7945 L44.6185,13.9375 L44.457,6.9125 L42.2365,6.9125 L42.2365,4.2885 L42.2365,4.2885 Z" id="Fill-3"></path>
                </g>
            </g>
        </g>
    </g>
</svg>
