<?xml version="1.0" encoding="utf-8"?>
<!-- Generator: Adobe Illustrator 16.0.0, SVG Export Plug-In . SVG Version: 6.00 Build 0)  -->
<!DOCTYPE svg PUBLIC "-//W3C//DTD SVG 1.1//EN" "http://www.w3.org/Graphics/SVG/1.1/DTD/svg11.dtd">
<svg version="1.1" id="Layer_1" xmlns="http://www.w3.org/2000/svg" xmlns:xlink="http://www.w3.org/1999/xlink" x="0px" y="0px"
	 width="510px" height="287px" viewBox="0 0 510 287" enable-background="new 0 0 510 287" xml:space="preserve">
<g>
	<defs>
		<path id="SVGID_1_" d="M463.05,253.702V16.311c0-8.199-6.64-14.837-14.844-14.837H62.194c-8.204,0-14.844,6.638-14.844,14.837
			v237.391H463.05z"/>
	</defs>
	<clipPath id="SVGID_2_">
		<use xlink:href="#SVGID_1_"  overflow="visible"/>
	</clipPath>
	<g clip-path="url(#SVGID_2_)">
		<defs>
			<rect id="SVGID_3_" x="-765.667" y="-173" width="1440" height="2887"/>
		</defs>
		<clipPath id="SVGID_4_">
			<use xlink:href="#SVGID_3_"  overflow="visible"/>
		</clipPath>
		<rect x="42.351" y="-3.526" clip-path="url(#SVGID_4_)" fill="#7CD0E5" width="425.699" height="262.229"/>
	</g>
</g>
<g>
	<defs>
		<rect id="SVGID_5_" x="-765.667" y="-173" width="1440" height="2887"/>
	</defs>
	<clipPath id="SVGID_6_">
		<use xlink:href="#SVGID_5_"  overflow="visible"/>
	</clipPath>
	<path clip-path="url(#SVGID_6_)" fill="none" stroke="#37737D" stroke-width="2" stroke-miterlimit="10" d="M463.05,253.702V16.311
		c0-8.199-6.64-14.837-14.845-14.837H62.194c-8.204,0-14.844,6.638-14.844,14.837v237.391H463.05z"/>
</g>
<g>
	<defs>
		<rect id="SVGID_7_" x="0.333" y="-1" width="509.732" height="286.849"/>
	</defs>
	<clipPath id="SVGID_8_">
		<use xlink:href="#SVGID_7_"  overflow="visible"/>
	</clipPath>
	<g clip-path="url(#SVGID_8_)">
		<defs>
			<rect id="SVGID_9_" x="-765.667" y="-173" width="1440" height="2887"/>
		</defs>
		<clipPath id="SVGID_10_">
			<use xlink:href="#SVGID_9_"  overflow="visible"/>
		</clipPath>
		<g clip-path="url(#SVGID_10_)" enable-background="new    ">
			<g>
				<defs>
					<rect id="SVGID_11_" x="1.333" y="6" width="508" height="279"/>
				</defs>
				<clipPath id="SVGID_12_">
					<use xlink:href="#SVGID_11_"  overflow="visible"/>
				</clipPath>
				<g clip-path="url(#SVGID_12_)">
					<defs>
						<rect id="SVGID_13_" x="62.333" y="16" width="386.008" height="237.391"/>
					</defs>
					<clipPath id="SVGID_14_">
						<use xlink:href="#SVGID_13_"  overflow="visible"/>
					</clipPath>
					<g clip-path="url(#SVGID_14_)">
						<defs>
							<rect id="SVGID_15_" x="1.333" width="508" height="285"/>
						</defs>
						<clipPath id="SVGID_16_">
							<use xlink:href="#SVGID_15_"  overflow="visible"/>
						</clipPath>
						<rect x="57.333" y="11" clip-path="url(#SVGID_16_)" fill="#F8FBFE" width="396.008" height="247.391"/>
					</g>
				</g>
				<g clip-path="url(#SVGID_12_)">
					<defs>
						<rect id="SVGID_17_" x="1.333" width="508" height="285"/>
					</defs>
					<clipPath id="SVGID_18_">
						<use xlink:href="#SVGID_17_"  overflow="visible"/>
					</clipPath>
					
						<rect x="62.333" y="16" clip-path="url(#SVGID_18_)" fill="none" stroke="#37737D" stroke-width="2" stroke-miterlimit="10" width="386.008" height="237.391"/>
				</g>
				<g clip-path="url(#SVGID_12_)">
					<defs>
						<path id="SVGID_19_" d="M3.175,253.702c2.32,16.755,16.674,29.672,34.081,29.672h435.889
							c17.404,0,31.757-12.917,34.076-29.672H3.175z"/>
					</defs>
					<clipPath id="SVGID_20_">
						<use xlink:href="#SVGID_19_"  overflow="visible"/>
					</clipPath>
					<g clip-path="url(#SVGID_20_)">
						<defs>
							<rect id="SVGID_21_" x="1.333" width="508" height="285"/>
						</defs>
						<clipPath id="SVGID_22_">
							<use xlink:href="#SVGID_21_"  overflow="visible"/>
						</clipPath>
						<rect x="-1.825" y="248.702" clip-path="url(#SVGID_22_)" fill="#7CD0E5" width="514.046" height="39.672"/>
					</g>
				</g>
				<g clip-path="url(#SVGID_12_)">
					<defs>
						<rect id="SVGID_23_" x="1.333" width="508" height="285"/>
					</defs>
					<clipPath id="SVGID_24_">
						<use xlink:href="#SVGID_23_"  overflow="visible"/>
					</clipPath>
					<path clip-path="url(#SVGID_24_)" fill="none" stroke="#37737D" stroke-width="2" stroke-miterlimit="10" d="M3.175,253.702
						c2.32,16.755,16.674,29.672,34.081,29.672h435.889c17.404,0,31.757-12.917,34.076-29.672H3.175z"/>
				</g>
				<g clip-path="url(#SVGID_12_)">
					<defs>
						<rect id="SVGID_25_" x="210.659" y="253.702" width="89.083" height="14.838"/>
					</defs>
					<clipPath id="SVGID_26_">
						<use xlink:href="#SVGID_25_"  overflow="visible"/>
					</clipPath>
					<g clip-path="url(#SVGID_26_)">
						<defs>
							<rect id="SVGID_27_" x="1.333" width="508" height="285"/>
						</defs>
						<clipPath id="SVGID_28_">
							<use xlink:href="#SVGID_27_"  overflow="visible"/>
						</clipPath>
						<rect x="205.659" y="248.702" clip-path="url(#SVGID_28_)" fill="#7CD0E5" width="99.083" height="24.838"/>
					</g>
				</g>
				<g clip-path="url(#SVGID_12_)">
					<defs>
						<rect id="SVGID_29_" x="1.333" width="508" height="285"/>
					</defs>
					<clipPath id="SVGID_30_">
						<use xlink:href="#SVGID_29_"  overflow="visible"/>
					</clipPath>
					
						<rect x="210.659" y="253.702" clip-path="url(#SVGID_30_)" fill="none" stroke="#37737D" stroke-width="2" stroke-miterlimit="10" width="89.083" height="14.838"/>
				</g>
			</g>
		</g>
	</g>
</g>
<g>
	<defs>
		<rect id="SVGID_31_" x="88.333" y="92" width="154" height="24"/>
	</defs>
	<clipPath id="SVGID_32_">
		<use xlink:href="#SVGID_31_"  overflow="visible"/>
	</clipPath>
	<g clip-path="url(#SVGID_32_)">
		<defs>
			<rect id="SVGID_33_" x="-765.667" y="-173" width="1440" height="2887"/>
		</defs>
		<clipPath id="SVGID_34_">
			<use xlink:href="#SVGID_33_"  overflow="visible"/>
		</clipPath>
		<rect x="83.333" y="87" clip-path="url(#SVGID_34_)" fill="#ECF0F5" width="164" height="34"/>
	</g>
</g>
<g>
	<defs>
		<rect id="SVGID_35_" x="88.333" y="128" width="154" height="78"/>
	</defs>
	<clipPath id="SVGID_36_">
		<use xlink:href="#SVGID_35_"  overflow="visible"/>
	</clipPath>
	<g clip-path="url(#SVGID_36_)">
		<defs>
			<rect id="SVGID_37_" x="-765.667" y="-173" width="1440" height="2887"/>
		</defs>
		<clipPath id="SVGID_38_">
			<use xlink:href="#SVGID_37_"  overflow="visible"/>
		</clipPath>
		<rect x="83.333" y="123" clip-path="url(#SVGID_38_)" fill="#ECF0F5" width="164" height="88"/>
	</g>
</g>
<g>
	<defs>
		<path id="SVGID_39_" d="M264.833,94.995v88.01c0,1.927,1.57,3.495,3.502,3.495h154.996c1.935,0,3.502-1.564,3.502-3.495v-88.01
			c0-1.926-1.57-3.495-3.502-3.495H268.335C266.4,91.5,264.833,93.064,264.833,94.995z M265.833,94.995
			c0-1.377,1.119-2.495,2.502-2.495h154.996c1.38,0,2.502,1.121,2.502,2.495v88.01c0,1.378-1.119,2.495-2.502,2.495H268.335
			c-1.38,0-2.502-1.121-2.502-2.495V94.995z M244.833,71.5h202v135h-202V71.5z"/>
	</defs>
	<clipPath id="SVGID_40_">
		<use xlink:href="#SVGID_39_"  overflow="visible"/>
	</clipPath>
	<g clip-path="url(#SVGID_40_)">
		<defs>
			<path id="SVGID_41_" d="M265.333,94.995c0-1.654,1.344-2.995,3.002-2.995h154.996c1.658,0,3.002,1.347,3.002,2.995v88.01
				c0,1.654-1.344,2.995-3.002,2.995H268.335c-1.658,0-3.002-1.347-3.002-2.995V94.995z"/>
		</defs>
		<clipPath id="SVGID_42_">
			<use xlink:href="#SVGID_41_"  overflow="visible"/>
		</clipPath>
		<g clip-path="url(#SVGID_42_)">
			<defs>
				<rect id="SVGID_43_" x="-765.667" y="-173" width="1440" height="2887"/>
			</defs>
			<clipPath id="SVGID_44_">
				<use xlink:href="#SVGID_43_"  overflow="visible"/>
			</clipPath>
			<path clip-path="url(#SVGID_44_)" fill-rule="evenodd" clip-rule="evenodd" fill="#FFFFFF" d="M265.333,94.995
				c0-1.654,1.344-2.995,3.002-2.995h154.996c1.658,0,3.002,1.347,3.002,2.995v88.01c0,1.654-1.344,2.995-3.002,2.995H268.335
				c-1.658,0-3.002-1.347-3.002-2.995V94.995z"/>
		</g>
	</g>
</g>
<g>
	<defs>
		<path id="SVGID_45_" d="M265.333,94.995c0-1.654,1.344-2.995,3.002-2.995h154.996c1.658,0,3.002,1.347,3.002,2.995v88.01
			c0,1.654-1.344,2.995-3.002,2.995H268.335c-1.658,0-3.002-1.347-3.002-2.995V94.995z"/>
	</defs>
	<clipPath id="SVGID_46_">
		<use xlink:href="#SVGID_45_"  overflow="visible"/>
	</clipPath>
	<g clip-path="url(#SVGID_46_)">
		<defs>
			<rect id="SVGID_47_" x="-765.667" y="-173" width="1440" height="2887"/>
		</defs>
		<clipPath id="SVGID_48_">
			<use xlink:href="#SVGID_47_"  overflow="visible"/>
		</clipPath>
		<path clip-path="url(#SVGID_48_)" fill="none" stroke="#9E9FA3" stroke-width="2" stroke-miterlimit="10" d="M265.333,94.995
			c0-1.654,1.344-2.995,3.002-2.995h154.996c1.658,0,3.002,1.347,3.002,2.995v88.01c0,1.654-1.344,2.995-3.002,2.995H268.335
			c-1.658,0-3.002-1.347-3.002-2.995V94.995z"/>
	</g>
</g>
<g>
	<defs>
		<rect id="SVGID_49_" x="-765.667" y="-173" width="1440" height="2887"/>
	</defs>
	<clipPath id="SVGID_50_">
		<use xlink:href="#SVGID_49_"  overflow="visible"/>
	</clipPath>
	<g clip-path="url(#SVGID_50_)">
		<path fill="#363737" d="M287.934,116.504h1.308L292.9,125h-1.728l-0.792-1.944h-3.684L285.93,125h-1.693L287.934,116.504z
			 M289.854,121.76l-1.309-3.456l-1.332,3.456H289.854z"/>
		<path fill="#363737" d="M295.049,119.24v0.804h0.035c0.072-0.112,0.166-0.226,0.283-0.342c0.115-0.116,0.258-0.22,0.426-0.312
			c0.168-0.092,0.357-0.168,0.57-0.228c0.211-0.061,0.449-0.09,0.713-0.09c0.408,0,0.785,0.078,1.129,0.233
			c0.344,0.156,0.64,0.37,0.888,0.643c0.247,0.271,0.44,0.592,0.575,0.96c0.137,0.368,0.205,0.764,0.205,1.188
			c0,0.425-0.066,0.822-0.198,1.194s-0.32,0.696-0.563,0.972c-0.244,0.276-0.541,0.496-0.889,0.66s-0.742,0.246-1.182,0.246
			c-0.408,0-0.782-0.084-1.123-0.252c-0.34-0.168-0.602-0.396-0.785-0.684h-0.023v3.647h-1.441v-8.64H295.049z M298.408,122.096
			c0-0.224-0.033-0.445-0.102-0.666c-0.068-0.22-0.17-0.418-0.307-0.594c-0.135-0.176-0.308-0.318-0.516-0.426
			c-0.208-0.108-0.451-0.162-0.731-0.162c-0.265,0-0.501,0.056-0.708,0.168c-0.209,0.112-0.387,0.256-0.534,0.432
			c-0.147,0.177-0.261,0.377-0.336,0.601c-0.076,0.224-0.114,0.448-0.114,0.672s0.038,0.446,0.114,0.666
			c0.075,0.22,0.188,0.418,0.336,0.594s0.325,0.318,0.534,0.426c0.207,0.108,0.443,0.162,0.708,0.162
			c0.28,0,0.523-0.056,0.731-0.168c0.208-0.111,0.381-0.256,0.516-0.432c0.137-0.176,0.238-0.376,0.307-0.601
			C298.375,122.544,298.408,122.32,298.408,122.096z"/>
		<path fill="#363737" d="M302.645,119.24v0.804h0.036c0.072-0.112,0.166-0.226,0.282-0.342c0.115-0.116,0.258-0.22,0.426-0.312
			c0.168-0.092,0.357-0.168,0.57-0.228c0.212-0.061,0.449-0.09,0.714-0.09c0.408,0,0.784,0.078,1.128,0.233
			c0.344,0.156,0.641,0.37,0.889,0.643c0.247,0.271,0.439,0.592,0.575,0.96s0.204,0.764,0.204,1.188
			c0,0.425-0.066,0.822-0.197,1.194c-0.133,0.372-0.32,0.696-0.564,0.972c-0.244,0.276-0.54,0.496-0.889,0.66
			c-0.348,0.164-0.742,0.246-1.182,0.246c-0.408,0-0.781-0.084-1.122-0.252c-0.34-0.168-0.603-0.396-0.786-0.684h-0.023v3.647h-1.44
			v-8.64H302.645z M306.005,122.096c0-0.224-0.034-0.445-0.103-0.666c-0.067-0.22-0.17-0.418-0.306-0.594s-0.308-0.318-0.516-0.426
			c-0.208-0.108-0.452-0.162-0.731-0.162c-0.265,0-0.501,0.056-0.709,0.168s-0.386,0.256-0.533,0.432
			c-0.148,0.177-0.261,0.377-0.336,0.601c-0.076,0.224-0.115,0.448-0.115,0.672s0.039,0.446,0.115,0.666
			c0.075,0.22,0.188,0.418,0.336,0.594c0.147,0.176,0.325,0.318,0.533,0.426c0.208,0.108,0.444,0.162,0.709,0.162
			c0.279,0,0.523-0.056,0.731-0.168c0.208-0.111,0.38-0.256,0.516-0.432s0.238-0.376,0.306-0.601
			C305.971,122.544,306.005,122.32,306.005,122.096z"/>
		<path fill="#363737" d="M308.885,115.928h1.44V125h-1.44V115.928z"/>
		<path fill="#363737" d="M311.213,119.24h1.596l1.608,4.188h0.024l1.428-4.188h1.5l-2.725,6.996
			c-0.104,0.264-0.216,0.498-0.336,0.702c-0.119,0.203-0.264,0.375-0.432,0.516c-0.168,0.14-0.366,0.246-0.594,0.318
			c-0.229,0.071-0.502,0.107-0.822,0.107c-0.12,0-0.242-0.006-0.366-0.018c-0.124-0.013-0.25-0.034-0.378-0.066l0.12-1.248
			c0.097,0.032,0.19,0.054,0.282,0.066c0.092,0.012,0.178,0.018,0.258,0.018c0.152,0,0.279-0.018,0.384-0.054
			s0.192-0.092,0.265-0.168c0.071-0.076,0.135-0.17,0.191-0.282s0.116-0.244,0.18-0.396l0.289-0.732L311.213,119.24z"/>
		<path fill="#363737" d="M318.053,117.284c0-0.232,0.086-0.434,0.258-0.606c0.172-0.172,0.391-0.258,0.654-0.258
			s0.486,0.082,0.666,0.246s0.27,0.37,0.27,0.618s-0.09,0.454-0.27,0.618s-0.402,0.246-0.666,0.246s-0.482-0.086-0.654-0.259
			C318.139,117.718,318.053,117.517,318.053,117.284z M318.257,119.24h1.44V125h-1.44V119.24z"/>
		<path fill="#363737" d="M321.448,119.24h1.368v0.924h0.023c0.129-0.288,0.351-0.542,0.666-0.762c0.316-0.221,0.69-0.33,1.123-0.33
			c0.375,0,0.697,0.065,0.965,0.197c0.269,0.133,0.488,0.307,0.66,0.522s0.299,0.464,0.379,0.744s0.119,0.568,0.119,0.864v3.6
			h-1.439v-3.192c0-0.168-0.012-0.344-0.036-0.527c-0.024-0.185-0.076-0.351-0.155-0.498c-0.08-0.148-0.191-0.271-0.33-0.366
			c-0.141-0.096-0.326-0.144-0.559-0.144s-0.432,0.046-0.6,0.138s-0.307,0.21-0.414,0.354c-0.108,0.145-0.19,0.311-0.246,0.498
			c-0.057,0.188-0.084,0.378-0.084,0.57V125h-1.44V119.24z"/>
		<path fill="#363737" d="M334.289,119.24v5.244c0,0.52-0.064,0.989-0.193,1.409c-0.127,0.421-0.325,0.776-0.594,1.068
			c-0.268,0.292-0.605,0.518-1.014,0.678s-0.893,0.24-1.452,0.24c-0.231,0-0.478-0.02-0.737-0.06
			c-0.261-0.04-0.517-0.101-0.769-0.181s-0.494-0.18-0.726-0.3c-0.232-0.12-0.44-0.256-0.625-0.408l0.828-1.115
			c0.28,0.264,0.596,0.466,0.949,0.605c0.352,0.14,0.707,0.21,1.067,0.21c0.344,0,0.634-0.05,0.87-0.15s0.424-0.239,0.564-0.415
			c0.139-0.177,0.239-0.386,0.299-0.627c0.061-0.24,0.09-0.506,0.09-0.795v-0.421h-0.023c-0.208,0.282-0.474,0.499-0.798,0.648
			s-0.687,0.224-1.086,0.224c-0.433,0-0.824-0.08-1.177-0.239c-0.352-0.16-0.649-0.376-0.894-0.648
			c-0.243-0.271-0.434-0.59-0.569-0.954c-0.137-0.364-0.205-0.75-0.205-1.158c0-0.416,0.066-0.808,0.199-1.176
			c0.131-0.368,0.319-0.688,0.563-0.96c0.244-0.271,0.54-0.488,0.888-0.648c0.348-0.159,0.738-0.239,1.17-0.239
			c0.408,0,0.788,0.084,1.141,0.252c0.352,0.168,0.632,0.428,0.84,0.779h0.023v-0.863H334.289z M331.217,120.248
			c-0.265,0-0.498,0.048-0.703,0.144c-0.203,0.096-0.375,0.226-0.516,0.389c-0.14,0.163-0.248,0.356-0.324,0.58
			s-0.113,0.463-0.113,0.718c0,0.231,0.037,0.454,0.113,0.67c0.076,0.215,0.185,0.408,0.324,0.58
			c0.141,0.171,0.312,0.309,0.516,0.412c0.205,0.104,0.435,0.156,0.691,0.156c0.264,0,0.501-0.05,0.713-0.15
			c0.213-0.1,0.393-0.232,0.541-0.4c0.147-0.167,0.262-0.36,0.342-0.58c0.08-0.219,0.119-0.448,0.119-0.688
			c0-0.247-0.039-0.482-0.119-0.706c-0.08-0.223-0.194-0.418-0.342-0.586c-0.148-0.167-0.326-0.299-0.535-0.395
			C331.717,120.296,331.48,120.248,331.217,120.248z"/>
		<path fill="#363737" d="M342.952,120.836c-0.112-0.16-0.28-0.294-0.504-0.402c-0.224-0.107-0.452-0.161-0.685-0.161
			c-0.264,0-0.496,0.054-0.695,0.161c-0.2,0.108-0.366,0.251-0.498,0.427s-0.23,0.374-0.294,0.594s-0.097,0.442-0.097,0.666
			s0.035,0.446,0.103,0.666s0.17,0.418,0.306,0.594c0.137,0.176,0.307,0.318,0.51,0.426c0.205,0.108,0.442,0.162,0.715,0.162
			c0.224,0,0.447-0.044,0.672-0.132c0.224-0.088,0.404-0.216,0.54-0.384l0.899,0.912c-0.239,0.256-0.545,0.454-0.918,0.594
			c-0.371,0.14-0.773,0.21-1.205,0.21c-0.425,0-0.826-0.068-1.207-0.204c-0.379-0.136-0.711-0.336-0.996-0.6
			c-0.283-0.265-0.508-0.584-0.672-0.96s-0.246-0.805-0.246-1.284c0-0.464,0.082-0.884,0.246-1.26s0.387-0.696,0.666-0.96
			c0.28-0.265,0.606-0.469,0.979-0.612c0.372-0.145,0.77-0.216,1.193-0.216c0.425,0,0.834,0.08,1.23,0.239
			c0.396,0.16,0.71,0.381,0.942,0.66L342.952,120.836z"/>
		<path fill="#363737" d="M344.535,122.096c0-0.456,0.082-0.87,0.246-1.242c0.164-0.371,0.387-0.689,0.666-0.953
			c0.28-0.265,0.612-0.469,0.996-0.612c0.385-0.145,0.793-0.216,1.225-0.216s0.84,0.071,1.224,0.216
			c0.384,0.144,0.716,0.348,0.996,0.612c0.28,0.264,0.502,0.582,0.666,0.953c0.164,0.372,0.246,0.786,0.246,1.242
			s-0.082,0.872-0.246,1.248s-0.386,0.698-0.666,0.966c-0.28,0.269-0.612,0.479-0.996,0.631c-0.384,0.151-0.792,0.228-1.224,0.228
			s-0.84-0.076-1.225-0.228c-0.384-0.152-0.716-0.362-0.996-0.631c-0.279-0.268-0.502-0.59-0.666-0.966
			S344.535,122.552,344.535,122.096z M346,122.096c0,0.225,0.033,0.448,0.102,0.672c0.068,0.225,0.17,0.425,0.307,0.601
			c0.136,0.176,0.308,0.32,0.516,0.432c0.208,0.112,0.456,0.168,0.744,0.168s0.535-0.056,0.744-0.168
			c0.207-0.111,0.379-0.256,0.516-0.432s0.238-0.376,0.307-0.601c0.067-0.224,0.102-0.447,0.102-0.672
			c0-0.224-0.034-0.445-0.102-0.666c-0.068-0.22-0.17-0.418-0.307-0.594s-0.309-0.318-0.516-0.426
			c-0.209-0.108-0.456-0.162-0.744-0.162s-0.536,0.054-0.744,0.162c-0.208,0.107-0.38,0.25-0.516,0.426
			c-0.137,0.176-0.238,0.374-0.307,0.594C346.033,121.65,346,121.872,346,122.096z"/>
		<path fill="#363737" d="M358.048,125h-1.368v-0.864h-0.023c-0.201,0.336-0.479,0.593-0.834,0.769
			c-0.357,0.176-0.738,0.264-1.146,0.264c-0.44,0-0.834-0.082-1.182-0.246c-0.349-0.164-0.645-0.384-0.889-0.66
			c-0.244-0.275-0.432-0.6-0.564-0.972c-0.131-0.372-0.197-0.77-0.197-1.194c0-0.424,0.068-0.819,0.204-1.188
			s0.327-0.688,0.575-0.96c0.248-0.272,0.545-0.486,0.889-0.643c0.344-0.155,0.72-0.233,1.128-0.233c0.265,0,0.5,0.029,0.708,0.09
			c0.208,0.06,0.391,0.134,0.546,0.222c0.156,0.088,0.29,0.185,0.401,0.288c0.113,0.104,0.205,0.204,0.277,0.3h0.035v-4.044h1.44
			V125z M353.308,122.096c0,0.225,0.034,0.448,0.103,0.672c0.067,0.225,0.17,0.425,0.306,0.601s0.308,0.32,0.516,0.432
			c0.208,0.112,0.452,0.168,0.732,0.168c0.264,0,0.499-0.054,0.708-0.162c0.207-0.107,0.386-0.25,0.533-0.426
			c0.148-0.176,0.26-0.374,0.336-0.594s0.115-0.442,0.115-0.666s-0.039-0.448-0.115-0.672s-0.188-0.424-0.336-0.601
			c-0.147-0.176-0.326-0.319-0.533-0.432c-0.209-0.112-0.444-0.168-0.708-0.168c-0.28,0-0.524,0.054-0.732,0.162
			c-0.208,0.107-0.38,0.25-0.516,0.426s-0.238,0.374-0.306,0.594C353.342,121.65,353.308,121.872,353.308,122.096z"/>
		<path fill="#363737" d="M365.295,122.192c0,0.063,0,0.128,0,0.191c0,0.064-0.004,0.128-0.012,0.192h-4.38
			c0.017,0.208,0.07,0.397,0.162,0.57c0.092,0.172,0.214,0.319,0.366,0.443s0.324,0.222,0.516,0.294
			c0.192,0.072,0.393,0.108,0.6,0.108c0.361,0,0.664-0.066,0.912-0.198s0.453-0.313,0.613-0.546l0.959,0.768
			c-0.568,0.769-1.392,1.152-2.472,1.152c-0.448,0-0.86-0.07-1.235-0.21c-0.377-0.14-0.703-0.338-0.979-0.594
			c-0.276-0.256-0.492-0.57-0.648-0.942s-0.234-0.794-0.234-1.266c0-0.464,0.078-0.886,0.234-1.267
			c0.156-0.38,0.37-0.703,0.643-0.972c0.271-0.268,0.594-0.476,0.966-0.624c0.372-0.147,0.774-0.222,1.206-0.222
			c0.4,0,0.77,0.065,1.109,0.197c0.34,0.133,0.635,0.328,0.883,0.589c0.248,0.26,0.441,0.584,0.582,0.972
			C365.226,121.218,365.295,121.672,365.295,122.192z M363.855,121.544c0-0.184-0.025-0.36-0.078-0.528
			c-0.052-0.168-0.134-0.315-0.246-0.443c-0.111-0.128-0.254-0.23-0.426-0.307c-0.172-0.075-0.374-0.113-0.605-0.113
			c-0.433,0-0.799,0.13-1.099,0.39s-0.466,0.594-0.498,1.002H363.855z"/>
		<path fill="#363737" d="M369.844,120.776c-0.128-0.168-0.305-0.314-0.527-0.438c-0.225-0.124-0.469-0.186-0.732-0.186
			c-0.232,0-0.444,0.048-0.637,0.144c-0.191,0.096-0.287,0.256-0.287,0.48c0,0.224,0.105,0.382,0.317,0.474s0.522,0.186,0.931,0.282
			c0.215,0.048,0.434,0.112,0.653,0.191c0.22,0.08,0.421,0.187,0.601,0.318s0.326,0.296,0.438,0.492s0.168,0.434,0.168,0.714
			c0,0.353-0.066,0.65-0.197,0.894c-0.133,0.244-0.309,0.442-0.529,0.595c-0.219,0.151-0.476,0.262-0.768,0.33
			c-0.292,0.067-0.594,0.102-0.906,0.102c-0.447,0-0.883-0.082-1.308-0.246c-0.424-0.164-0.776-0.397-1.056-0.702l0.947-0.888
			c0.16,0.208,0.369,0.38,0.625,0.516c0.256,0.137,0.539,0.204,0.852,0.204c0.104,0,0.21-0.012,0.318-0.036
			c0.107-0.023,0.207-0.062,0.3-0.113c0.092-0.053,0.165-0.122,0.222-0.21s0.084-0.196,0.084-0.324c0-0.24-0.109-0.412-0.33-0.517
			c-0.22-0.104-0.55-0.207-0.99-0.312c-0.215-0.048-0.426-0.11-0.629-0.187c-0.205-0.075-0.387-0.176-0.547-0.3
			s-0.287-0.277-0.384-0.462c-0.097-0.184-0.144-0.412-0.144-0.684c0-0.32,0.065-0.596,0.197-0.828
			c0.133-0.232,0.307-0.422,0.522-0.57c0.216-0.147,0.46-0.258,0.731-0.33c0.272-0.071,0.553-0.107,0.84-0.107
			c0.416,0,0.822,0.071,1.219,0.216c0.396,0.144,0.709,0.364,0.941,0.66L369.844,120.776z"/>
		<path fill="#363737" d="M372.195,124.16c0-0.256,0.094-0.476,0.282-0.66c0.188-0.184,0.414-0.276,0.678-0.276
			c0.256,0,0.479,0.089,0.672,0.265s0.288,0.392,0.288,0.647c0,0.257-0.094,0.477-0.281,0.66c-0.188,0.185-0.414,0.276-0.679,0.276
			c-0.128,0-0.25-0.024-0.366-0.072c-0.115-0.048-0.218-0.112-0.306-0.192c-0.089-0.079-0.158-0.176-0.21-0.288
			C372.221,124.408,372.195,124.288,372.195,124.16z M376.191,124.16c0-0.256,0.094-0.476,0.281-0.66
			c0.188-0.184,0.414-0.276,0.679-0.276c0.256,0,0.479,0.089,0.672,0.265s0.288,0.392,0.288,0.647c0,0.257-0.094,0.477-0.281,0.66
			c-0.189,0.185-0.414,0.276-0.679,0.276c-0.128,0-0.25-0.024-0.366-0.072c-0.115-0.048-0.218-0.112-0.306-0.192
			c-0.089-0.079-0.158-0.176-0.21-0.288C376.217,124.408,376.191,124.288,376.191,124.16z M380.188,124.16
			c0-0.256,0.094-0.476,0.281-0.66c0.188-0.184,0.414-0.276,0.679-0.276c0.256,0,0.479,0.089,0.672,0.265s0.288,0.392,0.288,0.647
			c0,0.257-0.094,0.477-0.282,0.66c-0.188,0.185-0.414,0.276-0.678,0.276c-0.128,0-0.25-0.024-0.366-0.072
			c-0.115-0.048-0.218-0.112-0.306-0.192c-0.089-0.079-0.158-0.176-0.21-0.288C380.213,124.408,380.188,124.288,380.188,124.16z"/>
	</g>
</g>
<g>
	<defs>
		<path id="SVGID_51_" d="M283.333,151.005c0-1.107,0.899-2.005,2.001-2.005h120.998c1.104,0,2.001,0.894,2.001,2.005v0.99
			c0,1.107-0.899,2.005-2.001,2.005H285.334c-1.104,0-2.001-0.894-2.001-2.005V151.005z"/>
	</defs>
	<clipPath id="SVGID_52_">
		<use xlink:href="#SVGID_51_"  overflow="visible"/>
	</clipPath>
	<g clip-path="url(#SVGID_52_)">
		<defs>
			<rect id="SVGID_53_" x="-765.667" y="-173" width="1440" height="2887"/>
		</defs>
		<clipPath id="SVGID_54_">
			<use xlink:href="#SVGID_53_"  overflow="visible"/>
		</clipPath>
		<rect x="278.333" y="144" clip-path="url(#SVGID_54_)" fill="#FDCFA3" width="135" height="15"/>
	</g>
</g>
<g>
	<defs>
		<path id="SVGID_55_" d="M283.333,151.005c0-1.107,0.894-2.005,1.998-2.005h79.337c1.104,0,1.998,0.894,1.998,2.005v0.99
			c0,1.107-0.894,2.005-1.998,2.005h-79.337c-1.104,0-1.998-0.894-1.998-2.005V151.005z"/>
	</defs>
	<clipPath id="SVGID_56_">
		<use xlink:href="#SVGID_55_"  overflow="visible"/>
	</clipPath>
	<g clip-path="url(#SVGID_56_)">
		<defs>
			<rect id="SVGID_57_" x="-765.667" y="-173" width="1440" height="2887"/>
		</defs>
		<clipPath id="SVGID_58_">
			<use xlink:href="#SVGID_57_"  overflow="visible"/>
		</clipPath>
		<rect x="278.333" y="144" clip-path="url(#SVGID_58_)" fill="#F58720" width="93.333" height="15"/>
	</g>
</g>
<g>
	<defs>
		<rect id="SVGID_59_" x="-765.667" y="-173" width="1440" height="2887"/>
	</defs>
	<clipPath id="SVGID_60_">
		<use xlink:href="#SVGID_59_"  overflow="visible"/>
	</clipPath>
	<g clip-path="url(#SVGID_60_)">
		<path fill="#363737" d="M120.223,65.58c-0.187-0.253-0.43-0.438-0.73-0.555c-0.3-0.117-0.594-0.176-0.88-0.176
			c-0.367,0-0.7,0.067-1,0.2c-0.3,0.134-0.558,0.317-0.775,0.55c-0.217,0.233-0.383,0.507-0.5,0.82s-0.175,0.653-0.175,1.021
			c0,0.387,0.057,0.739,0.17,1.06s0.275,0.595,0.485,0.825c0.21,0.229,0.462,0.408,0.755,0.535c0.293,0.126,0.623,0.189,0.99,0.189
			c0.38,0,0.717-0.075,1.01-0.225c0.293-0.15,0.53-0.349,0.71-0.595l1.01,0.71c-0.313,0.393-0.697,0.698-1.15,0.915
			c-0.454,0.216-0.983,0.324-1.59,0.324c-0.554,0-1.062-0.092-1.525-0.274c-0.463-0.184-0.861-0.44-1.195-0.771
			s-0.593-0.723-0.78-1.18c-0.187-0.457-0.28-0.962-0.28-1.515c0-0.567,0.098-1.079,0.295-1.535c0.197-0.457,0.467-0.846,0.81-1.165
			c0.343-0.32,0.749-0.566,1.215-0.74c0.467-0.173,0.974-0.26,1.52-0.26c0.227,0,0.463,0.021,0.71,0.064
			c0.246,0.044,0.483,0.11,0.71,0.2c0.227,0.09,0.44,0.202,0.64,0.335c0.2,0.134,0.37,0.294,0.51,0.48L120.223,65.58z"/>
		<path fill="#363737" d="M124.683,66.06c0.313,0,0.582,0.056,0.805,0.165c0.224,0.11,0.407,0.256,0.55,0.436
			c0.143,0.18,0.248,0.387,0.315,0.62c0.066,0.233,0.1,0.474,0.1,0.72v3h-1.2v-2.64c0-0.141-0.01-0.285-0.03-0.436
			c-0.02-0.149-0.062-0.286-0.125-0.41c-0.063-0.123-0.154-0.225-0.27-0.305c-0.117-0.08-0.272-0.12-0.465-0.12
			s-0.36,0.037-0.5,0.11c-0.14,0.073-0.256,0.172-0.35,0.295c-0.094,0.123-0.164,0.262-0.21,0.415c-0.046,0.153-0.07,0.31-0.07,0.47
			V71h-1.2v-7.56h1.2v3.43h0.02c0.046-0.101,0.115-0.198,0.205-0.295s0.195-0.184,0.315-0.26c0.12-0.077,0.256-0.139,0.41-0.186
			C124.336,66.083,124.503,66.06,124.683,66.06z"/>
		<path fill="#363737" d="M132.433,68.66c0,0.054,0,0.106,0,0.16c0,0.053-0.003,0.106-0.01,0.16h-3.65
			c0.013,0.173,0.058,0.331,0.135,0.475s0.178,0.267,0.305,0.37c0.126,0.104,0.27,0.185,0.43,0.245c0.16,0.06,0.327,0.09,0.5,0.09
			c0.3,0,0.554-0.055,0.76-0.165s0.376-0.262,0.51-0.455l0.8,0.64c-0.474,0.641-1.16,0.96-2.06,0.96
			c-0.374,0-0.717-0.058-1.03-0.175c-0.313-0.116-0.585-0.281-0.815-0.495c-0.23-0.213-0.41-0.475-0.54-0.785
			c-0.13-0.31-0.195-0.661-0.195-1.055c0-0.387,0.065-0.738,0.195-1.055c0.13-0.316,0.309-0.587,0.535-0.811
			c0.227-0.223,0.495-0.396,0.805-0.52s0.645-0.186,1.005-0.186c0.333,0,0.642,0.056,0.925,0.165c0.284,0.11,0.528,0.273,0.735,0.49
			c0.207,0.217,0.368,0.487,0.485,0.811S132.433,68.227,132.433,68.66z M131.233,68.12c0-0.153-0.022-0.3-0.065-0.44
			c-0.043-0.14-0.112-0.263-0.205-0.37c-0.094-0.106-0.212-0.191-0.355-0.255c-0.144-0.062-0.312-0.095-0.505-0.095
			c-0.36,0-0.665,0.108-0.915,0.325s-0.389,0.495-0.415,0.835H131.233z"/>
		<path fill="#363737" d="M136.873,67.53c-0.093-0.134-0.233-0.245-0.42-0.335c-0.187-0.09-0.377-0.136-0.57-0.136
			c-0.22,0-0.413,0.046-0.58,0.136c-0.167,0.09-0.305,0.208-0.415,0.354c-0.11,0.146-0.192,0.312-0.245,0.495
			s-0.08,0.368-0.08,0.555c0,0.188,0.028,0.372,0.085,0.556s0.142,0.349,0.255,0.495s0.255,0.265,0.425,0.354
			s0.368,0.135,0.595,0.135c0.187,0,0.374-0.036,0.56-0.109s0.337-0.181,0.45-0.32l0.75,0.76c-0.2,0.214-0.455,0.379-0.765,0.495
			c-0.31,0.117-0.645,0.175-1.005,0.175c-0.354,0-0.688-0.057-1.005-0.17c-0.317-0.113-0.594-0.279-0.83-0.5
			c-0.237-0.22-0.423-0.486-0.56-0.8s-0.205-0.67-0.205-1.07c0-0.386,0.068-0.736,0.205-1.05s0.322-0.58,0.555-0.8
			c0.233-0.22,0.505-0.39,0.815-0.51s0.642-0.181,0.995-0.181c0.354,0,0.695,0.067,1.025,0.2c0.33,0.134,0.591,0.317,0.785,0.55
			L136.873,67.53z"/>
		<path fill="#363737" d="M138.493,63.44h1.2v4.779h0.03l1.82-2.02h1.54l-2.08,2.17l2.21,2.63h-1.59l-1.9-2.46h-0.03V71h-1.2V63.44z
			"/>
		<path fill="#363737" d="M143.423,68.58c0-0.38,0.068-0.725,0.205-1.035c0.137-0.31,0.322-0.575,0.555-0.795
			c0.233-0.22,0.51-0.39,0.83-0.51c0.32-0.12,0.66-0.181,1.02-0.181c0.36,0,0.7,0.061,1.02,0.181c0.32,0.12,0.597,0.29,0.83,0.51
			s0.418,0.485,0.555,0.795c0.137,0.311,0.205,0.655,0.205,1.035s-0.068,0.727-0.205,1.04s-0.322,0.582-0.555,0.805
			c-0.233,0.224-0.51,0.398-0.83,0.525c-0.32,0.126-0.66,0.189-1.02,0.189c-0.36,0-0.7-0.063-1.02-0.189
			c-0.32-0.127-0.597-0.302-0.83-0.525c-0.233-0.223-0.418-0.491-0.555-0.805S143.423,68.96,143.423,68.58z M144.643,68.58
			c0,0.187,0.028,0.373,0.085,0.56c0.057,0.188,0.142,0.354,0.255,0.5c0.113,0.147,0.256,0.267,0.43,0.36
			c0.173,0.094,0.38,0.14,0.62,0.14c0.24,0,0.447-0.046,0.62-0.14s0.316-0.213,0.43-0.36c0.113-0.146,0.198-0.312,0.255-0.5
			c0.057-0.187,0.085-0.373,0.085-0.56s-0.028-0.372-0.085-0.555c-0.057-0.184-0.142-0.349-0.255-0.495
			c-0.114-0.146-0.257-0.266-0.43-0.355s-0.38-0.135-0.62-0.135c-0.24,0-0.446,0.045-0.62,0.135c-0.174,0.09-0.317,0.209-0.43,0.355
			s-0.198,0.312-0.255,0.495C144.671,68.208,144.643,68.394,144.643,68.58z"/>
		<path fill="#363737" d="M154.183,71h-1.14v-0.77h-0.02c-0.106,0.239-0.292,0.451-0.555,0.635
			c-0.263,0.183-0.575,0.274-0.935,0.274c-0.313,0-0.582-0.055-0.805-0.165c-0.224-0.109-0.407-0.255-0.55-0.435
			c-0.144-0.18-0.249-0.387-0.315-0.62c-0.066-0.233-0.1-0.474-0.1-0.72v-3h1.2v2.66c0,0.14,0.01,0.286,0.03,0.439
			s0.063,0.292,0.13,0.415c0.066,0.124,0.158,0.226,0.275,0.305c0.117,0.08,0.271,0.12,0.465,0.12c0.187,0,0.352-0.038,0.495-0.114
			c0.144-0.077,0.26-0.176,0.35-0.295c0.09-0.12,0.158-0.259,0.205-0.415c0.046-0.157,0.07-0.315,0.07-0.476V66.2h1.2V71z"/>
		<path fill="#363737" d="M154.932,67.16V66.2h0.84V64.81h1.18V66.2h1.2v0.96h-1.2v2.229c0,0.214,0.039,0.391,0.115,0.53
			s0.248,0.21,0.515,0.21c0.08,0,0.167-0.008,0.26-0.024s0.177-0.042,0.25-0.075l0.04,0.939c-0.107,0.04-0.233,0.072-0.38,0.096
			c-0.147,0.022-0.287,0.034-0.42,0.034c-0.32,0-0.58-0.045-0.78-0.135c-0.2-0.09-0.358-0.213-0.475-0.37
			c-0.117-0.156-0.196-0.336-0.24-0.54c-0.043-0.203-0.065-0.421-0.065-0.654v-2.24H154.932z"/>
	</g>
	<path clip-path="url(#SVGID_60_)" d="M106.904,61.857v5.714c0,0.179-0.06,0.337-0.179,0.475s-0.271,0.217-0.457,0.24l-11.652,1.362
		c0.008,0.052,0.024,0.132,0.051,0.24c0.025,0.108,0.048,0.207,0.066,0.296s0.028,0.171,0.028,0.246
		c0,0.119-0.089,0.357-0.269,0.714h10.269c0.193,0,0.36,0.071,0.502,0.212s0.212,0.309,0.212,0.502c0,0.194-0.07,0.361-0.212,0.502
		c-0.142,0.142-0.309,0.212-0.502,0.212H93.333c-0.193,0-0.361-0.07-0.502-0.212c-0.142-0.141-0.213-0.309-0.213-0.502
		c0-0.104,0.041-0.251,0.123-0.44c0.082-0.19,0.191-0.411,0.33-0.664c0.137-0.253,0.213-0.395,0.229-0.424l-1.976-9.185h-2.276
		c-0.194,0-0.361-0.071-0.503-0.212c-0.142-0.141-0.212-0.309-0.212-0.502s0.07-0.361,0.212-0.502
		c0.142-0.141,0.309-0.212,0.503-0.212h2.856c0.119,0,0.226,0.024,0.318,0.072c0.093,0.049,0.167,0.106,0.224,0.173
		c0.055,0.067,0.104,0.158,0.145,0.273s0.068,0.214,0.084,0.295c0.015,0.082,0.035,0.192,0.061,0.33
		c0.026,0.138,0.043,0.232,0.051,0.285h13.404c0.193,0,0.36,0.071,0.502,0.212C106.833,61.496,106.904,61.664,106.904,61.857z
		 M95.058,72.99c0.279,0.279,0.418,0.616,0.418,1.01s-0.139,0.731-0.418,1.01c-0.279,0.279-0.616,0.418-1.01,0.418
		c-0.395,0-0.731-0.14-1.011-0.418c-0.278-0.279-0.419-0.616-0.419-1.01s0.141-0.731,0.419-1.01
		c0.279-0.279,0.616-0.418,1.011-0.418C94.441,72.571,94.778,72.711,95.058,72.99z M105.058,72.99
		c0.279,0.279,0.418,0.616,0.418,1.01s-0.139,0.731-0.418,1.01c-0.279,0.279-0.616,0.418-1.01,0.418
		c-0.395,0-0.731-0.14-1.011-0.418c-0.278-0.279-0.419-0.616-0.419-1.01s0.141-0.731,0.419-1.01
		c0.279-0.279,0.616-0.418,1.011-0.418C104.441,72.571,104.778,72.711,105.058,72.99z"/>
	<g clip-path="url(#SVGID_60_)">
		<path fill="#363737" d="M215.273,61.04c0.66,0.012,1.326,0.123,1.998,0.333c0.672,0.21,1.254,0.525,1.746,0.945l-1.458,1.512
			c-0.276-0.312-0.621-0.549-1.035-0.711s-0.831-0.243-1.251-0.243v3.636c0.456,0.145,0.912,0.312,1.368,0.504
			c0.456,0.192,0.867,0.436,1.233,0.729c0.366,0.294,0.663,0.651,0.891,1.071c0.228,0.42,0.342,0.936,0.342,1.548
			c0,0.624-0.105,1.173-0.315,1.646c-0.21,0.475-0.492,0.87-0.846,1.188s-0.762,0.561-1.224,0.729
			c-0.462,0.168-0.945,0.258-1.449,0.271v1.296h-0.972v-1.296c-0.792-0.024-1.551-0.171-2.277-0.441
			c-0.726-0.27-1.377-0.681-1.953-1.232l1.584-1.513c0.324,0.385,0.732,0.699,1.224,0.945s0.966,0.375,1.422,0.387v-3.996
			c-0.528-0.144-1.02-0.309-1.476-0.495c-0.457-0.186-0.855-0.423-1.197-0.711c-0.342-0.288-0.609-0.633-0.801-1.034
			c-0.192-0.402-0.288-0.892-0.288-1.468c0-0.54,0.105-1.022,0.315-1.448s0.492-0.789,0.846-1.09c0.354-0.3,0.756-0.536,1.206-0.711
			c0.45-0.174,0.915-0.278,1.395-0.314v-1.225h0.972V61.04z M214.301,62.876c-0.42,0.048-0.792,0.204-1.116,0.468
			c-0.324,0.265-0.486,0.66-0.486,1.188c0,0.504,0.153,0.885,0.459,1.143c0.306,0.259,0.687,0.453,1.143,0.585V62.876z
			 M215.273,72.344c0.504-0.023,0.909-0.204,1.215-0.54c0.306-0.336,0.459-0.773,0.459-1.313c0-0.528-0.159-0.927-0.477-1.197
			c-0.318-0.27-0.717-0.489-1.197-0.657V72.344z"/>
		<path fill="#363737" d="M226.577,71.354h-5.886v-1.907l5.418-8.19h2.592V69.5h1.782v1.854h-1.782V74h-2.124V71.354z
			 M226.577,63.794h-0.036l-3.618,5.706h3.654V63.794z"/>
		<path fill="#363737" d="M239.23,61.256l-3.258,4.716l0.018,0.019c0.167-0.072,0.38-0.126,0.639-0.162
			c0.258-0.036,0.495-0.054,0.711-0.054c0.564,0,1.092,0.104,1.584,0.314s0.924,0.498,1.296,0.864
			c0.372,0.366,0.663,0.798,0.873,1.296s0.315,1.035,0.315,1.611c0,0.672-0.12,1.284-0.36,1.836s-0.567,1.022-0.981,1.413
			c-0.414,0.39-0.906,0.689-1.476,0.899s-1.179,0.315-1.827,0.315c-0.672,0-1.29-0.111-1.854-0.333
			c-0.564-0.222-1.056-0.531-1.476-0.927c-0.42-0.396-0.747-0.861-0.981-1.396c-0.234-0.534-0.351-1.107-0.351-1.719
			c0-0.36,0.03-0.699,0.09-1.018c0.06-0.317,0.147-0.623,0.261-0.918c0.114-0.294,0.252-0.591,0.414-0.891
			c0.162-0.3,0.345-0.612,0.549-0.936l3.186-4.933H239.23z M234.298,70.004c0,0.336,0.057,0.654,0.171,0.954
			c0.114,0.3,0.279,0.564,0.495,0.792c0.216,0.229,0.474,0.408,0.774,0.54s0.636,0.198,1.008,0.198c0.732,0,1.323-0.231,1.773-0.693
			c0.45-0.462,0.675-1.071,0.675-1.827c0-0.359-0.057-0.692-0.171-0.999c-0.114-0.306-0.279-0.566-0.495-0.783
			c-0.216-0.216-0.471-0.387-0.765-0.513c-0.294-0.126-0.621-0.188-0.981-0.188c-0.36,0-0.693,0.06-0.999,0.18
			c-0.306,0.12-0.57,0.291-0.792,0.513c-0.222,0.223-0.394,0.489-0.513,0.801C234.358,69.29,234.298,69.632,234.298,70.004z"/>
	</g>
	<g clip-path="url(#SVGID_60_)">
		<path fill="#363737" d="M184.015,69.338c-0.317-0.093-0.637-0.21-0.959-0.35c-0.322-0.141-0.611-0.317-0.868-0.532
			s-0.467-0.474-0.63-0.777c-0.164-0.303-0.245-0.669-0.245-1.099c0-0.401,0.072-0.763,0.217-1.085
			c0.145-0.322,0.341-0.598,0.588-0.826c0.247-0.229,0.534-0.406,0.861-0.532s0.672-0.198,1.036-0.217v-1.008h0.672v1.008
			c0.224,0.01,0.455,0.037,0.693,0.084c0.238,0.047,0.471,0.117,0.7,0.21c0.229,0.094,0.445,0.21,0.651,0.351
			c0.205,0.14,0.387,0.303,0.546,0.489l-0.77,0.588c-0.215-0.308-0.488-0.539-0.819-0.692c-0.332-0.154-0.665-0.235-1.001-0.245
			v3.85c0.354,0.122,0.702,0.26,1.043,0.413c0.341,0.154,0.644,0.346,0.91,0.574s0.48,0.502,0.644,0.819
			c0.163,0.317,0.245,0.704,0.245,1.162c0,0.392-0.072,0.749-0.217,1.07c-0.145,0.322-0.345,0.598-0.602,0.826
			s-0.558,0.408-0.903,0.539c-0.346,0.131-0.719,0.2-1.12,0.21v1.008h-0.672v-1.008c-0.635-0.019-1.202-0.163-1.701-0.434
			c-0.5-0.271-0.917-0.621-1.253-1.051l0.798-0.56c0.121,0.215,0.275,0.396,0.462,0.546c0.187,0.149,0.38,0.275,0.581,0.378
			s0.399,0.18,0.595,0.231c0.196,0.051,0.369,0.077,0.518,0.077V69.338z M184.015,64.704c-0.485,0.019-0.896,0.188-1.232,0.511
			c-0.336,0.322-0.504,0.749-0.504,1.281c0,0.504,0.159,0.898,0.476,1.183c0.317,0.285,0.737,0.497,1.26,0.638V64.704z
			 M184.687,73.356c0.205-0.01,0.417-0.05,0.637-0.119c0.219-0.07,0.417-0.18,0.595-0.329s0.322-0.343,0.434-0.581
			s0.168-0.529,0.168-0.875c0-0.477-0.173-0.877-0.518-1.204c-0.345-0.326-0.784-0.574-1.316-0.742V73.356z"/>
		<path fill="#363737" d="M195.425,65.012L191.435,74h-1.134l4.102-9.016h-4.858v-0.896h5.88V65.012z"/>
		<path fill="#363737" d="M203.223,64.984h-4.13l-0.07,3.065c0.214-0.074,0.439-0.131,0.677-0.168s0.468-0.056,0.691-0.056
			c0.465,0,0.893,0.074,1.284,0.224c0.391,0.149,0.73,0.362,1.019,0.637c0.289,0.276,0.512,0.604,0.67,0.987s0.237,0.803,0.237,1.26
			c0,0.477-0.078,0.917-0.234,1.323c-0.157,0.406-0.378,0.756-0.665,1.05c-0.287,0.294-0.633,0.525-1.04,0.693
			c-0.406,0.168-0.852,0.252-1.337,0.252c-0.719,0-1.325-0.163-1.82-0.49c-0.495-0.326-0.877-0.765-1.148-1.315l0.91-0.406
			c0.177,0.411,0.446,0.737,0.805,0.979c0.359,0.243,0.758,0.364,1.197,0.364c0.336,0,0.646-0.058,0.931-0.175
			c0.285-0.116,0.53-0.28,0.735-0.49c0.206-0.21,0.366-0.459,0.483-0.749c0.116-0.289,0.175-0.602,0.175-0.938
			c0-0.364-0.063-0.693-0.189-0.987s-0.299-0.544-0.518-0.749s-0.479-0.364-0.777-0.476c-0.299-0.112-0.625-0.168-0.98-0.168
			c-0.355,0-0.707,0.049-1.057,0.146c-0.35,0.099-0.684,0.231-1.001,0.399l0.098-5.11h5.054V64.984z"/>
	</g>
	
		<line clip-path="url(#SVGID_60_)" fill="none" stroke="#363737" stroke-miterlimit="10" x1="180.333" y1="70.5" x2="203.692" y2="70.5"/>
</g>
</svg>
