<?xml version="1.0" encoding="UTF-8" standalone="no"?>
<svg width="277px" height="120px" viewBox="0 0 277 120" version="1.1" xmlns="http://www.w3.org/2000/svg" xmlns:xlink="http://www.w3.org/1999/xlink">
    <!-- Generator: Sketch 3.7 (28169) - http://www.bohemiancoding.com/sketch -->
    <title>logo-white</title>
    <desc>Created with Sketch.</desc>
    <defs></defs>
    <g id="Page-1" stroke="none" stroke-width="1" fill="none" fill-rule="evenodd">
        <g id="Identity" transform="translate(-342.000000, -585.000000)" fill="#FFFFFF">
            <path d="M589.080384,686.581891 C588.964651,689.850701 588.262539,694.194541 586.04304,696.784385 C582.987692,700.346385 576.776696,699.801155 575.783965,694.600892 C575.297887,692.052197 575.979425,688.958272 577.087889,686.777351 C579.562,682.045163 584.057578,678.133392 589.15754,676.808894 C589.139537,679.769083 589.178114,683.624274 589.080384,686.581891 M371.047398,603.436835 C371.16313,600.162881 371.865243,595.824185 374.084742,593.23434 C377.140089,589.669768 383.351086,590.217571 384.343817,595.417834 C384.829895,597.948526 384.148357,601.060453 383.037321,603.223372 C380.565782,607.973563 376.067632,611.864759 370.96767,613.189257 C370.988245,610.231639 370.949668,606.397024 371.047398,603.436835 M446.209458,647.160708 C445.957418,653.291978 441.32296,661.197818 434.607883,661.138665 C424.816883,661.06151 421.542929,647.119559 423.27635,639.100558 C428.494616,646.263135 437.683805,648.405479 446.209458,647.160708 M445.957418,638.632482 C445.021268,633.707406 443.174686,629.852216 438.69711,627.264944 C430.909575,622.748791 426.820347,631.078985 432.720151,635.65429 C436.202424,638.359867 441.011767,639.31402 445.957418,638.632482 M565.52489,691.195774 C566.867391,710.623463 600.52765,710.487156 600.373339,684.75074 C600.352765,682.706126 600.352765,678.796927 600.373339,676.752314 C605.141533,677.472429 608.976148,684.480697 610.768722,688.667654 C611.000187,689.228316 611.60457,689.521506 612.188378,689.364623 C618.906027,687.613199 619.878183,680.563782 615.341455,675.777586 C611.625145,671.845241 605.666189,670.348429 600.450495,670.073242 C600.489072,654.634479 600.489072,639.31402 600.450495,623.877829 C600.450495,620.061217 589.527885,619.847754 589.178114,623.702944 C589.003229,634.039174 586.686,651.170209 578.198924,658.412514 C576.388348,659.968478 574.752657,660.086782 573.585041,659.230359 C572.04708,658.080746 572.358272,654.732209 572.319695,652.8059 C572.319695,643.26694 572.337698,633.437363 572.319695,623.895832 C572.29912,620.081791 561.340504,619.827179 560.990734,623.684941 C560.990734,632.462635 561.008737,640.970286 561.029312,649.652822 C553.514391,661.431855 535.681244,667.660855 530.192935,653.194248 C541.017815,657.01086 551.217737,648.153439 552.423931,637.408286 C552.794276,625.863291 544.986166,619.634291 536.421934,619.613716 C524.118246,619.554564 516.935093,631.078985 516.410438,643.16921 C516.214978,647.646786 516.935093,652.224664 518.668514,656.308747 C516.312708,658.667126 513.547978,660.361969 510.803824,660.243665 C507.259826,660.086782 507.630172,655.724939 507.609597,653.212251 C507.609597,647.664789 507.589022,642.060747 507.609597,636.510713 C507.630172,634.545827 507.630172,632.539791 507.434712,630.554329 C506.850904,624.775402 502.43248,620.138372 496.203481,619.752596 C487.40264,619.634291 481.191643,627.848752 478.097718,636.821906 C478.097718,631.801672 478.115721,628.88006 478.097718,623.857254 C478.097718,620.138372 468.226992,619.809176 466.825338,623.625789 C465.444259,627.39868 460.634916,633.085021 455.650688,635.340526 C452.654493,626.210489 445.450765,618.873026 434.628457,618.834448 C416.057191,618.736718 407.413233,639.198288 412.821815,654.868516 C410.21654,657.965013 406.886006,660.379972 403.653201,660.243665 C400.111776,660.086782 400.461546,655.724939 400.461546,653.212251 C400.461546,647.664789 400.440971,642.119899 400.461546,636.569866 C400.479549,634.584404 400.479549,632.58094 400.266086,630.613481 C399.702853,624.831982 396.295163,620.138372 389.832126,619.752596 C378.678051,619.281949 374.239053,630.050248 370.949668,638.925672 C370.931665,632.598943 370.949668,626.290216 370.949668,619.963487 C380.720093,618.4461 394.232547,612.955219 394.641469,600.556373 C395.302432,579.472418 359.600132,578.672575 359.757014,605.247411 C359.775017,607.3126 359.775017,611.203795 359.757014,613.266412 C354.986249,612.528294 351.151634,605.517454 349.35906,601.33564 C349.125023,600.79041 348.523212,600.494648 347.939404,600.630956 C341.221754,602.384952 340.249598,609.431797 344.783755,614.24114 C348.505209,618.170913 354.459021,619.670297 359.677287,619.963487 C359.63871,635.322523 359.656713,650.606975 359.656713,665.966011 C359.852172,668.126358 362.830365,668.712738 364.543211,668.769318 C366.51067,668.810468 370.190974,668.203513 370.345285,665.693396 C371.026823,658.178476 377.39213,629.677331 386.115815,629.659328 C388.139855,629.659328 389.150588,631.004401 389.150588,632.969288 C389.150588,641.088591 389.132585,649.205322 389.150588,657.322053 C389.150588,664.854976 393.414701,669.918931 401.143084,669.936934 C407.158621,669.936934 412.510622,665.634244 415.76143,660.22309 C419.930384,666.06117 426.527157,670.016661 434.587308,670.055239 C449.557996,669.821201 458.163377,657.826134 457.191221,643.539556 C460.850951,641.533519 464.196916,639.059408 466.727608,635.811173 C466.727608,645.874787 466.707033,655.920399 466.707033,665.966011 C466.905065,668.126358 469.99899,668.712738 471.711836,668.769318 C473.542987,668.810468 477.475333,668.224088 477.493336,665.731974 C478.468063,656.46563 482.477564,629.620751 493.281869,629.602748 C495.287905,629.602748 496.319214,630.945249 496.319214,632.910136 C496.319214,641.026867 496.298639,649.205322 496.298639,657.322053 C496.298639,664.854976 500.562752,669.918931 508.291135,669.936934 C513.722863,669.936934 518.588787,666.454661 521.880744,661.799629 C525.86967,666.902162 532.098669,670.348429 540.819783,670.348429 C550.165854,670.348429 556.940084,666.238627 561.494815,659.562127 C562.50812,665.305048 565.545465,669.900929 573.03981,669.900929 C581.488309,669.880354 586.686,659.153204 589.178114,652.631014 L589.178114,670.055239 C578.198924,671.940399 564.609315,678.01766 565.52489,691.195774 M529.025319,649.6914 C534.922551,648.171442 540.120242,641.476939 541.035818,635.245368 C541.794511,629.988524 539.536434,626.835447 536.673975,626.681136 C533.304863,626.506251 529.141052,630.379444 528.186899,638.51675 C527.662243,642.935173 528.089169,647.451326 529.025319,649.6914" id="logo-white"></path>
        </g>
    </g>
</svg>
