<?xml version="1.0" encoding="UTF-8" standalone="no"?>
<svg width="193px" height="84px" viewBox="0 0 193 84" version="1.1" xmlns="http://www.w3.org/2000/svg" xmlns:xlink="http://www.w3.org/1999/xlink">
    <!-- Generator: sketchtool 3.6.1 (26313) - http://www.bohemiancoding.com/sketch -->
    <title>logo-white</title>
    <desc>Created with sketchtool.</desc>
    <defs></defs>
    <g id="Page-1" stroke="none" stroke-width="1" fill="none" fill-rule="evenodd">
        <g id="welcome" transform="translate(-133.000000, -73.000000)" fill="#FFFFFF">
            <g id="hero">
                <g id="text" transform="translate(133.000000, 73.000000)">
                    <path d="M172.697604,71.0009789 C172.616712,73.285724 172.125968,76.3218644 170.574642,78.1320441 C168.439098,80.6217152 164.097902,80.2406247 163.40403,76.6058847 C163.064284,74.8244666 163.540647,72.661958 164.315411,71.1375962 C166.044699,67.8300188 169.186898,65.0958746 172.751532,64.1701124 C172.738948,66.2391459 172.765912,68.933743 172.697604,71.0009789 M20.3027689,12.8864831 C20.3836608,10.5981428 20.8744046,7.56559754 22.4257303,5.7554179 C24.5612749,3.26394922 28.9024704,3.64683726 29.5963426,7.2815773 C29.9360883,9.05041221 29.4597253,11.2255039 28.6831636,12.7372825 C26.9556734,16.0574432 23.8116772,18.7772066 20.2470434,19.7029688 C20.2614242,17.6357329 20.2344603,14.9555166 20.3027689,12.8864831 M72.8375254,43.4474204 C72.6613609,47.7328904 69.4220921,53.2587019 64.7285678,53.2173572 C57.885118,53.1634293 55.5967778,43.4186589 56.8083578,37.8137531 C60.455681,42.8200593 66.8784931,44.3174571 72.8375254,43.4474204 M72.6613609,37.4865906 C72.0070358,34.0441934 70.7163616,31.3495963 67.5867461,29.5412142 C62.1436241,26.3846348 59.2854457,32.2070498 63.409132,35.4049739 C65.8430776,37.2960453 69.2045829,37.9629536 72.6613609,37.4865906 M156.233418,74.225867 C157.171763,87.8049106 180.698706,87.709638 180.59085,69.7210902 C180.576469,68.2920011 180.576469,65.5596544 180.59085,64.1305653 C183.923594,64.6338923 186.60381,69.5323426 187.856735,72.4588296 C188.018518,72.8507057 188.440954,73.0556317 188.849008,72.9459783 C193.54433,71.7218151 194.223821,66.7946032 191.052861,63.4492762 C188.455334,60.7007512 184.290303,59.6545501 180.644778,59.4622073 C180.671742,48.6712357 180.671742,37.9629536 180.644778,27.1737797 C180.644778,24.5061465 173.010386,24.356946 172.765912,27.0515431 C172.643676,34.2760833 171.024041,46.2498733 165.091973,51.3119049 C163.826465,52.3994508 162.683194,52.4821402 161.867085,51.8835406 C160.792122,51.080015 161.009632,48.7395444 160.982668,47.3931446 C160.982668,40.7258594 160.995251,33.8554457 160.982668,27.1863629 C160.968287,24.5205273 153.308728,24.3425653 153.064255,27.03896 C153.064255,33.1741567 153.076838,39.1206057 153.091219,45.1892914 C147.838642,53.4222832 135.374109,57.7760618 131.538038,47.6645817 C139.104121,50.3322148 146.233389,44.1412927 147.076461,36.6309347 C147.335315,28.5615242 141.877813,24.2077455 135.891816,24.1933648 C127.292115,24.15202 122.271428,32.2070498 121.904718,40.6575507 C121.768101,43.7871661 122.271428,46.9868878 123.483008,49.841471 C121.83641,51.489867 119.903993,52.674483 117.985958,52.5917936 C115.50887,52.4821402 115.767724,49.4334166 115.753343,47.6771649 C115.753343,43.7997493 115.738962,39.8827866 115.753343,36.0035735 C115.767724,34.6302098 115.767724,33.2280846 115.631107,31.8403401 C115.223052,27.8011409 112.134782,24.5600744 107.781003,24.290435 C101.629628,24.2077455 97.2884324,29.9492686 95.1259238,36.2210827 C95.1259238,32.7121744 95.138507,30.6701048 95.1259238,27.1593989 C95.1259238,24.5600744 88.2267486,24.3299821 87.2470586,26.9976152 C86.2817493,29.6346892 82.9202439,33.609175 79.436502,35.1856671 C77.3423021,28.8041997 72.3072344,23.675657 64.7429485,23.648693 C51.7625045,23.5803844 45.7207828,37.8820618 49.5011282,48.834817 C47.680163,50.9991231 45.3522755,52.6870662 43.0926968,52.5917936 C40.6174065,52.4821402 40.8618796,49.4334166 40.8618796,47.6771649 C40.8618796,43.7997493 40.8474988,39.9241314 40.8618796,36.0449182 C40.8744628,34.6571737 40.8744628,33.2568461 40.7252623,31.8816848 C40.3315886,27.840688 37.9497733,24.5600744 33.4324134,24.290435 C25.6362376,23.9614748 22.5335861,31.4880112 20.2344603,37.6915166 C20.2218771,33.2694293 20.2344603,28.8599252 20.2344603,24.4378379 C27.0635292,23.377256 36.508101,19.5393875 36.7939188,10.873175 C37.2559011,-3.86352074 12.3016671,-4.42257324 12.4113205,14.151991 C12.4239036,15.5954609 12.4239036,18.3152244 12.4113205,19.7568967 C9.07677904,19.2409865 6.39656272,14.3407386 5.14363799,11.4178467 C4.98005672,11.0367563 4.55941914,10.8300327 4.15136475,10.9253053 C-0.543957197,12.1512661 -1.22344866,17.0766804 1.9457139,20.4381858 C4.54683597,23.1849132 8.70827177,24.2329119 12.355595,24.4378379 C12.328631,35.1730839 12.3412142,45.8561997 12.3412142,56.5914457 C12.4778315,58.1014267 14.5594482,58.5112787 15.7566475,58.5508259 C17.1318088,58.5795874 19.7041693,58.1553546 19.8120251,56.4009005 C20.2883881,51.1483236 24.7374394,31.2273597 30.8348866,31.2147765 C32.249595,31.2147765 32.9560504,32.1549195 32.9560504,33.5282832 C32.9560504,39.2032952 32.9434672,44.8765096 32.9560504,50.549724 C32.9560504,55.814884 35.9364653,59.3543515 41.3382427,59.3669346 C45.5428208,59.3669346 49.283619,56.3595558 51.5557809,52.5774128 C54.4696848,56.6579568 59.0805197,59.4226601 64.714187,59.4496241 C75.177996,59.2860428 81.1927537,50.9020529 80.5132622,40.9164046 C83.071242,39.5142794 85.409915,37.7849916 87.1787499,35.5146273 C87.1787499,42.5486222 87.1643691,49.570034 87.1643691,56.5914457 C87.3027841,58.1014267 89.4652926,58.5112787 90.6624918,58.5508259 C91.9423805,58.5795874 94.6909055,58.1697354 94.7034887,56.4278644 C95.3847777,49.9511244 98.1872306,31.1878126 105.738933,31.1752294 C107.141059,31.1752294 107.861895,32.1135748 107.861895,33.4869384 C107.861895,39.1601529 107.847514,44.8765096 107.847514,50.549724 C107.847514,55.814884 110.827929,59.3543515 116.229706,59.3669346 C120.02623,59.3669346 123.427282,56.932989 125.728206,53.6793395 C128.516278,57.2457708 132.870057,59.6545501 138.965706,59.6545501 C145.498172,59.6545501 150.233041,56.7819909 153.416584,52.1154305 C154.124837,56.1294634 156.247799,59.3417683 161.485995,59.3417683 C167.391099,59.3273875 171.024041,51.8296127 172.765912,47.2709081 L172.765912,59.4496241 C165.091973,60.7672623 155.593473,65.0149827 156.233418,74.225867 M130.721929,45.2162553 C134.843818,44.1538758 138.47676,39.4747322 139.116704,35.119156 C139.646995,31.4448689 138.068706,29.2410156 136.067981,29.1331598 C133.713129,29.0109233 130.802821,31.7181035 130.135912,37.4056987 C129.769203,40.4939694 130.067604,43.6505488 130.721929,45.2162553" id="logo-white"></path>
                </g>
            </g>
        </g>
    </g>
</svg>
