<?xml version="1.0" encoding="UTF-8" standalone="no"?>
<svg width="128px" height="22px" viewBox="0 0 128 22" version="1.1" xmlns="http://www.w3.org/2000/svg" xmlns:xlink="http://www.w3.org/1999/xlink">
    <!-- Generator: sketchtool 3.6.1 (26313) - http://www.bohemiancoding.com/sketch -->
    <title>DD5275D0-FEFE-4BEC-BA0D-C4E765A3C3B5</title>
    <desc>Created with sketchtool.</desc>
    <defs></defs>
    <g id="Page-1" stroke="none" stroke-width="1" fill="none" fill-rule="evenodd">
        <g id="welcome---install---unsupported-browser" transform="translate(-237.000000, -538.000000)" fill="#FFFFFF">
            <g id="social-proof" transform="translate(128.000000, 486.000000)">
                <g id="mashable" transform="translate(109.000000, 52.000000)">
                    <path d="M18.8479116,21.6082849 L18.8479116,7.40063372 L13.4379581,21.6082849 L10.9885395,21.6082849 L5.54328372,7.40063372 L5.54328372,21.6082849 L0.00120232558,21.6082849 L0.00120232558,0.123877907 L7.70196977,0.123877907 L12.2132488,11.9793198 L16.6892256,0.123877907 L24.3901209,0.123877907 L24.3901209,21.6082849 L18.8479116,21.6082849 Z" id="Fill-1"></path>
                    <g id="Group-12" transform="translate(25.197674, 0.000000)">
                        <path d="M10.2052628,17.6131872 L10.2052628,16.2301291 C9.68979767,15.4887802 8.53121628,15.132943 7.43415814,15.132943 C6.14779767,15.132943 4.95391395,15.714536 4.95391395,16.9396291 C4.95391395,18.1647221 6.14779767,18.7404314 7.43415814,18.7404314 C8.53121628,18.7404314 9.68979767,18.3586291 10.2052628,17.6131872 L10.2052628,17.6131872 Z M10.2052628,21.6082337 L10.2052628,20.0633733 C9.24046047,21.2205477 7.36815814,21.9960477 5.37242558,21.9960477 C2.98913488,21.9960477 0.0241232558,20.3532105 0.0241232558,16.873757 C0.0241232558,13.1065128 2.98913488,11.8473965 5.37242558,11.8473965 C7.43415814,11.8473965 9.27128605,12.5249198 10.2052628,13.6840128 L10.2052628,12.1371058 C10.2052628,10.7841058 9.04655349,9.8507686 7.04647209,9.8507686 C5.50020465,9.8507686 3.9538093,10.4624198 2.69827442,11.5255826 L0.861146512,8.08015233 C2.86122791,6.37131512 5.53537907,5.66590814 7.91879767,5.66590814 C11.6547047,5.66590814 15.1658791,7.04883837 15.1658791,11.8812919 L15.1658791,21.6082337 L10.2052628,21.6082337 Z" id="Fill-2"></path>
                        <path d="M15.5182756,19.579757 L17.580136,16.0383965 C18.7387174,17.0695826 21.2189616,18.1308267 23.0560895,18.1308267 C24.536357,18.1308267 25.1487756,17.711164 25.1487756,17.0336407 C25.1487756,15.1030128 16.0998686,17.0995128 16.0998686,10.7861523 C16.0998686,8.04612907 18.4832872,5.66181512 22.765357,5.66181512 C25.4086826,5.66181512 27.5981942,6.49922209 29.2722407,7.72431512 L27.3735895,11.2358733 C26.4396128,10.3324663 24.6686128,9.53100116 22.8006593,9.53100116 C21.6376012,9.53100116 20.8665779,9.98072209 20.8665779,10.5922453 C20.8665779,12.2969895 29.8846593,10.5263733 29.8846593,16.9057337 C29.8846593,19.8695942 27.276636,21.9940012 22.8314849,21.9940012 C20.0295547,21.9940012 17.1616244,21.060664 15.5182756,19.579757" id="Fill-4"></path>
                        <path d="M41.0618233,21.6082849 L41.0618233,12.5549012 C41.0618233,10.65625 40.0618465,10.0447267 38.4847535,10.0447267 C37.0353116,10.0447267 36.0705093,10.850157 35.4889163,11.5595291 L35.4889163,21.6082849 L30.5283,21.6082849 L30.5283,0.123877907 L35.4889163,0.123877907 L35.4889163,7.9521686 C36.422893,6.85498256 38.2600209,5.6658314 40.8680442,5.6658314 C44.4100442,5.6658314 46.0224395,7.66041279 46.0224395,10.528343 L46.0224395,21.6082849 L41.0618233,21.6082849 Z" id="Fill-6"></path>
                        <path d="M56.909293,17.6131872 L56.909293,16.2301291 C56.3939558,15.4887802 55.2352465,15.132943 54.1383163,15.132943 C52.8518279,15.132943 51.6579442,15.714536 51.6579442,16.9396291 C51.6579442,18.1647221 52.8518279,18.7404314 54.1383163,18.7404314 C55.2352465,18.7404314 56.3939558,18.3586291 56.909293,17.6131872 L56.909293,17.6131872 Z M56.909293,21.6082337 L56.909293,20.0633733 C55.9444907,21.2205477 54.0721884,21.9960477 52.0765837,21.9960477 C49.6931651,21.9960477 46.7281535,20.3532105 46.7281535,16.873757 C46.7281535,13.1065128 49.6931651,11.8473965 52.0765837,11.8473965 C54.1383163,11.8473965 55.9753163,12.5249198 56.909293,13.6840128 L56.909293,12.1371058 C56.909293,10.7841058 55.7507116,9.8507686 53.7506302,9.8507686 C52.2042349,9.8507686 50.6579674,10.4624198 49.4024326,11.5255826 L47.5653047,8.08015233 C49.565386,6.37131512 52.2395372,5.66590814 54.6229558,5.66590814 C58.3587349,5.66590814 61.8699093,7.04883837 61.8699093,11.8812919 L61.8699093,21.6082337 L56.909293,21.6082337 Z" id="Fill-8"></path>
                        <path d="M71.5004349,17.6131872 C73.465214,17.6131872 74.9456093,16.164257 74.9456093,13.8160128 C74.9456093,11.4936058 73.465214,10.0446756 71.5004349,10.0446756 C70.4386791,10.0446756 69.1478419,10.6262686 68.5354233,11.4636756 L68.5354233,16.2301291 C69.1478419,17.067536 70.4386791,17.6131872 71.5004349,17.6131872 L71.5004349,17.6131872 Z M63.5749349,21.6082337 L63.5749349,0.123954651 L68.5354233,0.123954651 L68.5354233,7.88624535 C69.7602605,6.33933837 71.434307,5.66590814 73.1437837,5.66590814 C77.0425163,5.66590814 80.0030512,8.72365233 80.0030512,13.8160128 C80.0030512,19.0980593 76.9765163,21.9960477 73.1437837,21.9960477 C71.4034814,21.9960477 69.8262605,21.2865477 68.5354233,19.8075593 L68.5354233,21.6082337 L63.5749349,21.6082337 Z" id="Fill-10"></path>
                    </g>
                    <path d="M105.909535,21.6102674 L110.870151,21.6102674 L110.870151,0.12394186 L105.909535,0.12394186 L105.909535,21.6102674 Z" id="Fill-13"></path>
                    <path d="M119.823921,9.65897209 C117.665235,9.65897209 116.828212,10.9461 116.634305,12.0732163 L123.044363,12.0732163 C122.916584,10.9760302 122.110386,9.65897209 119.823921,9.65897209 M111.576735,13.8139023 C111.576735,9.30121628 114.960258,5.66392558 119.823921,5.66392558 C124.432026,5.66392558 127.780247,9.04744884 127.780247,14.3296233 L127.780247,15.4567395 L116.700433,15.4567395 C117.052816,16.8397977 118.343653,18.0028558 120.594816,18.0028558 C121.691874,18.0028558 123.498177,17.5192395 124.396851,16.6818326 L126.555537,19.9334837 C125.009142,21.320507 122.432072,21.9940651 120.048653,21.9940651 C115.250991,21.9940651 111.576735,18.8703209 111.576735,13.8139023" id="Fill-14"></path>
                </g>
            </g>
        </g>
    </g>
</svg>
