<?xml version="1.0" encoding="UTF-8" standalone="no"?>
<svg width="1140px" height="440px" viewBox="0 0 1140 440" version="1.1" xmlns="http://www.w3.org/2000/svg" xmlns:xlink="http://www.w3.org/1999/xlink">
    <!-- Generator: sketchtool 3.6.1 (26313) - http://www.bohemiancoding.com/sketch -->
    <title>peeps</title>
    <desc>Created with sketchtool.</desc>
    <defs>
        <path id="path-1" d="M0,349.457843 L310.596405,349.457843 L310.596405,0 L0,0 L0,349.457843 Z"></path>
    </defs>
    <g id="Page-1" stroke="none" stroke-width="1" fill="none" fill-rule="evenodd">
        <g id="welcome" transform="translate(-129.000000, -2238.000000)">
            <g id="sign-up" transform="translate(0.000000, 1894.000000)">
                <g id="peeps" transform="translate(129.000000, 333.000000)">
                    <g id="palm-tree" transform="translate(169.000000, 325.000000)">
                        <g id="2" transform="translate(759.000000, 0.000000)">
                            <path d="M18.4011267,86.2727273 C11.2559575,77.3646192 6.26624949,61.724133 8.19718258,40.0774641 C9.25487618,28.2200307 12.9604036,18.1768405 17.9222248,12.4471588 L17.9222248,12.4471588 L19.8771778,19.964749 C15.8123819,24.6585011 13.0730072,32.656035 12.2307016,42.0986822 C10.5760532,60.6482671 16.5396076,80.0893563 25.8699635,86.2727273 L18.4011267,86.2727273 L18.4011267,86.2727273 Z" id="Shape" stroke="#544D33" fill="#8B815D"></path>
                            <path d="M20.692855,18.5415407 L33.330655,33.9706724 C34.8148804,28.1707461 33.4759381,21.8030898 30.2897497,17.5902197 L41.569956,18.7149998 C37.897308,10.9970561 30.2204141,6.66204994 24.4231063,9.03247188 C23.1927244,9.53555423 22.122136,10.3167641 21.2480509,11.3268653 C21.0050577,9.50119567 20.3667899,7.73348004 19.352607,6.14815651 C15.4584606,0.0609965685 7.20531804,-1.7132733 0.918677427,2.1852206 L10.8725809,9.20385284 C6.44729267,10.4976821 2.68303669,14.9081747 1.52855573,20.8345085 L16.0619252,17.37291 C17.5212285,17.6711233 19.299285,18.0799101 20.692855,18.5415407 L20.692855,18.5415407 Z" id="Shape" stroke="#3A6D26" fill="#8CDA6D"></path>
                        </g>
                        <g id="3" transform="translate(0.399994, 9.363636)">
                            <path d="M13.7424914,70.9090909 C8.09062477,63.8627303 4.14373931,51.491023 5.67111762,34.3683934 C6.50775884,24.9891008 9.43885062,17.0448841 13.3636774,12.5126757 L13.3636774,12.5126757 L14.9100556,18.4591293 C11.6947806,22.171912 9.52792069,28.4980036 8.86165251,35.9671875 C7.55281689,50.6400072 12.27002,66.0180118 19.6503808,70.9090909 L13.7424914,70.9090909 L13.7424914,70.9090909 Z" id="Shape" stroke="#544D33" fill="#8B815D"></path>
                            <path d="M16.3681579,15.4574622 L26.3647245,27.6619869 C27.5387546,23.0742146 26.4796441,18.0373647 23.9593523,14.7049622 L32.8820552,15.5946691 C29.9769711,9.48973487 23.9045074,6.06072203 19.3188063,7.93573834 C18.3455677,8.33367914 17.4987266,8.9516203 16.8073206,9.75061569 C16.6151117,8.30650134 16.1102385,6.9082289 15.3080146,5.65422962 C12.2277241,0.839253899 5.69944471,-0.564202955 0.726678704,2.51952634 L8.60026901,8.07130159 C5.09984262,9.09472737 2.12229622,12.5834504 1.20909567,17.2712118 L12.7050678,14.5330691 C13.8593844,14.7689573 15.2658366,15.0923099 16.3681579,15.4574622 L16.3681579,15.4574622 Z" id="Shape" stroke="#3A6D26" fill="#8CDA6D"></path>
                        </g>
                        <g id="1" transform="translate(801.000000, 26.000000)">
                            <path d="M12.3225487,60 C7.48905187,53.9237096 4.11366115,43.2552113 5.41988059,28.4898487 C6.13537919,20.4018004 8.6420595,13.5512615 11.9985856,9.64300073 L11.9985856,9.64300073 L13.3210539,14.770808 C10.571339,17.9724531 8.71823252,23.4276337 8.14843758,29.8685375 C7.02911661,42.5213546 11.0632857,55.7822741 17.374997,60 L12.3225487,60 L12.3225487,60 Z" id="Shape" stroke="#544D33" fill="#8B815D"></path>
                            <path d="M13.9981079,13.3294382 L22.5472078,23.8537699 C23.5512426,19.8975948 22.6454875,15.5541665 20.4901249,12.6805347 L28.1208526,13.447756 C25.6364142,8.18328609 20.4432214,5.22634436 16.5215131,6.84322775 C15.6891959,7.18638416 14.9649743,7.71925355 14.3736815,8.4082515 C14.2093037,7.16294794 13.7775343,5.95717523 13.0914695,4.87581362 C10.4571939,0.723714081 4.87418573,-0.486529313 0.62145826,2.17266395 L7.35498118,6.96012806 C4.36140386,7.84265912 1.81499541,10.8510908 1.03402299,14.8934895 L10.86542,12.532306 C11.8525958,12.7357196 13.0553987,13.0145563 13.9981079,13.3294382 L13.9981079,13.3294382 Z" id="Shape" stroke="#3A6D26" fill="#8CDA6D"></path>
                        </g>
                    </g>
                    <path d="M1140,450 C1140,450 943.284372,362.421875 535.324264,362.421875 C127.364156,362.421875 0,450 0,450 L0,450" id="grass" stroke="#5D616A" fill="#FFFAE7"></path>
                    <path d="M714.457031,215.96875 C714.457031,215.96875 754.640625,166.269531 800.992188,175.550781 C847.34375,184.832031 952.484375,217.22265 938.101562,128.390625" id="Path-3327" stroke="#979797" stroke-linecap="round" stroke-linejoin="round" stroke-dasharray="5"></path>
                    <path d="M235.457031,176.787045 C235.457031,176.787045 293.474425,209.124242 370.228516,203.185483 C414.454527,199.763546 480.874495,121.005672 505,176.787045" id="Path-3326" stroke="#979797" stroke-linecap="round" stroke-linejoin="round" stroke-dasharray="5" transform="translate(370.228516, 180.393522) scale(1, -1) translate(-370.228516, -180.393522) "></path>
                    <g transform="translate(432.000000, 68.000000)">
                        <g id="Group-4" transform="translate(67.339869, 237.366340)">
                            <path d="M0.610686275,0.617647059 L0.610686275,77.4254902 C0.610686275,81.9205882 3.29630719,85.5601307 6.60643791,85.5601307 C9.92114379,85.5601307 39.3097059,107.248693 12.6067647,77.4254902 L12.6067647,0.617647059" id="Fill-1" fill="#BDBDC6"></path>
                            <path d="M0.610686275,0.617647059 L0.610686275,77.4254902 C0.610686275,81.9205882 3.29630719,85.5601307 6.60643791,85.5601307 C9.92114379,85.5601307 39.3097059,107.248693 12.6067647,77.4254902 L12.6067647,0.617647059" id="Stroke-3" stroke="#5A6369" stroke-linecap="round" stroke-linejoin="round"></path>
                        </g>
                        <path d="M79.9468627,313.741144 C82.8635294,317.931993 91.2475163,326.670556 91.2475163,326.670556 C93.786732,329.562059 93.9468627,331.113039 91.5288889,331.398987 C91.5288889,331.398987 86.5145098,332.009771 83.1952288,331.113039 C75.9024183,329.16402 72.0386928,323.852255 71.2677778,323.449641 L70.7439216,328.637876 C68.8200654,329.763366 67.7311765,328.431993 67.7311765,328.431993 C67.7311765,328.431993 65.4596078,313.178399 67.4749673,311.631993 C67.8203922,311.368922 67.4749673,311.631993 67.4749673,311.631993 C67.3056863,311.766961 72.9926144,321.550948 81.4635294,323.351275 C82.9001307,323.660098 84.6958824,323.801928 85.5216993,322.150294 C85.9723529,321.237549 80.3563399,314.562386 79.9468627,313.741144" id="Fill-5" fill="#F4933C"></path>
                        <path d="M79.9468627,313.741144 C82.8635294,317.931993 91.2475163,326.670556 91.2475163,326.670556 C93.786732,329.562059 93.9468627,331.113039 91.5288889,331.398987 C91.5288889,331.398987 86.5145098,332.009771 83.1952288,331.113039 C75.9024183,329.16402 72.0386928,323.852255 71.2677778,323.449641 L70.7439216,328.637876 C68.8200654,329.763366 67.7311765,328.431993 67.7311765,328.431993 C67.7311765,328.431993 65.4596078,313.178399 67.4749673,311.631993 C67.8203922,311.368922 67.4749673,311.631993 67.4749673,311.631993 C67.3056863,311.766961 72.9926144,321.550948 81.4635294,323.351275 C82.9001307,323.660098 84.6958824,323.801928 85.5216993,322.150294 C85.9723529,321.237549 80.3563399,314.562386 79.9468627,313.741144 L79.9468627,313.741144 Z" id="Stroke-7" stroke="#5A6369"></path>
                        <path d="M309.453529,167.691176 C309.47183,148.219281 302.62281,127.418301 285.978366,109.982353 L285.978366,109.986928 L280.616275,115.104248 C295.895033,131.142484 302.023464,149.916667 302.039477,167.691176 C302.057778,185.44281 295.803529,202.144444 286.406144,213.463399 L292.118235,218.19183 C302.716601,205.37451 309.437516,187.172222 309.453529,167.691176" id="Fill-9" fill="#64BFE4"></path>
                        <path d="M309.453529,167.691176 C309.47183,148.219281 302.62281,127.418301 285.978366,109.982353 L285.978366,109.986928 L280.616275,115.104248 C295.895033,131.142484 302.023464,149.916667 302.039477,167.691176 C302.057778,185.44281 295.803529,202.144444 286.406144,213.463399 L292.118235,218.19183 C302.716601,205.37451 309.437516,187.172222 309.453529,167.691176 L309.453529,167.691176 Z" id="Stroke-11" stroke="#5A6369"></path>
                        <path d="M107.632549,219.937941 L99.4018301,216.746765 C110.878627,187.150033 104.596928,143.921601 70.3518301,122.098072 L75.0962745,114.656569 C113.303464,139.003301 120.374379,187.072255 107.632549,219.937941" id="Fill-13" fill="#F4933C"></path>
                        <path d="M107.632549,219.937941 L99.4018301,216.746765 C110.878627,187.150033 104.596928,143.921601 70.3518301,122.098072 L75.0962745,114.656569 C113.303464,139.003301 120.374379,187.072255 107.632549,219.937941 L107.632549,219.937941 Z" id="Stroke-15" stroke="#5A6369"></path>
                        <path d="M24.6875817,197.911046 L15.875817,197.40549 L16.0062092,194.957778 C16.8457516,178.535229 18.8153595,140.07183 49.2196078,114.190131 L54.9431373,120.911046 C27.4349673,144.326732 25.6026144,180.12281 24.822549,195.408431 L24.6875817,197.911046 Z" id="Fill-17" fill="#F4933C"></path>
                        <path d="M24.6875817,197.911046 L15.875817,197.40549 L16.0062092,194.957778 C16.8457516,178.535229 18.8153595,140.07183 49.2196078,114.190131 L54.9431373,120.911046 C27.4349673,144.326732 25.6026144,180.12281 24.822549,195.408431 L24.6875817,197.911046 L24.6875817,197.911046 Z" id="Stroke-19" stroke="#5A6369"></path>
                        <path d="M84.7857843,126.071144 C81.9743464,116.689771 75.6560458,109.717222 68.0086601,108.099902 L68.0086601,102.046961 L56.595915,102.046961 L56.595915,108.260033 C49.1566993,110.133562 43.0465686,117.07866 40.354085,126.338791 C39.3978758,129.635196 38.8671569,133.212974 38.8671569,136.966895 L38.8671569,202.206438 C38.8671569,218.347614 48.6076797,231.434869 60.6174837,231.434869 L64.6047386,231.434869 C76.6168301,231.434869 86.3527778,218.347614 86.3527778,202.206438 L86.3527778,136.966895 C86.3527778,133.11232 85.7923203,129.440752 84.7857843,126.071144" id="Fill-21" fill="#FDCC99"></path>
                        <path d="M84.7857843,126.071144 C81.9743464,116.689771 75.6560458,109.717222 68.0086601,108.099902 L68.0086601,102.046961 L56.595915,102.046961 L56.595915,108.260033 C49.1566993,110.133562 43.0465686,117.07866 40.354085,126.338791 C39.3978758,129.635196 38.8671569,133.212974 38.8671569,136.966895 L38.8671569,202.206438 C38.8671569,218.347614 48.6076797,231.434869 60.6174837,231.434869 L64.6047386,231.434869 C76.6168301,231.434869 86.3527778,218.347614 86.3527778,202.206438 L86.3527778,136.966895 C86.3527778,133.11232 85.7923203,129.440752 84.7857843,126.071144 L84.7857843,126.071144 Z" id="Stroke-23" stroke="#5A6369"></path>
                        <path d="M53.2176144,237.983987 L53.2176144,314.79183 C53.2176144,319.286928 50.5319935,322.926471 47.2218627,322.926471 C43.9071569,322.926471 14.5185948,344.615033 41.2215359,314.79183 L41.2215359,237.983987 L53.2176144,237.983987 Z" id="Fill-25" fill="#BDBDC6"></path>
                        <path d="M53.2176144,237.983987 L53.2176144,314.79183 C53.2176144,319.286928 50.5319935,322.926471 47.2218627,322.926471 C43.9071569,322.926471 14.5185948,344.615033 41.2215359,314.79183 L41.2215359,237.983987 L53.2176144,237.983987 L53.2176144,237.983987 Z" id="Stroke-27" stroke="#5A6369" stroke-linecap="round" stroke-linejoin="round"></path>
                        <path d="M54.3165686,14.9202941 C43.2446732,16.8784641 32.7766993,22.8010131 26.4629739,32.6376144 C20.670817,41.657549 16.5508824,52.5670261 14.8672222,63.4513399 C14.4508824,66.1506863 14.1923856,96.1729085 15.9721242,95.7863072 C44.5874837,89.635 77.6842157,82.7928431 106.308725,91.4536275 C111.846961,66.4617974 106.71134,35.5840196 85.9583987,21.0990523 C77.2152614,14.9912092 65.4593791,12.9506863 54.3165686,14.9202941" id="Fill-29" fill="#A8704A"></path>
                        <path d="M54.3165686,14.9202941 C43.2446732,16.8784641 32.7766993,22.8010131 26.4629739,32.6376144 C20.670817,41.657549 16.5508824,52.5670261 14.8672222,63.4513399 C14.4508824,66.1506863 14.1923856,96.1729085 15.9721242,95.7863072 C44.5874837,89.635 77.6842157,82.7928431 106.308725,91.4536275 C111.846961,66.4617974 106.71134,35.5840196 85.9583987,21.0990523 C77.2152614,14.9912092 65.4593791,12.9506863 54.3165686,14.9202941 L54.3165686,14.9202941 Z" id="Stroke-31" stroke="#5A6369"></path>
                        <path d="M103.026046,63.3726471 C103.026046,85.4752614 85.1051307,103.393889 63.0048039,103.393889 C40.8976144,103.393889 22.9835621,85.4752614 22.9835621,63.3726471 C22.9835621,41.2700327 40.8976144,23.3514052 63.0048039,23.3514052 C85.1051307,23.3514052 103.026046,41.2700327 103.026046,63.3726471" id="Fill-33" fill="#FDCC99"></path>
                        <path d="M103.026046,63.3726471 C103.026046,85.4752614 85.1051307,103.393889 63.0048039,103.393889 C40.8976144,103.393889 22.9835621,85.4752614 22.9835621,63.3726471 C22.9835621,41.2700327 40.8976144,23.3514052 63.0048039,23.3514052 C85.1051307,23.3514052 103.026046,41.2700327 103.026046,63.3726471 L103.026046,63.3726471 Z" id="Stroke-35" stroke="#5A6369"></path>
                        <path d="M63.0045752,17.0916667 C42.6816993,17.0916667 25.9137255,34.9645425 23.3356209,58.1148693 L79.0084967,58.1148693 L74.1222222,44.2063725 L71.0042484,39.6380719 L74.1222222,44.2063725 L73.0104575,41.0609477 L74.1222222,44.2063725 L83.595098,58.1148693 L102.673529,58.1148693 C100.095425,34.9645425 83.327451,17.0916667 63.0045752,17.0916667" id="Fill-37" fill="#A8704A"></path>
                        <path d="M63.0045752,17.0916667 C42.6816993,17.0916667 25.9137255,34.9645425 23.3356209,58.1148693 L79.0084967,58.1148693 L74.1222222,44.2063725 L71.0042484,39.6380719 L74.1222222,44.2063725 L73.0104575,41.0609477 L74.1222222,44.2063725 L83.595098,58.1148693 L102.673529,58.1148693 C100.095425,34.9645425 83.327451,17.0916667 63.0045752,17.0916667 L63.0045752,17.0916667 Z" id="Stroke-39" stroke="#5A6369"></path>
                        <path d="M38.585098,69.105098 L40.9298693,70.2260131 C43.5788889,65.0995425 51.4596078,64.96 53.5893464,70.4776471" id="Stroke-41" stroke="#5A6369" stroke-linecap="round"></path>
                        <path d="M87.2632353,69.105098 L84.9161765,70.2260131 C82.2671569,65.0995425 74.3864379,64.96 72.2521242,70.4776471" id="Stroke-43" stroke="#5A6369" stroke-linecap="round"></path>
                        <path d="M38.1383333,65.0393791 C36.4134967,66.0870915 35.4801634,67.4482026 35.4572876,69.573366 C35.4641503,71.6710784 36.5576144,73.576634 38.6484641,75.047549 C40.7393137,76.5116013 43.8321242,77.4769608 47.6272222,77.4769608 C53.2798366,77.4403595 57.6216667,73.9746732 57.8229739,68.8321895 C57.8229739,68.7795752 57.827549,68.7315359 57.827549,68.6926471 C57.827549,66.9174837 56.5053268,65.6890523 54.0278758,64.7397059 C51.6007516,63.8383987 48.2974837,63.4609477 45.3625163,63.4632353 L45.325915,63.4632353 C42.4115359,63.4632353 39.8494444,64.0168301 38.1383333,65.0393791 L38.1383333,65.0393791 Z M47.6272222,79.6661765 C43.4317974,79.6616013 39.8677451,78.6116013 37.2987908,76.8158497 C34.7321242,75.0338235 33.1605556,72.4465686 33.1651307,69.573366 C33.1399673,66.7344771 34.6589216,64.4903595 36.9282026,63.1795752 C39.1929085,61.8436275 42.1416013,61.2763072 45.3625163,61.2740196 C48.4965033,61.2763072 51.9987908,61.649183 54.858268,62.7037582 C57.6719935,63.7125817 60.1197059,65.6433007 60.1197059,68.6926471 L60.1197059,68.8893791 L58.9690523,68.8687908 L60.1197059,68.9076797 C59.8886601,75.2968954 54.3161111,79.6661765 47.7095752,79.6661765 L47.6272222,79.6661765 Z" id="Fill-45" fill="#65BFE4"></path>
                        <path d="M49.0043464,61.6839542 C48.2219935,60.8741503 39.1219935,61.3545425 37.7174183,61.3545425 L34.7893137,61.6725163 C32.4239542,61.6725163 30.5069608,63.1480065 30.5069608,64.9689216 C30.5069608,66.5496405 31.9641503,67.8695752 33.8971569,68.1829739 C35.1644771,65.2571569 38.4814706,62.4983333 49.0043464,61.6839542" id="Fill-47" fill="#65BFE4"></path>
                        <path d="M78.1261765,77.475817 C81.754281,77.4781046 84.707549,76.5104575 86.7000327,75.0464052 C88.7039542,73.5777778 89.7470915,71.6722222 89.7493791,69.5745098 C89.7242157,67.4470588 88.836634,66.0859477 87.1941503,65.0382353 C85.5470915,64.0133987 83.0902288,63.4598039 80.2925163,63.4620915 C77.4879412,63.4598039 74.3287908,63.8372549 72.0068954,64.7408497 C69.6438235,65.6901961 68.3810784,66.9186275 68.3810784,68.6915033 L68.3810784,68.7990196 L67.2921895,68.8676471 L68.3856536,68.8333333 C68.5778105,73.975817 72.7297712,77.4392157 78.1261765,77.475817 M66.1964379,68.9088235 L66.1964379,68.9088235 C66.1872876,68.8173203 66.1872876,68.7486928 66.1872876,68.6915033 C66.1918627,65.6421569 68.5297712,63.7114379 71.2153922,62.7026144 C73.9513399,61.6480392 77.2957843,61.277451 80.2925163,61.2751634 C83.362451,61.277451 86.1807516,61.8424837 88.3425163,63.1784314 C90.5111438,64.4892157 91.9637582,66.7356209 91.9363072,69.5745098 C91.9454575,72.4477124 90.4425163,75.0349673 87.9925163,76.8169935 C85.5356536,78.6104575 82.1340196,79.6604575 78.1261765,79.6650327 L78.0506863,79.6650327 C71.7346732,79.6604575 66.4114706,75.2980392 66.1964379,68.9088235" id="Fill-49" fill="#65BFE4"></path>
                        <path d="M76.8172222,61.6839542 C77.5583987,60.8741503 86.2489216,61.3545425 87.5940196,61.3545425 L90.391732,61.6725163 C92.6518627,61.6725163 94.4796405,63.1480065 94.4796405,64.9689216 C94.4796405,66.5496405 93.0887908,67.8695752 91.2404248,68.1829739 C90.0325817,65.2571569 86.8574183,62.4983333 76.8172222,61.6839542" id="Fill-51" fill="#65BFE4"></path>
                        <path d="M59.0861765,67.8919935 C59.2394444,68.9648693 58.7567647,70.5341503 58.2397712,71.7191176 C58.4182026,71.5772876 59.5345425,71.7831699 59.7106863,71.5658497 C63.7162418,66.745915 67.3123203,72.2223856 67.3123203,72.2223856 L67.3923856,67.8119281 L59.0861765,67.8919935 Z" id="Fill-53" fill="#65BFE4"></path>
                        <path d="M61.7981046,165.601242 C28.2987582,165.601242 1.14287582,194.616928 1.14287582,230.417582 C1.14287582,232.522157 1.24581699,234.603856 1.43339869,236.658105 C18.3271895,243.125098 39.2013725,246.945359 61.7981046,246.945359 C84.3948366,246.945359 105.26902,243.125098 122.167386,236.658105 C122.350392,234.603856 122.453333,232.522157 122.453333,230.417582 C122.453333,194.616928 95.297451,165.601242 61.7981046,165.601242" id="Fill-55" fill="#F4933C"></path>
                        <path d="M61.7981046,165.601242 C28.2987582,165.601242 1.14287582,194.616928 1.14287582,230.417582 C1.14287582,232.522157 1.24581699,234.603856 1.43339869,236.658105 C18.3271895,243.125098 39.2013725,246.945359 61.7981046,246.945359 C84.3948366,246.945359 105.26902,243.125098 122.167386,236.658105 C122.350392,234.603856 122.453333,232.522157 122.453333,230.417582 C122.453333,194.616928 95.297451,165.601242 61.7981046,165.601242 L61.7981046,165.601242 Z" id="Stroke-57" stroke="#5A6369"></path>
                        <path d="M75.0546405,131.937647 C79.2340523,131.242222 81.4575817,125.804641 82.4206536,120.241242 C81.2768627,118.047451 79.9203268,116.068693 78.3830719,114.371307 C75.8209804,120.641569 71.4105229,123.995163 66.640915,124.788954 C67.9860131,129.224575 71.190915,132.582745 75.0546405,131.937647" id="Fill-59" fill="#FEFEFE"></path>
                        <path d="M75.0546405,131.937647 C79.2340523,131.242222 81.4575817,125.804641 82.4206536,120.241242 C81.2768627,118.047451 79.9203268,116.068693 78.3830719,114.371307 C75.8209804,120.641569 71.4105229,123.995163 66.640915,124.788954 C67.9860131,129.224575 71.190915,132.582745 75.0546405,131.937647 L75.0546405,131.937647 Z" id="Stroke-61" stroke="#5A6369"></path>
                        <path d="M86.351634,136.736307 C86.351634,132.881732 85.7934641,129.210163 84.7846405,125.840556 C84.1624183,123.765719 83.3594771,121.816699 82.419281,120.00951 C81.4562092,125.575196 79.2349673,131.012778 75.0555556,131.708203 C71.1895425,132.353301 67.9869281,128.995131 66.6418301,124.55951 C64.3153595,124.946111 61.9065359,124.712778 59.5869281,123.916699 C55.4120915,134.556242 45.8316993,129.679118 43.0957516,119.458203 C41.9816993,121.49415 41.0506536,123.719967 40.3552288,126.108203 C39.3990196,129.404608 38.8660131,132.982386 38.8660131,136.736307 L38.8660131,174.499706 L86.351634,174.499706 L86.351634,136.736307 Z" id="Fill-63" fill="#F4933C"></path>
                        <path d="M86.351634,136.736307 C86.351634,132.881732 85.7934641,129.210163 84.7846405,125.840556 C84.1624183,123.765719 83.3594771,121.816699 82.419281,120.00951 C81.4562092,125.575196 79.2349673,131.012778 75.0555556,131.708203 C71.1895425,132.353301 67.9869281,128.995131 66.6418301,124.55951 C64.3153595,124.946111 61.9065359,124.712778 59.5869281,123.916699 C55.4120915,134.556242 45.8316993,129.679118 43.0957516,119.458203 C41.9816993,121.49415 41.0506536,123.719967 40.3552288,126.108203 C39.3990196,129.404608 38.8660131,132.982386 38.8660131,136.736307 L38.8660131,174.499706 L86.351634,174.499706 L86.351634,136.736307 L86.351634,136.736307 Z" id="Stroke-65" stroke="#5A6369"></path>
                        <path d="M59.5866993,124.147745 C54.9863725,122.571601 50.729183,118.758203 48.1876797,112.986634 C46.2249346,114.828137 44.5115359,117.101993 43.0955229,119.689248 C45.8314706,129.910163 55.4118627,134.785 59.5866993,124.147745" id="Fill-67" fill="#FEFEFE"></path>
                        <path d="M59.5866993,124.147745 C54.9863725,122.571601 50.729183,118.758203 48.1876797,112.986634 C46.2249346,114.828137 44.5115359,117.101993 43.0955229,119.689248 C45.8314706,129.910163 55.4118627,134.785 59.5866993,124.147745 L59.5866993,124.147745 Z" id="Stroke-69" stroke="#5A6369"></path>
                        <mask id="mask-2" fill="white">
                            <use xlink:href="#path-1"></use>
                        </mask>
                        <g id="Clip-72"></g>
                        <path d="M38.8660131,174.796405 L86.351634,174.796405 L86.351634,167.217647 L38.8660131,167.217647 L38.8660131,174.796405 Z" id="Fill-71" fill="#CC7730" mask="url(#mask-2)"></path>
                        <path d="M38.8660131,174.796405 L86.351634,174.796405 L86.351634,167.217647 L38.8660131,167.217647 L38.8660131,174.796405 Z" id="Stroke-73" stroke="#5A6369" mask="url(#mask-2)"></path>
                        <path d="M65.254183,132.237092 C65.254183,133.124673 64.5404575,133.840686 63.6483007,133.840686 C62.7630065,133.840686 62.0447059,133.124673 62.0447059,132.237092 C62.0447059,131.34951 62.7630065,130.631209 63.6483007,130.631209 C64.5404575,130.631209 65.254183,131.34951 65.254183,132.237092" id="Fill-74" fill="#5A6369" mask="url(#mask-2)"></path>
                        <path d="M65.254183,140.411078 C65.254183,141.29866 64.5404575,142.014673 63.6483007,142.014673 C62.7630065,142.014673 62.0447059,141.29866 62.0447059,140.411078 C62.0447059,139.525784 62.7630065,138.805196 63.6483007,138.805196 C64.5404575,138.805196 65.254183,139.525784 65.254183,140.411078" id="Fill-75" fill="#5A6369" mask="url(#mask-2)"></path>
                        <path d="M65.254183,148.583007 C65.254183,149.472876 64.5404575,150.191176 63.6483007,150.191176 C62.7630065,150.191176 62.0447059,149.472876 62.0447059,148.583007 C62.0447059,147.697712 62.7630065,146.979412 63.6483007,146.979412 C64.5404575,146.979412 65.254183,147.697712 65.254183,148.583007" id="Fill-76" fill="#5A6369" mask="url(#mask-2)"></path>
                        <path d="M275.273856,101.083203 C269.678431,97.8760131 263.227451,96.0253595 256.575163,96.0253595 L250.190523,96.0253595 C243.060131,96.0253595 236.160784,98.1528105 230.302288,101.796928 L254.953268,137.563268 L275.273856,101.083203 Z" id="Fill-77" fill="#DCB88D" mask="url(#mask-2)"></path>
                        <path d="M197.833268,167.691176 C197.817255,148.219281 204.663987,127.418301 221.310719,109.982353 L221.310719,109.986928 L226.670523,115.104248 C211.391765,131.142484 205.261046,149.916667 205.24732,167.691176 C205.231307,185.44281 211.483268,202.144444 220.878366,213.463399 L215.166275,218.19183 C204.572484,205.37451 197.851569,187.172222 197.833268,167.691176" id="Fill-78" fill="#64BFE4" mask="url(#mask-2)"></path>
                        <path d="M197.833268,167.691176 C197.817255,148.219281 204.663987,127.418301 221.310719,109.982353 L221.310719,109.986928 L226.670523,115.104248 C211.391765,131.142484 205.261046,149.916667 205.24732,167.691176 C205.231307,185.44281 211.483268,202.144444 220.878366,213.463399 L215.166275,218.19183 C204.572484,205.37451 197.851569,187.172222 197.833268,167.691176 L197.833268,167.691176 Z" id="Stroke-79" stroke="#5A6369" mask="url(#mask-2)"></path>
                        <g id="Group-82" mask="url(#mask-2)">
                            <g transform="translate(212.745098, 100.111438)">
                                <path d="M42.2086275,37.4525163 L17.5576471,1.68617647 C7.61581699,7.86493464 0.668431373,18.4061111 0.668431373,30.3793137 L0.668431373,105.681928 L80.6079739,105.681928 L80.6079739,30.3793137 C80.6079739,17.9325817 73.1001307,7.02539216 62.5292157,0.97245098 L42.2086275,37.4525163" id="Fill-80" stroke="none" fill="#64BFE4" fill-rule="evenodd"></path>
                                <path d="M42.2086275,37.4525163 L17.5576471,1.68617647 C7.61581699,7.86493464 0.668431373,18.4061111 0.668431373,30.3793137 L0.668431373,105.681928 L80.6079739,105.681928 L80.6079739,30.3793137 C80.6079739,17.9325817 73.1001307,7.02539216 62.5292157,0.97245098 L42.2086275,37.4525163" id="Stroke-81" stroke="#5A6369" stroke-width="1" stroke-linecap="round" fill="none"></path>
                            </g>
                        </g>
                        <path d="M230.51183,99.6310458 L223.976209,106.605882 L240.538301,139.293137 L248.382418,127.091176 L230.51183,99.6310458 Z" id="Fill-83" fill="#000000" mask="url(#mask-2)"></path>
                        <path d="M275.655882,100.185098 L283.747059,107.30634 L267.999346,139.293595 L260.276471,128.185098 L275.655882,100.185098 Z" id="Fill-84" fill="#000000" mask="url(#mask-2)"></path>
                        <path d="M230.51183,100.479967 L223.976209,107.454804 L240.538301,140.142059 L248.382418,127.940098 L230.51183,100.479967 Z" id="Fill-85" fill="#FEFEFE" mask="url(#mask-2)"></path>
                        <path d="M230.51183,100.479967 L223.976209,107.454804 L240.538301,140.142059 L248.382418,127.940098 L230.51183,100.479967 L230.51183,100.479967 Z" id="Stroke-86" stroke="#5A6369" mask="url(#mask-2)"></path>
                        <path d="M275.655882,100.185098 L283.747059,107.30634 L267.999346,139.293595 L260.276471,128.185098 L275.655882,100.185098 Z" id="Fill-87" fill="#FEFEFE" mask="url(#mask-2)"></path>
                        <path d="M275.655882,100.185098 L283.747059,107.30634 L267.999346,139.293595 L260.276471,128.185098 L275.655882,100.185098 L275.655882,100.185098 Z" id="Stroke-88" stroke="#5A6369" mask="url(#mask-2)"></path>
                        <path d="M221.450948,335.973693 L222.121209,337.904412 L221.450948,335.973693 L220.515327,336.10866 L221.450948,335.973693 L219.790163,331.210948 C212.682647,333.859967 201.420882,343.010294 205.163366,348.315196 L237.39768,337.019118 L237.399967,333.695261 L221.450948,335.973693 Z" id="Fill-89" fill="#F4933C" mask="url(#mask-2)"></path>
                        <path d="M221.450948,335.973693 L222.121209,337.904412 L221.450948,335.973693 L220.515327,336.10866 L221.450948,335.973693 L219.790163,331.210948 C212.682647,333.859967 201.420882,343.010294 205.163366,348.315196 L237.39768,337.019118 L237.399967,333.695261 L221.450948,335.973693 L221.450948,335.973693 Z" id="Stroke-90" stroke="#5A6369" stroke-linecap="round" stroke-linejoin="round" mask="url(#mask-2)"></path>
                        <path d="M286.486209,335.973693 L285.81366,337.904412 L286.486209,335.973693 L287.419542,336.10866 L286.486209,335.973693 L288.144706,331.210948 C295.252222,333.859967 306.513987,343.010294 302.771503,348.315196 L270.534902,337.019118 L270.530327,333.695261 L286.486209,335.973693 Z" id="Fill-91" fill="#F4933C" mask="url(#mask-2)"></path>
                        <path d="M286.486209,335.973693 L285.81366,337.904412 L286.486209,335.973693 L287.419542,336.10866 L286.486209,335.973693 L288.144706,331.210948 C295.252222,333.859967 306.513987,343.010294 302.771503,348.315196 L270.534902,337.019118 L270.530327,333.695261 L286.486209,335.973693 L286.486209,335.973693 Z" id="Stroke-92" stroke="#5A6369" stroke-linecap="round" stroke-linejoin="round" mask="url(#mask-2)"></path>
                        <path d="M228.244379,329.638007 C225.87902,329.772974 223.493072,330.16415 221.406797,330.692582 C220.864641,330.829837 220.329346,331.00598 219.78719,331.209575 L221.447974,335.974608 L237.396993,333.693889 L237.396993,333.007614 L237.399281,333.007614 L237.399281,316.765784 L228.244379,316.765784 L228.244379,329.638007 Z" id="Fill-93" fill="#FDCC99" mask="url(#mask-2)"></path>
                        <path d="M228.244379,329.638007 C225.87902,329.772974 223.493072,330.16415 221.406797,330.692582 C220.864641,330.829837 220.329346,331.00598 219.78719,331.209575 L221.447974,335.974608 L237.396993,333.693889 L237.396993,333.007614 L237.399281,333.007614 L237.399281,316.765784 L228.244379,316.765784 L228.244379,329.638007 L228.244379,329.638007 Z" id="Stroke-94" stroke="#5A6369" stroke-linecap="round" stroke-linejoin="round" mask="url(#mask-2)"></path>
                        <path d="M286.526242,330.692582 C284.439967,330.166438 282.05402,329.772974 279.68866,329.638007 L279.68866,316.765784 L270.531471,316.765784 L270.531471,333.007614 L270.533758,333.007614 L270.536046,333.693889 L286.485065,335.974608 L288.14585,331.211863 C287.608268,331.00598 287.063824,330.832124 286.526242,330.692582" id="Fill-95" fill="#FDCC99" mask="url(#mask-2)"></path>
                        <path d="M286.526242,330.692582 C284.439967,330.166438 282.05402,329.772974 279.68866,329.638007 L279.68866,316.765784 L270.531471,316.765784 L270.531471,333.007614 L270.533758,333.007614 L270.536046,333.693889 L286.485065,335.974608 L288.14585,331.211863 C287.608268,331.00598 287.063824,330.832124 286.526242,330.692582 L286.526242,330.692582 Z" id="Stroke-96" stroke="#5A6369" stroke-linecap="round" stroke-linejoin="round" mask="url(#mask-2)"></path>
                        <path d="M294.072745,201.79719 L211.566536,200.452092 L212.104118,209.908954 L293.599216,209.908954 L294.072745,201.79719 Z" id="Fill-97" fill="#F4933C" mask="url(#mask-2)"></path>
                        <path d="M294.072745,201.79719 L211.566536,200.452092 L212.104118,209.908954 L293.599216,209.908954 L294.072745,201.79719 L294.072745,201.79719 Z" id="Stroke-98" stroke="#5A6369" stroke-linecap="round" stroke-linejoin="round" mask="url(#mask-2)"></path>
                        <path d="M213.339412,209.908725 L218.05183,311.756438 L244.789085,311.756438 L247.406078,259.009379 C247.406078,256.035523 249.814902,253.626699 252.786471,253.626699 C255.764902,253.626699 258.176013,256.035523 258.176013,259.009379 L260.788431,311.756438 L287.527974,311.756438 L292.299869,209.908725 L213.339412,209.908725 Z" id="Fill-99" fill="#7C7C89" mask="url(#mask-2)"></path>
                        <path d="M213.339412,209.908725 L218.05183,311.756438 L244.789085,311.756438 L247.406078,259.009379 C247.406078,256.035523 249.814902,253.626699 252.786471,253.626699 C255.764902,253.626699 258.176013,256.035523 258.176013,259.009379 L260.788431,311.756438 L287.527974,311.756438 L292.299869,209.908725 L213.339412,209.908725 L213.339412,209.908725 Z" id="Stroke-100" stroke="#5A6369" mask="url(#mask-2)"></path>
                        <path d="M296.409281,55.7202288 L295.702418,65.1702288 C304.877908,63.7542157 302.507974,54.1966993 296.409281,55.7202288" id="Fill-101" fill="#FDCC99" mask="url(#mask-2)"></path>
                        <path d="M296.409281,55.7202288 L295.702418,65.1702288 C304.877908,63.7542157 302.507974,54.1966993 296.409281,55.7202288 L296.409281,55.7202288 Z" id="Stroke-102" stroke="#5A6369" mask="url(#mask-2)"></path>
                        <path d="M212.237941,65.1967647 L211.487614,55.7787908 C205.180752,53.9693137 202.678137,63.9019935 212.237941,65.1967647" id="Fill-103" fill="#FDCC99" mask="url(#mask-2)"></path>
                        <path d="M212.237941,65.1967647 L211.487614,55.7787908 C205.180752,53.9693137 202.678137,63.9019935 212.237941,65.1967647 L212.237941,65.1967647 Z" id="Stroke-104" stroke="#5A6369" mask="url(#mask-2)"></path>
                        <path d="M297.443725,57.0829412 C297.443725,81.0545098 278.019869,100.480654 254.052876,100.480654 C230.085882,100.480654 210.657451,81.0545098 210.657451,57.0829412 C210.657451,33.1182353 230.085882,13.6943791 254.052876,13.6943791 C278.019869,13.6943791 297.443725,33.1182353 297.443725,57.0829412" id="Fill-105" fill="#FDCC99" mask="url(#mask-2)"></path>
                        <path d="M297.443725,57.0829412 C297.443725,81.0545098 278.019869,100.480654 254.052876,100.480654 C230.085882,100.480654 210.657451,81.0545098 210.657451,57.0829412 C210.657451,33.1182353 230.085882,13.6943791 254.052876,13.6943791 C278.019869,13.6943791 297.443725,33.1182353 297.443725,57.0829412 L297.443725,57.0829412 Z" id="Stroke-106" stroke="#5A6369" mask="url(#mask-2)"></path>
                        <path d="M227.26598,59.7013072 C230.141471,54.1470588 238.683301,53.9960784 240.998333,59.9735294" id="Stroke-107" stroke="#5A6369" stroke-linecap="round" mask="url(#mask-2)"></path>
                        <path d="M265.064608,59.7013072 C267.940098,54.1470588 276.479641,53.9960784 278.794673,59.9735294" id="Stroke-108" stroke="#5A6369" stroke-linecap="round" mask="url(#mask-2)"></path>
                        <path d="M220.622157,53.4237255 L223.632614,55.9515033 C223.852222,56.1367974 224.177059,56.1047712 224.362353,55.8897386 C224.543072,55.6701307 224.515621,55.3452941 224.296013,55.1577124 L221.287843,52.6322222 C221.068235,52.4492157 220.743399,52.4766667 220.558105,52.6962745 C220.375098,52.9135948 220.407124,53.240719 220.622157,53.4237255" id="Fill-109" fill="#EF8029" mask="url(#mask-2)"></path>
                        <path d="M221.998137,51.7885621 L224.551078,54.7784314 C224.73866,54.9911765 225.065784,55.0186275 225.283105,54.8356209 C225.498137,54.6480392 225.521013,54.320915 225.340294,54.1035948 L222.785065,51.1183007 C222.599771,50.903268 222.272647,50.8781046 222.055327,51.0611111 C221.840294,51.2486928 221.812843,51.5735294 221.998137,51.7885621" id="Fill-110" fill="#EF8029" mask="url(#mask-2)"></path>
                        <path d="M223.655719,50.5866667 L225.819771,53.8670588 C225.979902,54.1026797 226.297876,54.1690196 226.535784,54.0134641 C226.773693,53.8579085 226.84232,53.5353595 226.679902,53.2997386 L224.51585,50.0193464 C224.360294,49.7768627 224.040033,49.7105229 223.799837,49.8729412 C223.564216,50.0239216 223.497876,50.3487582 223.655719,50.5866667" id="Fill-111" fill="#EF8029" mask="url(#mask-2)"></path>
                        <path d="M225.360196,49.4561438 L227.114771,52.976732 C227.240588,53.2306536 227.551699,53.3335948 227.805621,53.2100654 C228.06183,53.0796732 228.164771,52.7708497 228.038954,52.5169281 L226.282092,49.000915 C226.158562,48.7447059 225.849739,48.6394771 225.591242,48.7675817 C225.335033,48.8933987 225.232092,49.2022222 225.360196,49.4561438" id="Fill-112" fill="#EF8029" mask="url(#mask-2)"></path>
                        <path d="M227.21451,48.6653268 L228.587059,52.3460458 C228.685425,52.6205556 228.978235,52.7532353 229.250458,52.6502941 C229.515817,52.5565033 229.650784,52.2568301 229.550131,51.989183 L228.179869,48.3038889 C228.081503,48.0362418 227.78183,47.9012745 227.516471,48.0042157 C227.246536,48.1025817 227.113856,48.3976797 227.21451,48.6653268" id="Fill-113" fill="#EF8029" mask="url(#mask-2)"></path>
                        <path d="M229.095588,47.9639542 L230.074673,51.7750654 C230.143301,52.0472876 230.424673,52.2165686 230.699183,52.1456536 C230.978268,52.0793137 231.145261,51.793366 231.072059,51.5165686 L230.097549,47.7100327 C230.026634,47.4332353 229.745261,47.2662418 229.466176,47.3394444 C229.193954,47.4103595 229.026961,47.6871569 229.095588,47.9639542" id="Fill-114" fill="#EF8029" mask="url(#mask-2)"></path>
                        <path d="M231.072516,47.5663725 L231.639837,51.4529739 C231.681013,51.7389216 231.944085,51.9310784 232.225458,51.8921895 C232.509118,51.8510131 232.703562,51.5879412 232.660098,51.3065686 L232.095065,47.4153922 C232.053889,47.1340196 231.788529,46.9372876 231.509444,46.9807516 C231.228072,47.0219281 231.03134,47.285 231.072516,47.5663725" id="Fill-115" fill="#EF8029" mask="url(#mask-2)"></path>
                        <path d="M233.069804,47.2804248 L233.209346,51.2127778 C233.216209,51.4941503 233.456405,51.7160458 233.742353,51.709183 C234.030588,51.6954575 234.252484,51.457549 234.243333,51.1716013 L234.103791,47.2438235 C234.094641,46.9578758 233.854444,46.7359804 233.568497,46.7451307 C233.282549,46.754281 233.060654,46.9944771 233.069804,47.2804248" id="Fill-116" fill="#EF8029" mask="url(#mask-2)"></path>
                        <path d="M235.113758,47.3115359 L234.779771,51.2301634 C234.75232,51.5161111 234.967353,51.7654575 235.248725,51.7883333 C235.532386,51.8157843 235.781732,51.6007516 235.806895,51.3193791 L236.14317,47.4007516 C236.166046,47.1148039 235.955588,46.8700327 235.671928,46.8425817 C235.388268,46.8151307 235.138922,47.0301634 235.113758,47.3115359" id="Fill-117" fill="#EF8029" mask="url(#mask-2)"></path>
                        <path d="M237.153366,47.5126144 L236.320686,51.3511765 C236.258922,51.632549 236.439641,51.9047712 236.716438,51.9665359 C236.995523,52.0260131 237.270033,51.8475817 237.32951,51.5684967 L238.164477,47.7276471 C238.223954,47.4508497 238.045523,47.1740523 237.768725,47.11 C237.487353,47.0528105 237.212843,47.2312418 237.153366,47.5126144" id="Fill-118" fill="#EF8029" mask="url(#mask-2)"></path>
                        <path d="M239.172843,48.0666667 L237.791144,51.7428105 C237.69049,52.0081699 237.825458,52.3101307 238.090817,52.4084967 C238.360752,52.5068627 238.65585,52.374183 238.756503,52.1065359 L240.14049,48.4235294 C240.243431,48.1604575 240.103889,47.8607843 239.838529,47.7624183 C239.57317,47.6594771 239.273497,47.7990196 239.172843,48.0666667" id="Fill-119" fill="#EF8029" mask="url(#mask-2)"></path>
                        <path d="M241.112026,48.8442157 L239.185882,52.2755882 C239.04634,52.5203595 239.135556,52.8337582 239.384902,52.9778758 C239.631961,53.1151307 239.945359,53.025915 240.084902,52.7811438 L242.013333,49.3543464 C242.150588,49.1027124 242.061373,48.7870261 241.814314,48.6474837 C241.567255,48.5102288 241.251569,48.5994444 241.112026,48.8442157" id="Fill-120" fill="#EF8029" mask="url(#mask-2)"></path>
                        <path d="M242.912582,49.9969281 L240.441993,53.0577124 C240.26585,53.2818954 240.300163,53.606732 240.519771,53.7851634 C240.743954,53.9590196 241.066503,53.929281 241.247222,53.705098 L243.715523,50.6488889 C243.893954,50.4247059 243.857353,50.0998693 243.635458,49.9214379 C243.413562,49.7430065 243.091013,49.7727451 242.912582,49.9969281" id="Fill-121" fill="#EF8029" mask="url(#mask-2)"></path>
                        <path d="M244.50085,51.3685621 L241.575033,53.9947059 C241.364575,54.1868627 241.346275,54.5094118 241.536144,54.7244444 C241.726013,54.9394771 242.053137,54.9554902 242.26817,54.7633333 L245.191699,52.1417647 C245.404444,51.9496078 245.420458,51.6224837 245.230588,51.4097386 C245.040719,51.199281 244.713595,51.1809804 244.50085,51.3685621" id="Fill-122" fill="#EF8029" mask="url(#mask-2)"></path>
                        <path d="M245.81232,53.0304902 L242.509052,55.1670915 C242.271144,55.3226471 242.202516,55.6406209 242.353497,55.880817 C242.51134,56.1187255 242.829314,56.1896405 243.06951,56.0317974 L246.37049,53.8974837 C246.612974,53.7442157 246.681601,53.4239542 246.526046,53.1860458 C246.37049,52.9458497 246.050229,52.8795098 245.81232,53.0304902" id="Fill-123" fill="#EF8029" mask="url(#mask-2)"></path>
                        <path d="M258.420784,53.4237255 L261.428954,55.9515033 C261.648562,56.1367974 261.975686,56.1047712 262.158693,55.8897386 C262.341699,55.6701307 262.314248,55.3452941 262.094641,55.1577124 L259.084183,52.6322222 C258.866863,52.4492157 258.542026,52.4766667 258.356732,52.6962745 C258.173725,52.9135948 258.198889,53.240719 258.420784,53.4237255" id="Fill-124" fill="#EF8029" mask="url(#mask-2)"></path>
                        <path d="M259.794706,51.7885621 L262.352222,54.7784314 C262.535229,54.9911765 262.862353,55.0186275 263.079673,54.8356209 C263.296993,54.6480392 263.322157,54.320915 263.136863,54.1035948 L260.581634,51.1183007 C260.39634,50.903268 260.069216,50.8781046 259.851895,51.0611111 C259.636863,51.2486928 259.609412,51.5735294 259.794706,51.7885621" id="Fill-125" fill="#EF8029" mask="url(#mask-2)"></path>
                        <path d="M261.454575,50.5866667 L263.618627,53.8670588 C263.774183,54.1026797 264.096732,54.1690196 264.332353,54.0134641 C264.570261,53.8579085 264.636601,53.5353595 264.481046,53.2951634 L262.316993,50.0193464 C262.15915,49.7768627 261.836601,49.7105229 261.598693,49.8729412 C261.360784,50.0239216 261.296732,50.3487582 261.454575,50.5866667" id="Fill-126" fill="#EF8029" mask="url(#mask-2)"></path>
                        <path d="M263.156765,49.4561438 L264.913627,52.976732 C265.037157,53.2306536 265.348268,53.3335948 265.60219,53.2100654 C265.858399,53.0796732 265.963627,52.7708497 265.835523,52.5169281 L264.076373,49.000915 C263.952843,48.7447059 263.64402,48.6394771 263.38781,48.7675817 C263.131601,48.8933987 263.02866,49.2022222 263.156765,49.4561438" id="Fill-127" fill="#EF8029" mask="url(#mask-2)"></path>
                        <path d="M265.008791,48.6653268 L266.38134,52.3460458 C266.481993,52.6205556 266.774804,52.7532353 267.042451,52.6502941 C267.312386,52.5565033 267.447353,52.2568301 267.346699,51.989183 L265.97415,48.3038889 C265.878072,48.0362418 265.580686,47.9012745 265.313039,48.0042157 C265.04768,48.1025817 264.908137,48.3976797 265.008791,48.6653268" id="Fill-128" fill="#EF8029" mask="url(#mask-2)"></path>
                        <path d="M266.894216,47.9639542 L267.871013,51.7750654 C267.939641,52.0472876 268.223301,52.2165686 268.495523,52.1456536 C268.774608,52.0793137 268.941601,51.793366 268.870686,51.5165686 L267.893889,47.7100327 C267.822974,47.4332353 267.543889,47.2662418 267.267092,47.3394444 C266.990294,47.4103595 266.823301,47.6871569 266.894216,47.9639542" id="Fill-129" fill="#EF8029" mask="url(#mask-2)"></path>
                        <path d="M268.866797,47.5663725 L269.436405,51.4529739 C269.475294,51.7389216 269.740654,51.9310784 270.022026,51.8921895 C270.305686,51.8510131 270.500131,51.5879412 270.456667,51.3065686 L269.893922,47.4153922 C269.850458,47.1340196 269.587386,46.9372876 269.303725,46.9807516 C269.022353,47.0219281 268.825621,47.285 268.866797,47.5663725" id="Fill-130" fill="#EF8029" mask="url(#mask-2)"></path>
                        <path d="M270.866144,47.2804248 L271.005686,51.2127778 C271.012549,51.4941503 271.255033,51.7160458 271.54098,51.709183 C271.824641,51.6954575 272.048824,51.457549 272.037386,51.1716013 L271.897843,47.2438235 C271.884118,46.9578758 271.648497,46.7359804 271.364837,46.7451307 C271.078889,46.754281 270.854706,46.9944771 270.866144,47.2804248" id="Fill-131" fill="#EF8029" mask="url(#mask-2)"></path>
                        <path d="M272.910327,47.3115359 L272.574052,51.2301634 C272.553464,51.5161111 272.759346,51.7654575 273.045294,51.7883333 C273.328954,51.8157843 273.580588,51.6007516 273.603464,51.3193791 L273.939739,47.4007516 C273.964902,47.1148039 273.754444,46.8700327 273.470784,46.8425817 C273.182549,46.8151307 272.933203,47.0301634 272.910327,47.3115359" id="Fill-132" fill="#EF8029" mask="url(#mask-2)"></path>
                        <path d="M274.949935,47.5126144 L274.117255,51.3511765 C274.05549,51.632549 274.233922,51.9047712 274.513007,51.9665359 C274.794379,52.0260131 275.066601,51.8498693 275.126078,51.5684967 L275.961046,47.7276471 C276.018235,47.4508497 275.844379,47.1740523 275.565294,47.11 C275.283922,47.0528105 275.009412,47.2312418 274.949935,47.5126144" id="Fill-133" fill="#EF8029" mask="url(#mask-2)"></path>
                        <path d="M276.969412,48.0666667 L275.585425,51.7428105 C275.484771,52.0127451 275.619739,52.3101307 275.885098,52.4084967 C276.15732,52.5068627 276.452418,52.374183 276.550784,52.1065359 L277.937059,48.4235294 C278.037712,48.1604575 277.900458,47.8607843 277.635098,47.7624183 C277.365163,47.6594771 277.070065,47.7990196 276.969412,48.0666667" id="Fill-134" fill="#EF8029" mask="url(#mask-2)"></path>
                        <path d="M278.906307,48.8442157 L276.980163,52.2755882 C276.842908,52.5203595 276.929837,52.8337582 277.176895,52.9778758 C277.426242,53.1151307 277.739641,53.025915 277.881471,52.7811438 L279.807614,49.3543464 C279.947157,49.1027124 279.860229,48.7916013 279.61317,48.6474837 C279.361536,48.5102288 279.048137,48.5994444 278.906307,48.8442157" id="Fill-135" fill="#EF8029" mask="url(#mask-2)"></path>
                        <path d="M280.706863,49.9969281 L278.238562,53.0577124 C278.062418,53.2818954 278.092157,53.606732 278.31634,53.7851634 C278.538235,53.9590196 278.863072,53.929281 279.043791,53.705098 L281.512092,50.6488889 C281.69281,50.4247059 281.653922,50.0998693 281.434314,49.9214379 C281.210131,49.7430065 280.885294,49.7727451 280.706863,49.9969281" id="Fill-136" fill="#EF8029" mask="url(#mask-2)"></path>
                        <path d="M282.297418,51.3685621 L279.373889,53.9947059 C279.158856,54.1868627 279.140556,54.5094118 279.330425,54.7244444 C279.520294,54.9394771 279.847418,54.9554902 280.057876,54.7633333 L282.98598,52.1417647 C283.201013,51.9496078 283.217026,51.6224837 283.024869,51.4097386 C282.835,51.199281 282.507876,51.1809804 282.297418,51.3685621" id="Fill-137" fill="#EF8029" mask="url(#mask-2)"></path>
                        <path d="M283.606601,53.0304902 L280.305621,55.1670915 C280.063137,55.3226471 279.99451,55.6406209 280.152353,55.880817 C280.305621,56.1187255 280.623595,56.1942157 280.866078,56.0317974 L284.167059,53.8974837 C284.404967,53.7442157 284.473595,53.4239542 284.320327,53.1860458 C284.167059,52.9458497 283.84451,52.8795098 283.606601,53.0304902" id="Fill-138" fill="#EF8029" mask="url(#mask-2)"></path>
                        <path d="M270.812614,77.8230719 C257.036797,71.9691503 248.392026,73.485817 235.053137,78.2439869 C222.974706,82.558366 213.966209,69.6747059 213.575033,57.3629412 C213.712288,44.534183 222.725359,32.0233987 230.487124,22.7449673 C235.734837,30.9230719 245.873399,37.0492157 255.170131,39.2338562 C262.124379,40.8717647 284.673072,47.1054248 282.605098,61.1923529 C286.633529,55.608366 287.244314,50.3766667 284.291046,45.6436601 C288.408693,48.1783007 291.805752,53.8926797 293.15085,59.808366 C290.876993,71.6420261 283.959346,83.4024837 270.812614,77.8230719 M297.197582,24.8015033 C288.772418,9.36718954 260.383529,-3.30601307 243.375359,2.63941176 C236.910654,4.90411765 234.591046,11.1675163 229.267843,13.7959477 C224.41817,16.1956209 218.555098,13.0570588 214.007386,16.5158824 C204.882222,23.4541176 207.897255,42.7635948 209.111961,52.3920261 C209.340719,54.1877778 209.848562,58.2184967 210.443333,60.8263399 C210.587451,71.4704575 217.116209,84.9191503 222.416536,93.5273203 C227.298235,101.440065 235.169804,105.724706 243.88549,107.513595 C245.98549,107.941373 248.133529,108.231895 250.297582,108.382876 C260.735817,109.13549 273.992353,108.250196 282.072092,100.854444 C289.817843,93.7652288 295.53451,75.5080392 296.529608,65.4518301 C296.554771,65.1956209 296.563922,64.9485621 296.582222,64.6946405 C297.849542,62.411634 299.039085,60.0897386 299.976993,57.680915 C304.055752,47.2037908 302.60085,34.690719 297.197582,24.8015033" id="Fill-139" fill="#F4933C" mask="url(#mask-2)"></path>
                        <path d="M270.812614,77.8230719 C257.036797,71.9691503 248.392026,73.485817 235.053137,78.2439869 C222.974706,82.558366 213.966209,69.6747059 213.575033,57.3629412 C213.712288,44.534183 222.725359,32.0233987 230.487124,22.7449673 C235.734837,30.9230719 245.873399,37.0492157 255.170131,39.2338562 C262.124379,40.8717647 284.673072,47.1054248 282.605098,61.1923529 C286.633529,55.608366 287.244314,50.3766667 284.291046,45.6436601 C288.408693,48.1783007 291.805752,53.8926797 293.15085,59.808366 C290.876993,71.6420261 283.959346,83.4024837 270.812614,77.8230719 L270.812614,77.8230719 Z M297.197582,24.8015033 C288.772418,9.36718954 260.383529,-3.30601307 243.375359,2.63941176 C236.910654,4.90411765 234.591046,11.1675163 229.267843,13.7959477 C224.41817,16.1956209 218.555098,13.0570588 214.007386,16.5158824 C204.882222,23.4541176 207.897255,42.7635948 209.111961,52.3920261 C209.340719,54.1877778 209.848562,58.2184967 210.443333,60.8263399 C210.587451,71.4704575 217.116209,84.9191503 222.416536,93.5273203 C227.298235,101.440065 235.169804,105.724706 243.88549,107.513595 C245.98549,107.941373 248.133529,108.231895 250.297582,108.382876 C260.735817,109.13549 273.992353,108.250196 282.072092,100.854444 C289.817843,93.7652288 295.53451,75.5080392 296.529608,65.4518301 C296.554771,65.1956209 296.563922,64.9485621 296.582222,64.6946405 C297.849542,62.411634 299.039085,60.0897386 299.976993,57.680915 C304.055752,47.2037908 302.60085,34.690719 297.197582,24.8015033 L297.197582,24.8015033 Z" id="Stroke-140" stroke="#5A6369" mask="url(#mask-2)"></path>
                        <path d="M253.04817,82.4787582 C247.477908,82.3140523 241.230523,83.819281 241.230523,83.819281 C242.083791,88.970915 246.926601,92.9238562 252.803399,92.9238562 C258.675621,92.9238562 263.520719,88.970915 264.373987,83.819281 C264.373987,83.819281 258.778562,82.6480392 253.04817,82.4787582" id="Fill-141" fill="#FEFEFE" mask="url(#mask-2)"></path>
                        <path d="M253.04817,82.4787582 C247.477908,82.3140523 241.230523,83.819281 241.230523,83.819281 C242.083791,88.970915 246.926601,92.9238562 252.803399,92.9238562 C258.675621,92.9238562 263.520719,88.970915 264.373987,83.819281 C264.373987,83.819281 258.778562,82.6480392 253.04817,82.4787582 L253.04817,82.4787582 Z" id="Stroke-142" stroke="#5A6369" mask="url(#mask-2)"></path>
                        <path d="M216.011078,307.285131 L217.653562,320.541667 L247.872516,319.903431 L247.355523,308.781209 L216.011078,307.285131 Z" id="Fill-143" fill="#A1A1A9" mask="url(#mask-2)"></path>
                        <path d="M216.011078,307.285131 L217.653562,320.541667 L247.872516,319.903431 L247.355523,308.781209 L216.011078,307.285131 L216.011078,307.285131 Z" id="Stroke-144" stroke="#5A6369" stroke-linecap="round" stroke-linejoin="round" mask="url(#mask-2)"></path>
                        <path d="M259.028366,308.241111 L260.563333,319.557778 L288.721176,320.138824 L290.672484,308.28915 L259.028366,308.241111 Z" id="Fill-145" fill="#A1A1A9" mask="url(#mask-2)"></path>
                        <path d="M259.028366,308.241111 L260.563333,319.557778 L288.721176,320.138824 L290.672484,308.28915 L259.028366,308.241111 L259.028366,308.241111 Z" id="Stroke-146" stroke="#5A6369" stroke-linecap="round" stroke-linejoin="round" mask="url(#mask-2)"></path>
                        <path d="M256.479542,142.724281 C256.479542,143.66219 255.717778,144.426242 254.777582,144.426242 C253.841961,144.426242 253.080196,143.66219 253.080196,142.724281 C253.080196,141.790948 253.841961,141.026895 254.777582,141.026895 C255.717778,141.026895 256.479542,141.790948 256.479542,142.724281" id="Fill-147" fill="#5A6369" mask="url(#mask-2)"></path>
                        <path d="M256.479542,155.976242 C256.479542,156.918725 255.717778,157.678203 254.777582,157.678203 C253.841961,157.678203 253.080196,156.918725 253.080196,155.976242 C253.080196,155.033758 253.841961,154.278856 254.777582,154.278856 C255.717778,154.278856 256.479542,155.033758 256.479542,155.976242" id="Fill-148" fill="#5A6369" mask="url(#mask-2)"></path>
                        <path d="M256.479542,169.223627 C256.479542,170.166111 255.717778,170.925588 254.777582,170.925588 C253.841961,170.925588 253.080196,170.166111 253.080196,169.223627 C253.080196,168.290294 253.841961,167.530817 254.777582,167.530817 C255.717778,167.530817 256.479542,168.290294 256.479542,169.223627" id="Fill-149" fill="#5A6369" mask="url(#mask-2)"></path>
                        <path d="M53.7179085,87.3018954 C57.4855556,96.4956863 72.533268,93.5355556 73.5764052,87.2126797 L53.7179085,87.3018954 Z" id="Fill-150" fill="#FEFEFE" mask="url(#mask-2)"></path>
                        <path d="M54.2719608,87.3476471 C58.0967974,92.1721569 61.2673856,92.1378431 63.0036601,92.1378431 L63.5000654,92.1012418 C66.0552941,92.6067974 71.7559477,89.4567974 72.465098,87.3842484 L54.2719608,87.3476471 Z M63.266732,93.7940523 L63.2644444,93.7940523 C58.2271895,93.7940523 54.2239216,91.3577778 52.5539869,87.2835948 C52.4144444,86.9450327 52.4556209,86.5584314 52.6615033,86.254183 C52.8605229,85.9499346 53.199085,85.7692157 53.565098,85.7669281 L73.4258824,85.68 L73.4281699,85.68 C73.750719,85.68 74.0549673,85.8218301 74.2654248,86.0643137 C74.4758824,86.3113725 74.5696732,86.6384967 74.5147712,86.9564706 C73.8056209,91.2365359 68.2376471,93.7940523 63.266732,93.7940523 L63.266732,93.7940523 Z" id="Fill-151" fill="#A36E46" mask="url(#mask-2)"></path>
                        <path d="M41.2210784,313.741144 C38.3044118,317.931993 29.9204248,326.670556 29.9204248,326.670556 C27.3812092,329.562059 27.2210784,331.113039 29.6390523,331.398987 C29.6390523,331.398987 34.6534314,332.009771 37.9727124,331.113039 C45.2655229,329.16402 49.1292484,323.852255 49.9001634,323.449641 L50.4240196,328.637876 C52.3478758,329.763366 53.4367647,328.431993 53.4367647,328.431993 C53.4367647,328.431993 55.7083333,313.178399 53.6929739,311.631993 C53.347549,311.368922 53.6929739,311.631993 53.6929739,311.631993 C53.8622549,311.766961 48.1753268,321.550948 39.7044118,323.351275 C38.2678105,323.660098 36.4720588,323.801928 35.6462418,322.150294 C35.1955882,321.237549 40.8116013,314.562386 41.2210784,313.741144" id="Fill-152" fill="#F4933C" mask="url(#mask-2)"></path>
                        <path d="M41.2210784,313.741144 C38.3044118,317.931993 29.9204248,326.670556 29.9204248,326.670556 C27.3812092,329.562059 27.2210784,331.113039 29.6390523,331.398987 C29.6390523,331.398987 34.6534314,332.009771 37.9727124,331.113039 C45.2655229,329.16402 49.1292484,323.852255 49.9001634,323.449641 L50.4240196,328.637876 C52.3478758,329.763366 53.4367647,328.431993 53.4367647,328.431993 C53.4367647,328.431993 55.7083333,313.178399 53.6929739,311.631993 C53.347549,311.368922 53.6929739,311.631993 53.6929739,311.631993 C53.8622549,311.766961 48.1753268,321.550948 39.7044118,323.351275 C38.2678105,323.660098 36.4720588,323.801928 35.6462418,322.150294 C35.1955882,321.237549 40.8116013,314.562386 41.2210784,313.741144 L41.2210784,313.741144 Z" id="Stroke-153" stroke="#5A6369" mask="url(#mask-2)"></path>
                    </g>
                    <g id="20" transform="translate(282.000000, 41.000000)">
                        <path d="M40,20 C40,31.0466667 31.0466667,40 20,40 C8.95333333,40 0,31.0466667 0,20 C0,8.95333333 8.95333333,0 20,0 C31.0466667,0 40,8.95333333 40,20" id="Fill-1" fill="#F9F0EB"></path>
                        <path d="M40,20 C40,31.0466667 31.0466667,40 20,40 C8.95333333,40 0,31.0466667 0,20 C0,8.95333333 8.95333333,0 20,0 C31.0466667,0 40,8.95333333 40,20 L40,20 Z" id="Stroke-3" stroke="#5D616A" stroke-linecap="round" stroke-linejoin="round"></path>
                        <path d="M6.57716667,20 L8.63133333,20" id="Stroke-5" stroke="#5D616A" stroke-linecap="round" stroke-linejoin="round"></path>
                        <path d="M14.6045,18.5920833 C14.6045,18.5920833 14.6045,15.7629167 17.4336667,15.7629167 C20.262,15.7629167 20.262,18.5920833 20.262,18.5920833 L14.6045,24.26125 L20.262,24.2495833" id="Stroke-7" stroke="#5D616A" stroke-linecap="round" stroke-linejoin="round"></path>
                        <path d="M33.2438333,20.0065 C33.2438333,22.3506667 31.3446667,24.2498333 29.0005,24.2498333 C26.658,24.2498333 24.7571667,22.3506667 24.7571667,20.0065 C24.7571667,17.6623333 26.658,15.7631667 29.0005,15.7631667 C31.3446667,15.7631667 33.2438333,17.6623333 33.2438333,20.0065 L33.2438333,20.0065 Z" id="Stroke-9" stroke="#5D616A" stroke-linecap="round" stroke-linejoin="round"></path>
                    </g>
                    <g id="50" transform="translate(801.000000, 152.000000)">
                        <path d="M56.5,28.5 C56.5,43.965 43.965,56.5 28.5,56.5 C13.035,56.5 0.5,43.965 0.5,28.5 C0.5,13.035 13.035,0.5 28.5,0.5 C43.965,0.5 56.5,13.035 56.5,28.5" id="Fill-1" fill="#F9E765"></path>
                        <path d="M56.5,28.5 C56.5,43.965 43.965,56.5 28.5,56.5 C13.035,56.5 0.5,43.965 0.5,28.5 C0.5,13.035 13.035,0.5 28.5,0.5 C43.965,0.5 56.5,13.035 56.5,28.5 L56.5,28.5 Z" id="Stroke-3" stroke="#5D616A" stroke-linecap="round" stroke-linejoin="round"></path>
                        <path d="M10.5,28.4961 L13.581,28.4961" id="Stroke-5" stroke="#5D616A" stroke-linecap="round" stroke-linejoin="round"></path>
                        <path d="M46.5,28.5 C46.5,32.016 43.651,34.863 40.136,34.863 C36.621,34.863 33.771,32.016 33.771,28.5 C33.771,24.984 36.621,22.135 40.136,22.135 C43.651,22.135 46.5,24.984 46.5,28.5 L46.5,28.5 Z" id="Stroke-7" stroke="#5D616A" stroke-linecap="round" stroke-linejoin="round"></path>
                        <path d="M19.0879,30.6562 C19.0879,32.9802 20.9729,34.8632 23.2969,34.8632 C25.6209,34.8632 27.5059,32.9802 27.5059,30.6562 C27.5059,28.3322 25.6209,26.4452 23.2969,26.4452 L21.1919,26.4452 L21.1919,22.1622 L25.4009,22.1622" id="Stroke-9" stroke="#5D616A" stroke-linecap="round" stroke-linejoin="round"></path>
                    </g>
                    <g id="bills" transform="translate(880.000000, 12.000000)">
                        <circle id="Oval-3-Copy" stroke="#5D616A" fill="#FFFFFF" cx="60" cy="60" r="60"></circle>
                        <g id="Group-10" transform="translate(33.000000, 31.000000)" stroke="#3A6D26">
                            <g id="Group-6" transform="translate(0.000000, 0.074926)" stroke-linecap="round" stroke-linejoin="round">
                                <path d="M5.90777273,55.9250739 C3.04789716,55.9250739 0.726604559,53.8301403 0.643124199,51.2209726 L0.635045455,13.9250739 L11.1805,13.9250739 L11.1805,55.9250739 L5.90777273,55.9250739 Z" id="Fill-1" fill="#71B058"></path>
                                <path d="M9.56723257,0.925073913 L9.56723257,51.6722437 C9.56723257,54.5731014 7.24813546,56.9250739 4.38632727,56.9250739 L49.2592679,56.9250739 L49.2619152,56.9195851 C49.2751521,56.9195851 49.2830942,56.9250739 49.2936837,56.9250739 C49.6537262,56.9250739 50.0031792,56.8893964 50.3393953,56.8180413 C50.5008849,56.7851082 50.6517851,56.7219864 50.80798,56.6698424 C50.9774117,56.6176983 51.1521382,56.5792763 51.3109805,56.5134101 C51.5730702,56.4008887 51.813981,56.2581785 52.0548918,56.1017463 C52.0972497,56.0797909 52.1449024,56.0605799 52.1925551,56.0276468 C53.5691881,55.0863089 54.474589,53.4917978 54.474589,51.6859659 L54.4772364,51.6859659 L54.4772364,0.925073913 L9.56723257,0.925073913 Z" id="Fill-4" fill="#8CDA6D"></path>
                            </g>
                            <path d="M14,13.6335323 L14,55.9130435 L50,55.9130435 L50,13.6335323 C49.7986053,13.649402 49.6027282,13.6626268 49.3985746,13.6626268 C45.7541574,13.6626268 42.7966894,10.9277494 42.7966894,7.55279436 C42.7966894,7.36764792 42.8104836,7.18250149 42.8297954,7 L21.1674458,7 C21.1839988,7.18250149 21.2005518,7.36764792 21.2005518,7.55279436 C21.2005518,10.9277494 18.2430838,13.6626268 14.5986666,13.6626268 C14.394513,13.6626268 14.1958771,13.649402 14,13.6335323 Z" id="Fill-9" stroke-linecap="round" stroke-linejoin="round" fill="#77B85F"></path>
                            <path d="M14,13.6335323 L14,55.9130435 L50,55.9130435 L50,13.6335323 C49.7986053,13.649402 49.6027282,13.6626268 49.3985746,13.6626268 C45.7541574,13.6626268 42.7966894,10.9277494 42.7966894,7.55279436 C42.7966894,7.36764792 42.8104836,7.18250149 42.8297954,7 L21.1674458,7 C21.1839988,7.18250149 21.2005518,7.36764792 21.2005518,7.55279436 C21.2005518,10.9277494 18.2430838,13.6626268 14.5986666,13.6626268 C14.394513,13.6626268 14.1958771,13.649402 14,13.6335323 Z" id="Fill-9" stroke-linecap="round" stroke-linejoin="round" fill="#77B85F"></path>
                            <path d="M45.3898878,56 C47.0385321,53.8548529 48,51.27522 48,48.5 C48,41.0441559 41.0604136,35 32.5,35 C23.9395864,35 17,41.0441559 17,48.5 C17,51.27522 17.9614679,53.8548529 19.6101122,56 L45.3898878,56 Z" id="Combined-Shape" fill="#8CDA6D"></path>
                            <path d="M36.0599591,45.2669492 C37.5043467,45.2669492 38.2023779,46.126177 38.2023779,47.903484 C38.2023779,49.25 37.410381,50.2857815 36.4331373,51.1026365 C36.2022501,51.2980226 35.9230376,51.5334275 35.9230376,51.9642185 C35.9230376,52.5315443 36.4814625,53 37.176809,53 C37.410381,53 37.643953,52.9411488 37.8318844,52.8422787 C39.1098185,52.1784369 40.3206341,50.693032 40.5998466,48.8003766 L41.904628,48.8003766 C42.5086934,48.8003766 43,48.3907721 43,47.903484 C43,47.3950094 42.5086934,46.9830508 41.904628,46.9830508 L40.5998466,46.9830508 C40.2964715,44.3677024 38.6211966,43 36.0599591,43 C30.2394528,43 31.6596778,50.1280603 28.6098185,50.1280603 C27.6782153,50.1280603 26.7707747,49.5230697 26.7707747,47.903484 C26.7707747,46.7900188 27.3077218,45.7730697 28.005753,45.1680791 C28.330606,44.876177 28.5185375,44.6007533 28.5185375,44.3276836 C28.5185375,43.7415254 27.9574278,43.2730697 27.2835592,43.2730697 C27.001662,43.2730697 26.7492969,43.3507533 26.5372028,43.4684557 C25.4230376,44.1322976 24.6766812,45.4223164 24.4431092,46.9830508 L23.0926873,46.9830508 C22.4886218,46.9830508 22,47.3950094 22,47.903484 C22,48.3907721 22.4886218,48.8003766 23.0926873,48.8003766 L24.4189466,48.8003766 C24.749169,51.2980226 26.5372028,52.3950094 28.6098185,52.3950094 C34.2209154,52.3950094 32.6610841,45.2669492 36.0599591,45.2669492 Z" id="Path" fill="#77B85F"></path>
                        </g>
                    </g>
                    <g id="watch" transform="translate(125.000000, 137.000000)">
                        <circle id="Oval-3" stroke="#5D616A" fill="#FFFFFF" cx="60" cy="60" r="60"></circle>
                        <g id="Group" transform="translate(40.000000, 31.000000)">
                            <path d="M9.09090909,0 L30.9090909,0 L30.9090909,58.1818182 L9.09090909,58.1818182 L9.09090909,0 L9.09090909,0 Z" id="Shape" stroke="#5D616A" stroke-linecap="round" stroke-linejoin="round" fill="#A2ABB7"></path>
                            <path d="M20,9.09090909 C31.0454545,9.09090909 40,18.0454545 40,29.0909091 C40,40.1381818 31.0454545,49.0909091 20,49.0909091 C8.95454545,49.0909091 0,40.1381818 0,29.0909091 C0,18.0472727 8.95454545,9.09090909 20,9.09090909 L20,9.09090909 Z" id="Shape" fill="#E4E7E7"></path>
                            <path d="M27.2727273,27.2727273 L21.8181818,27.2727273 L21.8181818,21.8181818 C21.8181818,20.8145455 21.0054545,20 20,20 C18.9945455,20 18.1818182,20.8145455 18.1818182,21.8181818 L18.1818182,29.0909091 C18.1818182,30.0963636 18.9945455,30.9090909 20,30.9090909 L27.2727273,30.9090909 C28.2781818,30.9090909 29.0909091,30.0963636 29.0909091,29.0909091 C29.0909091,28.0872727 28.2781818,27.2727273 27.2727273,27.2727273 L27.2727273,27.2727273 Z" id="Shape" fill="#4B616E"></path>
                            <path d="M20,9.09090909 C8.95454545,9.09090909 0,18.0472727 0,29.0909091 C0,40.1381818 8.95454545,49.0909091 20,49.0909091 C31.0454545,49.0909091 40,40.1381818 40,29.0909091 C40,18.0472727 31.0454545,9.09090909 20,9.09090909 L20,9.09090909 Z M20,44.5454545 C11.4763636,44.5454545 4.54545455,37.6145455 4.54545455,29.0909091 C4.54545455,20.5672727 11.4763636,13.6363636 20,13.6363636 C28.5236364,13.6363636 35.4545455,20.5690909 35.4545455,29.0909091 C35.4545455,37.6145455 28.5236364,44.5454545 20,44.5454545 L20,44.5454545 Z" id="Shape" stroke="#946A2F" fill="#F4B459"></path>
                        </g>
                    </g>
                    <g id="codes" transform="translate(339.747348, 157.152257) rotate(1.000000) translate(-339.747348, -157.152257) translate(302.247348, 142.652257)">
                        <path d="M0.5,28.1172 L74.376,28.1172 L74.376,1.5002 L0.5,1.5002 L0.5,28.1172 Z" id="Fill-1" fill="#F6871F"></path>
                        <g id="Group-10" transform="translate(-0.000000, 0.617200)" stroke="#5D616A" stroke-linecap="round" stroke-linejoin="round">
                            <path d="M0.5,27.5 L74.376,27.5 L74.376,0.883 L0.5,0.883 L0.5,27.5 Z" id="Stroke-2"></path>
                            <path d="M36.6123,19.5859 L36.6123,8.7969 L40.2283,8.7969 C40.2283,8.7969 43.8453,8.7969 43.8453,12.3949 L43.8453,15.9899 C43.8453,15.9899 43.8453,19.5859 40.2283,19.5859 L36.6123,19.5859 L36.6123,19.5859 Z" id="Stroke-4"></path>
                            <path d="M64.3818,11.4951 C64.3818,11.4951 64.3818,8.7971 61.6688,8.7971 C58.9568,8.7971 58.9568,11.4951 58.9568,11.4951 C58.9568,11.4951 58.9568,14.1911 61.6688,14.1911 C64.3818,14.1911 64.3818,16.8891 64.3818,16.8891 C64.3818,16.8891 64.3818,19.5861 61.6688,19.5861 C58.9568,19.5861 58.9568,16.8891 58.9568,16.8891" id="Stroke-5"></path>
                            <path d="M18.2168,12.3945 C18.2168,12.3945 18.2168,8.7965 14.5998,8.7965 C10.9828,8.7965 10.9828,12.3945 10.9828,12.3945 L10.9828,15.9905 C10.9828,15.9905 10.9828,19.5855 14.5998,19.5855 C18.2168,19.5855 18.2168,15.9905 18.2168,15.9905" id="Stroke-6"></path>
                            <path d="M32.6816,14.1914 C32.6816,17.1704 30.2516,19.5864 27.2556,19.5864 C24.2606,19.5864 21.8316,17.1704 21.8316,14.1914 C21.8316,11.2124 24.2606,8.7964 27.2556,8.7964 C30.2516,8.7964 32.6816,11.2124 32.6816,14.1914 L32.6816,14.1914 Z" id="Stroke-7"></path>
                            <path d="M55.2441,8.75 L47.9941,8.75 L47.9941,19.633 L55.2441,19.633" id="Stroke-8"></path>
                            <path d="M47.9941,14.1914 L51.6191,14.1914" id="Stroke-9"></path>
                        </g>
                    </g>
                    <g id="Page-1" transform="translate(789.000000, 102.000000)" stroke="#5D616A" stroke-linecap="round" stroke-linejoin="round">
                        <path d="M5.5410748,3.16770186 L5.5410748,0" id="Stroke-1"></path>
                        <path d="M5.5410748,12.5393478 L5.5410748,9.37164596" id="Stroke-3"></path>
                        <path d="M3.16632846,5.54347826 L0,5.54347826" id="Stroke-5"></path>
                        <path d="M12.5339112,5.54347826 L9.36758275,5.54347826" id="Stroke-7"></path>
                    </g>
                    <g id="Page-1" transform="translate(222.000000, 81.000000)" stroke="#5D616A" stroke-linecap="round" stroke-linejoin="round">
                        <path d="M5.5410748,3.16770186 L5.5410748,0" id="Stroke-1"></path>
                        <path d="M5.5410748,12.5393478 L5.5410748,9.37164596" id="Stroke-3"></path>
                        <path d="M3.16632846,5.54347826 L0,5.54347826" id="Stroke-5"></path>
                        <path d="M12.5339112,5.54347826 L9.36758275,5.54347826" id="Stroke-7"></path>
                    </g>
                    <g id="Page-1" transform="translate(334.000000, 237.000000)" stroke="#5D616A" stroke-linecap="round" stroke-linejoin="round">
                        <path d="M5.5410748,3.16770186 L5.5410748,0" id="Stroke-1"></path>
                        <path d="M5.5410748,12.5393478 L5.5410748,9.37164596" id="Stroke-3"></path>
                        <path d="M3.16632846,5.54347826 L0,5.54347826" id="Stroke-5"></path>
                        <path d="M12.5339112,5.54347826 L9.36758275,5.54347826" id="Stroke-7"></path>
                    </g>
                    <g id="Page-1" transform="translate(802.000000, 244.000000)" stroke="#5D616A" stroke-linecap="round" stroke-linejoin="round">
                        <path d="M8.09849395,4.62971811 L8.09849395,0" id="Stroke-1"></path>
                        <path d="M8.09849395,18.3267391 L8.09849395,13.697021" id="Stroke-3"></path>
                        <path d="M4.62771083,8.10200669 L0,8.10200669" id="Stroke-5"></path>
                        <path d="M18.3187933,8.10200669 L13.6910825,8.10200669" id="Stroke-7"></path>
                    </g>
                    <g id="Page-1" transform="translate(987.000000, 151.000000)" stroke="#5D616A" stroke-linecap="round" stroke-linejoin="round">
                        <path d="M8.09849395,4.62971811 L8.09849395,0" id="Stroke-1"></path>
                        <path d="M8.09849395,18.3267391 L8.09849395,13.697021" id="Stroke-3"></path>
                        <path d="M4.62771083,8.10200669 L0,8.10200669" id="Stroke-5"></path>
                        <path d="M18.3187933,8.10200669 L13.6910825,8.10200669" id="Stroke-7"></path>
                    </g>
                    <g id="Page-1" transform="translate(377.000000, 81.000000)" stroke="#5D616A" stroke-linecap="round" stroke-linejoin="round">
                        <path d="M11.5083861,6.5790731 L11.5083861,0" id="Stroke-1"></path>
                        <path d="M11.5083861,26.0432609 L11.5083861,19.4641878" id="Stroke-3"></path>
                        <path d="M6.57622065,11.5133779 L0,11.5133779" id="Stroke-5"></path>
                        <path d="M26.0319694,11.5133779 L19.4557488,11.5133779" id="Stroke-7"></path>
                    </g>
                </g>
            </g>
        </g>
    </g>
</svg>
