<?xml version="1.0" encoding="utf-8"?>
<!-- Generator: Adobe Illustrator 16.0.0, SVG Export Plug-In . SVG Version: 6.00 Build 0)  -->
<!DOCTYPE svg PUBLIC "-//W3C//DTD SVG 1.1//EN" "http://www.w3.org/Graphics/SVG/1.1/DTD/svg11.dtd">
<svg version="1.1" id="Layer_1" xmlns="http://www.w3.org/2000/svg" xmlns:xlink="http://www.w3.org/1999/xlink" x="0px" y="0px"
	 width="13px" height="13px" viewBox="0 0 13 13" enable-background="new 0 0 13 13" xml:space="preserve">
<title>Search - FontAwesome</title>
<desc>Created with Sketch.</desc>
<g id="Website">
	<g id="Store-Page" transform="translate(-306.000000, -30.000000)">
		<g id="search" transform="translate(291.000000, 18.000000)">
			<g enable-background="new    ">
				<path fill="#D5D9DE" d="M28,24c0,0.271-0.1,0.505-0.297,0.703C27.505,24.901,27.271,25,27,25c-0.281,0-0.516-0.099-0.703-0.297
					l-2.68-2.672C22.685,22.677,21.646,23,20.5,23c-0.745,0-1.457-0.145-2.137-0.434s-1.266-0.68-1.758-1.172
					s-0.883-1.078-1.172-1.758S15,18.245,15,17.5s0.145-1.457,0.434-2.137s0.68-1.266,1.172-1.758s1.078-0.883,1.758-1.172
					S19.755,12,20.5,12c0.745,0,1.457,0.145,2.137,0.434s1.266,0.68,1.758,1.172s0.883,1.078,1.172,1.758S26,16.755,26,17.5
					c0,1.146-0.323,2.185-0.969,3.117l2.68,2.68C27.903,23.489,28,23.724,28,24z M22.973,19.973C23.657,19.288,24,18.464,24,17.5
					s-0.343-1.788-1.027-2.473C22.287,14.343,21.463,14,20.5,14c-0.964,0-1.788,0.343-2.473,1.027C17.342,15.712,17,16.536,17,17.5
					s0.342,1.788,1.027,2.473C18.712,20.657,19.536,21,20.5,21C21.463,21,22.287,20.657,22.973,19.973z"/>
			</g>
		</g>
	</g>
</g>
</svg>
