<?xml version="1.0" encoding="utf-8"?>
<!-- Generator: Adobe Illustrator 16.0.0, SVG Export Plug-In . SVG Version: 6.00 Build 0)  -->
<!DOCTYPE svg PUBLIC "-//W3C//DTD SVG 1.1//EN" "http://www.w3.org/Graphics/SVG/1.1/DTD/svg11.dtd">
<svg version="1.1" id="Layer_1" xmlns="http://www.w3.org/2000/svg" xmlns:xlink="http://www.w3.org/1999/xlink" x="0px" y="0px"
	 width="160.167px" height="27px" viewBox="0 0 160.167 27" enable-background="new 0 0 160.167 27" xml:space="preserve">
<g>
	<defs>
		<rect id="SVGID_1_" x="-638.988" y="-2175.758" width="1440" height="2887"/>
	</defs>
	<clipPath id="SVGID_2_">
		<use xlink:href="#SVGID_1_"  overflow="visible"/>
	</clipPath>
	<path clip-path="url(#SVGID_2_)" fill="#FEED80" d="M25.57,9.962c0.57,0.092,0.855,0.325,0.855,0.702
		c0,0.224-0.132,0.468-0.397,0.733l-5.544,5.407l1.313,7.635c0.01,0.072,0.015,0.174,0.015,0.307c0,0.213-0.054,0.395-0.161,0.541
		c-0.106,0.148-0.262,0.223-0.466,0.223c-0.193,0-0.397-0.062-0.611-0.184l-6.857-3.604l-6.857,3.604
		C6.637,25.447,6.434,25.51,6.25,25.51c-0.213,0-0.374-0.074-0.481-0.223c-0.107-0.146-0.16-0.328-0.16-0.541
		c0-0.061,0.01-0.164,0.03-0.307l1.313-7.635l-5.559-5.407c-0.255-0.275-0.382-0.52-0.382-0.733c0-0.377,0.285-0.61,0.855-0.702
		l7.667-1.115l3.437-6.949c0.193-0.418,0.443-0.626,0.748-0.626c0.306,0,0.555,0.208,0.749,0.626l3.437,6.949L25.57,9.962
		L25.57,9.962z"/>
	<path clip-path="url(#SVGID_2_)" fill="#FEED80" d="M25.57,9.962c0.57,0.092,0.855,0.325,0.855,0.702
		c0,0.224-0.132,0.468-0.397,0.733l-5.544,5.407l1.313,7.635c0.01,0.072,0.015,0.174,0.015,0.307c0,0.213-0.054,0.395-0.161,0.541
		c-0.106,0.148-0.262,0.223-0.466,0.223c-0.193,0-0.397-0.062-0.611-0.184l-6.857-3.604l-6.857,3.604
		C6.637,25.447,6.434,25.51,6.25,25.51c-0.213,0-0.374-0.074-0.481-0.223c-0.107-0.146-0.16-0.328-0.16-0.541
		c0-0.061,0.01-0.164,0.03-0.307l1.313-7.635l-5.559-5.407c-0.255-0.275-0.382-0.52-0.382-0.733c0-0.377,0.285-0.61,0.855-0.702
		l7.667-1.115l3.437-6.949c0.193-0.418,0.443-0.626,0.748-0.626c0.306,0,0.555,0.208,0.749,0.626l3.437,6.949L25.57,9.962
		L25.57,9.962z"/>
	<path clip-path="url(#SVGID_2_)" fill="#FEED80" d="M58.57,9.962c0.57,0.092,0.855,0.325,0.855,0.702
		c0,0.224-0.132,0.468-0.397,0.733l-5.544,5.407l1.313,7.635c0.01,0.072,0.015,0.174,0.015,0.307c0,0.213-0.054,0.395-0.161,0.541
		c-0.106,0.148-0.262,0.223-0.466,0.223c-0.193,0-0.397-0.062-0.611-0.184l-6.857-3.604l-6.857,3.604
		c-0.224,0.121-0.428,0.184-0.611,0.184c-0.213,0-0.374-0.074-0.481-0.223c-0.107-0.146-0.16-0.328-0.16-0.541
		c0-0.061,0.01-0.164,0.03-0.307l1.313-7.635l-5.559-5.407c-0.255-0.275-0.382-0.52-0.382-0.733c0-0.377,0.285-0.61,0.855-0.702
		l7.667-1.115l3.437-6.949c0.193-0.418,0.443-0.626,0.748-0.626c0.306,0,0.555,0.208,0.749,0.626l3.437,6.949L58.57,9.962
		L58.57,9.962z"/>
	<path clip-path="url(#SVGID_2_)" fill="#FEED80" d="M58.57,9.962c0.57,0.092,0.855,0.325,0.855,0.702
		c0,0.224-0.132,0.468-0.397,0.733l-5.544,5.407l1.313,7.635c0.01,0.072,0.015,0.174,0.015,0.307c0,0.213-0.054,0.395-0.161,0.541
		c-0.106,0.148-0.262,0.223-0.466,0.223c-0.193,0-0.397-0.062-0.611-0.184l-6.857-3.604l-6.857,3.604
		c-0.224,0.121-0.428,0.184-0.611,0.184c-0.213,0-0.374-0.074-0.481-0.223c-0.107-0.146-0.16-0.328-0.16-0.541
		c0-0.061,0.01-0.164,0.03-0.307l1.313-7.635l-5.559-5.407c-0.255-0.275-0.382-0.52-0.382-0.733c0-0.377,0.285-0.61,0.855-0.702
		l7.667-1.115l3.437-6.949c0.193-0.418,0.443-0.626,0.748-0.626c0.306,0,0.555,0.208,0.749,0.626l3.437,6.949L58.57,9.962
		L58.57,9.962z"/>
	<path clip-path="url(#SVGID_2_)" fill="#FEED80" d="M91.57,9.962c0.569,0.092,0.854,0.325,0.854,0.702
		c0,0.224-0.132,0.468-0.396,0.733l-5.544,5.407l1.313,7.635c0.01,0.072,0.015,0.174,0.015,0.307c0,0.213-0.053,0.395-0.16,0.541
		c-0.106,0.148-0.262,0.223-0.466,0.223c-0.193,0-0.396-0.062-0.61-0.184l-6.857-3.604l-6.857,3.604
		c-0.224,0.121-0.428,0.184-0.611,0.184c-0.213,0-0.374-0.074-0.481-0.223c-0.107-0.146-0.16-0.328-0.16-0.541
		c0-0.061,0.01-0.164,0.03-0.307l1.313-7.635l-5.559-5.407c-0.255-0.275-0.382-0.52-0.382-0.733c0-0.377,0.285-0.61,0.855-0.702
		l7.667-1.115l3.437-6.949c0.193-0.418,0.443-0.626,0.749-0.626s0.555,0.208,0.748,0.626l3.437,6.949L91.57,9.962L91.57,9.962z"/>
	<path clip-path="url(#SVGID_2_)" fill="#FEED80" d="M91.57,9.962c0.569,0.092,0.854,0.325,0.854,0.702
		c0,0.224-0.132,0.468-0.396,0.733l-5.544,5.407l1.313,7.635c0.01,0.072,0.015,0.174,0.015,0.307c0,0.213-0.053,0.395-0.16,0.541
		c-0.106,0.148-0.262,0.223-0.466,0.223c-0.193,0-0.396-0.062-0.61-0.184l-6.857-3.604l-6.857,3.604
		c-0.224,0.121-0.428,0.184-0.611,0.184c-0.213,0-0.374-0.074-0.481-0.223c-0.107-0.146-0.16-0.328-0.16-0.541
		c0-0.061,0.01-0.164,0.03-0.307l1.313-7.635l-5.559-5.407c-0.255-0.275-0.382-0.52-0.382-0.733c0-0.377,0.285-0.61,0.855-0.702
		l7.667-1.115l3.437-6.949c0.193-0.418,0.443-0.626,0.749-0.626s0.555,0.208,0.748,0.626l3.437,6.949L91.57,9.962L91.57,9.962z"/>
	<path clip-path="url(#SVGID_2_)" fill="#FEED80" d="M124.57,9.962c0.569,0.092,0.854,0.325,0.854,0.702
		c0,0.224-0.132,0.468-0.396,0.733l-5.544,5.407l1.313,7.635c0.01,0.072,0.015,0.174,0.015,0.307c0,0.213-0.053,0.395-0.16,0.541
		c-0.106,0.148-0.262,0.223-0.466,0.223c-0.193,0-0.396-0.062-0.61-0.184l-6.857-3.604l-6.857,3.604
		c-0.225,0.121-0.428,0.184-0.611,0.184c-0.214,0-0.374-0.074-0.48-0.223c-0.107-0.146-0.161-0.328-0.161-0.541
		c0-0.061,0.011-0.164,0.031-0.307l1.313-7.635l-5.56-5.407c-0.255-0.275-0.382-0.52-0.382-0.733c0-0.377,0.285-0.61,0.855-0.702
		l7.667-1.115l3.436-6.949c0.193-0.418,0.443-0.626,0.749-0.626s0.555,0.208,0.748,0.626l3.437,6.949L124.57,9.962L124.57,9.962z"/>
	<path clip-path="url(#SVGID_2_)" fill="#FEED80" d="M124.57,9.962c0.569,0.092,0.854,0.325,0.854,0.702
		c0,0.224-0.132,0.468-0.396,0.733l-5.544,5.407l1.313,7.635c0.01,0.072,0.015,0.174,0.015,0.307c0,0.213-0.053,0.395-0.16,0.541
		c-0.106,0.148-0.262,0.223-0.466,0.223c-0.193,0-0.396-0.062-0.61-0.184l-6.857-3.604l-6.857,3.604
		c-0.225,0.121-0.428,0.184-0.611,0.184c-0.214,0-0.374-0.074-0.48-0.223c-0.107-0.146-0.161-0.328-0.161-0.541
		c0-0.061,0.011-0.164,0.031-0.307l1.313-7.635l-5.56-5.407c-0.255-0.275-0.382-0.52-0.382-0.733c0-0.377,0.285-0.61,0.855-0.702
		l7.667-1.115l3.436-6.949c0.193-0.418,0.443-0.626,0.749-0.626s0.555,0.208,0.748,0.626l3.437,6.949L124.57,9.962L124.57,9.962z"/>
	<path clip-path="url(#SVGID_2_)" fill="#FEED80" d="M157.57,9.962c0.569,0.092,0.854,0.325,0.854,0.702
		c0,0.224-0.132,0.468-0.396,0.733l-5.544,5.407l1.313,7.635c0.01,0.072,0.015,0.174,0.015,0.307c0,0.213-0.053,0.395-0.16,0.541
		c-0.106,0.148-0.262,0.223-0.466,0.223c-0.193,0-0.396-0.062-0.61-0.184l-6.857-3.604l-6.857,3.604
		c-0.225,0.121-0.428,0.184-0.611,0.184c-0.214,0-0.374-0.074-0.48-0.223c-0.107-0.146-0.161-0.328-0.161-0.541
		c0-0.061,0.011-0.164,0.031-0.307l1.313-7.635l-5.56-5.407c-0.255-0.275-0.382-0.52-0.382-0.733c0-0.377,0.285-0.61,0.855-0.702
		l7.667-1.115l3.436-6.949c0.193-0.418,0.443-0.626,0.749-0.626s0.555,0.208,0.748,0.626l3.437,6.949L157.57,9.962L157.57,9.962z"/>
	<path clip-path="url(#SVGID_2_)" fill="#FEED80" d="M157.57,9.962c0.569,0.092,0.854,0.325,0.854,0.702
		c0,0.224-0.132,0.468-0.396,0.733l-5.544,5.407l1.313,7.635c0.01,0.072,0.015,0.174,0.015,0.307c0,0.213-0.053,0.395-0.16,0.541
		c-0.106,0.148-0.262,0.223-0.466,0.223c-0.193,0-0.396-0.062-0.61-0.184l-6.857-3.604l-6.857,3.604
		c-0.225,0.121-0.428,0.184-0.611,0.184c-0.214,0-0.374-0.074-0.48-0.223c-0.107-0.146-0.161-0.328-0.161-0.541
		c0-0.061,0.011-0.164,0.031-0.307l1.313-7.635l-5.56-5.407c-0.255-0.275-0.382-0.52-0.382-0.733c0-0.377,0.285-0.61,0.855-0.702
		l7.667-1.115l3.436-6.949c0.193-0.418,0.443-0.626,0.749-0.626s0.555,0.208,0.748,0.626l3.437,6.949L157.57,9.962L157.57,9.962z"/>
</g>
</svg>
