<?xml version="1.0" encoding="UTF-8" standalone="no"?>
<svg width="393px" height="354px" viewBox="0 0 393 354" version="1.1" xmlns="http://www.w3.org/2000/svg" xmlns:xlink="http://www.w3.org/1999/xlink">
    <!-- Generator: sketchtool 3.6.1 (26313) - http://www.bohemiancoding.com/sketch -->
    <title>store-graph</title>
    <desc>Created with sketchtool.</desc>
    <defs></defs>
    <g id="Page-1" stroke="none" stroke-width="1" fill="none" fill-rule="evenodd">
        <g id="welcome" transform="translate(-170.000000, -721.000000)">
            <g id="trending-stores" transform="translate(-96.000000, 632.000000)">
                <g id="store-graph" transform="translate(267.000000, 90.000000)">
                    <g id="graph">
                        <g id="Group-8" transform="translate(52.000000, 41.000000)">
                            <rect id="Rectangle-753" stroke="#5D616A" fill="#FFFDF5" x="1.75001732" y="0" width="304.759114" height="220.947205" rx="2"></rect>
                            <g id="vertical" opacity="0.437674907" transform="translate(42.912287, 0.000000)" fill="#38C0C5">
                                <rect id="Rectangle-754" x="0" y="0" width="0.791582115" height="222.531056"></rect>
                                <rect id="Rectangle-754-Copy" x="58.7915821" y="0" width="0.791582115" height="222.531056"></rect>
                                <rect id="Rectangle-754-Copy" x="117.583164" y="0" width="0.791582115" height="222.531056"></rect>
                                <rect id="Rectangle-754-Copy" x="176.374746" y="0" width="0.791582115" height="222.531056"></rect>
                                <rect id="Rectangle-754-Copy" x="237.474634" y="0" width="0.791582115" height="222.531056"></rect>
                            </g>
                            <g id="horizontal" opacity="0.437674907" transform="translate(0.000000, 35.636646)" fill="#38C0C5">
                                <rect id="Rectangle-754-Copy" transform="translate(154.129574, 0.395963) rotate(-90.000000) translate(-154.129574, -0.395963) " x="153.733783" y="-152.841615" width="0.791582115" height="306.475155"></rect>
                                <rect id="Rectangle-754-Copy" transform="translate(153.604730, 71.187545) rotate(-90.000000) translate(-153.604730, -71.187545) " x="153.208939" y="-82.0500328" width="0.791582115" height="306.475155"></rect>
                                <rect id="Rectangle-754-Copy" transform="translate(154.129574, 142.150621) rotate(-90.000000) translate(-154.129574, -142.150621) " x="153.733783" y="-11.0869565" width="0.791582115" height="306.475155"></rect>
                            </g>
                        </g>
                        <g id="Group-9">
                            <path id="Path-2839" stroke="#979797" d=""></path>
                            <path d="M13.9268978,253.564635 L101.950211,143.019883 L164.485198,191.314963 L222.323258,94.3535884 L256.481882,122.921681 L384.446078,0.371215062" id="Path-2840" stroke="#5D616A" stroke-linecap="round" stroke-linejoin="round"></path>
                            <g id="Page-1" transform="translate(25.330628, 114.829193)" stroke="#5D616A" stroke-linecap="round" stroke-linejoin="round">
                                <path d="M5.5410748,3.16770186 L5.5410748,0" id="Stroke-1"></path>
                                <path d="M5.5410748,12.5393478 L5.5410748,9.37164596" id="Stroke-3"></path>
                                <path d="M3.16632846,5.54347826 L0,5.54347826" id="Stroke-5"></path>
                                <path d="M12.5339112,5.54347826 L9.36758275,5.54347826" id="Stroke-7"></path>
                            </g>
                            <g id="Page-1" transform="translate(297.000000, 179.000000)" stroke="#5D616A" stroke-linecap="round" stroke-linejoin="round">
                                <path d="M5.5410748,3.16770186 L5.5410748,0" id="Stroke-1"></path>
                                <path d="M5.5410748,12.5393478 L5.5410748,9.37164596" id="Stroke-3"></path>
                                <path d="M3.16632846,5.54347826 L0,5.54347826" id="Stroke-5"></path>
                                <path d="M12.5339112,5.54347826 L9.36758275,5.54347826" id="Stroke-7"></path>
                            </g>
                            <g id="Page-1-Copy" transform="translate(281.803233, 0.000000)" stroke="#5D616A" stroke-linecap="round" stroke-linejoin="round">
                                <path d="M5.5410748,3.16770186 L5.5410748,0" id="Stroke-1"></path>
                                <path d="M5.5410748,12.5393478 L5.5410748,9.37164596" id="Stroke-3"></path>
                                <path d="M3.16632846,5.54347826 L0,5.54347826" id="Stroke-5"></path>
                                <path d="M12.5339112,5.54347826 L9.36758275,5.54347826" id="Stroke-7"></path>
                            </g>
                            <g id="Page-1" transform="translate(378.376251, 26.925466)" stroke="#5D616A" stroke-linecap="round" stroke-linejoin="round">
                                <path d="M5.5410748,3.16770186 L5.5410748,0" id="Stroke-1"></path>
                                <path d="M5.5410748,12.5393478 L5.5410748,9.37164596" id="Stroke-3"></path>
                                <path d="M3.16632846,5.54347826 L0,5.54347826" id="Stroke-5"></path>
                                <path d="M12.5339112,5.54347826 L9.36758275,5.54347826" id="Stroke-7"></path>
                            </g>
                            <g id="Page-1" transform="translate(137.735288, 95.031056)" stroke="#5D616A" stroke-linecap="round" stroke-linejoin="round">
                                <path d="M7.12423903,3.76164596 L7.12423903,0" id="Stroke-1"></path>
                                <path d="M7.12423903,14.8904755 L7.12423903,11.1288296" id="Stroke-3"></path>
                                <path d="M3.76001505,7.12732919 L0,7.12732919" id="Stroke-5"></path>
                                <path d="M14.8840196,7.12732919 L11.1240045,7.12732919" id="Stroke-7"></path>
                            </g>
                            <g id="Page-1" transform="translate(241.000000, 158.000000)" stroke="#5D616A" stroke-linecap="round" stroke-linejoin="round">
                                <path d="M5.5410748,3.16770186 L5.5410748,0" id="Stroke-1"></path>
                                <path d="M5.5410748,12.5393478 L5.5410748,9.37164596" id="Stroke-3"></path>
                                <path d="M3.16632846,5.54347826 L0,5.54347826" id="Stroke-5"></path>
                                <path d="M12.5339112,5.54347826 L9.36758275,5.54347826" id="Stroke-7"></path>
                            </g>
                            <g id="Page-1" transform="translate(0.000000, 146.506211)">
                                <path d="M37.9959415,19.0062112 C37.9959415,29.5039752 29.4911833,38.0124224 18.9979708,38.0124224 C8.50475824,38.0124224 0,29.5039752 0,19.0062112 C0,8.5084472 8.50475824,0 18.9979708,0 C29.4911833,0 37.9959415,8.5084472 37.9959415,19.0062112" id="Fill-1" fill="#F9F0EB"></path>
                                <path d="M37.9959415,19.0062112 C37.9959415,29.5039752 29.4911833,38.0124224 18.9979708,38.0124224 C8.50475824,38.0124224 0,29.5039752 0,19.0062112 C0,8.5084472 8.50475824,0 18.9979708,0 C29.4911833,0 37.9959415,8.5084472 37.9959415,19.0062112 L37.9959415,19.0062112 Z" id="Stroke-3" stroke="#5D616A" stroke-linecap="round" stroke-linejoin="round"></path>
                                <path d="M10.8727932,17.6682531 C10.8727932,17.6682531 10.8727932,14.9796661 13.5602145,14.9796661 C16.2468442,14.9796661 16.2468442,17.6682531 16.2468442,17.6682531 L10.8727932,23.055722 L16.2468442,23.0446351" id="Stroke-7" stroke="#5D616A" stroke-linecap="round" stroke-linejoin="round"></path>
                                <path d="M28.5782687,19.0123882 C28.5782687,21.2400745 26.774253,23.0448727 24.5475326,23.0448727 C22.3223952,23.0448727 20.5167964,21.2400745 20.5167964,19.0123882 C20.5167964,16.7847019 22.3223952,14.9799037 24.5475326,14.9799037 C26.774253,14.9799037 28.5782687,16.7847019 28.5782687,19.0123882 L28.5782687,19.0123882 Z" id="Stroke-9" stroke="#5D616A" stroke-linecap="round" stroke-linejoin="round"></path>
                            </g>
                            <g id="Page-1" transform="translate(176.000000, 123.000000)">
                                <path d="M38.7875236,19.4021739 C38.7875236,30.1184103 30.105352,38.8043478 19.3937618,38.8043478 C8.68217158,38.8043478 0,30.1184103 0,19.4021739 C0,8.6859375 8.68217158,0 19.3937618,0 C30.105352,0 38.7875236,8.6859375 38.7875236,19.4021739" id="Fill-1" fill="#F9E765"></path>
                                <path d="M38.7875236,19.4021739 C38.7875236,30.1184103 30.105352,38.8043478 19.3937618,38.8043478 C8.68217158,38.8043478 0,30.1184103 0,19.4021739 C0,8.6859375 8.68217158,0 19.3937618,0 C30.105352,0 38.7875236,8.6859375 38.7875236,19.4021739 L38.7875236,19.4021739 Z" id="Stroke-3" stroke="#5D616A" stroke-linecap="round" stroke-linejoin="round"></path>
                                <path d="M29.8611801,19.4021739 C29.8611801,21.8385326 27.8878649,23.8113179 25.4532551,23.8113179 C23.0186454,23.8113179 21.0446375,21.8385326 21.0446375,19.4021739 C21.0446375,16.9658152 23.0186454,14.991644 25.4532551,14.991644 C27.8878649,14.991644 29.8611801,16.9658152 29.8611801,19.4021739 L29.8611801,19.4021739 Z" id="Stroke-7" stroke="#5D616A" stroke-linecap="round" stroke-linejoin="round"></path>
                                <path d="M10.874618,20.8962799 C10.874618,22.5066603 12.1802338,23.8114565 13.789916,23.8114565 C15.3995983,23.8114565 16.705214,22.5066603 16.705214,20.8962799 C16.705214,19.2858995 15.3995983,17.9783315 13.789916,17.9783315 L12.3319207,17.9783315 L12.3319207,15.0104918 L15.2472187,15.0104918" id="Stroke-9" stroke="#5D616A" stroke-linecap="round" stroke-linejoin="round"></path>
                            </g>
                            <g id="Page-1" transform="translate(304.000000, 26.925466)">
                                <path d="M43.9743726,21.9967233 C43.9743726,34.145004 34.1304014,43.994253 21.9873878,43.994253 C9.84437424,43.994253 0.000402987258,34.145004 0.000402987258,21.9967233 C0.000402987258,9.84844269 9.84437424,0.000201581028 21.9873878,0.000201581028 C34.1304014,0.000201581028 43.9743726,9.84844269 43.9743726,21.9967233" id="Fill-1" fill="#35C9CB"></path>
                                <path d="M43.9743726,21.9967233 C43.9743726,34.145004 34.1304014,43.994253 21.9873878,43.994253 C9.84437424,43.994253 0.000402987258,34.145004 0.000402987258,21.9967233 C0.000402987258,9.84844269 9.84437424,0.000201581028 21.9873878,0.000201581028 C34.1304014,0.000201581028 43.9743726,9.84844269 43.9743726,21.9967233 L43.9743726,21.9967233 Z" id="Stroke-3" stroke="#5D616A" stroke-linecap="round" stroke-linejoin="round"></path>
                                <path d="M33.7608,21.9927925 C33.7608,24.8280296 31.4647801,27.1250455 28.6307722,27.1250455 C25.7987792,27.1250455 23.5007444,24.8280296 23.5007444,21.9927925 C23.5007444,19.1575553 25.7987792,16.8605395 28.6307722,16.8605395 C31.4647801,16.8605395 33.7608,19.1575553 33.7608,21.9927925 L33.7608,21.9927925 Z" id="Stroke-7" stroke="#5D616A" stroke-linecap="round" stroke-linejoin="round"></path>
                                <path d="M15.5122272,21.9907767 C14.0896822,21.9907767 12.9381461,23.1428123 12.9381461,24.5659743 C12.9381461,25.9830889 14.0866598,27.1310929 15.5021525,27.1310929 C16.9186527,27.1310929 18.0661589,25.9830889 18.0661589,24.5659743 C18.0661589,23.1478518 16.9186527,22.0008557 15.5021525,22.0008557 L15.5021525,21.9907767 C16.9186527,21.9907767 18.0661589,20.8427727 18.0661589,19.4256581 C18.0661589,18.0085435 16.9186527,16.8605395 15.5021525,16.8605395 C14.0866598,16.8605395 12.9381461,18.0085435 12.9381461,19.4256581 C12.9381461,20.8488202 14.0896822,22.0008557 15.5122272,22.0008557" id="Stroke-9" stroke="#5D616A" stroke-linecap="round" stroke-linejoin="round"></path>
                            </g>
                            <g id="Page-1" transform="translate(102.697257, 175.767081)">
                                <path d="M9.49898538,4.7515528 C9.49898538,2.12750776 7.37240003,0 4.74949269,0 C2.12658535,0 0,2.12750776 0,4.7515528 C0,7.37559783 2.12658535,9.50310559 4.74949269,9.50310559 C7.37240003,9.50310559 9.49898538,7.37559783 9.49898538,4.7515528" id="Fill-1" fill="#F9F0EB"></path>
                                <path d="M9.49898538,4.7515528 C9.49898538,2.12750776 7.37240003,0 4.74949269,0 C2.12658535,0 0,2.12750776 0,4.7515528 C0,7.37559783 2.12658535,9.50310559 4.74949269,9.50310559 C7.37240003,9.50310559 9.49898538,7.37559783 9.49898538,4.7515528 L9.49898538,4.7515528 Z" id="Stroke-3" stroke="#5D616A" stroke-linecap="round" stroke-linejoin="round"></path>
                            </g>
                            <g id="Page-1" transform="translate(77.000000, 117.000000)">
                                <path d="M9.42940531,4.71599534 C9.42940531,7.32222205 7.31825581,9.43349534 4.71474223,9.43349534 C2.11122866,9.43349534 7.91582115e-05,7.32222205 7.91582115e-05,4.71599534 C7.91582115e-05,2.11135248 2.11122866,7.91925465e-05 4.71474223,7.91925465e-05 C7.31825581,7.91925465e-05 9.42940531,2.11135248 9.42940531,4.71599534" id="Fill-1" fill="#35C9CB"></path>
                                <path d="M9.42940531,4.71599534 C9.42940531,7.32222205 7.31825581,9.43349534 4.71474223,9.43349534 C2.11122866,9.43349534 7.91582115e-05,7.32222205 7.91582115e-05,4.71599534 C7.91582115e-05,2.11135248 2.11122866,7.91925465e-05 4.71474223,7.91925465e-05 C7.31825581,7.91925465e-05 9.42940531,2.11135248 9.42940531,4.71599534 L9.42940531,4.71599534 Z" id="Stroke-3" stroke="#5D616A" stroke-linecap="round" stroke-linejoin="round"></path>
                            </g>
                            <g id="Page-1" transform="translate(313.000000, 71.000000)">
                                <path d="M26.9907093,78.3272909 L26.9907093,30.6050395 L22.6244642,26.2669335 L5.15844837,26.2669335 L0.791168057,30.6050395 L0.791168057,78.3272909 L26.9907093,78.3272909 Z" id="Fill-1" fill="#35C9CB"></path>
                                <g id="Group-18" transform="translate(0.000000, 0.163219)">
                                    <path d="M22.7267366,54.3027406 C22.7267366,59.0954324 18.8159556,62.979981 13.9932111,62.979981 C9.17150177,62.979981 5.26072078,59.0954324 5.26072078,54.3027406 C5.26072078,49.5110773 9.17150177,45.6255001 13.9932111,45.6255001 C18.8159556,45.6255001 22.7267366,49.5110773 22.7267366,54.3027406" id="Fill-2" fill="#FFFFFF"></path>
                                    <path d="M13.456896,0.0733302412 L13.456896,30.4421291" id="Stroke-4" stroke="#5D616A" stroke-linecap="round" stroke-linejoin="round"></path>
                                    <path d="M26.9907093,78.164072 L26.9907093,30.4418206 L22.6244642,26.1037146 L5.15844837,26.1037146 L0.791168057,30.4418206 L0.791168057,78.164072 L26.9907093,78.164072 L26.9907093,78.164072 Z" id="Stroke-6" stroke="#5D616A" stroke-linecap="round" stroke-linejoin="round"></path>
                                    <path d="M9.52459002,68.8975155 L18.2581155,68.8975155" id="Stroke-8" stroke="#5D616A" stroke-linecap="round" stroke-linejoin="round"></path>
                                    <path d="M9.52459002,38.8043478 L18.2581155,38.8043478" id="Stroke-10" stroke="#5D616A" stroke-linecap="round" stroke-linejoin="round"></path>
                                    <path d="M7.34208852,60.8101053 L20.440824,47.7947588" id="Stroke-12" stroke="#5D616A" stroke-linecap="round" stroke-linejoin="round"></path>
                                    <path d="M20.4411346,58.6416694 C20.4411346,59.8398423 19.4639569,60.8096939 18.258012,60.8096939 C17.0531022,60.8096939 16.0738542,59.8398423 16.0738542,58.6416694 C16.0738542,57.4424679 17.0531022,56.4726164 18.258012,56.4726164 C19.4639569,56.4726164 20.4411346,57.4424679 20.4411346,58.6416694 L20.4411346,58.6416694 Z" id="Stroke-14" stroke="#5D616A" stroke-linecap="round" stroke-linejoin="round"></path>
                                    <path d="M11.7091618,49.9648403 C11.7091618,51.1619848 10.730949,52.1338933 9.52500407,52.1338933 C8.32009431,52.1338933 7.34188149,51.1619848 7.34188149,49.9648403 C7.34188149,48.7666673 8.32009431,47.7947588 9.52500407,47.7947588 C10.730949,47.7947588 11.7091618,48.7666673 11.7091618,49.9648403 L11.7091618,49.9648403 Z" id="Stroke-16" stroke="#5D616A" stroke-linecap="round" stroke-linejoin="round"></path>
                                </g>
                            </g>
                            <g id="Page-1" transform="translate(247.000000, 85.000000)">
                                <path d="M6.33265692,3.16770186 C6.33265692,4.91706522 4.91493335,6.33540373 3.16632846,6.33540373 C1.41772357,6.33540373 0,4.91706522 0,3.16770186 C0,1.41833851 1.41772357,0 3.16632846,0 C4.91493335,0 6.33265692,1.41833851 6.33265692,3.16770186" id="Fill-1" fill="#F9E765"></path>
                                <path d="M6.33265692,3.16770186 C6.33265692,4.91706522 4.91493335,6.33540373 3.16632846,6.33540373 C1.41772357,6.33540373 0,4.91706522 0,3.16770186 C0,1.41833851 1.41772357,0 3.16632846,0 C4.91493335,0 6.33265692,1.41833851 6.33265692,3.16770186 L6.33265692,3.16770186 Z" id="Stroke-3" stroke="#5D616A" stroke-linecap="round" stroke-linejoin="round"></path>
                            </g>
                        </g>
                    </g>
                    <g id="store" transform="translate(125.000000, 204.000000)">
                        <path d="M15.920429,9.10996923 L25.1035016,0.00227692308 L147.59905,0.00227692308 L156.929943,9.10996923" id="Shape" stroke="#5D616A" stroke-linecap="round" fill="#CCD1D3"></path>
                        <path d="M15.920429,9.10769231 L156.929943,9.10769231 L156.929943,143.446154 L15.920429,143.446154 L15.920429,9.10769231 L15.920429,9.10769231 L15.920429,9.10769231 Z" id="Shape" stroke="#5D616A" stroke-linecap="round" stroke-linejoin="round" fill="#FAFAFA"></path>
                        <path d="M25.017817,136.617662 L56.858675,136.617662 L56.858675,45.5407385 L25.017817,45.5407385 L25.017817,136.617662 L25.017817,136.617662 L25.017817,136.617662 Z M65.956063,143.448431 L106.894309,143.448431 L106.894309,45.5407385 L65.956063,45.5407385 L65.956063,143.448431 L65.956063,143.448431 L65.956063,143.448431 Z M115.991697,45.5407385 L115.991697,136.617662 L147.832555,136.617662 L147.832555,45.5407385 L115.991697,45.5407385 L115.991697,45.5407385 L115.991697,45.5407385 Z" id="Shape" fill="#69BFF0"></path>
                        <path d="M15.920429,45.5407385 L156.929943,45.5407385 L156.929943,52.3715077 L15.920429,52.3715077 L15.920429,45.5407385 L15.920429,45.5407385 L15.920429,45.5407385 Z" id="Shape" fill="#BDBFBF"></path>
                        <path d="M172.809434,31.8359385 L159.065555,18.2085538 L13.6415333,18.2085538 L0.038663899,31.8359385 L0,31.8359385 L0,40.9595692 C0,43.4732923 2.03781491,45.5179692 4.548694,45.5179692 L168.301678,45.5179692 C170.814831,45.5179692 172.850372,43.4778462 172.850372,40.9595692 L172.850372,31.8359385 L172.809434,31.8359385 L172.809434,31.8359385 L172.809434,31.8359385 Z" id="Shape" stroke="#6B3C10" stroke-linecap="round" stroke-linejoin="round" fill="#FCFFFF"></path>
                        <g id="Group" transform="translate(25.017817, 88.800000)" fill="#439FD9">
                            <path d="M31.840858,13.6638154 L18.194776,13.6638154 L18.194776,0.00227692308 L0,0.00227692308 L0,47.8176615 L31.840858,47.8176615 L31.840858,13.6638154 L31.840858,13.6638154 Z" id="Shape"></path>
                            <rect id="Rectangle-path" x="70.504757" y="22.7715077" width="11.371735" height="31.8769231"></rect>
                            <rect id="Rectangle-path" x="40.938246" y="13.6638154" width="15.920429" height="40.9846154"></rect>
                            <rect id="Rectangle-path" x="90.97388" y="0.00227692308" width="31.840858" height="47.8153846"></rect>
                        </g>
                        <rect id="Rectangle-path" fill="#FBFFFF" x="8.6235657" y="31.8564308" width="151.528369" height="13.6615385"></rect>
                        <path d="M156.941315,116.123077 C149.044782,116.123077 142.515132,121.885969 141.261966,129.443077 C139.585773,128.229477 137.53886,127.498585 135.312275,127.498585 C129.66962,127.498585 125.089085,132.091138 125.089085,137.751569 C125.089085,143.412 129.66962,148 135.312275,148 L156.941315,148 C165.727117,148 172.850372,140.864123 172.850372,132.061538 C172.850372,123.258954 165.727117,116.123077 156.941315,116.123077 L156.941315,116.123077 L156.941315,116.123077 Z" id="Shape" stroke="#3A6D26" fill="#8CDA6D"></path>
                        <path d="M37.5380972,127.494031 C35.3115115,127.494031 33.2645992,128.2272 31.5861311,129.438523 C30.3352403,121.885969 23.80559,116.123077 15.9113316,116.123077 C7.1232548,116.123077 0,123.258954 0,132.061538 C0,140.864123 7.1232548,148 15.9113316,148 L37.5380972,148 C43.1830265,148 47.761287,143.409723 47.761287,137.747015 C47.761287,132.086585 43.1830265,127.494031 37.5380972,127.494031 L37.5380972,127.494031 L37.5380972,127.494031 Z" id="Shape" stroke="#3A6D26" fill="#7FD65C"></path>
                        <path d="M156.941315,143.446154 L135.312275,143.446154 C130.449721,143.446154 126.396834,140.033046 125.362007,135.470092 C125.195979,136.205538 125.089085,136.961477 125.089085,137.747015 C125.089085,143.409723 129.66962,148 135.312275,148 L156.941315,148 C165.727117,148 172.850372,140.864123 172.850372,132.061538 C172.850372,131.285108 172.777593,130.529169 172.670698,129.784615 C171.56764,137.505662 164.951565,143.446154 156.941315,143.446154 L156.941315,143.446154 L156.941315,143.446154 Z" id="Shape" fill="#3A6D26"></path>
                        <path d="M37.5380972,143.446154 L15.9113316,143.446154 C7.89653278,143.446154 1.28500605,137.505662 0.179673413,129.784615 C0.075053451,130.529169 0,131.285108 0,132.061538 C0,140.864123 7.1232548,148 15.9113316,148 L37.5380972,148 C43.1830265,148 47.761287,143.409723 47.761287,137.747015 C47.761287,136.961477 47.6543927,136.205538 47.4883653,135.470092 C46.4535375,140.033046 42.4006511,143.446154 37.5380972,143.446154 L37.5380972,143.446154 L37.5380972,143.446154 Z" id="Shape" fill="#3A6D26"></path>
                        <g id="Group" transform="translate(0.000000, 18.215385)" fill="#F5871F">
                            <path d="M56.858675,0.00227692308 L54.584328,13.6615385 L54.584328,27.3025846 L63.681716,27.3025846 L63.681716,13.6615385 L65.956063,0.00227692308 L56.858675,0.00227692308 L56.858675,0.00227692308 Z" id="Shape"></path>
                            <path d="M40.938246,0.00227692308 L36.389552,13.6615385 L36.389552,27.3025846 L45.48694,27.3025846 L45.48694,13.6615385 L50.035634,0.00227692308 L40.938246,0.00227692308 L40.938246,0.00227692308 Z" id="Shape"></path>
                            <rect id="Rectangle-path" x="72.779104" y="0.00227692308" width="9.097388" height="27.3003077"></rect>
                            <path d="M27.292164,0.00227692308 L18.194776,13.6615385 L18.194776,27.3025846 L27.292164,27.3025846 L27.292164,13.6615385 L34.115205,0.00227692308 L27.292164,0.00227692308 L27.292164,0.00227692308 Z" id="Shape"></path>
                            <path d="M138.735167,0.00227692308 L145.558208,13.6615385 L145.558208,27.3025846 L154.655596,27.3025846 L154.655596,13.6615385 L147.832555,0.00227692308 L138.735167,0.00227692308 L138.735167,0.00227692308 Z" id="Shape"></path>
                            <path d="M172.809434,13.6205538 L159.074652,0.00227692308 L154.655596,0.00227692308 L163.752984,13.6615385 L163.752984,27.3025846 L168.301678,27.3025846 C170.814831,27.3025846 172.850372,25.2624615 172.850372,22.7441846 L172.850372,13.6615385 L172.82308,13.6205538 L172.809434,13.6205538 L172.809434,13.6205538 L172.809434,13.6205538 Z" id="Shape"></path>
                            <path d="M4.548694,27.3025846 L9.097388,27.3025846 L9.097388,13.6615385 L18.194776,0.00227692308 L13.6324359,0.00227692308 L0.036389552,13.6205538 L0.031840858,13.6205538 L0,13.6615385 L0,22.7441846 C0,25.2624615 2.03781491,27.3025846 4.548694,27.3025846 L4.548694,27.3025846 L4.548694,27.3025846 Z" id="Shape"></path>
                            <rect id="Rectangle-path" x="90.97388" y="0.00227692308" width="9.097388" height="27.3003077"></rect>
                            <path d="M136.46082,27.3025846 L136.46082,13.6615385 L131.912126,0.00227692308 L122.814738,0.00227692308 L127.363432,13.6615385 L127.363432,27.3025846 L136.46082,27.3025846 L136.46082,27.3025846 Z" id="Shape"></path>
                            <path d="M118.266044,27.3025846 L118.266044,13.6615385 L115.991697,0.00227692308 L106.894309,0.00227692308 L109.168656,13.6615385 L109.168656,27.3025846 L118.266044,27.3025846 L118.266044,27.3025846 Z" id="Shape"></path>
                        </g>
                        <path d="M159.070103,18.2153846 L13.6347103,18.2153846 L0.038663899,31.8359385 L0,31.8359385 L0,31.8769231 L172.850372,31.8769231 L172.850372,31.8359385 L172.809434,31.8359385 L159.070103,18.2153846 L159.070103,18.2153846 Z" id="Shape" fill="#C2C6C6" opacity="0.751224347"></path>
                        <g id="Group" transform="translate(0.000000, 18.215385)" fill="#CC6B10">
                            <path d="M54.584328,13.6615385 L63.681716,13.6615385 L65.956063,0.00227692308 L56.858675,0.00227692308 L54.584328,13.6615385 L54.584328,13.6615385 Z" id="Shape"></path>
                            <rect id="Rectangle-path" x="90.97388" y="0.00227692308" width="9.097388" height="13.6592615"></rect>
                            <path d="M36.389552,13.6615385 L45.48694,13.6615385 L50.035634,0.00227692308 L40.938246,0.00227692308 L36.389552,13.6615385 L36.389552,13.6615385 Z" id="Shape"></path>
                            <path d="M138.735167,0.00227692308 L145.558208,13.6615385 L154.655596,13.6615385 L147.832555,0.00227692308 L138.735167,0.00227692308 L138.735167,0.00227692308 Z" id="Shape"></path>
                            <rect id="Rectangle-path" x="72.779104" y="0.00227692308" width="9.097388" height="13.6592615"></rect>
                            <path d="M154.655596,0.00227692308 L163.752984,13.6615385 L172.850372,13.6615385 L172.82308,13.6205538 L172.809434,13.6205538 L159.074652,0.00227692308 L154.655596,0.00227692308 L154.655596,0.00227692308 Z" id="Shape"></path>
                            <path d="M115.991697,0.00227692308 L106.894309,0.00227692308 L109.168656,13.6615385 L118.266044,13.6615385 L115.991697,0.00227692308 L115.991697,0.00227692308 Z" id="Shape"></path>
                            <path d="M18.194776,0.00227692308 L13.6324359,0.00227692308 L0.038663899,13.6205538 L0.034115205,13.6205538 L0,13.6615385 L9.097388,13.6615385 L18.194776,0.00227692308 L18.194776,0.00227692308 Z" id="Shape"></path>
                            <path d="M131.912126,0.00227692308 L122.814738,0.00227692308 L127.363432,13.6615385 L136.46082,13.6615385 L131.912126,0.00227692308 L131.912126,0.00227692308 Z" id="Shape"></path>
                            <path d="M27.292164,13.6615385 L34.115205,0.00227692308 L27.292164,0.00227692308 L18.194776,13.6615385 L27.292164,13.6615385 L27.292164,13.6615385 Z" id="Shape"></path>
                        </g>
                        <g id="Group" transform="translate(25.017817, 47.815385)" fill="#3694D6">
                            <rect id="Rectangle-path" x="40.938246" y="0.00227692308" width="40.938246" height="6.83076923"></rect>
                            <rect id="Rectangle-path" x="90.97388" y="0.00227692308" width="31.840858" height="6.83076923"></rect>
                            <rect id="Rectangle-path" x="0" y="0.00227692308" width="31.840858" height="6.83076923"></rect>
                        </g>
                    </g>
                </g>
            </g>
        </g>
    </g>
</svg>
