<?xml version="1.0" encoding="UTF-8" standalone="no"?>
<svg width="70px" height="23px" viewBox="0 0 70 23" version="1.1" xmlns="http://www.w3.org/2000/svg" xmlns:xlink="http://www.w3.org/1999/xlink">
    <!-- Generator: sketchtool 3.6.1 (26313) - http://www.bohemiancoding.com/sketch -->
    <title>83A9986D-A26B-4DB1-95BD-EEB347998E0D</title>
    <desc>Created with sketchtool.</desc>
    <defs></defs>
    <g id="Page-1" stroke="none" stroke-width="1" fill="none" fill-rule="evenodd">
        <g id="welcome" transform="translate(-128.000000, -538.000000)" fill="#FFFFFF">
            <g id="social-proof" transform="translate(128.000000, 486.000000)">
                <path d="M7.42568653,53.603525 L5.39412727,53.5942411 L2.24556459,53.5942411 C2.02671246,53.5942411 0.338158241,53.6105808 0.338158241,53.6105808 L0.308331715,56.3304088 L0,56.3393214 L0.0186415789,53.2826715 L0.00782946313,52.0267378 C1.08083874,52.078728 4.95828715,52.1128929 8.98151271,52.1128929 C13.6728524,52.1128929 16.6950252,52.0653591 17.8813753,52.0304514 L17.8672077,53.4219308 L17.8921874,56.5138598 L17.5722979,56.5105176 C17.5749077,56.257994 17.5201015,55.2319311 17.523457,55.1316643 C17.5249483,55.0941571 17.4563473,53.7160466 17.4466537,53.612809 L16.099986,53.5942411 L12.0637114,53.5934984 L10.517206,53.5998114 L10.519443,72.6738864 C10.519443,72.6998815 10.5485238,73.9242498 10.5541163,74.1782588 C10.7092142,74.2005403 12.2050145,74.3034066 12.4753174,74.3034066 L12.5812016,74.3019211 L12.5812016,74.8225654 C12.50067,74.8225654 12.4007511,74.8307353 12.3176097,74.8299926 C11.4679265,74.8207086 10.0962791,74.7193278 9.12132455,74.7193278 C8.1620289,74.7193278 6.8090231,74.8132815 5.80797032,74.8285072 C5.78149928,74.8292499 5.57644191,74.8247936 5.49926577,74.8207086 L5.49702878,74.2670134 C5.5067224,74.2670134 5.56861244,74.265528 5.66219317,74.2625571 C6.08498418,74.245846 7.12630278,74.1760307 7.39772417,74.1533778 L7.4394813,74.1470647 L7.42568653,53.603525 L7.42568653,53.603525 Z M25.550148,74.8437328 C24.7627277,74.8437328 23.4242624,74.7133861 22.4213454,74.7133861 C21.4299863,74.7133861 20.0840643,74.8437328 19.115075,74.8437328 C19.0326792,74.8437328 18.8876477,74.8255363 18.8078618,74.8255363 L18.8078618,74.2837246 C18.9991244,74.280011 19.8555185,74.2020257 20.0930122,74.1845719 C20.3722631,74.1641472 20.6302625,74.1504069 20.7450946,74.1132711 C20.7450946,74.1132711 20.7473316,73.4600519 20.7506871,72.4481006 C20.7614992,68.9484202 20.782005,59.0561786 20.7491958,54.5801973 C20.7458403,54.1078296 20.7428577,52.9109418 20.7428577,52.7375175 C20.5612887,52.7196923 20.3077632,52.695554 20.1258214,52.6714158 C19.898767,52.6591609 18.9633325,52.5704063 18.8033878,52.5611224 L18.7974225,52.019682 C19.7261459,52.019682 21.1037586,52.1136356 22.2222534,52.1136356 C23.2907887,52.1136356 24.7407307,52.019682 25.8383468,52.019682 L25.8361098,52.5841466 C25.6619975,52.59603 25.2384608,52.6227678 25.2242932,52.6238819 C24.9044037,52.6543333 24.0092351,52.7553427 23.7892645,52.7709398 L23.7892645,54.5122387 C23.7885188,58.5203086 23.7844177,69.0059808 23.7829263,72.5364839 L23.7829263,73.6813814 C23.7829263,73.9509876 23.7844177,74.1132711 23.7870275,74.1229264 C23.7922471,74.1437225 24.3537315,74.1957127 24.483104,74.2035112 C24.7306642,74.2321058 25.7492401,74.2770401 25.7801851,74.2837246 L25.8487861,74.2837246 L25.8480405,74.8255363 C25.7809308,74.8255363 25.618749,74.8437328 25.550148,74.8437328 L25.550148,74.8437328 Z M32.6186619,59.6210145 C32.6186619,59.6210145 32.1119838,62.4121433 31.3804882,66.3500264 C30.9927434,68.4771666 30.1904098,73.7976166 30.1359764,74.1485502 C30.5990332,74.2168801 31.5098608,74.2915231 31.7577938,74.2829818 C31.814837,74.2829818 31.9125189,74.28521 31.9837297,74.28521 L31.9829841,74.8240509 C31.8797097,74.8377911 31.637742,74.8392765 31.6276756,74.8392765 C30.75003,74.8207086 30.1173348,74.7542355 29.1707155,74.7542355 C28.9212911,74.7542355 27.60445,74.8225654 27.1406475,74.8385338 C26.9471479,74.8467037 26.6734896,74.8255363 26.6212931,74.8277644 L26.6220388,74.294494 C26.6671514,74.294494 26.7592408,74.2755547 26.8177754,74.2740692 C27.2375837,74.25513 27.883328,74.1905136 28.4306448,74.1192128 C28.4750117,73.8574053 28.9485079,71.2348731 29.098759,70.3057347 C29.6800034,67.2308882 31.3935373,56.9583757 31.6079155,55.572838 C31.7958226,54.0770068 32.0143019,52.2161305 32.0344348,52.0111407 C32.4885437,52.0185679 33.2722357,52.0007427 33.2722357,52.0007427 C33.2722357,52.0007427 34.7885417,56.6939686 35.0349834,57.38061 C35.281425,58.0679942 39.9153487,69.9429177 39.9153487,69.9429177 C39.9153487,69.9429177 42.0904481,64.8267148 44.0287995,59.3365541 C44.4210183,58.2250787 44.9362716,56.775296 45.3154413,55.6018039 C45.8705875,53.8842719 46.48054,52 46.48054,52 L47.673601,52 C47.673601,52 47.9688836,54.0978029 48.0740221,55.0310262 C48.3786255,57.7493688 50.3710375,68.7943066 51.0712152,72.4265618 C51.2453275,73.3356469 51.3780556,74.1221837 51.3780556,74.1221837 C51.5838586,74.1366667 52.3895476,74.2161374 52.8671449,74.2558727 C52.9666909,74.2640426 53.2351297,74.2792683 53.2959012,74.2792683 L53.2988839,74.826279 C53.2988839,74.826279 53.0811502,74.8377911 52.9622169,74.8377911 C51.8936816,74.8307353 50.2286158,74.7352962 49.2014648,74.7352962 C48.2872818,74.7352962 47.4085178,74.8132815 46.4943347,74.8329635 C46.3392368,74.8363057 46.1819019,74.8285072 46.0238213,74.8285072 L46.0238213,74.2866954 C46.0282953,74.2859527 46.1502112,74.2792683 46.2139654,74.2814964 C46.6602448,74.2610717 47.843985,74.1452079 47.961427,74.1396376 C47.9621727,73.9409609 47.8973,73.252834 47.8011094,72.5494814 C47.7343726,72.0533468 47.6217774,71.2059072 47.5013528,70.3699797 C47.2407435,68.7456586 46.0364976,62.0144186 45.6785792,60.1457437 C45.619299,59.8393732 45.5827615,59.6678056 45.5827615,59.6678056 C45.5827615,59.6678056 41.8514631,69.2024293 41.0987161,71.0807595 C41.0256411,71.2653245 40.9734447,71.3949286 40.9555488,71.4383775 C40.2367295,73.247635 39.633488,74.860444 39.633488,74.860444 L38.5716637,74.8545022 L32.7569824,59.9678631 L32.6186619,59.6210145 L32.6186619,59.6210145 Z M69.5356991,56.4811803 L69.228113,56.481923 L69.2247575,56.3214962 C69.1930668,55.9241429 69.1259572,54.79967 69.0405787,53.8538205 C69.0331221,53.7695222 69.0193273,53.7037918 69.0193273,53.7037918 C68.8347757,53.69785 68.0838929,53.6737117 68.0719623,53.6610856 C68.0596588,53.6499448 67.4608913,53.6417749 67.4485879,53.6354618 C67.4426226,53.6321196 65.4792915,53.6206075 63.454816,53.6191221 C62.0731022,53.6176366 60.7141311,53.6261779 59.8804797,53.6261779 C59.6754223,53.6254352 58.9405713,53.6544011 58.9405713,53.6544011 L58.9364701,62.6297592 L64.7220706,62.6490699 C64.7496601,62.6490699 66.2544084,62.6022787 66.2909458,62.6033928 C66.3822896,62.6041355 67.4154059,62.5443468 67.454926,62.5302352 C67.454926,62.5302352 67.4702121,62.4362816 67.4944462,62.3679516 C67.5783333,61.8246545 67.6849631,61.3088378 67.7106885,60.9062855 C67.7106885,60.9062855 67.738278,60.7336039 67.7397694,60.6169974 L68.0686068,60.6099416 C68.0686068,60.6519051 68.0853842,60.7551427 68.0838929,60.9018292 C68.0809102,61.4428982 68.0413901,62.5658856 68.0428814,63.3026604 C68.0443728,64.3625169 68.0734536,65.3198786 68.0794189,65.7993021 C68.0838929,65.9367046 68.0749449,66.1550633 68.0749449,66.1550633 L67.7136711,66.1550633 C67.7077058,66.1041872 67.7017405,66.0518257 67.6939111,65.9964933 C67.6301569,65.3848663 67.5783333,64.9533479 67.4821427,64.3305801 C67.4791601,64.2986433 67.4608913,64.1864931 67.4534347,64.1140782 C67.2688831,64.1014521 66.7815922,64.0854837 66.5224743,64.0780565 C66.4098791,64.0739715 64.9994573,64.0639449 63.4119404,64.0613454 C62.7617221,64.0606027 61.593268,64.091054 61.0981476,64.0903113 C60.5176489,64.0903113 59.5594717,64.1263331 58.9342332,64.1493573 L58.9405713,72.2884166 L58.965551,73.3371323 L62.4783701,73.3976637 L67.4806514,73.3932074 C67.5033941,73.3932074 68.6263628,73.3486444 68.9764517,73.3553289 C69.051018,73.3568143 69.2005235,73.3438168 69.2005235,73.3438168 C69.2340783,73.0805238 69.2750898,72.547996 69.3161013,72.0399779 C69.3194568,71.9798178 69.4443553,70.6295592 69.4443553,70.2667421 L69.7519414,70.2630285 C69.7519414,70.6057922 69.6866959,74.8704706 69.6866959,74.8704706 C69.1226017,74.8704706 67.3922903,74.8686138 65.2552197,74.8377911 C63.9588843,74.8177378 62.5149076,74.8192232 61.0903182,74.7980558 C59.9345403,74.781716 58.7918115,74.7404952 57.7516114,74.7419807 C56.2699787,74.7434661 54.8181725,74.840762 54.254824,74.8415047 C54.1261971,74.8415047 53.898397,74.8322207 53.8488104,74.8322207 L53.8488104,74.2959794 L53.9524576,74.2959794 C54.2995638,74.294494 55.321868,74.2339626 55.8550172,74.1351813 C55.8550172,74.0274874 55.8900633,72.6998815 55.8900633,72.672401 C55.8900633,72.672401 55.8878263,55.8190485 55.8878263,55.062963 C55.8878263,54.2489457 55.8732859,52.8920026 55.8732859,52.7716825 C55.5716652,52.7360321 55.4642897,52.7174642 55.4009083,52.7040953 C55.0810188,52.6591609 54.4498149,52.6041999 54.1124024,52.580433 C54.0162118,52.5826611 53.9114461,52.5704063 53.8596225,52.5611224 C53.8596225,52.5611224 53.8581312,52.034165 53.8547757,52.0267378 C53.9319519,52.0311941 54.0896596,52.019682 54.3726388,52.0211674 C54.9691693,52.0237669 56.0667855,52.1110361 57.4078607,52.1128929 C58.25046,52.1136356 59.609804,52.0724149 60.5832672,52.06016 C61.9724377,52.06016 63.0268054,52.0467911 64.3716089,52.0386213 C66.5668412,52.0237669 68.4418112,52.0081699 69.1747981,52.0040849 C69.3895491,52.0033422 69.5066182,52.0025995 69.5066182,52.0025995 C69.5066182,52.044563 69.5054997,52.0928396 69.5054997,52.1470579 C69.5054997,52.3163972 69.4976702,52.6138552 69.5006529,52.9785291 C69.5081095,54.1133999 69.5356991,55.8985192 69.5356991,56.4811803 L69.5356991,56.4811803 Z" id="time"></path>
            </g>
        </g>
    </g>
</svg>
