<?xml version="1.0" encoding="UTF-8"?>
<svg width="15px" height="13px" viewBox="0 0 15 13" version="1.1" xmlns="http://www.w3.org/2000/svg" xmlns:xlink="http://www.w3.org/1999/xlink">
    <!-- Generator: Sketch 60.1 (88133) - https://sketch.com -->
    <title>Group 3</title>
    <desc>Created with Sketch.</desc>
    <g id="Page-1" stroke="none" stroke-width="1" fill="none" fill-rule="evenodd">
        <g id="footer-5-responsive" transform="translate(-1166.000000, -481.000000)">
            <g id="Group-3" transform="translate(1165.000000, 479.000000)">
                <path d="M12.2507153,5.01603586 C14.3935446,5.01603586 16,6.41051876 16,9.40672446 L16,9.40672446 L15.9998699,14.999741 L12.7436487,14.999741 L12.7436487,9.7809993 C12.7436487,8.47016335 12.2724356,7.57568469 11.0936226,7.57568469 C10.1939868,7.57568469 9.65813318,8.17869383 9.42278679,8.76111494 C9.33668603,8.96984389 9.31555103,9.26066599 9.31555103,9.55220025 L9.31555103,9.55220025 L9.31555103,15 L6.0588095,15 C6.0588095,15 6.10172982,6.1606785 6.0588095,5.24535284 L6.0588095,5.24535284 L9.31555103,5.24535284 L9.31555103,6.62701678 C9.7477456,5.96282624 10.521807,5.01603586 12.2507153,5.01603586 Z M4.25635134,5.24509387 L4.25635134,14.999741 L1,14.999741 L1,5.24509387 L4.25635134,5.24509387 Z M4.25635134,2 L4.25635134,4.01928531 L1,4.01928531 L1,2 L4.25635134,2 Z" id="Combined-Shape-Copy-2" fill="#FFFFFF"></path>
                <rect id="Rectangle" x="0" y="0" width="16" height="16"></rect>
            </g>
        </g>
    </g>
</svg>