<?xml version="1.0" encoding="UTF-8"?>
<svg width="64px" height="64px" viewBox="0 0 64 64" version="1.1" xmlns="http://www.w3.org/2000/svg" xmlns:xlink="http://www.w3.org/1999/xlink">
    <!-- Generator: Sketch 54.1 (76490) - https://sketchapp.com -->
    <title>icon / product-logo / 64x64px / maps / color</title>
    <desc>Created with Sketch.</desc>
    <g id="icon-/-product-logo-/-64x64px-/-maps-/-color" stroke="none" stroke-width="1" fill="none" fill-rule="evenodd">
        <g id="logo-maps-64x64-color" transform="translate(4.999800, 5.999600)">
            <path d="M27.0002,35.3113 C27.0002,35.3113 34.3012,31.6273 39.0492,25.7853 L34.8222,22.6163 C30.1882,19.1393 23.8122,19.1393 19.1782,22.6163 L14.9512,25.7853 C19.6992,31.6273 27.0002,35.3113 27.0002,35.3113" id="Fill-1" fill="#343741"></path>
            <path d="M43.049,28.7859 C41.71,30.4629 40.116,32.1019 38.26,33.6839 C33.844,37.4499 29.432,39.6849 29.245,39.7789 L27,40.9079 L24.755,39.7789 C24.569,39.6849 20.156,37.4499 15.74,33.6839 C13.884,32.1019 12.29,30.4629 10.951,28.7859 L0,36.9989 L19.178,51.3819 C23.813,54.8589 30.188,54.8589 34.822,51.3819 L54,36.9989 L43.049,28.7859 Z" id="Fill-5" fill="#FA744E"></path>
            <path d="M19.1779,22.616 C23.8129,19.139 30.1879,19.139 34.8229,22.616 L39.0549,25.79 C41.3379,22.982 43.0319,19.675 43.0319,16.032 C43.0319,7.178 35.8539,-1.77635684e-14 26.9999,-1.77635684e-14 C18.1469,-1.77635684e-14 10.9689,7.178 10.9689,16.032 C10.9689,19.675 12.6619,22.982 14.9459,25.79 L19.1779,22.616 Z" id="Fill-8" fill="#1BA9F5"></path>
        </g>
    </g>
</svg>