<?xml version="1.0" encoding="UTF-8"?>
<svg width="202px" height="109px" viewBox="0 0 202 109" version="1.1" xmlns="http://www.w3.org/2000/svg" xmlns:xlink="http://www.w3.org/1999/xlink">
    <!-- Generator: Sketch 64 (93537) - https://sketch.com -->
    <title>post copy 4</title>
    <desc>Created with Sketch.</desc>
    <g id="post-copy-4" stroke="none" stroke-width="1" fill="none" fill-rule="evenodd">
        <g id="logoparade-walmart-technology" transform="translate(11.000000, 41.000000)" fill-rule="nonzero">
            <polygon id="Path" fill="#0071CE" points="112.63875 11.521125 109.6326 11.521125 109.6326 10.418625 116.9532 10.437 116.9532 11.5395 113.93235 11.5395 113.9103 20.3595 112.620375 20.3595"></polygon>
            <path d="M118.7025,17.026275 C118.728225,18.7719 119.84175,19.4922 121.131675,19.495875 C121.805916,19.5170137 122.476717,19.3916302 123.0978,19.128375 L123.314625,20.054475 C122.56626,20.3637629 121.76102,20.5115365 120.9516,20.488125 C118.764975,20.488125 117.464025,19.040175 117.471313,16.901325 C117.478725,14.762475 118.742925,13.07565 120.81195,13.079313 C123.130875,13.079313 123.75195,15.1263 123.75195,16.430925 C123.749752,16.6325446 123.735024,16.8338327 123.70785,17.033625 L118.7025,17.026275 Z M122.491425,16.1112 C122.491425,15.288 122.160675,14.012775 120.705375,14.0091 C119.40075,14.0091 118.823775,15.20715 118.720875,16.100175 L122.491425,16.1112 Z" id="Shape" fill="#0071CE"></path>
            <path d="M130.39635,20.105925 C129.7544,20.3887853 129.058034,20.5268038 128.356725,20.510175 C126.2142,20.510175 124.82505,19.040175 124.832342,16.879275 C124.83975,14.718375 126.33915,13.1124 128.6544,13.11975 C129.27037,13.1130792 129.880626,13.2383886 130.444125,13.48725 L130.150125,14.483175 C129.68974,14.2411568 129.174209,14.1233572 128.6544,14.1414 C127.026375,14.1414 126.144375,15.335775 126.1407,16.820475 C126.1407,18.4632 127.19175,19.4775 128.599275,19.481175 C129.146662,19.4842161 129.687815,19.3649364 130.1832,19.13205 L130.39635,20.105925 Z" id="Path" fill="#0071CE"></path>
            <path d="M131.9325,9.95925 L133.222425,9.95925 L133.222425,14.3913 L133.251825,14.3913 C133.470919,14.0091188 133.79143,13.694967 134.177925,13.483575 C134.577895,13.2475733 135.032868,13.1208398 135.49725,13.116075 C136.449075,13.116075 137.9742,13.70775 137.966903,16.158975 L137.966903,20.385225 L136.676925,20.385225 L136.676925,16.305975 C136.676925,15.16305 136.257975,14.19285 135.037875,14.189175 C134.242157,14.1970966 133.541963,14.716308 133.303275,15.475425 C133.232863,15.673251 133.202871,15.8831967 133.215075,16.092825 L133.215075,20.377875 L131.92515,20.377875 L131.9325,9.95925 Z" id="Path" fill="#0071CE"></path>
            <path d="M140.0616,15.2145 C140.0616,14.4795 140.0616,13.880475 140.006475,13.292475 L141.1494,13.292475 L141.219225,14.4648 L141.248625,14.4648 C141.724065,13.6183095 142.630178,13.1057896 143.600625,13.13445 C144.58185,13.13445 146.106975,13.726125 146.099678,16.16265 L146.099678,20.4036 L144.795,20.4036 L144.795,16.30965 C144.795,15.166725 144.37605,14.211225 143.15595,14.20755 C142.352222,14.2194923 141.649545,14.752455 141.42135,15.5232 C141.358957,15.7178712 141.329156,15.9215136 141.33315,16.1259 L141.33315,20.39625 L140.043225,20.39625 L140.0616,15.2145 Z" id="Path" fill="#0071CE"></path>
            <path d="M154.62564,16.82415 C154.62564,19.451775 152.788125,20.591025 151.07925,20.5837453 C149.157225,20.5837453 147.679875,19.165125 147.683536,16.908675 C147.683536,14.53095 149.2491,13.1418 151.215225,13.1490922 C153.2475,13.167525 154.6293,14.652225 154.62564,16.82415 Z M148.99185,16.88295 C148.99185,18.437475 149.8812,19.613475 151.141725,19.6171674 C152.40225,19.620825 153.302625,18.4632 153.3063,16.864575 C153.3063,15.66285 152.71095,14.13405 151.185825,14.1303606 C149.6607,14.1267 148.995525,15.53055 148.99185,16.88295 Z" id="Shape" fill="#0071CE"></path>
            <polygon id="Path" fill="#0071CE" points="156.272025 10.021725 157.56195 10.021725 157.536225 20.436675 156.2463 20.436675"></polygon>
            <path d="M166.139459,16.85355 C166.139459,19.481175 164.3019,20.620425 162.593025,20.6131453 C160.671,20.6131453 159.19365,19.194525 159.197311,16.938075 C159.197311,14.56035 160.762875,13.1712 162.729,13.1784922 C164.7723,13.196925 166.14675,14.681625 166.139459,16.85355 Z M160.505625,16.905 C160.505625,18.459525 161.394975,19.635525 162.6555,19.6392174 C163.916025,19.642875 164.8164,18.48525 164.820075,16.886625 C164.820075,15.6849 164.224725,14.1561 162.6996,14.1524107 C161.174475,14.14875 160.5093,15.55995 160.505625,16.905 Z" id="Shape" fill="#0071CE"></path>
            <path d="M173.89365,13.380675 C173.86425,13.895175 173.831175,14.483175 173.831175,15.3321 L173.831175,19.45545 C173.831175,21.083475 173.500425,22.0794 172.809525,22.693125 C172.086607,23.2843081 171.169699,23.5855779 170.237025,23.538375 C169.411616,23.5574591 168.596402,23.3530208 167.877675,22.9467 L168.201075,21.965475 C168.830057,22.3393599 169.549434,22.5338205 170.281125,22.52775 C171.60045,22.52775 172.57065,21.8442 172.574325,20.054475 L172.574325,19.260675 L172.544925,19.260675 C172.058617,20.0341549 171.193807,20.4862147 170.281125,20.444025 C168.5208,20.444025 167.26395,18.94095 167.26761,16.974825 C167.26761,14.571375 168.847875,13.20795 170.4759,13.211625 C171.388554,13.1633071 172.247243,13.6456041 172.6809,14.4501 L172.7103,14.4501 L172.772775,13.380675 L173.89365,13.380675 Z M172.552275,16.17 C172.570152,15.6602002 172.381082,15.1648422 172.028072,14.7966041 C171.675061,14.4283662 171.188125,14.2185564 170.678025,14.2149 C169.4469,14.2149 168.5649,15.25125 168.55755,16.893975 C168.55755,18.2868 169.2558,19.466475 170.648625,19.466475 C171.468622,19.4636736 172.193157,18.9321498 172.442025,18.150825 C172.511922,17.927249 172.546636,17.694166 172.544925,17.459925 L172.552275,16.17 Z" id="Shape" fill="#0071CE"></path>
            <path d="M176.447775,13.388025 L177.991275,17.58855 C178.1493,18.05895 178.3257,18.61755 178.4433,19.05855 L178.4727,19.05855 C178.605,18.63225 178.755675,18.092025 178.932075,17.58855 L180.350625,13.424775 L181.71405,13.424775 L179.7663,18.481575 C178.836525,20.914425 178.20075,22.156575 177.31875,22.920975 C176.870615,23.3309377 176.323472,23.6171743 175.73115,23.751525 L175.411425,22.649025 C175.825426,22.5138269 176.209663,22.3005005 176.543325,22.0206 C177.017563,21.6353612 177.395119,21.1445376 177.645825,20.58735 C177.697795,20.4912079 177.732615,20.3867457 177.748725,20.27865 C177.736944,20.1620746 177.707192,20.0480248 177.660525,19.94055 L175.051275,13.3917 L176.447775,13.388025 Z" id="Path" fill="#0071CE"></path>
            <path d="M61.4901,13.483575 C61.4901,10.9662 60.42435,8.750175 56.79345,8.73915 C55.3475421,8.71183922 53.9180625,9.0493026 52.637025,9.720375 L53.22135,11.76 C54.1403709,11.2172623 55.1859658,10.9257632 56.253225,10.91475 C58.090725,10.91475 58.39575,11.9658 58.39575,12.63465 L58.39575,12.792675 C54.39,12.763275 51.8175,14.14875 51.8175,16.982175 C51.8175,18.7131 53.10375,20.33745 55.35285,20.3448 C56.5925326,20.390893 57.7847395,19.8652382 58.58685,18.9189 L58.656675,18.9189 C58.656675,18.9189 59.1087,20.840925 61.64445,20.113275 C61.5141464,19.2276913 61.4576021,18.3328169 61.4754,17.437875 L61.4901,13.483575 Z M58.48395,16.136925 C58.4867884,16.3392509 58.4608026,16.5409504 58.406775,16.73595 C58.107948,17.5968304 57.2892863,18.1678172 56.378175,18.150825 C55.9798528,18.1808715 55.5882389,18.0356742 55.3057824,17.7532176 C55.0233258,17.4707611 54.8781285,17.0791472 54.908175,16.680825 C54.908175,15.1557 56.591325,14.73675 58.506,14.75145 L58.48395,16.136925 Z" id="Shape" fill="#0071CE"></path>
            <path d="M0,5.16705 C0,5.16705 2.598225,15.931125 3.0135,17.66205 C3.4986,19.701675 4.376925,20.45505 6.920025,19.95525 L8.57745,13.2888 C8.9964,11.631375 9.279375,10.4517 9.551325,8.76855 L9.5991,8.76855 C9.78258218,10.2915782 10.0450862,11.8040426 10.38555,13.299825 C10.38555,13.299825 11.025,16.3464 11.3925,17.937675 C11.76,19.52895 12.682425,20.532225 15.1704,19.992 L19.11,5.214825 L15.95685,5.214825 L14.5971,11.5983 C14.2296,13.45785 13.9062,14.9058 13.64895,16.614675 L13.5975,16.614675 C13.373325,14.92785 13.086675,13.53135 12.726525,11.7159 L11.3631,5.19645 L8.07765,5.19645 L6.574575,11.535825 C6.148275,13.4652 5.751375,15.0234 5.4978,16.680825 L5.4537,16.680825 C5.200125,15.129975 4.8657,13.1712 4.4982,11.3043 C4.4982,11.3043 3.627225,6.758325 3.3222,5.192775 L0,5.16705 Z" id="Path" fill="#0071CE"></path>
            <path d="M27.860175,13.39905 C27.860175,10.881675 26.7981,8.66565 23.163525,8.654625 C21.7176002,8.62715565 20.2880818,8.9646282 19.0071,9.63585 L19.591425,11.660775 C20.5104459,11.1180373 21.5560408,10.8265382 22.6233,10.815525 C24.4608,10.815525 24.765825,11.866575 24.765825,12.535425 L24.765825,12.69345 C20.74905,12.67875 18.20595,14.064225 18.1986,16.905 C18.1986,18.635925 19.481175,20.260275 21.730275,20.267625 C22.9712281,20.314861 24.1650319,19.7890994 24.96795,18.841725 L25.037775,18.841725 C25.037775,18.841725 25.493475,20.76375 28.02555,20.0361 C27.895515,19.1504881 27.838972,18.255636 27.8565,17.3607 L27.860175,13.39905 Z M24.854025,16.0524 C24.8577392,16.254775 24.8317373,16.4565999 24.77685,16.651425 C24.478023,17.5123054 23.6593613,18.0832922 22.74825,18.0663 C22.3468771,18.102046 21.9501069,17.9593765 21.6634057,17.6762149 C21.3767047,17.3930534 21.2291176,16.998086 21.259875,16.5963 C21.259875,15.071175 22.9467,14.652225 24.8577,14.666925 L24.854025,16.0524 Z" id="Shape" fill="#0071CE"></path>
            <polygon id="Path" fill="#0071CE" points="32.49435 16.89765 32.52375 5.251575 29.521275 5.24055 29.484525 20.02875 32.483325 20.0361"></polygon>
            <path d="M70.718025,5.347125 L70.688625,16.2582 C70.688625,17.761275 70.96425,18.8307 71.570625,19.4628 C72.2237729,20.0943533 73.1066374,20.4315678 74.0145,20.39625 C74.7516469,20.4035438 75.485498,20.2969371 76.1901,20.0802 L76.157025,17.73555 C75.783052,17.8271072 75.3990998,17.8715518 75.0141,17.86785 C73.99245,17.86785 73.650675,17.210025 73.65435,15.8613 L73.65435,11.6865 L76.27095,11.6865 L76.27095,8.85675 L73.65435,8.85675 L73.65435,5.35815 L70.718025,5.347125 Z" id="Path" fill="#0071CE"></path>
            <path d="M62.956425,9.007425 L62.927025,20.11695 L66.02505,20.11695 L66.02505,14.42805 C66.0221063,14.1532722 66.0454881,13.8788441 66.094875,13.608525 C66.2938657,12.4265434 67.3535065,11.5858103 68.549775,11.660775 C68.8545397,11.6691856 69.1581155,11.70237 69.4575,11.76 L69.4575,8.8494 C69.2331143,8.79978554 69.0037329,8.7763541 68.77395,8.779575 C67.3662759,8.82452587 66.1458458,9.76650833 65.74575,11.116875 L65.661225,11.116875 L65.661225,9.022125 L62.956425,9.007425 Z" id="Path" fill="#0071CE"></path>
            <path d="M34.254675,8.933925 L34.225275,20.04345 L37.24245,20.04345 L37.24245,13.527675 C37.2357877,13.2177786 37.2843191,12.9091689 37.385775,12.616275 C37.63935,11.962125 38.2494,11.19405 39.223275,11.197725 C40.443375,11.197725 41.009325,12.2304 41.00565,13.718775 L41.00565,20.0508 L44.022825,20.0508 L44.022825,13.45785 C44.0210638,13.1530241 44.0644079,12.8496147 44.15145,12.557475 C44.3950203,11.7581924 45.1313323,11.2111752 45.9669,11.20875 C47.2017,11.20875 47.8044,12.226725 47.8044,13.976025 C47.8044,13.976025 47.8044,18.669 47.8044,20.061825 L50.821575,20.061825 L50.821575,13.520325 C50.821575,10.0695 49.0833,8.698725 47.10615,8.691375 C46.3288384,8.67485342 45.5632521,8.88283768 44.90115,9.2904 C44.337942,9.64399298 43.8567983,10.1138597 43.48995,10.668525 L43.44585,10.668525 C42.9510257,9.42382673 41.7268344,8.62486535 40.38825,8.673 C39.0637776,8.59541537 37.8095832,9.27447411 37.150575,10.425975 L37.1175,10.425975 L37.1175,8.941275 L34.254675,8.933925 Z" id="Path" fill="#0071CE"></path>
            <path d="M92.51445,8.5848 C93.113475,8.5848 93.61695,8.2761 93.672075,7.875525 L94.27845,1.2054 C94.27845,0.547575 93.510375,0.003675 92.5365,-3.70912271e-05 C91.562625,-0.003675 90.79455,0.53655 90.79455,1.19805 L91.364175,7.868175 C91.42665,8.26875 91.9191,8.581125 92.51445,8.5848 Z" id="Path" fill="#FFB819"></path>
            <path d="M88.9056,10.6575 C89.20695,10.143 89.1849,9.555 88.86885,9.301425 L83.396775,5.442675 C82.82715,5.111925 81.970875,5.50515 81.485775,6.346725 C81.000675,7.1883 81.081525,8.125425 81.65115,8.456175 L87.7149,11.300625 C88.0824,11.44395 88.6116,11.175675 88.91295,10.6575 L88.9056,10.6575 Z" id="Path" fill="#FFB819"></path>
            <path d="M96.11595,10.6575 C96.413625,11.175675 96.928125,11.447625 97.30665,11.307975 L103.3851,8.4966 C103.9584,8.169525 104.042925,7.228725 103.5615,6.390825 C103.080075,5.552925 102.220125,5.148675 101.6505,5.47575 L96.16005,9.3198 C95.844,9.57705 95.82195,10.1577 96.11595,10.675875 L96.11595,10.6575 Z" id="Path" fill="#FFB819"></path>
            <path d="M92.4924,16.905 C93.091425,16.905 93.5949,17.217375 93.64635,17.61795 L94.21965,24.288075 C94.21965,24.949575 93.444225,25.486125 92.474025,25.4824874 C91.503825,25.478775 90.73575,24.93855 90.73575,24.27705 L91.342125,17.64 C91.408275,17.239425 91.900725,16.930725 92.496075,16.930725 L92.4924,16.905 Z" id="Path" fill="#FFB819"></path>
            <path d="M96.1086,14.83965 C96.40995,14.321475 96.92445,14.056875 97.302975,14.2002 L103.366725,17.0373 C103.940025,17.36805 104.0172,18.30885 103.5321,19.150425 C103.047,19.992 102.18705,20.38155 101.617425,20.0508 L96.14535,16.1994 C95.832975,15.938475 95.810925,15.357825 96.1086,14.83965 L96.1086,14.83965 Z" id="Path" fill="#FFB819"></path>
            <path d="M88.894575,14.821275 C89.19225,15.33945 89.166525,15.923775 88.850475,16.181025 L83.360025,20.0067 C82.7904,20.333775 81.934125,19.9332 81.4527,19.0953 C80.971275,18.2574 81.0558,17.312925 81.6291,16.98585 L87.70755,14.17815 C88.07505,14.034825 88.60425,14.306775 88.901925,14.82495 L88.894575,14.821275 Z" id="Path" fill="#FFB819"></path>
            <path d="M104.425125,19.26435 C104.723388,19.2744379 104.957816,19.522975 104.950475,19.8213184 C104.943134,20.1196619 104.696766,20.3563685 104.398367,20.3517747 C104.099969,20.347181 103.861004,20.1030029 103.862839,19.804575 C103.864778,19.6586972 103.924841,19.5196202 104.029711,19.4181993 C104.134582,19.3167783 104.275589,19.2613999 104.42145,19.26435 L104.425125,19.26435 Z M104.425125,19.370925 C104.185627,19.370925 103.991475,19.5650767 103.991475,19.804575 C103.991475,20.0440733 104.185627,20.2382251 104.425125,20.2382251 C104.537858,20.2382957 104.645775,20.1925315 104.724091,20.1114434 C104.802407,20.0303552 104.844391,19.920912 104.8404,19.80825 C104.844371,19.695248 104.802497,19.585439 104.724292,19.5037738 C104.646087,19.4221085 104.538193,19.3755221 104.425125,19.3746 L104.425125,19.370925 Z M104.3406,20.083875 L104.21565,20.083875 L104.21565,19.547325 C104.284682,19.5341885 104.35486,19.5280324 104.425125,19.52895 C104.490704,19.5232923 104.556374,19.5387442 104.61255,19.57305 C104.646813,19.6022959 104.665775,19.6456374 104.664,19.69065 C104.660016,19.7545779 104.613054,19.8076 104.550075,19.819275 L104.550075,19.819275 C104.605978,19.8404409 104.644633,19.8919819 104.6493,19.951575 C104.654278,19.9978365 104.667996,20.0427318 104.689725,20.083875 L104.55375,20.083875 C104.532649,20.0434688 104.51778,20.0001034 104.50965,19.95525 C104.50965,19.89645 104.46555,19.870725 104.3994,19.870725 L104.3406,19.870725 L104.3406,20.083875 Z M104.3406,19.77885 L104.3994,19.77885 C104.469225,19.77885 104.52435,19.7568 104.52435,19.698 C104.52435,19.6392 104.4876,19.613475 104.410425,19.613475 L104.3406,19.613475 L104.3406,19.77885 Z" id="Shape" fill="#FFB819"></path>
        </g>
    </g>
</svg>