<?xml version="1.0" encoding="UTF-8"?>
<svg width="202px" height="109px" viewBox="0 0 202 109" version="1.1" xmlns="http://www.w3.org/2000/svg" xmlns:xlink="http://www.w3.org/1999/xlink">
    <title>post copy 5</title>
    <g id="post-copy-5" stroke="none" stroke-width="1" fill="none" fill-rule="evenodd">
        <g id="Audi-(1)" transform="translate(57.000000, 27.000000)">
            <path d="M67.2096907,54.1920582 L71.4785577,54.1920582 L71.4785577,42.5940088 L67.2096907,42.5940088 L67.2096907,54.1920582 Z M57.7622562,45.1425861 C60.0767082,45.1425861 61.9739825,46.5594737 61.9739825,48.2979675 C61.9739825,50.0435407 60.0767082,51.4604284 57.7622562,51.4604284 C55.4478041,51.4604284 53.5505299,50.0435407 53.5505299,48.2979675 C53.5505299,46.5594737 55.4478041,45.1425861 57.7622562,45.1425861 Z M58.8878778,42.5940088 L55.3906634,38.6482649 L60.6081675,38.6482649 L65.4140562,45.1425861 C65.881801,45.8065309 66.2362758,46.9387263 66.2863371,48.076484 C66.4577593,51.5863402 62.448301,54.4762448 57.7622562,54.4762448 C53.0762113,54.4762448 49.2381753,51.598982 49.2381753,48.076484 C49.2381753,44.5484237 52.6777433,41.7910046 58.8878778,42.5940088 Z M38.8294619,49.0888356 C38.8294619,50.6629866 40.2893314,51.4604284 41.4908036,51.4604284 C42.6927814,51.4604284 44.2927216,50.575 44.2927216,49.0888356 L44.2927216,42.5940088 L48.3335314,42.5940088 L48.3335314,49.0888356 C48.3335314,53.5913222 44.3493567,54.4954603 41.4908036,54.4954603 C38.6393299,54.4954603 34.5732366,53.5913222 34.5732366,49.0888356 L34.5732366,42.5940088 L38.8294619,42.5940088 L38.8294619,49.0888356 Z M26.0167928,38.6482649 L35.8252758,54.1920582 L30.9303892,54.1920582 L29.2040314,51.4604284 L19.7186716,51.4604284 L17.9285995,54.1920582 L12.9330845,54.1920582 L22.0644753,40.1404974 L20.6804562,38.6482649 L26.0167928,38.6482649 Z M27.4584582,48.6645784 L21.5208799,48.6645784 L24.531134,44.0422479 L27.4584582,48.6645784 L27.4584582,48.6645784 Z" id="Fill-2" fill="#D8232A"></path>
            <path d="M70.9602459,26.7215299 C72.161718,26.8160902 73.286834,26.6957407 74.4630227,26.4241959 C75.1396093,26.2345696 75.7722026,26.0004443 76.4108639,25.7157521 C77.0308155,25.3992026 77.5936263,25.0578753 78.1564371,24.6538448 C78.6939644,24.2300933 79.1935665,23.7810582 79.6613113,23.2809505 C80.1103464,22.7626387 80.5148825,22.2251113 80.881999,21.6496588 C81.3239546,20.8972216 81.6592139,20.1382108 81.9444119,19.3099232 C82.1340381,18.6206948 82.2791655,17.9501763 82.3676577,17.2483062 C82.4060887,16.6986428 82.4187304,16.1666778 82.4060887,15.6230825 C82.3428799,14.7189443 82.1846052,13.8906567 81.9444119,13.0178701 C81.7734954,12.5309098 81.5833634,12.0505232 81.3745216,11.575699 C80.9007088,10.6402093 80.343966,9.83669948 79.6613113,9.04026907 C79.1935665,8.55381443 78.6939644,8.09213763 78.1564371,7.67445412 C77.4479933,7.16827835 76.7400552,6.75110052 75.9431191,6.39662577 C75.297884,6.14379072 74.6400072,5.93545464 73.9578582,5.7771799 C73.0021418,5.60575773 72.0287268,5.5369866 71.0548062,5.5622701 C69.4230088,5.69475567 67.7851433,6.1948634 66.4066866,7.09242784 C66.3116206,7.16170464 66.2044186,7.25070258 66.1098582,7.31997938 C67.1975546,8.95835052 67.9181345,10.8677608 68.3545278,12.7711031 C68.4809454,13.3844809 68.5820794,13.9988701 68.6452881,14.6178103 C68.8541299,16.5843613 68.6579299,18.5761959 68.1143345,20.4734701 C67.6526577,22.0354851 66.9381459,23.6167155 65.9955768,24.9506732 C67.4246005,25.9751608 69.2146727,26.5946067 70.9602459,26.7215299 Z M63.1370237,12.6446856 C62.9539711,12.1577253 62.7517031,11.6773387 62.5054418,11.2156619 C61.9355515,12.2907165 61.5249474,13.4350479 61.3413892,14.6430938 C61.2407608,15.3318165 61.1957562,16.0281242 61.2407608,16.7299943 C61.3348155,18.2288005 61.8162134,19.7336747 62.5302196,21.0554964 C62.9858284,20.1382108 63.3271557,19.2340727 63.5359974,18.2288005 C63.8833928,16.5080052 63.7761907,14.6870871 63.2568675,13.0047227 L63.1370237,12.6446856 Z M54.8278526,26.6203959 C56.162316,26.3989124 57.3637881,25.9498773 58.5465505,25.3046423 L59.0016536,25.0330974 C58.7483129,24.6912644 58.5278407,24.2993701 58.318999,23.9327593 C57.6105552,22.6736407 57.0664541,21.3336149 56.7119794,19.923301 C56.510217,19.1010814 56.3711577,18.2854356 56.2887335,17.4384381 C56.1881052,16.1666778 56.2376608,14.9090763 56.4409402,13.6499577 C56.8262608,11.3800046 57.6676959,9.24911082 58.9632227,7.3518366 C58.4135593,6.99129381 57.8441747,6.65603454 57.2373706,6.40319948 C56.2063093,5.9733799 55.1186129,5.68211392 53.9995649,5.60019536 C51.6724711,5.42270515 49.3959443,5.96023247 47.4354613,7.22541907 C48.8265598,9.31838763 49.6867046,11.771899 50.0346057,14.2572675 C50.1104562,15.0097046 50.1610232,15.7242165 50.1549552,16.4827216 C50.1165242,17.9693918 49.8636892,19.4176309 49.4212278,20.8400809 C48.9469093,22.3515289 48.2450392,23.7365593 47.3848943,25.064449 C49.5602871,26.4939784 52.2539918,27.024932 54.8278526,26.6203959 Z M44.5637608,12.5501253 C44.3812139,12.0439495 44.1536624,11.5504155 43.8876799,11.0826706 C43.4836495,11.8603912 43.1352428,12.6633954 42.9076912,13.5048304 C42.6862077,14.3710433 42.5471485,15.2630454 42.5471485,16.1606098 C42.5537222,16.7299943 42.6037835,17.3054469 42.7119969,17.8621897 C42.9516845,19.0257366 43.3562206,20.1260747 43.9200428,21.1626985 C44.2735062,20.4734701 44.5769082,19.7523845 44.78575,19.0065211 C44.9753763,18.2535784 45.1149412,17.5264247 45.1594402,16.7552778 C45.2034335,15.7055067 45.127583,14.6557356 44.886884,13.637316 C44.8044598,13.2767732 44.6841103,12.8980263 44.5637608,12.5501253 Z M38.0259521,12.3731407 C38.4365562,10.7605588 39.094433,9.26782062 39.9667139,7.85143866 L40.3024789,7.3518366 L40.3530459,7.27598608 C39.1444943,6.52961701 37.8484619,6.01079948 36.4512954,5.73874897 C35.4389438,5.54305464 34.3391113,5.52383918 33.314118,5.60575773 C31.8856,5.80903711 30.5253474,6.25149845 29.2990974,7.01000361 C29.1534644,7.10506959 28.9951897,7.21227165 28.8627041,7.31997938 C29.9569742,8.95835052 30.6709804,10.8677608 31.1073737,12.7711031 C31.3288572,13.7895227 31.4552747,14.8200784 31.4810639,15.8577134 C31.4932,16.8058448 31.4239232,17.7418402 31.2782902,18.6712619 C31.1700768,19.278066 31.0380969,19.8788021 30.8671804,20.4734701 C30.4060093,22.0354851 29.6909918,23.6167155 28.7489284,24.9506732 C32.0812943,27.3349077 36.9508974,27.3601912 40.3216943,25.0265237 C39.0312242,23.0978979 38.1523696,20.9791402 37.7665433,18.6899716 C37.5137082,17.1092469 37.4949985,15.5032387 37.72255,13.9154345 C37.8044686,13.3971227 37.9056026,12.8853845 38.0259521,12.3731407 Z M25.8271665,12.4737691 C25.6628237,12.0439495 25.4726918,11.6207036 25.2582876,11.2156619 C24.6954768,12.2907165 24.2838613,13.4350479 24.1008088,14.6430938 C23.9991691,15.3318165 23.9551758,16.0281242 23.9991691,16.7299943 C24.0947407,18.2288005 24.5751273,19.7336747 25.2830655,21.0554964 C25.6248985,20.366268 25.9161644,19.6891758 26.1179268,18.9433124 C26.7125948,16.8751216 26.5988191,14.4913928 25.8271665,12.4737691 Z M19.2630629,19.0065211 C19.0289376,17.7484139 18.9530871,16.4892954 19.0162959,15.2059046 C19.1998541,12.3918505 20.1292758,9.68550412 21.7165742,7.3518366 C21.1729789,6.99129381 20.5970206,6.65603454 19.9967902,6.40319948 C18.9596608,5.9733799 17.8714588,5.68211392 16.7589845,5.60019536 C15.9306969,5.5369866 15.1084773,5.58148557 14.2862577,5.68211392 C13.7679459,5.7771799 13.2557021,5.89702371 12.7495263,6.0426567 C11.9212387,6.32077526 11.1688015,6.66260825 10.4037227,7.10506959 C9.82776443,7.47168041 9.29023711,7.87672216 8.77849897,8.32525155 C8.27940258,8.79350206 7.82986186,9.28653041 7.40611031,9.83063144 C6.89993454,10.5330072 6.4827567,11.2540928 6.13485567,12.0439495 C5.86937887,12.7013206 5.67368454,13.3465557 5.50883608,14.029716 L5.41983814,14.5546015 C5.32628918,15.2691134 5.29392629,15.9831196 5.31263608,16.7047108 C5.3444933,17.2427438 5.41983814,17.7671237 5.50883608,18.2980773 C5.75560309,19.3352067 6.08428866,20.2585603 6.57782268,21.2071974 C6.83065773,21.6435907 7.10928196,22.0794784 7.40611031,22.4971619 C7.93756959,23.1803222 8.50644845,23.7684165 9.15775155,24.3372954 C9.69527887,24.7610469 10.2646634,25.1402995 10.8527577,25.4816268 C11.6304784,25.8745325 12.414267,26.1900706 13.2557021,26.4241959 C13.7613722,26.5445454 14.2928314,26.6461851 14.8111433,26.7088881 C15.3926639,26.7468134 15.9559804,26.7715912 16.531433,26.7402397 C18.1000216,26.6203959 19.5477552,26.2158598 20.945933,25.5008423 L21.3059701,25.3046423 L21.7550052,25.0330974 C21.3312536,24.4510711 20.9767789,23.7684165 20.6475876,23.1231814 C20.009432,21.8205753 19.5477552,20.4355448 19.2630629,19.0065211 Z M81.134834,28.643582 C80.5280299,29.0799753 79.8954366,29.485017 79.2441335,29.8642696 C78.5736149,30.1995289 77.8843866,30.5155727 77.1698747,30.7936912 C76.4422155,31.0404582 75.7089938,31.255368 74.9565567,31.4262845 L74.1909722,31.5653438 C72.8504407,31.7296866 71.5038412,31.7994691 70.1628041,31.6538361 C68.5315124,31.4707835 66.9952866,31.0531 65.4959747,30.4017969 C64.4335619,29.9214103 63.4535732,29.3459577 62.5110041,28.6688655 C61.4678067,29.3965247 60.3922464,30.0225443 59.2165634,30.5155727 C57.5852716,31.1865969 55.9089753,31.5779856 54.151266,31.7104711 C52.9371521,31.7807593 51.7164644,31.7170448 50.5149923,31.5208448 C48.1054742,31.0849572 45.8355211,30.1489619 43.8376186,28.7199381 C42.9835418,29.3206742 42.0920454,29.8582015 41.1368345,30.2945948 C39.1642155,31.1921593 37.0768093,31.6856933 34.9084959,31.7362603 C33.4794722,31.7549701 32.0625845,31.6032691 30.6709804,31.243232 C28.7104974,30.7309881 26.9209309,29.8582015 25.2648613,28.6688655 C24.3915691,29.2761753 23.5127144,29.8071289 22.5580093,30.2561639 C20.5783108,31.1734495 18.4155598,31.6917613 16.234099,31.7362603 C15.3233871,31.7489021 14.4313851,31.6730515 13.5338206,31.5653438 C12.7687418,31.4328582 12.0163046,31.2498057 11.2694299,31.0404582 C10.5422763,30.7936912 9.84040619,30.5155727 9.14460412,30.2055969 C8.47459124,29.8642696 7.81671443,29.485017 7.19120052,29.0799753 C6.36240722,28.4913753 5.61654381,27.8724351 4.88231082,27.176633 C4.36450464,26.632532 3.87147629,26.0636531 3.40929381,25.4755588 C2.97340619,24.8621809 2.56836443,24.2300933 2.1951799,23.5848582 C1.85385258,22.9016979 1.53780876,22.2251113 1.25311649,21.5100938 C1.00634948,20.7834459 0.797507732,20.0497186 0.620523196,19.2972814 C0.488037629,18.5200665 0.386397938,17.7484139 0.329762887,16.9636139 L0.304479381,16.1666778 L0.329762887,15.3641794 L0.386397938,14.573817 L0.488037629,13.7955907 L0.620523196,13.0305119 L0.804081443,12.2709954 L1.00634948,11.5377737 L1.25311649,10.8171938 L1.53780876,10.102682 L1.85385258,9.41395928 L2.1951799,8.74293505 L2.57493814,8.08556392 L2.97340619,7.45903866 L3.40929381,6.84566082 L3.87147629,6.26414021 C4.36450464,5.6891933 4.88231082,5.15166598 5.41983814,4.63234278 C5.98315464,4.15195619 6.58389072,3.67763763 7.19120052,3.24124433 C7.82986186,2.83670825 8.47459124,2.46301804 9.14460412,2.11562268 C9.84040619,1.80615258 10.5422763,1.52146031 11.2694299,1.27418763 C12.0163046,1.06585155 12.7687418,0.882293299 13.5338206,0.756381443 C14.6533742,0.616816495 15.7789959,0.540965979 16.9046175,0.604174742 C18.3336412,0.711376804 19.7247397,0.990001031 21.0652711,1.45774588 C22.3865871,1.94470619 23.5951387,2.55808402 24.7652593,3.34237835 L25.0236567,3.5259366 L25.2324985,3.67763763 C27.465032,2.01448866 30.1400268,0.971291237 32.9100876,0.661315464 C34.5666629,0.503040722 36.2424536,0.572317526 37.8737454,0.926792268 C39.3280526,1.24940979 40.7388722,1.76772165 42.0541201,2.47616546 C42.6862077,2.82457216 43.2869438,3.21596082 43.8750381,3.62707062 C44.8681742,2.88070155 45.9811541,2.26125567 47.1254856,1.78086907 C49.3195881,0.850941753 51.7670314,0.465115464 54.151266,0.604174742 C54.9163448,0.661315464 55.6945711,0.768517526 56.4409402,0.926792268 C58.2173593,1.31261856 59.9371433,2.02106237 61.4738747,2.99498299 C61.8096397,3.20938711 62.1570351,3.44351237 62.4730789,3.67763763 C64.0032366,2.54594794 65.7488098,1.69187113 67.5768072,1.16698557 C68.9679057,0.768517526 70.3782196,0.59153299 71.8264588,0.572317526 L72.6486784,0.59153299 L73.4638186,0.655247423 L74.2607546,0.756381443 C75.045049,0.88836134 75.7974861,1.06585155 76.5625649,1.27418763 C77.2962923,1.5148866 77.9981624,1.79351082 78.7066062,2.11562268 C79.3953289,2.45695 80.0279222,2.83064021 80.6670892,3.24124433 C81.2738933,3.67763763 81.8559196,4.13223505 82.4187304,4.63234278 C82.9623258,5.15166598 83.4685015,5.68211392 83.9428201,6.25149845 C84.4044969,6.83908711 84.8282485,7.45347629 85.2196371,8.08556392 L85.5867536,8.74293505 L85.9280809,9.41395928 L86.2254149,10.102682 L86.4974655,10.8106201 L86.7310851,11.5377737 L86.9333531,12.2709954 C87.1042696,13.0370856 87.2372608,13.7895227 87.3318211,14.573817 C87.3889619,15.3702474 87.4076716,16.1666778 87.3889619,16.9636139 C87.3318211,17.7484139 87.2306871,18.5200665 87.0916278,19.2972814 L86.9146433,20.0562923 L86.7063072,20.7900196 L86.4595402,21.5100938 C86.1814216,22.2251113 85.8714459,22.9082716 85.5235448,23.5848582 C85.0173691,24.4642186 84.4677057,25.2732907 83.8411804,26.0636531 C83.3481521,26.6386 82.8419763,27.176633 82.2923129,27.6949448 L81.7229284,28.1824108 L81.134834,28.643582 L81.134834,28.643582 Z" id="Fill-3" fill="#FFFFFE"></path>
            <path d="M25.504549,24.9066799 C23.2027387,22.6043639 21.8940644,19.6578242 21.8940644,16.1666778 C21.8940644,12.8408856 23.1400356,9.88069278 25.2451402,7.60467165 C27.3133309,9.86198299 28.5906536,12.8722371 28.5906536,16.1666778 C28.5906536,18.4558464 28.1481923,20.3849778 27.072632,22.2377531 C28.6730778,17.1537459 28.211401,13.5741072 26.250918,10.7347696 C26.6048871,11.2343716 27.566166,14.035784 27.3891814,16.1666778 C27.3891814,18.5261345 26.6686015,20.7202371 25.4413402,22.5411552 L25.504549,24.9066799 Z M86.9272851,16.1666778 C86.9272851,24.4829284 80.1416979,31.255368 71.8325268,31.255368 C68.3545278,31.255368 65.1415,30.0726057 62.5175778,28.0620613 C59.887082,30.0478278 56.6553443,31.255368 53.1459938,31.255368 C49.6806366,31.255368 46.4802505,30.0726057 43.8436866,28.1192021 C41.2061113,30.0923268 38.0259521,31.255368 34.5858784,31.255368 C31.1073737,31.255368 27.8953572,30.0726057 25.2704237,28.0620613 C22.6465015,30.0478278 19.4086959,31.255368 15.9054134,31.255368 C7.58916289,31.255368 0.804081443,24.4829284 0.804081443,16.1666778 C0.804081443,7.85143866 7.58916289,1.06585155 15.9054134,1.06585155 C19.4086959,1.06585155 22.6465015,2.27389742 25.2385665,4.29708351 C27.8382165,2.27389742 31.0820902,1.06585155 34.5858784,1.06585155 C38.0891608,1.06585155 41.2824675,2.26732371 43.8816119,4.24044845 C46.4681144,2.22939845 49.6927727,1.06585155 53.1459938,1.06585155 C56.6553443,1.06585155 59.887082,2.27389742 62.4801582,4.29708351 C65.0848649,2.27389742 68.3292443,1.06585155 71.8325268,1.06585155 C80.4582474,1.06585155 86.9272851,7.83272887 86.9272851,16.1666778 Z M71.8325268,2.64708196 C69.2773758,2.64708196 66.9255041,3.37423557 64.8952387,4.64549021 C68.2154686,1.9952732 73.5462428,1.41982062 79.6678851,3.55728814 C77.4611407,2.2167567 74.6147237,1.35054381 71.8325268,1.35054381 C68.2973871,1.35054381 65.0216562,2.63393454 62.4670108,4.72083505 L62.5054418,6.42190928 C60.0701345,4.08874742 56.7691201,2.64708196 53.1459938,2.64708196 C50.5974165,2.64708196 48.2450392,3.37423557 46.2213474,4.64549021 C49.5289356,1.9952732 54.8662835,1.41982062 60.9813521,3.55728814 C58.7741021,2.2167567 55.9347644,1.35054381 53.1459938,1.35054381 C49.6229902,1.35054381 46.4367629,2.53886856 43.8816119,4.63234278 L43.8816119,6.42190928 C41.453384,4.08874742 38.2090046,2.64708196 34.5858784,2.64708196 C32.0367954,2.64708196 29.67835,3.37423557 27.6546582,4.64549021 C30.9683144,1.9952732 36.2995943,1.41982062 42.4202253,3.55728814 C40.2134809,2.2167567 37.3741433,1.35054381 34.5858784,1.35054381 C31.0568067,1.35054381 27.7810758,2.63393454 25.2198567,4.72083505 L25.2582876,6.42190928 C22.8295541,4.08874742 19.5290454,2.64708196 15.9054134,2.64708196 C13.3568361,2.64708196 10.9978851,3.37423557 8.96812526,4.64549021 C12.2883552,1.9952732 17.6191294,1.41982062 23.740266,3.55728814 C21.533016,2.2167567 18.6876103,1.35054381 15.9054134,1.35054381 C7.74743763,1.35054381 1.08877371,8.01578144 1.08877371,16.1666778 C1.08877371,18.9999474 2.07483041,22.0986938 3.75062113,24.5967041 C0.367688144,17.9248928 2.07483041,12.8535273 4.2315134,9.69814588 C3.4027201,11.5504155 2.32210309,14.029716 2.37873814,16.1666778 C2.5875799,23.5216495 8.46194948,29.6872851 15.9054134,29.6872851 C19.6802407,29.6872851 22.8674794,28.3462479 25.3720634,25.8168861 C27.8503526,28.4033887 30.7534046,29.6872851 34.5858784,29.6872851 C38.1078706,29.6872851 41.4786675,28.2703974 43.9316732,25.7728928 C46.3422026,28.1889845 49.4844366,29.6872851 53.1459938,29.6872851 C56.9273948,29.6872851 60.1085655,28.3462479 62.6126438,25.8168861 C65.0980124,28.4033887 67.9939851,29.6872851 71.8325268,29.6872851 C79.2759907,29.6872851 85.3465603,23.6101418 85.3465603,16.1666778 C85.3465603,8.7742866 79.2254237,2.64708196 71.8325268,2.64708196 Z M42.0981134,24.8495392 C40.0870634,26.5946067 37.4504995,27.6575253 34.5858784,27.6575253 C31.8724526,27.6130263 30.6583387,27.1387077 29.5013655,26.5698289 C32.8150216,29.1497577 40.1760613,28.1505536 42.0541201,26.5313979 C40.0051448,28.0049206 37.431284,28.8524237 34.5858784,28.8524237 C31.094732,28.8524237 28.1542603,27.575101 25.8398082,25.2920005 C28.2179747,22.8703464 29.4189412,19.8287407 29.4189412,16.1666778 C29.4189412,12.6067603 28.0217747,9.35024485 25.751316,6.92808505 C27.4908211,5.18251186 30.9303892,3.47536959 34.5858784,3.47536959 C37.9121763,3.47536959 41.0417686,4.98681753 43.3193067,7.09849588 L41.6430103,7.09849588 C39.4994747,9.66628866 38.3414902,12.5814768 38.3414902,16.1666778 C38.3414902,18.9999474 39.3280526,22.0986938 40.9977753,24.5967041 C37.6148423,17.9248928 39.3280526,12.8535273 41.4786675,9.69814588 C40.6498742,11.5504155 39.5813933,14.035784 39.6319603,16.1666778 C39.7078108,19.474266 41.2061113,22.5411552 43.2363768,24.918816 L42.0981134,24.8495392 Z M43.8750381,24.6346294 C41.7375706,22.3581026 40.4668216,19.4934814 40.4668216,16.1666778 C40.4668216,12.8408856 41.7628541,9.79877423 43.8816119,7.52882113 C46.0377892,9.79220052 47.2711186,12.7963866 47.2711186,16.1666778 C47.2711186,18.4558464 46.8281515,20.3849778 45.7536026,22.2377531 C47.3530371,17.1537459 46.8913603,13.5741072 44.931383,10.7347696 C45.2858577,11.2343716 46.2466309,14.035784 46.0757144,16.1666778 C46.0757144,18.5954113 45.3106356,20.8658701 44.0146031,22.7252191 L43.8750381,24.6346294 Z M44.5329149,25.3046423 C46.7715165,22.9143397 48.1054742,19.721033 48.1054742,16.1666778 C48.1054742,12.6067603 46.8033737,9.53380309 44.5329149,7.09849588 C46.8094418,4.8604 49.7180562,3.47536959 53.1459938,3.47536959 C56.453582,3.47536959 59.5518227,4.72083505 61.8096397,6.81430928 L60.3548268,6.82088299 C58.2679263,9.36844897 57.0158871,12.6315381 57.0158871,16.1666778 C57.0158871,18.9999474 58.0024495,22.0986938 59.6782402,24.5967041 C56.2948015,17.9248928 58.0024495,12.8535273 60.1591325,9.69814588 C59.3303392,11.5504155 58.2552845,14.0231423 58.3058515,16.1666778 C58.3817021,19.7083912 59.5710381,22.6235794 61.859701,25.0710227 L60.5510268,24.9319634 C58.5526186,26.6203959 55.9600479,27.6575253 53.1459938,27.6575253 C50.4330737,27.6130263 49.3261619,27.0760046 48.0680546,26.5698289 C51.3751371,29.1497577 58.7356711,28.1505536 60.6137299,26.5313979 C58.5652603,28.0049206 55.9908938,28.8524237 53.1459938,28.8524237 C49.4970784,28.8524237 46.8792242,27.4041845 44.5329149,25.3046423 Z M46.7083077,25.1913722 C48.516584,26.4939784 50.768333,27.2524835 53.1459938,27.2524835 C55.5302284,27.2524835 57.8633902,26.4494794 59.690882,25.1660887 C57.8886737,22.6680784 56.7317005,19.474266 56.7317005,16.1666778 C56.7317005,12.8469536 57.8128232,9.76742268 59.6529567,7.23806082 C57.8310273,5.87174021 55.5807954,5.07530979 53.1459938,5.07530979 C50.768333,5.07530979 48.567151,5.8024634 46.7588747,7.09849588 C48.4978742,9.55251289 49.6740629,12.8980263 49.6740629,16.1666778 C49.6740629,19.474266 48.510516,22.6933619 46.7083077,25.1913722 Z M43.9200428,22.1366191 C45.032517,20.4102613 45.671684,18.3612861 45.671684,16.1666778 C45.671684,13.928582 45.0512268,11.8351077 43.8816119,10.1466753 C42.7554845,11.9236 42.0601881,13.9730809 42.0601881,16.1666778 C42.0601881,18.3172928 42.8444825,20.4229031 43.9200428,22.1366191 Z M41.010417,25.1463675 C39.1642155,22.5790804 38.0512356,19.4934814 38.0512356,16.1666778 C38.0512356,12.7903186 39.1763515,9.66628866 41.054916,7.1556366 C39.246134,5.89702371 36.9382557,5.07530979 34.5919464,5.07530979 C31.7773866,4.91703505 28.7044294,6.52961701 28.2553943,7.28862784 C29.925117,9.69814588 30.999666,12.9733711 30.999666,16.1666778 C30.999666,19.4676923 29.925117,22.5290191 28.0779041,25.0644535 C29.8811237,26.4560531 32.1445031,27.2524835 34.5858784,27.2524835 C36.9696072,27.2524835 39.1960727,26.4939784 41.010417,25.1463675 Z M24.6130526,25.0710227 L23.3038727,24.9319634 C21.3059701,26.6203959 18.7194675,27.6575253 15.9054134,27.6575253 C13.1924933,27.6130263 12.3884778,26.9677912 10.8138211,26.5698289 C14.1284887,29.1497577 21.4890227,28.1505536 23.3736552,26.5313979 C21.3181062,28.0049206 18.744751,28.8524237 15.9054134,28.8524237 C8.92413196,28.8524237 3.21359948,23.1550387 3.21359948,16.1666778 C3.21359948,9.17932835 8.91705258,3.47536959 15.9054134,3.47536959 C19.2124959,3.47536959 22.3112423,4.72083505 24.5690593,6.81430928 L23.1081784,6.82088299 C21.0273459,9.36844897 19.768733,12.6315381 19.768733,16.1666778 C19.768733,18.9999474 20.7618691,22.0986938 22.4310861,24.5967041 C19.0481531,17.9248928 20.7618691,12.8535273 22.9119784,9.69814588 C22.0836907,11.5504155 21.0147041,14.0231423 21.0652711,16.1666778 C21.1411216,19.7083912 22.323884,22.6235794 24.6130526,25.0710227 Z M25.2896392,22.0420588 C26.3702562,20.3283428 26.9902077,18.3172928 26.9902077,16.1666778 C26.9902077,14.0044325 26.3646938,11.9746727 25.2704237,10.2417412 C24.189301,11.9362418 23.4940046,14.0044325 23.4940046,16.1666778 C23.4940046,18.2854356 24.2459361,20.3723361 25.2896392,22.0420588 Z M22.4503015,25.1660887 C20.6475876,22.6680784 19.4840407,19.474266 19.4840407,16.1666778 C19.4840407,12.8469536 20.5661747,9.76742268 22.4058026,7.23806082 C20.5909526,5.87174021 18.3336412,5.07530979 15.9054134,5.07530979 C9.79641289,5.07530979 4.81353969,10.058183 4.81353969,16.1666778 C4.81353969,22.276184 9.79641289,27.2524835 15.9054134,27.2524835 C18.2830742,27.2524835 20.6228098,26.4494794 22.4503015,25.1660887 Z M62.7517031,24.9066799 C60.4498928,22.6043639 59.1407129,19.6578242 59.1407129,16.1666778 C59.1407129,12.8408856 60.386684,9.88069278 62.4862263,7.60467165 C64.5599794,9.86198299 65.831234,12.8722371 65.831234,16.1666778 C65.831234,18.4558464 65.3892784,20.3849778 64.313718,22.2377531 C65.9197263,17.1537459 65.4519814,13.5741072 63.4975665,10.7347696 C63.8454675,11.2343716 64.8133201,14.035784 64.6358299,16.1666778 C64.6358299,18.5261345 63.91525,20.7202371 62.6884943,22.5411552 L62.7517031,24.9066799 Z M63.0864567,25.2920005 C65.4585552,22.8703464 66.6660954,19.8287407 66.6660954,16.1666778 C66.6660954,12.6067603 65.2679175,9.35024485 62.9918964,6.92808505 C64.7374696,5.18251186 68.1709696,3.47536959 71.8325268,3.47536959 C78.8138082,3.47536959 84.511699,9.17932835 84.511699,16.1666778 C84.511699,18.4558464 84.0753057,20.3849778 83.000251,22.2377531 C84.6001912,17.1537459 84.1324464,13.5741072 82.1785371,10.7347696 C82.5259325,11.2343716 83.4937851,14.035784 83.3162948,16.1666778 C83.3162948,22.4971619 78.1564371,27.6575253 71.8325268,27.6575253 C69.1196067,27.6130263 67.9054928,27.1387077 66.7419459,26.5698289 C70.0556021,29.1497577 77.4161361,28.1505536 79.2947005,26.5313979 C77.2457253,28.0049206 74.6718644,28.8524237 71.8325268,28.8524237 C68.3413804,28.8524237 65.4014144,27.575101 63.0864567,25.2920005 Z M65.3189902,25.0644535 C67.1277722,26.4560531 69.3911515,27.2524835 71.8325268,27.2524835 C77.9349536,27.2524835 82.9183325,22.276184 82.9183325,16.1666778 C82.9183325,10.058183 77.9349536,5.07530979 71.8325268,5.07530979 C69.017967,4.91703505 65.9450098,6.52961701 65.4959747,7.28862784 C67.1656974,9.69814588 68.2407521,12.9733711 68.2407521,16.1666778 C68.2407521,19.4676923 67.1656974,22.5290191 65.3189902,25.0644535 Z M62.5367933,22.0420588 C63.6113423,20.3283428 64.2378675,18.3172928 64.2378675,16.1666778 C64.2378675,14.0044325 63.6052742,11.9746727 62.5175778,10.2417412 C61.4298814,11.9362418 60.7406531,14.0044325 60.7406531,16.1666778 C60.7406531,18.2854356 61.4870222,20.3723361 62.5367933,22.0420588 L62.5367933,22.0420588 Z" id="Fill-4" fill="#CBCCCB"></path>
        </g>
    </g>
</svg>