<?xml version="1.0" encoding="UTF-8"?>
<svg width="14px" height="11px" viewBox="0 0 14 11" version="1.1" xmlns="http://www.w3.org/2000/svg" xmlns:xlink="http://www.w3.org/1999/xlink">
    <!-- Generator: Sketch 60.1 (88133) - https://sketch.com -->
    <title>Group 10</title>
    <desc>Created with Sketch.</desc>
    <g id="Page-1" stroke="none" stroke-width="1" fill="none" fill-rule="evenodd">
        <g id="footer-5-responsive" transform="translate(-974.000000, -481.000000)">
            <g id="Group-10" transform="translate(973.000000, 479.000000)">
                <path d="M7.79779886,4.92617223 L7.82814618,5.40195325 L7.32235757,5.34369435 C5.48128705,5.12036857 3.87287928,4.36300286 2.50725005,3.09101687 L1.83960909,2.45987878 L1.66764096,2.92594998 C1.30347316,3.96490038 1.53613592,5.06210967 2.29481883,5.80005574 C2.69944972,6.20786804 2.60840777,6.26612694 1.91041949,6.02338153 C1.66764096,5.94570299 1.45520975,5.88744409 1.4349782,5.91657354 C1.3641678,5.98454226 1.60694633,6.86813558 1.799146,7.21768899 C2.06215607,7.70317982 2.59829199,8.17896084 3.18500678,8.46054553 L3.68067961,8.68387131 L3.09396483,8.69358113 C2.52748159,8.69358113 2.50725005,8.70329095 2.56794468,8.9071971 C2.77026012,9.53833519 3.56940612,10.2083125 4.45959406,10.499607 L5.08677194,10.7035132 L4.54052024,11.0142273 C3.73125847,11.4608789 2.78037589,11.7133341 1.82949331,11.7327538 C1.37428357,11.7424636 1,11.7813029 1,11.8104323 C1,11.9075305 2.2341242,12.4512802 2.95234402,12.6648962 C5.10700348,13.2960343 7.66629383,13.0241594 9.58829053,11.9463697 C10.9539198,11.1792942 12.319549,9.65485299 12.9568426,8.17896084 C13.3007789,7.39246569 13.6447151,5.95541281 13.6447151,5.26601582 C13.6447151,4.81936425 13.6750625,4.76110535 14.2415457,4.22706543 C14.5753662,3.91635129 14.8889551,3.57650771 14.9496498,3.47940954 C15.0508075,3.29492302 15.0406917,3.29492302 14.5247873,3.45998991 C13.6649467,3.75128441 13.5435574,3.71244514 13.9684199,3.27550339 C14.2820088,2.96478925 14.6562924,2.40161988 14.6562924,2.236553 C14.6562924,2.20742354 14.5045558,2.25597263 14.3325877,2.34336098 C14.1505038,2.44045915 13.7458729,2.5861064 13.4423997,2.67349475 L12.896148,2.83856163 L12.4004752,2.51813768 C12.1273493,2.34336098 11.74295,2.14916464 11.5406345,2.09090574 C11.0247302,1.95496831 10.2356999,1.97438794 9.77037443,2.12974501 C8.50590291,2.56668676 7.70675692,3.69302551 7.79779886,4.92617223 Z" id="Path-Copy-4" fill="#FFFFFF"></path>
                <rect id="Rectangle" x="0" y="0" width="16" height="16"></rect>
            </g>
        </g>
    </g>
</svg>