<?xml version="1.0" encoding="UTF-8"?>
<svg width="24px" height="24px" viewBox="0 0 24 24" version="1.1" xmlns="http://www.w3.org/2000/svg" xmlns:xlink="http://www.w3.org/1999/xlink">
    <!-- Generator: Sketch 55.1 (78136) - https://sketchapp.com -->
    <title>logo-elastic-search-24-color</title>
    <desc>Created with Sketch.</desc>
    <g id="logo-elastic-search-24-color" stroke="none" stroke-width="1" fill="none" fill-rule="evenodd">
        <path d="M1,12 C1,13.038 1.146,14.04 1.394,15 L16,15 C17.657,15 19,13.657 19,12 C19,10.343 17.657,9 16,9 L1.394,9 C1.146,9.96 1,10.962 1,12" id="Fill-1" fill="#353535"></path>
        <path d="M21.7881,5.146 C21.9821,4.933 22.1701,4.713 22.3501,4.488 C20.1511,1.754 16.7821,0 13.0001,0 C8.5281,0 4.6361,2.451 2.5711,6.078 L19.6101,6.078 C20.4331,6.078 21.2321,5.753 21.7881,5.146" id="Fill-3" fill="#FFC100"></path>
        <path d="M19.6787,18 L2.6177,18 C4.6947,21.583 8.5607,24 12.9997,24 C16.7817,24 20.1487,22.248 22.3477,19.515 C22.1927,19.322 22.0327,19.132 21.8667,18.947 C21.3157,18.329 20.5067,18 19.6787,18" id="Fill-5" fill="#00C2B3"></path>
    </g>
</svg>