<svg width="500" height="500" viewBox="0 0 500 500" fill="none" xmlns="http://www.w3.org/2000/svg">
<g id="Generic / Blue Background / patterns-hero-2-column-generic-bottom-right-500x500-mono-blue">
<g clip-path="url(#clip0)">
<g id="Group 5">
<g id="Group 3">
<g id="Group">
<path id="Oval" fill-rule="evenodd" clip-rule="evenodd" d="M349.5 294C156.477 294 0 450.7 0 644C0 837.3 156.477 994 349.5 994C542.524 994 699 837.3 699 644C699 450.7 542.524 294 349.5 294Z" fill="#006ABB"/>
</g>
<g id="Group 2">
<path id="Fill 7" fill-rule="evenodd" clip-rule="evenodd" d="M296 407H278V425H296V407Z" fill="#0883D5"/>
<path id="Fill 9" fill-rule="evenodd" clip-rule="evenodd" d="M296 361H278V379H296V361Z" fill="#0883D5"/>
<path id="Fill 10" fill-rule="evenodd" clip-rule="evenodd" d="M296 315H278V333H296V315Z" fill="#0883D5"/>
<path id="Fill 11" fill-rule="evenodd" clip-rule="evenodd" d="M296 269H278V287H296V269Z" fill="#0883D5"/>
<path id="Fill 7_2" fill-rule="evenodd" clip-rule="evenodd" d="M296 453H278V471H296V453Z" fill="#0883D5"/>
<path id="Fill 17" fill-rule="evenodd" clip-rule="evenodd" d="M342 407H324V425H342V407Z" fill="#0883D5"/>
<path id="Fill 18" fill-rule="evenodd" clip-rule="evenodd" d="M342 361H324V379H342V361Z" fill="#0883D5"/>
<path id="Fill 19" fill-rule="evenodd" clip-rule="evenodd" d="M342 315H324V333H342V315Z" fill="#0883D5"/>
<path id="Fill 20" fill-rule="evenodd" clip-rule="evenodd" d="M342 269H324V287H342V269Z" fill="#0883D5"/>
<path id="Fill 21" fill-rule="evenodd" clip-rule="evenodd" d="M342 223H324V241H342V223Z" fill="#0883D5"/>
<path id="Fill 11_2" fill-rule="evenodd" clip-rule="evenodd" d="M296 223H278V241H296V223Z" fill="#0883D5"/>
<path id="Fill 21_2" fill-rule="evenodd" clip-rule="evenodd" d="M342 177H324V195H342V177Z" fill="#0883D5"/>
</g>
</g>
</g>
</g>
</g>
<defs>
<clipPath id="clip0">
<rect width="500" height="500" fill="white"/>
</clipPath>
</defs>
</svg>
