<?xml version="1.0" encoding="UTF-8"?>
<svg width="202px" height="109px" viewBox="0 0 202 109" version="1.1" xmlns="http://www.w3.org/2000/svg" xmlns:xlink="http://www.w3.org/1999/xlink">
    <!-- Generator: Sketch 64 (93537) - https://sketch.com -->
    <title>post copy 3</title>
    <desc>Created with Sketch.</desc>
    <g id="post-copy-3" stroke="none" stroke-width="1" fill="none" fill-rule="evenodd">
        <g id="logoparade-lenovo" transform="translate(30.000000, 39.000000)" fill="#E60012" fill-rule="nonzero">
            <g id="g13605" transform="translate(57.979096, 18.782088) scale(-1, 1) rotate(90.000000) translate(-57.979096, -18.782088) translate(46.479096, 7.282088)">
                <path d="M6.39488462e-15,13.5975352 C6.39488462e-15,11.0278471 1.19121414,8.10538563 3.57605868,6.31977253 L3.57122618,6.32098066 L3.5724343,6.31977253 L0.37451966,6.32098066 L0.37451966,0.192147652 L22.6934751,0.192147652 L22.6934751,6.31977253 L9.99363427,6.31977253 C7.70785622,6.31977253 5.27831094,8.09209622 5.27831094,11.3733717 C5.27831094,13.9092322 7.04217772,16.533286 9.99363427,16.533286 L22.6934751,16.533286 L22.6934751,22.6621191 L8.85799401,22.6621191 C3.72465842,22.6621191 6.39488462e-15,18.9894102 6.39488462e-15,13.5975352" id="path13607"></path>
            </g>
            <g id="g13609" transform="translate(107.578109, 19.157573) scale(-1, 1) rotate(90.000000) translate(-107.578109, -19.157573) translate(96.078109, 6.157573)">
                <polygon id="path13611" points="0 18.121919 15.2030819 12.5814443 0 7.0409696 0 0.0398682218 22.3117067 9.22284865 22.3117067 15.9388318 0 25.1218122"></polygon>
            </g>
            <g id="g13613" transform="translate(33.125862, 19.132400) scale(-1, 1) rotate(90.000000) translate(-33.125862, -19.132400) translate(21.125862, 7.132400)">
                <path d="M7.2487676,7.2487676 C5.8473392,8.29259015 5.02460407,9.95497418 5.02460407,11.9628828 C5.02460407,14.1713407 6.28588964,15.8470141 8.14761478,16.7132419 L12.5899012,6.00560396 C10.3101638,5.713237 8.52696697,6.2967628 7.2487676,7.2487676 M15.9811163,19.0231825 C17.8899584,16.4438293 18.3454227,14.9699132 18.3454227,12.6176881 C18.3454227,10.501048 17.688201,8.84349648 16.535647,7.67523676 L10.0359187,23.343448 C7.61362224,23.0015477 5.44986511,22.0821624 3.80439486,20.6674446 C1.41350968,18.6087946 0.148599735,15.5618959 0.148599735,11.851735 C0.148599735,5.11279742 5.12004619,0.0314113262 11.6862215,0.0314113262 C18.4227429,0.0314113262 23.2226351,5.1248787 23.2226351,12.5270785 C23.2226351,16.6745817 21.2570111,20.9151108 18.9603598,22.8988568 L15.9811163,19.0231825 Z" id="path13615"></path>
            </g>
            <g id="g13617" transform="translate(10.534969, 15.185543) scale(-1, 1) rotate(90.000000) translate(-10.534969, -15.185543) translate(-4.465031, 4.685543)">
                <polygon id="path13619" points="24.1625587 20.5381749 24.1625587 6.60845981 0.796156308 6.60845981 0.796156308 0.396265963 29.7900186 0.396265963 29.7900186 20.5381749"></polygon>
            </g>
            <g id="g13621" transform="translate(131.123597, 18.492212) scale(-1, 1) rotate(90.000000) translate(-131.123597, -18.492212) translate(119.123597, 5.992212)">
                <path d="M6.04063967,12.0812793 C6.04063967,8.65865291 8.63449035,6.17353375 12.3241131,6.17353375 C15.8470141,6.17353375 18.6075864,8.80604452 18.6075864,12.163432 C18.6075864,15.5872666 15.9424562,18.0711777 12.3241131,18.0711777 C8.801212,18.0711777 6.04063967,15.4398749 6.04063967,12.0812793 M23.8593185,12.0812793 C23.8593185,5.37858556 18.8661258,0.126853433 12.3241131,0.126853433 C5.8557961,0.126853433 0.788907541,5.4148294 0.788907541,12.163432 C0.788907541,18.8661258 5.7821003,24.1166499 12.3241131,24.1166499 C18.7912219,24.1166499 23.8593185,18.829882 23.8593185,12.0812793" id="path13623"></path>
            </g>
            <g id="g13625" transform="translate(83.937744, 18.492212) scale(-1, 1) rotate(90.000000) translate(-83.937744, -18.492212) translate(71.937744, 5.992212)">
                <path d="M6.04063967,12.0812793 C6.04063967,8.65865291 8.63449035,6.17474188 12.3241131,6.17474188 C15.8470141,6.17474188 18.6075864,8.80604452 18.6075864,12.1646402 C18.6075864,15.5872666 15.9424562,18.0711777 12.3241131,18.0711777 C8.801212,18.0711777 6.04063967,15.4398749 6.04063967,12.0812793 M23.8593185,12.0812793 C23.8593185,5.37858556 18.8661258,0.128061562 12.3241131,0.128061562 C5.8557961,0.128061562 0.788907541,5.4148294 0.788907541,12.1646402 C0.788907541,18.8661258 5.7821003,24.1178579 12.3241131,24.1178579 C18.7912219,24.1178579 23.8593185,18.829882 23.8593185,12.0812793" id="path13627"></path>
            </g>
        </g>
    </g>
</svg>