<?xml version="1.0" encoding="UTF-8"?>
<svg width="32px" height="32px" viewBox="0 0 32 32" version="1.1" xmlns="http://www.w3.org/2000/svg" xmlns:xlink="http://www.w3.org/1999/xlink">
    <!-- Generator: Sketch 55.1 (78136) - https://sketchapp.com -->
    <title>icon-real-time-32-color</title>
    <desc>Created with Sketch.</desc>
    <g id="icon-real-time-32-color" stroke="none" stroke-width="1" fill="none" fill-rule="evenodd">
        <path d="M21.5071544,28.8754665 C19.7802343,29.6140775 17.9174314,29.9999 16.0004,29.9999 C8.26804043,29.9999 2.0004,23.7319709 2.0004,15.9999 C2.0004,12.9257715 2.99266949,10.0044105 4.79982565,7.59966503 L3.20097435,6.39813497 C1.1356095,9.14647343 0.0004,12.488667 0.0004,15.9999 C0.0004,24.8365198 7.16345031,31.9999 16.0004,31.9999 C18.1892708,31.9999 20.3194795,31.5586926 22.2936456,30.7143335 L21.5071544,28.8754665 Z" id="Stroke-1" fill="#535966" fill-rule="nonzero"></path>
        <polygon id="Stroke-3" fill="#00BFB3" fill-rule="nonzero" points="17 15.5193752 17 9 15 9 15 16.4806248 20.375305 20.7808688 21.624695 19.2191312"></polygon>
        <polygon id="Stroke-5" fill="#00BFB3" fill-rule="nonzero" points="17 6 17 4 15 4 15 6"></polygon>
        <polygon id="Stroke-7" fill="#00BFB3" fill-rule="nonzero" points="15 26 15 28 17 28 17 26"></polygon>
        <polygon id="Stroke-9" fill="#00BFB3" fill-rule="nonzero" points="6 15 4 15 4 17 6 17"></polygon>
        <polygon id="Stroke-11" fill="#00BFB3" fill-rule="nonzero" points="26 17 28 17 28 15 26 15"></polygon>
        <path d="M5.82863707,3.387761 L0.809511129,6.58870977 L6.0917943,9.3327219 L5.82863707,3.387761 Z M3.98376293,6.936439 L4.80688887,6.41149023 L3.9406057,5.9614781 L3.98376293,6.936439 Z" id="Stroke-13" fill="#535966" fill-rule="nonzero"></path>
        <path d="M10.4928456,3.12453348 C12.2197657,2.3859225 14.0825686,2.0001 15.9996,2.0001 C23.7319596,2.0001 29.9996,8.26802906 29.9996,16.0001 C29.9996,19.0742285 29.0073305,21.9955895 27.2001743,24.400335 L28.7990257,25.601865 C30.8643905,22.8535266 31.9996,19.511333 31.9996,16.0001 C31.9996,7.16348018 24.8365497,0.0001 15.9996,0.0001 C13.8107292,0.0001 11.6805205,0.441307397 9.70635444,1.28566652 L10.4928456,3.12453348 Z" id="Stroke-15" fill="#535966" fill-rule="nonzero"></path>
        <path d="M26.1713629,28.612239 L31.1904889,25.4112902 L25.9082057,22.6672781 L26.1713629,28.612239 Z M28.0162371,25.063561 L27.1931111,25.5885098 L28.0593943,26.0385219 L28.0162371,25.063561 Z" id="Stroke-17" fill="#535966" fill-rule="nonzero"></path>
    </g>
</svg>