<?xml version="1.0" encoding="UTF-8"?>
<svg width="32px" height="32px" viewBox="0 0 32 32" version="1.1" xmlns="http://www.w3.org/2000/svg" xmlns:xlink="http://www.w3.org/1999/xlink">
    <!-- Generator: Sketch 55.1 (78136) - https://sketchapp.com -->
    <title>icon-product-features-alerting-32-color</title>
    <desc>Created with Sketch.</desc>
    <g id="icon-product-features-alerting-32-color" stroke="none" stroke-width="1" fill="none" fill-rule="evenodd">
        <g id="watcher" transform="translate(0.000000, 1.000000)">
            <path d="M8.2632,21.5957 C6.1692,19.2217 5.0152,16.1687 5.0152,12.9997 C5.0152,9.8337 6.1672,6.7827 8.2582,4.4097 L9.7592,5.7327 C7.9902,7.7407 7.0152,10.3217 7.0152,12.9997 C7.0152,15.6817 7.9912,18.2647 9.7632,20.2737 L8.2632,21.5957 Z" id="Fill-1" fill="#535966"></path>
            <path d="M4.8604,25.8652 C1.7264,22.3102 0.0004,17.7412 0.0004,12.9982 C0.0004,8.2592 1.7234,3.6922 4.8524,0.1402 L6.3774,1.4842 C3.5744,4.6642 2.0314,8.7532 2.0314,12.9982 C2.0314,17.2462 3.5774,21.3392 6.3834,24.5212 L4.8604,25.8652 Z" id="Fill-3" fill="#535966"></path>
            <path d="M23.7681,21.5957 L22.2681,20.2737 C24.0401,18.2647 25.0161,15.6817 25.0161,12.9997 C25.0161,10.3217 24.0411,7.7407 22.2721,5.7327 L23.7731,4.4097 C25.8641,6.7827 27.0161,9.8337 27.0161,12.9997 C27.0161,16.1687 25.8621,19.2217 23.7681,21.5957" id="Fill-5" fill="#535966"></path>
            <path d="M27.1709,25.8652 L25.6479,24.5212 C28.4539,21.3392 29.9999,17.2462 29.9999,12.9982 C29.9999,8.7532 28.4569,4.6642 25.6539,1.4842 L27.1789,0.1402 C30.3079,3.6922 32.0309,8.2592 32.0309,12.9982 C32.0309,17.7412 30.3049,22.3102 27.1709,25.8652" id="Fill-7" fill="#535966"></path>
            <path d="M16.0156,16 C14.3616,16 13.0156,14.654 13.0156,13 C13.0156,11.346 14.3616,10 16.0156,10 C17.6696,10 19.0156,11.346 19.0156,13 C19.0156,14.654 17.6696,16 16.0156,16 M21.0156,13 C21.0156,10.243 18.7726,8 16.0156,8 C13.2586,8 11.0156,10.243 11.0156,13 C11.0156,15.414 12.7366,17.435 15.0156,17.898 L15.0156,29 L17.0156,29 L17.0156,17.898 C19.2946,17.435 21.0156,15.414 21.0156,13" id="Fill-9" fill="#00BFB3"></path>
        </g>
    </g>
</svg>